<?xml version="1.0" encoding="UTF-8"?>
<svg width="403px" height="235px" viewBox="0 0 403 235" version="1.1" xmlns="http://www.w3.org/2000/svg" xmlns:xlink="http://www.w3.org/1999/xlink">
    <!-- Generator: Sketch 52.6 (67491) - http://www.bohemiancoding.com/sketch -->
    <title>homeimg2_20191120</title>
    <desc>Created with Sketch.</desc>
    <g id="homeimg2_20191120" stroke="none" stroke-width="1" fill="none" fill-rule="evenodd">
        <g id="Group">
            <g id="Group-141" transform="translate(0.500000, 0.000000)">
                <path d="M26.2146866,234.156319 C26.2146866,234.156319 -37.2699747,169.370921 33.3491059,111.44762 C103.968547,53.5239586 184.762262,126.851136 205.066504,96.7922704 C225.370385,66.7330446 218.277751,15.0288565 292.115713,2.46167366 C371.369509,-11.0272995 427.706423,77.1007543 389.619445,113.57433 C351.532826,150.047905 356.293789,178.611158 364.228246,190.910701 C372.163423,203.210964 372.963461,228.361179 354.713525,234.156319 L26.2146866,234.156319 Z" id="Fill-1" fill="#EEEEEE"></path>
                <path d="M235.925587,234.248138 C236.753001,228.095665 237.234969,219.057148 238.212232,219.839175 C239.286394,220.698288 237.95648,228.930283 238.300125,234.248138 L277.345996,234.248138 C275.574458,214.017019 270.155743,205.162213 270.155743,205.162213 L216.053243,201.996643 C205.631141,213.145659 205.007609,229.396761 205.070286,234.248138 L235.925587,234.248138 Z" id="Fill-3" fill="#295A92"></path>
                <path d="M249.331315,101.769902 C249.331315,101.769902 249.555728,112.845434 247.567702,111.993526 C245.580035,111.141617 239.233406,109.142424 240.085315,111.367832 C240.937223,113.59252 242.468497,124.489026 255.384008,127.045112 C268.299159,129.601198 270.855245,113.57451 270.855245,113.57451 C270.855245,113.57451 272.598685,110.203257 262.649185,111.557666 C262.649185,111.557666 260.723476,112.969709 261.53504,101.769902 C262.346965,90.5700957 249.331315,101.769902 249.331315,101.769902" id="Fill-5" fill="#DCC1AC"></path>
                <path d="M135.798842,234.248138 C137.781466,230.641665 140.243535,228.738288 140.243535,228.738288 C141.279514,230.068202 141.601906,232.170417 141.610191,234.248138 L177.384229,234.248138 C173.965068,192.740557 161.066487,200.65232 161.066487,200.65232 L113.408234,202.945089 C102.873385,214.528525 98.3706968,227.666288 96.654272,234.248138 L135.798842,234.248138 Z" id="Fill-7" fill="#DB8B34"></path>
                <path d="M144.009584,89.6643349 C144.009584,89.6643349 154.570729,80.2011253 155.77817,74.1206952 C156.985251,68.0402651 161.243353,43.8860446 135.926358,36.15655 C110.609003,28.4270554 111.897853,34.868421 112.219525,36.15655 C112.219525,36.15655 103.846326,33.2578995 95.4727667,43.8860446 C87.0992075,54.5138296 86.455143,57.6033941 85.8110785,71.8394532 C85.167014,86.0751522 88.3873366,90.1888081 70.3524495,113.57433 C52.3172022,136.960211 83.8785247,145.655442 83.8785247,145.655442 L155.77817,129.056012 C155.77817,129.056012 145.526449,117.636475 144.009584,106.686658 C142.492718,95.7368403 144.009584,89.6643349 144.009584,89.6643349" id="Fill-9" fill="#C9651B"></path>
                <path d="M121.453205,100.985426 C121.453205,100.985426 123.332808,109.583759 122.175437,110.245114 C121.018066,110.906469 111.923716,113.717587 106.30148,114.874958 C100.679963,116.031969 106.362356,127.763453 119.960474,128.754765 C133.558592,129.746076 149.089625,128.424447 152.06356,122.806894 C155.037135,117.18934 158.672066,112.563458 152.06356,111.902463 C145.454695,111.241829 135.819302,111.902463 133.532297,112.233141 C131.246012,112.563458 134.328372,99.7030602 135.926286,98.367743 C137.52384,97.032786 121.453205,100.985426 121.453205,100.985426" id="Fill-11" fill="#F1E5D5"></path>
                <path d="M131.849156,54.5964989 C131.849156,54.5964989 143.942656,55.0802677 146.603204,66.6899989 C149.263753,78.3000903 150.472995,98.3752355 135.477242,104.180101 C120.481129,109.984967 110.08064,91.361128 109.838575,89.4256925 C109.838575,89.4256925 106.936323,97.4076978 101.85693,89.667757 C96.7778978,81.9278161 103.066532,78.5417946 106.210849,82.4119452 C106.210849,82.4119452 106.936323,54.3547946 131.849156,54.5964989" id="Fill-13" fill="#FDF3E4"></path>
                <path d="M133.228455,74.1205871 C133.228455,75.1652108 134.571697,82.0316301 135.76581,85.0167323 C135.76581,85.0167323 137.258541,86.8080817 131.138848,86.8080817" id="Stroke-15" stroke="#EA9D58" stroke-width="0.9"></path>
                <path d="M126.511705,93.6738527 C126.511705,93.6738527 127.4072,95.4652022 134.571877,93.6738527" id="Stroke-17" stroke="#EA9D58" stroke-width="0.9"></path>
                <path d="M138.004799,68.7472591 C138.004799,68.7472591 141.13939,68.1500226 142.482632,68.7472591" id="Stroke-19" stroke="#EA9D58" stroke-width="0.9"></path>
                <path d="M124.088683,89.6439468 C124.088683,89.6439468 115.615704,89.6439468 115.316726,81.7329038 C115.018468,73.8218608 122.481403,70.0907532 126.511849,72.6281081 C129.350704,74.4158554 131.300548,77.4625543 131.631226,80.4642263 C131.770269,81.723178 131.624022,82.9742048 131.138812,84.1211296 C129.496952,88.0017263 126.063022,89.8852909 124.088683,89.6439468 Z" id="Stroke-21" stroke="#EA9D58" stroke-width="0.9"></path>
                <path d="M135.926178,79.0460957 C135.926178,79.0460957 136.363119,71.797128 142.482452,71.8392731 C148.602146,71.8814183 150.094877,80.0910796 146.960646,84.8675312 C143.826054,89.6439828 135.937345,88.3003806 135.926178,79.0460957 Z" id="Stroke-23" stroke="#EA9D58" stroke-width="0.9"></path>
                <path d="M120.877366,80.4633978 C120.877366,80.4633978 118.814414,79.2646022 120.877366,77.2016505 C122.940317,75.1390591 124.252581,80.5376022 120.877366,80.4633978" id="Fill-25" fill="#EA9D58"></path>
                <path d="M141.181319,78.5979161 C141.181319,78.5979161 140.168034,77.1916366 141.648878,76.0220183 C143.130083,74.8527602 144.377508,76.7237172 143.909588,78.2049215 C143.442029,79.6861258 142.038631,79.6926097 141.181319,78.5979161" id="Fill-27" fill="#EA9D58"></path>
                <path d="M106.30166,114.874814 C106.30166,114.874814 111.945509,126.092271 129.963466,123.976728 C147.982144,121.861185 149.745036,110.754314 149.745036,110.754314 C149.745036,110.754314 148.511299,109.167206 161.028412,111.811905 C173.545885,114.456244 185.005047,124.505524 188.002396,131.910104 C190.999385,139.314685 177.424321,170.69626 174.251187,176.161803 C171.077332,181.626986 172.664079,203.135427 168.609498,206.308922 C164.554558,209.482416 157.002649,221.470733 106.30166,214.242298 C106.30166,214.242298 101.438756,209.482416 99.3232134,189.912653 C99.3232134,189.912653 79.6774446,189.919137 73.5415414,165.376604 C67.4059984,140.834072 83.549036,116.379792 106.30166,114.874814" id="Fill-29" fill="#F39F32"></path>
                <path d="M130.541611,177.491033 C130.541611,177.491033 126.360235,178.543941 126.511525,163.402302 C126.662816,148.260662 126.507563,134.239291 126.507563,134.239291 C126.507563,134.239291 125.340826,128.673968 137.29024,128.604807 C149.239294,128.535646 186.221133,128.604807 186.221133,128.604807 C186.221133,128.604807 194.629993,126.634431 194.629993,134.001549 C194.629993,141.368667 193.204262,170.83678 193.204262,170.83678 C193.204262,170.83678 193.441644,176.09664 186.074885,177.506522 C178.707767,178.916764 130.541611,177.491033 130.541611,177.491033" id="Fill-31" fill="#71706C"></path>
                <path d="M122.952456,177.44986 C122.952456,177.44986 128.299489,176.974016 130.330741,175.234898 C132.361994,173.495419 130.995338,171.383839 133.604016,167.284231 C136.213053,163.184624 136.834064,166.66322 135.343134,171.756301 C133.852924,176.849742 141.555042,171.011016 146.027112,169.271898 C150.499182,167.53278 150.250634,171.383839 146.523849,174.11679 C146.523849,174.11679 148.326365,172.62586 149.350456,174.365339 C150.374908,176.104457 148.262967,176.47728 148.262967,176.47728 C148.262967,176.47728 150.996279,175.565575 151.244467,177.44986 C151.492655,179.334145 150.002085,178.961323 150.002085,178.961323 C150.002085,178.961323 152.542682,179.458419 151.272204,180.949349 C150.002085,182.439919 148.883978,183.06093 147.14486,183.185204 C145.405741,183.309478 144.287634,186.663441 137.952172,185.172871 C131.616709,183.682301 126.026532,186.290978 126.026532,186.290978 L122.952456,177.44986 Z" id="Fill-33" fill="#FDF3E4"></path>
                <path d="M87.8473382,77.5141371 C87.8473382,77.5141371 90.0723866,90.0499812 80.9506608,93.6737446 C71.8296554,97.2978683 66.1962522,103.74968 64.7860102,109.088788" id="Stroke-35" stroke="#B55921" stroke-width="0.9"></path>
                <path d="M91.1845866,59.4780253 C91.1845866,59.4780253 86.5125973,53.471079 80.2833984,58.3656812 C74.0541995,63.2599231 82.6150704,63.6658855 82.5080866,60.3681167 C82.4011027,57.0696274 70.8241511,64.0149339 70.8241511,64.0149339" id="Stroke-37" stroke="#B55921" stroke-width="0.9"></path>
                <path d="M129.963646,37.6758651 C129.963646,37.6758651 132.322334,31.4466661 138.004727,31.2244134 C143.68748,31.0018005 140.964254,36.9449887 138.004727,34.4501392 C135.0452,31.9549296 140.127834,28.1096339 145.244689,30.1120694" id="Stroke-39" stroke="#B55921" stroke-width="0.9"></path>
                <path d="M111.889928,99.7186935 C111.889928,99.7186935 113.90317,108.296134 107.075654,111.447656" id="Stroke-41" stroke="#B55921" stroke-width="0.9"></path>
                <path d="M109.001508,99.7186935 C109.001508,99.7186935 109.714013,107.596237 104.149411,111.447656" id="Stroke-43" stroke="#B55921" stroke-width="0.9"></path>
                <path d="M105.325153,100.50634 C105.325153,100.50634 106.025411,109.0492 100.9489,113.574222" id="Stroke-45" stroke="#B55921" stroke-width="0.9"></path>
                <path d="M149.504268,60.2283532 C149.504268,60.2283532 153.213763,68.5190629 148.499989,75.6469984" id="Stroke-47" stroke="#B55921" stroke-width="0.9"></path>
                <path d="M158.50788,155.865126 C158.50788,155.865126 155.893439,150.874706 158.50788,147.072276 C161.12196,143.269846 165.874638,145.408803 164.211165,149.448975 C162.547691,153.488427 166.089686,152.062696 164.556251,155.865126 C163.022815,159.667556 158.50788,155.865126 158.50788,155.865126" id="Fill-49" fill="#FDF3E4"></path>
                <path d="M240.321363,69.1732495 C240.321363,69.1732495 240.321363,80.2124 239.150304,86.4008946 C237.979605,92.5897495 238.146745,101.788922 247.513417,104.966739 C256.880089,108.144556 267.41746,103.79604 272.268116,93.4258086 C272.268116,93.4258086 272.602396,96.4368462 275.111294,93.5929484 C277.620191,90.7494108 280.965509,86.0662548 278.456251,85.0626957 C275.947353,84.0591366 273.940595,86.2333946 273.438815,85.2301957 C272.937035,84.2266366 274.107734,79.5431204 276.281992,76.0306634 C278.456251,72.5182065 283.809046,65.8279323 272.937035,62.8172548 C262.065025,59.8065774 257.716148,51.9452441 240.321363,69.1732495" id="Fill-51" fill="#EBCEB6"></path>
                <path d="M289.997253,56.6286882 C284.979457,45.7566774 274.107806,45.9238172 269.59179,46.425957 C265.075414,46.9273763 260.392258,47.2620161 254.872683,43.7495591 C249.353108,40.2371022 230.954763,40.9063817 230.954763,58.395543 C230.954763,75.8847043 246.67707,74.6923925 253.367704,72.5181344 C260.057978,70.3438763 262.901156,62.650043 269.424651,65.3264409 C275.947425,68.0024785 273.438527,76.1980914 273.438527,76.1980914 C271.598909,79.3759086 271.431409,80.7141075 273.438527,85.2301237 C273.940667,86.2336828 275.947425,84.0590645 278.456323,85.0629839 C280.768903,85.9880161 278.108715,90.0375538 275.713285,92.8926183 C275.997134,93.470043 276.383645,94.0290968 276.950984,94.5964355 C279.459882,97.1053333 282.972339,84.3937043 286.484796,78.0380699 C289.997253,71.6820753 295.015409,67.5006989 289.997253,56.6286882" id="Fill-53" fill="#2B5CA9"></path>
                <path d="M260.437465,74.314743 C260.437465,74.314743 265.982255,73.8990548 266.952315,74.314743 C267.922374,74.7304312 268.615427,75.5621677 266.952315,75.7008505 C265.288841,75.8391731 256.279142,76.6709097 260.437465,74.314743" id="Fill-55" fill="#2B5CA9"></path>
                <path d="M237.999994,83.4414758 C238.065192,82.3723575 237.012644,77.7799758 237.844381,77.3639274 C238.676117,76.9482392 242.263499,77.0689113 243.511284,77.0689113 C244.758709,77.0689113 249.9033,76.1165027 250.180305,78.7503952 C250.457671,81.3835672 250.873359,84.4331478 248.655875,84.9875188 C246.438031,85.5418898 237.863832,85.6856156 237.999994,83.4414758" id="Fill-57" fill="#EBCEB6"></path>
                <path d="M237.999994,83.4414758 C238.065192,82.3723575 237.012644,77.7799758 237.844381,77.3639274 C238.676117,76.9482392 242.263499,77.0689113 243.511284,77.0689113 C244.758709,77.0689113 249.9033,76.1165027 250.180305,78.7503952 C250.457671,81.3835672 250.873359,84.4331478 248.655875,84.9875188 C246.438031,85.5418898 237.863832,85.6856156 237.999994,83.4414758 Z" id="Stroke-59" stroke="#2B5CA9" stroke-width="0.9"></path>
                <path d="M256.140568,82.1916376 C256.140568,82.1916376 255.863202,78.8888258 256.833982,78.4731376 C257.804041,78.0570892 265.843681,77.7800839 267.090745,78.4731376 C268.33817,79.1661914 269.446912,78.8412774 269.169906,82.1916376 C268.892541,85.5419978 268.061165,84.8082398 264.734218,85.1749387 C261.407992,85.5419978 255.447514,85.9101376 256.140568,82.1916376" id="Fill-61" fill="#EBCEB6"></path>
                <path d="M256.140568,82.1916376 C256.140568,82.1916376 255.863202,78.8888258 256.833982,78.4731376 C257.804041,78.0570892 265.843681,77.7800839 267.090745,78.4731376 C268.33817,79.1661914 269.446912,78.8412774 269.169906,82.1916376 C268.892541,85.5419978 268.061165,84.8082398 264.734218,85.1749387 C261.407992,85.5419978 255.447514,85.9101376 256.140568,82.1916376 Z" id="Stroke-63" stroke="#2B5CA9" stroke-width="0.9"></path>
                <path d="M250.38977,81.121907 C250.38977,81.121907 254.282975,80.4612726 256.104222,81.121907" id="Stroke-65" stroke="#2B5CA9"></path>
                <path d="M252.064915,79.0956973 C252.064915,79.0956973 251.695334,84.2590199 250.405044,86.6562511 C249.114393,89.0534823 248.560742,90.620778 251.234619,90.8052081 C253.908855,90.9896382 256.767162,90.8052081 256.767162,90.8052081" id="Stroke-67" stroke="#2B5CA9" stroke-width="0.9"></path>
                <path d="M250.773904,97.4434312 C250.773904,97.4434312 253.81628,97.2590011 255.383936,97.4434312" id="Stroke-69" stroke="#2B5CA9" stroke-width="0.9"></path>
                <path d="M177.959853,52.4935995 C177.959853,52.4935995 175.921396,83.7509005 177.959853,85.2803737 C179.99867,86.8091263 195.574369,88.1048199 197.413627,85.0455134 C199.252165,81.9865672 199.47874,55.3112016 199.47874,52.4935995 C199.47874,49.6763575 174.78888,49.5243468 177.959853,52.4935995" id="Fill-71" fill="#C9651B"></path>
                <path d="M185.434999,58.378757 C185.434999,58.378757 184.302123,64.2855634 185.434999,63.9981118 C186.567876,63.7106602 204.04515,64.7592462 203.687456,64.0081978 C203.329763,63.2575097 203.829381,60.5220366 203.69286,58.378757 C203.556338,56.2354774 183.623118,55.7653968 185.434999,58.378757" id="Fill-73" fill="#F39F32" opacity="0.480538504"></path>
                <path d="M172.750098,67.9258608 C172.750098,67.9258608 185.219663,67.611393 188.272125,67.9258608 C191.324227,68.2406887 189.965136,72.2657317 189.965136,74.1039091 C189.965136,75.9420866 187.826179,75.7879145 184.931491,75.6384253 C182.037163,75.4892962 173.203249,76.6016403 172.750098,75.0260597 C172.296948,73.450479 172.750098,67.9258608 172.750098,67.9258608" id="Fill-75" fill="#DB8B34"></path>
                <path d="M187.020414,79.0791634 C187.020414,79.0791634 202.685806,78.8183677 203.687565,79.0791634 C204.688962,79.3399591 204.331269,82.279314 203.717102,83.6409269 C203.102935,85.0025398 189.965172,84.0911957 188.266398,83.6409269 C186.567624,83.1906581 187.020414,79.0791634 187.020414,79.0791634" id="Fill-77" fill="#F39F32" opacity="0.480538504"></path>
                <path d="M309.849893,167.403606 C309.849893,167.403606 308.020721,176.942461 309.849893,176.478144 C311.678705,176.013467 339.903716,177.707198 339.325931,176.494714 C338.748506,175.28187 339.555388,170.864913 339.334936,167.403606 C339.114124,163.9423 306.923506,163.182967 309.849893,167.403606" id="Fill-79" fill="#F39F32"></path>
                <path d="M275.469744,181.661639 C275.469744,181.661639 310.163136,180.846832 318.655566,181.661639 C327.147636,182.476445 323.366459,192.894585 323.366459,197.652666 C323.366459,202.411106 317.414265,202.011268 309.361658,201.624757 C301.30869,201.238246 276.730136,204.117805 275.469744,200.039811 C274.209351,195.961456 275.469744,181.661639 275.469744,181.661639" id="Fill-81" fill="#DB8B34"></path>
                <path d="M305.125601,196.198297 C305.125601,196.198297 332.464842,195.553152 334.212966,196.198297 C335.96073,196.843442 335.336117,204.114383 334.264837,207.483115 C333.193197,210.851846 310.264789,208.596899 307.299859,207.483115 C304.334928,206.368969 305.125601,196.198297 305.125601,196.198297" id="Fill-83" fill="#3366AF" opacity="0.530505952"></path>
                <path d="M177.947173,109.340398 C177.947173,109.340398 177.106431,106.3625 175.942576,103.781559 C175.223947,102.188688 172.017673,102.484785 169.053463,97.111457 C166.088533,91.738129 169.238614,90.8116559 170.906049,93.4055645 C172.573845,95.9994731 173.196657,97.8542204 175.942576,97.9460753 C178.688496,98.0375699 180.726592,99.3483925 184.987937,90.8181398 C189.249641,82.2882473 191.200566,84.0324086 190.318039,88.7188065 C189.435152,93.4055645 185.173447,97.6672688 186.09992,101.0025 C187.026033,104.337371 190.690861,107.858113 190.526243,110.452022 C190.361625,113.04593 177.947173,109.340398 177.947173,109.340398" id="Fill-85" fill="#DCC1AC"></path>
                <path d="M283.40013,155.355385 C281.722609,162.969972 280.438082,164.263144 280.438082,164.263144 C280.438082,164.263144 282.651603,151.458579 277.851738,142.538574 C277.851738,142.538574 285.078012,147.740799 283.40013,155.355385 M303.305974,127.321289 C284.518598,105.341687 269.17992,111.474708 269.17992,111.474708 C262.304496,122.562488 253.04913,121.607558 253.04913,121.607558 C244.063566,121.078402 241.225071,110.219719 241.225071,110.219719 C236.692125,108.618923 217.48834,109.445977 209.828006,116.187041 C202.167313,122.928106 199.409867,130.281896 199.409867,130.281896 C198.797141,122.621563 190.523722,105.768902 188.431232,105.29666 C186.339103,104.824418 176.73541,106.381627 176.122684,107.040101 C175.509598,107.698934 183.476474,162.148681 183.476474,168.583563 C183.476474,175.018084 191.443351,183.597687 196.039695,182.984961 C200.635678,182.372235 211.360001,170.728644 211.360001,170.728644 C209.215281,183.90423 213.198178,205.659418 214.117808,207.191412 C215.037076,208.723407 271.723399,215.158289 272.642668,209.643036 C273.561937,204.127423 279.344829,188.05967 279.344829,188.05967 C302.774657,187.044224 322.09299,149.300531 303.305974,127.321289" id="Fill-87" fill="#3366AF"></path>
                <path d="M280.43819,164.263324 C280.43819,164.263324 274.332184,173.036001 258.426528,171.164684 C242.520512,169.293727 238.029711,166.299259 238.029711,166.299259 C238.029711,166.299259 232.976975,174.429673 234.848292,175.884942 C236.719609,177.340211 244.12527,187.177324 279.344937,188.059851" id="Stroke-89" stroke="#2B5A91" stroke-width="0.9"></path>
                <path d="M211.359929,170.728572 C211.359929,170.728572 221.14337,159.865926 224.975698,149.110985" id="Stroke-91" stroke="#3161A3" stroke-width="0.5"></path>
                <path d="M224.811008,175.062751 C224.811008,175.062751 226.056271,156.70367 226.853427,156.70367 C227.650943,156.70367 238.029459,158.237826 238.029459,158.237826 C238.029459,158.237826 236.463604,174.806278 235.235991,176.646977 C234.008739,178.488396 227.019846,177.978332 224.811008,175.062751" id="Fill-93" fill="#9BA1A8"></path>
                <path d="M228.347023,158.884737 C228.347023,158.884737 224.050377,155.865054 229.374716,155.738618 C234.698334,155.611823 238.901324,157.145978 237.87399,158.373231 C236.846657,159.600484 232.034904,161.120952 228.347023,158.884737" id="Fill-95" fill="#FEFEFE"></path>
                <path d="M228.347023,158.884737 C228.347023,158.884737 224.050377,155.865054 229.374716,155.738618 C234.698334,155.611823 238.901324,157.145978 237.87399,158.373231 C236.846657,159.600484 232.034904,161.120952 228.347023,158.884737 Z" id="Stroke-97" stroke="#9AA0A7" stroke-width="0.5"></path>
                <path d="M236.185554,165.566654 C236.185554,165.566654 231.933936,165.382944 228.213635,163.402122 C224.493694,161.421299 225.131635,165.1416 226.300533,165.992068 C226.300533,165.992068 222.781232,166.098331 225.39135,169.074428 C225.39135,169.074428 222.69442,168.861541 224.975662,171.625111 C224.975662,171.625111 222.269006,171.837998 224.975662,174.495304 C227.682678,177.152611 235.44171,175.451675 238.20492,174.495304 C240.96849,173.538573 238.029495,166.299331 238.029495,166.299331 C238.029495,166.299331 237.88649,164.82281 236.185554,165.566654" id="Fill-99" fill="#DCC1AC"></path>
                <path d="M161.646397,27.8142935 L161.646397,36.0970785 L167.897209,27.8142935 C167.897209,27.8142935 169.147155,23.2831484 184.774005,26.0957075 C200.401215,28.9086269 209.560042,22.6581753 209.355801,11.0941914 C209.152279,-0.469792473 180.398833,-4.22035161 167.271876,5.78101935 C154.145639,15.7823903 156.645892,20.7814548 161.646397,27.8142935" id="Fill-101" fill="#F39F32"></path>
                <path d="M342.718472,118.371458 L342.718472,124.306721 L347.898004,118.371458 C347.898004,118.371458 348.933983,115.124479 361.882273,117.139882 C374.830924,119.155646 382.420295,114.676372 382.251354,106.390345 C382.082053,98.1039575 358.257069,95.416393 347.380015,102.583232 C336.503322,109.74935 338.574918,113.332049 342.718472,118.371458" id="Fill-103" fill="#3366AF"></path>
                <path d="M56.258171,194.704666 C56.258171,194.704666 55.3853699,201.471666 54.9437462,202.214429 C54.5014022,202.956472 53.6177946,193.058483 51.6286871,193.553418 C49.6399398,194.048354 31.7408538,196.734117 31.2985097,193.535408 C30.8565258,190.336338 29.5309344,185.856703 31.2985097,183.642101 C33.0664452,181.428219 63.7827032,177.696752 67.318214,180.67609 C70.8540849,183.655069 72.6220204,195.360617 68.2021817,194.704666 C63.7827032,194.048354 56.258171,194.704666 56.258171,194.704666" id="Fill-105" fill="#F39F32" opacity="0.569312686"></path>
                <path d="M64.3088333,198.969216 C64.3088333,198.969216 63.4360323,205.736576 62.9944086,206.478979 C62.5524247,207.221382 61.668457,197.323393 59.6793495,197.817968 C57.6906022,198.312904 39.7915161,200.999027 39.3495323,197.799958 C38.9071882,194.601248 37.5815968,190.121253 39.3495323,187.907011 C41.1171075,185.692769 71.8337258,181.961302 75.3692366,184.94064 C78.9051075,187.919619 80.6726828,199.625527 76.2528441,198.969216 C71.8337258,198.312904 64.3088333,198.969216 64.3088333,198.969216" id="Fill-107" fill="#F39F32"></path>
                <path d="M119.960654,56.4454108 C119.960654,56.4454108 109.256504,63.5567763 110.797504,71.850728 C112.337783,80.1443194 104.772187,76.0764108 104.149375,79.9458409 C104.149375,79.9458409 100.784246,61.5655075 119.960654,56.4454108" id="Fill-109" fill="#C9651B"></path>
                <path d="M108.894596,137.620449 C108.894596,137.620449 94.2064667,151.352208 99.9432516,167.129627 C105.680397,182.907046 122.044606,174.141933 124.088827,174.726202 C126.132687,175.310471 128.470123,183.199181 128.177988,186.705514 C127.885854,190.211487 118.969451,192.244181 99.3233215,189.912869 C99.3233215,189.912869 80.498843,146.635912 108.894596,137.620449" id="Fill-111" fill="#F39F32"></path>
                <path d="M108.894596,137.620449 C108.894596,137.620449 94.2064667,151.352208 99.9432516,167.129627 C105.680397,182.907046 122.044606,174.141933 124.088827,174.726202 C126.132687,175.310471 128.470123,183.199181 128.177988,186.705514 C127.885854,190.211487 118.969451,192.244181 99.3233215,189.912869" id="Stroke-113" stroke="#E08E36" stroke-width="0.9"></path>
                <path d="M279.344901,188.05967 C244.125595,187.177504 236.719573,177.340031 234.848256,175.884762 C232.976939,174.429493 238.029675,166.299439 238.029675,166.299439 C238.029675,166.299439 242.520476,169.293547 258.426492,171.164864 C274.332148,173.036181 280.438154,164.263144 280.438154,164.263144 L279.344901,188.05967 Z" id="Fill-115" fill="#3366AF"></path>
                <path d="M169.744896,11.5469097 L199.526756,11.5469097 C199.526756,11.5469097 200.858111,13.7521462 198.899982,13.7521462 C196.941853,13.7521462 164.354278,14.2420387 169.744896,11.5469097" id="Fill-117" fill="#3366AF"></path>
                <path d="M288.903244,189.791116 L318.685464,189.791116 C318.685464,189.791116 320.016459,191.149127 318.05833,191.149127 C316.100561,191.149127 283.512985,191.450627 288.903244,189.791116" id="Fill-119" fill="#3366AF"></path>
                <path d="M280.811409,193.728159 L310.593269,193.728159 C310.593269,193.728159 311.924624,195.08653 309.966495,195.08653 C308.008366,195.08653 275.42079,195.38803 280.811409,193.728159" id="Fill-121" fill="#3366AF"></path>
                <path d="M167.761588,16.6922935 C167.761588,16.6922935 195.471852,17.6900892 195.716798,18.0488634 C195.961744,18.4076376 196.361223,19.602471 194.691626,19.3722935 C193.021669,19.1424763 161.857663,18.8975301 167.761588,16.6922935" id="Fill-123" fill="#3366AF"></path>
                <path d="M316.223646,76.6251984 C316.223646,76.6251984 317.458103,85.1723812 318.083076,86.1096608 C318.707689,87.0476608 319.957996,74.5460371 322.771275,75.1710102 C325.583834,75.7959833 350.899388,79.1884887 351.524361,75.1483167 C352.149334,71.1081446 354.024614,65.4502468 351.524361,62.6535371 C349.024469,59.8564672 305.581453,55.1441339 300.580947,58.9069403 C295.580082,62.6697468 293.079829,77.4540532 299.331001,76.6251984 C305.581453,75.7959833 316.223646,76.6251984 316.223646,76.6251984" id="Fill-125" fill="#3366AF"></path>
                <path d="M307.996406,68.0197688 C307.996406,68.0197688 307.489584,67.316629 308.230186,66.7316398 C308.970788,66.1470108 309.594681,67.0824892 309.360541,67.8230914 C309.126761,68.5640538 308.425062,68.5672957 307.996406,68.0197688" id="Fill-127" fill="#F39F32"></path>
                <path d="M313.458383,68.0197688 C313.458383,68.0197688 312.951561,67.316629 313.691803,66.7316398 C314.432765,66.1470108 315.056658,67.0824892 314.822518,67.8230914 C314.588738,68.5640538 313.886679,68.5672957 313.458383,68.0197688" id="Fill-129" fill="#F39F32"></path>
                <path d="M318.999139,68.0197688 C318.999139,68.0197688 318.492677,67.316629 319.232919,66.7316398 C319.973521,66.1470108 320.597413,67.0824892 320.363274,67.8230914 C320.129854,68.5640538 319.427795,68.5672957 318.999139,68.0197688" id="Fill-131" fill="#F39F32"></path>
                <path d="M324.461116,68.0197688 C324.461116,68.0197688 323.954294,67.316629 324.694896,66.7316398 C325.435498,66.1470108 326.05939,67.0824892 325.825251,67.8230914 C325.591471,68.5640538 324.889772,68.5672957 324.461116,68.0197688" id="Fill-133" fill="#F39F32"></path>
                <path d="M329.748605,68.4785027 C329.748605,68.4785027 329.241782,67.7753629 329.982024,67.1907339 C330.722987,66.6061048 331.346879,67.5412231 331.112739,68.2821855 C330.87896,69.0227876 330.176901,69.0260296 329.748605,68.4785027" id="Fill-135" fill="#F39F32"></path>
                <path d="M336.002082,68.8883194 C336.002082,68.8883194 335.49526,68.1851796 336.235862,67.6005505 C336.976464,67.0155613 337.600356,67.9510398 337.366217,68.6916419 C337.132437,69.4326043 336.430738,69.4358462 336.002082,68.8883194" id="Fill-137" fill="#F39F32"></path>
                <path d="M135.926178,79.9459129 C135.926178,79.9459129 133.772092,79.0875204 131.631334,80.4639022" id="Stroke-139" stroke="#EA9D58" stroke-width="0.9"></path>
            </g>
        </g>
    </g>
</svg>