<?xml version="1.0" encoding="UTF-8"?>
<svg width="1366px" height="750px" viewBox="0 0 1366 750" version="1.1" xmlns="http://www.w3.org/2000/svg" xmlns:xlink="http://www.w3.org/1999/xlink">
    <!-- Generator: Sketch 52.6 (67491) - http://www.bohemiancoding.com/sketch -->
    <title>Group 91</title>
    <desc>Created with Sketch.</desc>
    <defs>
        <rect id="path-1" x="0" y="0" width="1366" height="750"></rect>
        <polygon id="path-3" points="0.6313 0.6781 1367.6313 0.6781 1367.6313 753.801 0.6313 753.801"></polygon>
        <polygon id="path-5" points="0.631 0.551362542 1369.036 0.551362542 1369.036 345.801 0.631 345.801"></polygon>
        <polygon id="path-7" points="0.631 0.4056 346.595948 0.4056 346.595948 343.801 0.631 343.801"></polygon>
        <polygon id="path-9" points="0.631 0.540589517 1271.3313 0.540589517 1271.3313 237.801 0.631 237.801"></polygon>
        <polygon id="path-11" points="0.631 0.6741 444.7309 0.6741 444.7309 236.801 0.631 236.801"></polygon>
        <polygon id="path-13" points="0.324736158 0.678 955.036 0.678 955.036 263.296432 0.324736158 263.296432"></polygon>
        <polygon id="path-15" points="0.2307 0.3736 774.036 0.3736 774.036 227.29617 0.2307 227.29617"></polygon>
        <polygon id="path-17" points="0.4814 0.8568 753.036 0.8568 753.036 159.350644 0.4814 159.350644"></polygon>
        <polygon id="path-19" points="0.564686556 0.529709748 116.3452 0.529709748 116.3452 53.801 0.564686556 53.801"></polygon>
        <polygon id="path-21" points="0.353831394 0.856043614 38.9802805 0.856043614 38.9802805 40.801 0.353831394 40.801"></polygon>
        <polygon id="path-23" points="0.163766593 0.302090075 106.4712 0.302090075 106.4712 46.801 0.163766593 46.801"></polygon>
        <polygon id="path-25" points="0.494534415 0.5052 15.0615989 0.5052 15.0615989 21.801 0.494534415 21.801"></polygon>
    </defs>
    <g id="Website" stroke="none" stroke-width="1" fill="none" fill-rule="evenodd">
        <g id="Home" transform="translate(0.000000, -60.000000)">
            <g id="Group-91" transform="translate(0.000000, 60.000000)">
                <mask id="mask-2" fill="white">
                    <use xlink:href="#path-1"></use>
                </mask>
                <use id="Mask" fill="#EFF1F4" opacity="0.833310082" xlink:href="#path-1"></use>
                <g id="Group-201" mask="url(#mask-2)">
                    <g transform="translate(-2.000000, 0.000000)">
                        <g id="Group-3" stroke="none" stroke-width="1" fill="none" fill-rule="evenodd" transform="translate(0.000000, 0.800000)">
                            <mask id="mask-4" fill="white">
                                <use xlink:href="#path-3"></use>
                            </mask>
                            <g id="Clip-2"></g>
                            <path d="M346.5953,753.8011 L169.6393,753.8011 L1367.6313,753.8011 L1367.6313,0.6781 L0.6313,0.6781 C0.6313,0.6781 589.4383,71.5591 592.5313,344.4821 C595.6223,617.4051 346.5953,753.8011 346.5953,753.8011" id="Fill-1" fill="#3D5A6C" mask="url(#mask-4)"></path>
                        </g>
                        <g id="Group-6" stroke="none" stroke-width="1" fill="none" fill-rule="evenodd" transform="translate(0.000000, 408.800000)">
                            <mask id="mask-6" fill="white">
                                <use xlink:href="#path-5"></use>
                            </mask>
                            <g id="Clip-5"></g>
                            <path d="M-222.7953,385.1126 C-222.7953,385.1126 -127.3393,350.4016 -61.3883,282.7146 C4.5627,215.0266 51.4237,150.3236 80.9287,140.1536 C110.4337,129.9846 126.0537,124.7776 148.6157,114.3646 C171.1777,103.9506 176.3847,123.0426 204.1537,77.9176 C231.9227,32.7936 251.0137,36.1866 266.6337,44.9036 C282.2537,53.6196 301.3457,10.2006 315.2287,2.4056 C329.1137,-5.3894 341.2637,11.8886 362.0897,44.9036 C382.9167,77.9176 388.5897,91.0376 428.2737,85.3446 C467.9597,79.6526 487.0507,122.5546 513.0837,140.1536 C539.1177,157.7536 671.8827,168.2166 722.9277,208.4106 C773.9727,248.6036 870.7547,252.0926 905.3937,230.9566 C940.0327,209.8206 932.0497,232.0956 962.9427,225.2976 C993.8357,218.4986 1007.7207,233.0026 1061.5217,230.9566 C1115.3247,228.9116 1231.6077,302.1366 1274.9967,289.8216 C1318.3867,277.5076 1642.6357,473.1346 1264.2817,546.0286 C885.9287,618.9226 381.1817,596.8516 105.2257,548.2556 C-170.7293,499.6596 -351.2273,409.4106 -222.7953,385.1126" id="Fill-4" fill="#CAE4E2" mask="url(#mask-6)"></path>
                        </g>
                        <g id="Group-9" stroke="none" stroke-width="1" fill="none" fill-rule="evenodd" transform="translate(0.000000, 410.800000)">
                            <mask id="mask-8" fill="white">
                                <use xlink:href="#path-7"></use>
                            </mask>
                            <g id="Clip-8"></g>
                            <path d="M266.6334,42.9026 C251.0134,34.1866 231.9224,30.7926 204.1534,75.9176 C176.3844,121.0426 171.1774,101.9506 148.6144,112.3646 C126.0534,122.7776 110.4334,127.9846 80.9284,138.1536 C51.4234,148.3236 4.5634,213.0266 -61.3876,280.7146 C-127.3396,348.4006 -222.7956,383.1126 -222.7956,383.1126 C-351.2266,407.4106 -170.7286,497.6596 105.2264,546.2556 C134.2194,551.3616 164.4144,555.7876 195.6524,559.5516 C279.2694,529.6016 223.3614,461.2756 217.9074,379.4826 C212.0184,291.1266 313.4614,209.5686 313.4614,209.5686 C313.4614,209.5686 342.2014,193.3866 346.3964,154.5916 C350.5894,115.7976 287.6794,137.8156 254.1264,121.5936 C220.5734,105.3716 317.0374,41.3526 327.5224,24.5766 C338.0074,7.7996 315.2294,0.4056 315.2294,0.4056 C301.3454,8.2006 282.2534,51.6196 266.6334,42.9026" id="Fill-7" fill="#A2BFBF" mask="url(#mask-8)"></path>
                        </g>
                        <g id="Group-12" stroke="none" stroke-width="1" fill="none" fill-rule="evenodd" transform="translate(0.000000, 516.800000)">
                            <mask id="mask-10" fill="white">
                                <use xlink:href="#path-9"></use>
                            </mask>
                            <g id="Clip-11"></g>
                            <path d="M-155.5786,264.8138 C-155.5786,264.8138 -97.4486,242.2518 -77.0506,242.2518 C-56.6506,242.2518 -28.8826,235.7958 -2.8486,207.7838 C23.1854,179.7708 9.3004,163.7348 73.5164,171.7528 C137.7324,179.7708 177.6504,128.1938 219.3044,114.9318 C260.9574,101.6708 262.6924,122.4658 280.0484,122.4818 C297.4044,122.4978 347.7354,74.1728 389.3894,36.7228 C431.0424,-0.7272 467.9554,-14.6122 474.6644,21.8348 C481.3744,58.2818 503.0864,34.3348 518.2634,46.3078 C533.4414,58.2818 538.6484,82.2928 554.2684,77.2298 C569.8884,72.1668 570.6294,50.8108 598.0274,90.1258 C768.9054,231.3308 1516.6154,267.5508 1189.4844,363.7418 C1140.8564,393.4218 560.6384,426.4598 229.5504,381.0968 C-101.5376,335.7328 -344.7546,306.4668 -155.5786,264.8138" id="Fill-10" fill="#EFF1F1" mask="url(#mask-10)"></path>
                        </g>
                        <g id="Group-15" stroke="none" stroke-width="1" fill="none" fill-rule="evenodd" transform="translate(0.000000, 517.800000)">
                            <mask id="mask-12" fill="white">
                                <use xlink:href="#path-11"></use>
                            </mask>
                            <g id="Clip-14"></g>
                            <path d="M392.9859,52.5091 C388.6579,37.5431 444.3939,0.8961 444.7309,0.6741 C429.5149,4.3971 410.0379,17.1581 389.3889,35.7231 C347.7359,73.1731 297.4049,121.4971 280.0479,121.4821 C262.6929,121.4661 260.9579,100.6701 219.3039,113.9321 C177.6499,127.1941 137.7319,178.7711 73.5159,170.7531 C9.2999,162.7351 23.1849,178.7711 -2.8481,206.7831 C-28.8821,234.7961 -56.6511,241.2511 -77.0501,241.2511 C-97.4491,241.2511 -155.5771,263.8141 -155.5771,263.8141 C-344.7541,305.4671 -101.5371,334.7331 229.5499,380.0971 C229.5499,380.0971 225.6429,318.1801 261.4619,289.2021 C297.2799,260.2251 276.1309,295.6811 264.2989,232.4151 C252.4669,169.1501 277.1489,198.0011 347.5399,140.7541 C417.9299,83.5081 397.3279,67.5211 392.9859,52.5091" id="Fill-13" fill="#C3D7D5" mask="url(#mask-12)"></path>
                        </g>
                        <path d="M540.8072,28.3125 C540.8072,28.3125 621.8402,23.6215 616.7232,124.6995 C616.7232,124.6995 605.6342,100.8155 586.8692,99.1095 C568.1032,97.4035 514.3662,85.4625 540.8072,28.3125" id="Fill-16" stroke="none" fill="#153054" fill-rule="evenodd"></path>
                        <g id="Group-20" stroke="none" stroke-width="1" fill="none" fill-rule="evenodd" transform="translate(414.000000, 0.800000)">
                            <mask id="mask-14" fill="white">
                                <use xlink:href="#path-13"></use>
                            </mask>
                            <g id="Clip-19"></g>
                            <path d="M140.1949,1.7053 C140.1949,1.7053 193.6349,-19.6707 301.7049,1.7053 C409.7729,23.0813 451.3379,68.2093 650.8499,53.9583 C850.3629,39.7073 979.1849,23.2153 988.2279,49.1393 C998.7679,79.3523 999.9969,101.4613 950.1189,125.2123 C900.2409,148.9643 859.8629,216.6563 749.4189,247.5333 C638.9749,278.4093 503.5909,255.8463 478.6529,247.5333 C453.7129,239.2193 298.1419,185.7793 220.9499,80.0853 C143.7579,-25.6087 130.6939,55.1463 130.6939,55.1463 C130.6939,55.1463 139.0079,76.5223 71.3149,133.5253 C3.6239,190.5293 9.5619,211.9053 9.5619,211.9053 C9.5619,211.9053 -16.5651,171.5283 19.0619,103.8363 C54.6889,36.1443 140.1949,1.7053 140.1949,1.7053" id="Fill-18" fill="#1D3863" mask="url(#mask-14)"></path>
                        </g>
                        <path d="M925.3052,373.2529 C925.3052,373.2529 1020.9912,361.8129 1093.7962,282.7669 C1151.0962,220.5549 1170.7612,182.9199 1161.4012,176.6799 C1152.0392,170.4399 1101.3432,134.1809 1074.6882,158.5509 C1048.0332,182.9199 1037.8002,203.7979 1027.2322,241.1639 C997.7672,345.3339 808.8172,394.0539 925.3052,373.2529" id="Fill-21" stroke="none" fill="#1D3863" fill-rule="evenodd"></path>
                        <g id="Group-25" stroke="none" stroke-width="1" fill="none" fill-rule="evenodd" transform="translate(595.000000, 36.800000)">
                            <mask id="mask-16" fill="white">
                                <use xlink:href="#path-15"></use>
                            </mask>
                            <g id="Clip-24"></g>
                            <path d="M769.1187,89.2126 C818.9967,65.4616 817.7677,43.3526 807.2287,13.1396 C806.6317,11.4266 805.4957,9.9046 803.8667,8.5486 C748.9327,31.8056 691.1257,61.4286 667.1677,68.3846 C633.8897,78.0456 570.5577,173.5816 407.3957,174.6546 C244.2327,175.7286 204.5157,88.7796 91.8057,32.9616 C45.1827,9.8716 17.1217,1.8506 0.2307,0.3736 C11.0847,8.6816 24.1777,22.4896 39.9497,44.0856 C117.1417,149.7786 272.7137,203.2196 297.6527,211.5326 C322.5917,219.8456 457.9747,242.4096 568.4187,211.5326 C678.8627,180.6556 719.2407,112.9636 769.1187,89.2126" id="Fill-23" fill="#E8EEF7" mask="url(#mask-16)"></path>
                        </g>
                        <g id="Group-28" stroke="none" stroke-width="1" fill="none" fill-rule="evenodd" transform="translate(616.000000, 56.800000)">
                            <mask id="mask-18" fill="white">
                                <use xlink:href="#path-17"></use>
                            </mask>
                            <g id="Clip-27"></g>
                            <path d="M791.4224,27.9548 C774.5764,43.0178 740.5974,65.9408 672.7394,93.4228 C549.4364,143.3618 441.4264,186.3738 256.9484,138.5818 C85.9874,94.2918 60.9624,7.8168 0.4814,0.8568" id="Stroke-26" stroke="#B5C9E2" stroke-width="0.954" mask="url(#mask-18)"></path>
                        </g>
                        <path d="M1342.6538,138.9643 C1318.3868,147.9003 1284.3868,162.1703 1237.1238,182.0003 C1100.4388,239.3513 1013.2618,252.5343 867.0178,210.4773 C738.3668,173.4793 669.6258,77.3573 625.5078,68.4763" id="Stroke-29" stroke="#B5C9E2" stroke-width="0.954" fill="none"></path>
                        <path d="M1315.3042,160.7104 C1313.6992,161.6524 1181.0832,239.2954 1095.5502,244.7384 C1009.4942,250.2144 891.3642,246.7544 814.6962,202.7184 C752.4462,166.9634 681.9442,111.7604 643.3912,91.8434" id="Stroke-31" stroke="#B5C9E2" stroke-width="0.954" fill="none"></path>
                        <path d="M616.8013,122.625 C614.6553,93.659 595.4393,53.341 566.5303,53.548 C551.6913,53.654 541.4303,50.049 534.7193,46.196 C526.2123,88.054 570.2493,97.599 586.8683,99.11 C605.6343,100.816 616.7233,124.699 616.7233,124.699 C616.7583,123.997 616.7743,123.317 616.8013,122.625" id="Fill-33" stroke="none" fill="#1D3863" fill-rule="evenodd"></path>
                        <path d="M544.6939,55.9462 C544.6939,55.9462 548.1299,34.7242 561.8769,28.2792 C502.4729,45.4512 453.2089,99.8092 432.8369,148.1942 C420.7429,176.9162 421.0629,199.0572 423.3209,212.3092 C423.4729,212.5682 423.5619,212.7052 423.5619,212.7052 C423.5619,212.7052 417.6239,191.3292 485.3149,134.3252 C553.0069,77.3222 544.6939,55.9462 544.6939,55.9462" id="Fill-35" stroke="none" fill="#134277" fill-rule="evenodd"></path>
                        <path d="M791.5942,367.6167 C791.5942,367.6167 884.2772,360.5407 922.3742,254.9407 C960.4722,149.3397 1025.1102,180.9867 1030.5502,182.6557 C1036.1512,184.3737 1092.5872,207.9297 985.7452,302.1337 C878.9052,396.3377 753.8742,377.9647 791.5942,367.6167" id="Fill-37" stroke="none" fill="#134277" fill-rule="evenodd"></path>
                        <path d="M1152.9761,139.6142 C1153.9921,138.1922 1154.2821,130.2712 1170.7911,124.1772" id="Stroke-39" stroke="#112543" stroke-width="0.954" fill="none"></path>
                        <path d="M1158.4604,143.6762 C1173.2154,140.8652 1171.6624,133.5212 1174.3034,130.6772 C1176.9424,127.8332 1171.9734,128.6462 1171.9734,128.6462 C1156.4414,132.5052 1155.5194,142.6602 1155.5194,142.6602 C1155.5194,142.6602 1154.7934,144.3742 1158.4604,143.6762" id="Fill-41" stroke="none" fill="#1D3F67" fill-rule="evenodd"></path>
                        <path d="M1158.4604,143.6762 C1173.2154,140.8652 1171.6624,133.5212 1174.3034,130.6772 C1176.9424,127.8332 1171.9734,128.6462 1171.9734,128.6462 C1156.4414,132.5052 1155.5194,142.6602 1155.5194,142.6602 C1155.5194,142.6602 1154.7934,144.3742 1158.4604,143.6762 Z" id="Stroke-43" stroke="#112543" stroke-width="0.954" fill="none"></path>
                        <path d="M1173.479,136.9736 C1173.479,136.9736 1175.318,142.6606 1160.085,146.7236" id="Stroke-45" stroke="#112543" stroke-width="0.954" fill="none"></path>
                        <path d="M1163.7603,131.8959 C1163.7603,131.8959 1166.1783,130.0959 1168.4123,133.8149 C1170.6473,137.5339 1169.6833,139.3759 1166.8173,140.7229 C1163.9503,142.0689 1160.5263,133.5119 1163.7603,131.8959" id="Fill-47" stroke="none" fill="#0E1823" fill-rule="evenodd"></path>
                        <path d="M1163.7603,131.8959 C1163.7603,131.8959 1166.1783,130.0959 1168.4123,133.8149 C1170.6473,137.5339 1169.6833,139.3759 1166.8173,140.7229 C1163.9503,142.0689 1160.5263,133.5119 1163.7603,131.8959 Z" id="Stroke-49" stroke="#112543" stroke-width="0.954" fill="none"></path>
                        <path d="M1066.0913,717.5278 C1066.0913,717.5278 1060.0323,706.5108 1060.0323,691.6378 C1060.0323,676.7638 1050.1163,672.9088 1053.9733,661.3398 C1057.8283,649.7718 1066.6423,638.3258 1062.2363,626.9718 C1057.8283,615.6188 1062.2363,604.6018 1068.2953,586.9738 C1074.3553,569.3458 1063.9273,578.3008 1073.8043,562.2368 C1083.6803,546.1728 1078.7613,546.6428 1082.6173,529.3498 C1086.4733,512.0568 1098.5923,496.2998 1102.4483,512.7168 C1106.3043,529.1328 1095.8383,528.0318 1100.2453,535.1928 C1104.6523,542.3538 1111.8133,544.1098 1099.6943,562.2368 C1087.5753,580.3638 1085.9223,582.0158 1091.9823,593.5848 C1098.0413,605.1528 1083.1683,604.0498 1085.3713,620.0258 C1087.5753,636.0008 1096.3893,628.5298 1092.5323,645.7608 C1088.6773,662.9928 1080.9653,652.6998 1086.4733,678.5038 C1091.9823,704.3068 1070.5593,730.0138 1066.0913,717.5278" id="Fill-51" stroke="none" fill="#2F7638" fill-rule="evenodd"></path>
                        <path d="M1076.5581,699.3501 C1076.5581,699.3501 1082.0671,659.3781 1102.4491,645.7611 C1122.8301,632.1451 1130.5421,635.5711 1142.1111,626.9721 C1153.6781,618.3731 1160.2881,596.8891 1189.4851,602.3981 C1218.6801,607.9071 1208.2141,615.7331 1187.2821,625.5911 C1166.3481,635.4501 1175.1621,637.8641 1164.6961,650.4281 C1154.2301,662.9931 1144.8651,647.9001 1129.9921,657.3741 C1115.1191,666.8491 1129.0741,676.2131 1117.4131,685.0281 C1105.7531,693.8411 1104.0601,678.9361 1093.0831,693.8411 C1082.1081,708.7461 1071.6721,724.6891 1074.1151,712.0201 L1076.5581,699.3501 Z" id="Fill-53" stroke="none" fill="#2F7638" fill-rule="evenodd"></path>
                        <path d="M1073.7563,690.5356 C1073.9173,688.0986 1074.9053,654.7716 1083.7193,638.5006 C1092.5323,622.2286 1103.7343,622.2286 1106.3963,605.1526 C1109.0593,588.0756 1104.1013,583.6686 1121.7293,570.4476 C1139.3563,557.2266 1133.0603,555.5746 1140.6143,544.0066 C1148.1703,532.4386 1177.9163,515.6436 1183.9763,529.5506 C1190.0353,543.4556 1172.9583,536.9286 1165.2463,550.1076 C1157.5343,563.2866 1161.3913,559.9816 1159.7373,571.5506 C1158.0853,583.1176 1148.4853,587.9626 1140.6143,597.9346 C1132.7453,607.9066 1134.4413,616.2836 1129.3823,625.5916 C1124.3233,634.8986 1115.6693,630.6596 1102.4483,645.7616 C1089.2283,660.8636 1089.7783,668.1246 1086.4733,678.5036 C1083.1683,688.8836 1072.3023,712.4436 1073.7563,690.5356" id="Fill-55" stroke="none" fill="#408D3A" fill-rule="evenodd"></path>
                        <path d="M1059.481,720.7807 C1059.481,720.7807 1041.085,718.2297 1036.345,711.7237 C1031.605,705.2177 1037.998,693.8417 1033.04,687.2307 C1028.083,680.6207 1020.921,686.6797 1018.717,676.2137 C1016.514,665.7477 1022.023,663.5727 1018.717,655.8457 C1015.413,648.1197 1007.15,648.1617 1002.743,638.5007 C998.335,628.8397 1001.352,631.0847 1000.54,618.3737 C999.726,605.6617 990.624,612.3137 985.115,594.1347 C979.607,575.9567 984.013,582.5667 985.115,570.9997 C986.216,559.4307 976.852,557.2267 979.607,546.2107 C982.361,535.1927 990.624,544.0067 1002.192,546.2107 C1013.76,548.4137 1018.717,555.0237 1014.862,572.1007 C1011.005,589.1767 1009.904,592.4827 1025.878,607.3557 C1041.854,622.2287 1031.938,622.2287 1035.794,643.1617 C1039.65,664.0937 1058.93,665.3697 1059.481,678.5037 C1060.033,691.6377 1046.646,696.9897 1053.083,704.8587 C1059.518,712.7267 1059.481,720.7807 1059.481,720.7807" id="Fill-57" stroke="none" fill="#2F7638" fill-rule="evenodd"></path>
                        <path d="M1053.0825,716.6216 C1053.0825,716.6216 1039.0995,709.1356 1027.5315,699.5596 C1015.9635,689.9846 1024.7535,682.5636 999.9885,683.3746 C975.2235,684.1856 976.3015,666.8496 964.7325,649.7716 C953.1655,632.6956 942.9015,648.1196 935.0885,641.5096 C927.2745,634.8986 908.5295,618.9656 915.9745,638.5006 C923.4185,658.0356 937.5565,656.3826 950.4105,669.0526 C963.2655,681.7226 958.6735,678.4176 971.3435,686.6806 C984.0135,694.9426 991.1745,690.5356 1000.5395,704.3076 C1009.9035,718.0786 1043.9845,726.0196 1053.0825,716.6216" id="Fill-59" stroke="none" fill="#408D3A" fill-rule="evenodd"></path>
                        <g id="Group-63" stroke="none" stroke-width="1" fill="none" fill-rule="evenodd" transform="translate(920.000000, 700.800000)">
                            <mask id="mask-20" fill="white">
                                <use xlink:href="#path-19"></use>
                            </mask>
                            <g id="Clip-62"></g>
                            <path d="M116.3452,10.9241 C116.3452,10.9241 93.7122,17.1691 71.7862,19.9811 C49.8622,22.7911 52.0182,33.7471 40.5162,39.4121 C29.0142,45.0761 16.0742,34.2931 12.8402,42.9201 C9.6052,51.5461 14.2782,59.0941 17.5122,65.2041 C20.7472,71.3151 20.0012,84.6141 11.7482,78.5041 C3.4942,72.3941 -1.8968,65.2041 1.6982,52.9841 C5.2912,40.7631 -2.9748,31.7781 8.1672,22.7911 C19.3102,13.8061 24.7012,22.7781 30.4522,19.9091 C36.2032,17.0401 41.9532,4.4601 55.6132,4.4601 C69.2712,4.4601 85.4222,-7.7729 116.3452,10.9241" id="Fill-61" fill="#2F7638" mask="url(#mask-20)"></path>
                        </g>
                        <path d="M1047.6733,685.4194 C1047.6733,685.4194 1036.3863,660.0864 1035.7943,643.1614 C1035.2013,626.2364 1044.8623,622.4744 1041.7343,609.1394 C1038.6053,595.8034 1031.1433,599.5684 1030.6063,577.1484 C1030.0693,554.7294 1033.2773,555.2624 1030.6063,536.0594 C1027.9363,516.8554 1025.8023,512.8934 1033.2703,511.1404 C1040.7383,509.3874 1047.1393,530.1904 1047.6733,545.1274 C1048.2063,560.0634 1060.1203,549.9284 1059.4973,576.0654 C1058.8743,602.2034 1053.9843,590.7714 1060.6963,613.2904 C1067.4093,635.8104 1065.9553,661.5754 1059.4813,678.5034 C1053.0073,695.4314 1067.7183,702.6674 1063.6003,711.7244 C1059.4813,720.7804 1046.7863,707.3534 1047.6733,685.4194" id="Fill-64" stroke="none" fill="#408D3A" fill-rule="evenodd"></path>
                        <g id="Group-68" stroke="none" stroke-width="1" fill="none" fill-rule="evenodd" transform="translate(1056.000000, 713.800000)">
                            <mask id="mask-22" fill="white">
                                <use xlink:href="#path-21"></use>
                            </mask>
                            <g id="Clip-67"></g>
                            <path d="M9.0845,12.8138 C9.0845,12.8138 20.3555,14.7108 11.6265,25.7178 C2.8975,36.7238 -3.8715,48.4888 3.4975,64.0488 C10.8675,79.6098 5.5545,75.0558 5.1745,97.4478 C4.7955,119.8388 1.6085,126.6708 9.0845,131.9848 C16.5605,137.2968 23.7715,125.5328 27.1875,111.8698 C30.6035,98.2068 43.8865,90.7818 37.0555,73.0508 C30.2235,55.3208 10.3365,54.9408 17.6225,40.8988 C24.9095,26.8558 27.9385,6.6608 18.1145,2.1168 C8.2915,-2.4282 3.2925,6.2878 9.0845,12.8138" id="Fill-66" fill="#AAAC83" mask="url(#mask-22)"></path>
                        </g>
                        <g id="Group-71" stroke="none" stroke-width="1" fill="none" fill-rule="evenodd" transform="translate(926.000000, 707.800000)">
                            <mask id="mask-24" fill="white">
                                <use xlink:href="#path-23"></use>
                            </mask>
                            <g id="Clip-70"></g>
                            <path d="M106.4712,3.9241 C106.3092,3.8211 74.5392,-3.4929 62.5622,2.9591 C50.5852,9.4101 24.4522,12.9091 9.0882,23.7141 C-6.2758,34.5181 2.8592,59.5371 2.8592,59.5371" id="Stroke-69" stroke="#275D31" stroke-width="0.947" mask="url(#mask-24)"></path>
                        </g>
                        <path d="M941.395,652.7016 C943.783,652.7016 960.196,660.3166 968.262,672.4046 C976.329,684.4926 1036.345,711.7236 1036.345,711.7236" id="Stroke-72" stroke="#367337" stroke-width="0.947" fill="none"></path>
                        <path d="M1002.2944,578.0298 C1002.2944,578.0698 1007.0704,595.7758 1022.5944,634.0908 C1038.1184,672.4048 1047.1984,716.4958 1059.4814,720.7808" id="Stroke-74" stroke="#275D31" stroke-width="0.947" fill="none"></path>
                        <path d="M1040.5063,540.4712 C1040.5063,540.4712 1041.6633,556.5752 1043.1743,575.6812 C1044.6863,594.7872 1044.3533,618.9252 1046.6093,638.5002 C1048.8653,658.0752 1059.4973,713.1652 1059.4973,713.1652" id="Stroke-76" stroke="#367337" stroke-width="0.947" fill="none"></path>
                        <path d="M1040.4438,719.6284 C1040.4438,719.6284 1053.6478,712.3904 1066.5118,712.6384 C1079.3768,712.8854 1078.4738,714.5864 1078.4738,714.5864 C1078.4738,714.5864 1082.2038,719.1924 1071.7628,725.0654 C1061.3238,730.9384 1027.6038,719.6554 1040.4438,719.6284" id="Fill-78" stroke="none" fill="#504A44" fill-rule="evenodd"></path>
                        <path d="M1089.0659,540.4712 C1089.0659,540.4712 1089.4649,577.4722 1082.8979,590.0102 C1076.3299,602.5492 1062.0159,698.6212 1068.7569,712.1612" id="Stroke-80" stroke="#275D31" stroke-width="0.947" fill="none"></path>
                        <path d="M1159.3208,540.7866 C1159.3208,540.7866 1128.8718,571.0366 1125.2888,584.4046 C1121.7068,597.7716 1083.1118,657.3746 1079.7388,682.2126" id="Stroke-82" stroke="#367337" stroke-width="0.947" fill="none"></path>
                        <path d="M1182.0093,611.9263 C1182.0093,611.9263 1168.8743,624.4353 1155.7383,634.0903 C1142.6043,643.7453 1125.5003,645.4883 1106.3963,667.6283 C1087.2913,689.7693 1066.5123,712.6383 1066.5123,712.6383" id="Stroke-84" stroke="#275D31" stroke-width="0.947" fill="none"></path>
                        <g id="Group-88" stroke="none" stroke-width="1" fill="none" fill-rule="evenodd" transform="translate(1065.000000, 732.800000)">
                            <mask id="mask-26" fill="white">
                                <use xlink:href="#path-25"></use>
                            </mask>
                            <g id="Clip-87"></g>
                            <path d="M8.6226,0.5052 C8.6226,0.5052 -2.9334,19.6102 1.5126,27.3722 C5.9566,35.1342 17.0926,41.7262 14.7386,56.7972 C12.3866,71.8692 8.7566,86.4822 8.7566,86.4822" id="Stroke-86" stroke="#8A8A6A" stroke-width="0.947" mask="url(#mask-26)"></path>
                        </g>
                        <path d="M628.773,230.8701 C629.758,231.7301 648.885,248.7181 653.377,252.4731 C657.871,256.2261 658.727,252.9721 666.002,245.7201 C673.276,238.4691 685.471,227.7441 687.825,226.2601 C690.178,224.7751 677.151,211.7671 668.688,207.8951 C660.224,204.0221 660.291,202.5241 658.439,204.4501 C656.587,206.3751 621.612,224.6141 628.773,230.8701" id="Fill-89" stroke="none" fill="#3F3735" fill-rule="evenodd"></path>
                        <path d="M638.7632,217.0625 C638.7632,217.0625 641.7192,214.8715 643.5572,216.1395 C646.1502,218.4205 647.7162,218.7385 647.7232,222.6205 C647.7342,228.6225 660.1712,228.0875 663.9162,234.5675 C667.6612,241.0475 665.8712,242.6535 665.8712,242.6535 L657.0222,252.4725 L628.5112,228.3305 C628.5112,228.3305 626.7872,227.6805 629.9472,224.2885 C631.4702,222.6525 638.7632,217.0625 638.7632,217.0625" id="Fill-91" stroke="none" fill="#272525" fill-rule="evenodd"></path>
                        <path d="M646.5601,254.0444 C646.9611,253.9544 652.8431,257.6974 654.4481,258.7674 C656.0521,259.8364 657.3161,254.7404 657.0221,252.4724 C656.7281,250.2044 628.5111,228.3304 628.5111,228.3304 C628.5111,228.3304 626.5061,227.9154 626.7731,235.8544 C627.0401,243.7934 646.5601,254.0444 646.5601,254.0444" id="Fill-93" stroke="none" fill="#323030" fill-rule="evenodd"></path>
                        <path d="M686.9351,224.288 C686.9351,224.288 688.0701,224.151 688.1041,229.293 C688.1381,234.435 688.1041,232.029 688.1041,232.029 C688.1041,232.029 663.6721,261.732 655.6511,258.913 C655.6511,258.913 653.9141,256.674 654.4481,254.044 C654.9831,251.414 686.9351,224.288 686.9351,224.288" id="Fill-95" stroke="none" fill="#272525" fill-rule="evenodd"></path>
                        <path d="M636.357,227.0058 C636.357,227.0058 638.001,228.8238 638.549,228.8288 C639.097,228.8328 644.684,222.9968 644.997,222.2608 C645.308,221.5258 642.339,219.4708 642.339,219.4708 C642.339,219.4708 634.165,225.1838 636.357,227.0058" id="Fill-97" stroke="none" fill="#323030" fill-rule="evenodd"></path>
                        <path d="M663.7047,193.9335 C663.7047,193.9335 652.1857,214.5455 652.9457,217.0625 C653.7057,219.5785 659.7847,227.5575 670.4227,227.1775 C670.4227,227.1775 676.3757,230.1495 686.1267,202.4485 C686.1267,202.4485 671.0447,191.0835 663.7047,193.9335" id="Fill-99" stroke="none" fill="#534948" fill-rule="evenodd"></path>
                        <path d="M665.4039,197.4106 C665.4039,197.4106 673.5959,203.6126 682.0289,203.6126 C691.3189,203.6126 683.8559,196.6796 676.0179,193.3916 C670.9329,191.2576 659.3759,190.2856 665.4039,197.4106" id="Fill-101" stroke="none" fill="#3C3635" fill-rule="evenodd"></path>
                        <path d="M662.15,196.7636 C662.15,196.7636 663.979,201.1576 672.098,203.9746 C680.216,206.7906 684.887,205.8606 684.996,205.5696" id="Stroke-103" stroke="#3C3635" stroke-width="0.895" fill="none"></path>
                        <path d="M666.7964,194.2817 C666.7964,194.2817 666.7964,192.0057 672.2634,193.4747 C677.7314,194.9447 682.3704,198.6727 683.0324,199.4177 C683.6954,200.1637 684.6074,202.2347 680.7964,201.8207 C676.9854,201.4067 666.2994,197.2637 666.7964,194.2817" id="Fill-105" stroke="none" fill="#534948" fill-rule="evenodd"></path>
                        <path d="M621.0015,287.1284 C621.0015,287.1284 623.4545,265.8674 624.0005,261.7784 C624.5455,257.6904 619.6395,253.3284 621.0015,249.5124 C622.3645,245.6964 624.2725,228.2514 628.6345,224.1624 C632.9955,220.0734 634.6305,220.3594 636.2665,222.2604 C637.9015,224.1624 632.7235,225.7974 631.6325,232.6124 C630.5425,239.4264 630.8145,244.0604 634.6305,242.4254 C638.4465,240.7904 640.6275,228.9014 643.0805,226.2594 C645.5335,223.6174 650.7135,225.5254 648.8055,228.5244 C648.8055,228.5244 652.3485,225.5844 653.9835,230.8704 C653.9835,230.8704 653.4395,236.1554 652.0755,238.0644 C650.7135,239.9724 656.4375,233.0964 659.1625,233.8084 C661.8895,234.5204 665.7045,234.8284 662.9795,243.5334 C660.2535,252.2384 654.5285,252.8314 656.7095,245.7204 C656.7095,245.7204 656.7095,239.1544 652.3485,248.1494 C647.9865,257.1444 651.5305,255.5094 649.3505,263.9594 C647.1695,272.4094 638.6325,271.4804 635.6775,283.5294 C632.7235,295.5784 621.0015,287.1284 621.0015,287.1284" id="Fill-107" stroke="none" fill="#FDF4E7" fill-rule="evenodd"></path>
                        <path d="M650.9586,692.605 C650.9586,692.605 658.6106,697.72 668.3156,697.72 C678.0216,697.72 688.1626,706.013 687.0676,714.147 C686.2366,720.321 683.0386,722.424 666.6336,721.984 C650.2296,721.542 640.9656,719.336 630.3776,718.455 C619.7896,717.572 633.7576,692.605 633.7576,692.605 L650.9586,692.605 Z" id="Fill-109" stroke="none" fill="#EF861F" fill-rule="evenodd"></path>
                        <path d="M677.2125,700.3813 C677.2035,700.2033 677.1585,700.0333 677.1225,699.8613 C674.3775,698.5193 671.3255,697.7203 668.3165,697.7203 C658.6105,697.7203 650.9585,692.6053 650.9585,692.6053 L642.8345,692.6053 C643.8345,694.7153 646.3835,697.5683 652.6515,700.3813 C664.8545,705.8563 677.6825,709.2983 677.2125,700.3813" id="Fill-111" stroke="none" fill="#ED9344" fill-rule="evenodd"></path>
                        <path d="M677.6783,258.913 C677.6783,258.913 674.1903,256.274 686.1263,255.466 C698.0633,254.657 707.9643,251.083 703.8873,258.913 C699.8103,266.743 681.0273,267.391 677.6783,258.913" id="Fill-113" stroke="none" fill="#DE7B25" fill-rule="evenodd"></path>
                        <path d="M681.2066,262.8242 C680.6906,259.6492 681.9466,239.0842 681.2066,235.8542 C680.4656,232.6252 671.3666,234.0342 667.8666,233.3662 C658.2976,231.5402 659.6886,227.9342 662.6536,228.3302 C665.6176,228.7262 655.9486,228.3302 657.1206,224.1022 C657.7816,221.7202 661.9376,222.6202 661.9376,222.6202 C661.9376,222.6202 655.9696,220.7672 657.4516,217.0622 C658.9346,213.3572 661.7526,214.6542 661.7526,214.6542 C661.7526,214.6542 658.0476,212.8012 659.3446,210.2072 C660.6416,207.6132 661.8576,209.1972 666.1186,210.6792 C670.3806,212.1612 679.9166,214.1752 683.8076,215.1012 C687.6976,216.0272 690.2846,220.2122 693.2486,223.1762 C696.2136,226.1402 701.2156,231.1502 700.1036,241.8922 C698.9916,252.6342 699.4946,257.8222 700.2626,261.5272 C701.0296,265.2332 683.4296,276.5342 681.2066,262.8242" id="Fill-115" stroke="none" fill="#FDF4E7" fill-rule="evenodd"></path>
                        <path d="M532.7945,166.3632 C532.7945,166.3632 509.6865,161.1992 494.9275,195.4932 C480.1675,229.7862 483.0615,254.1792 494.7815,279.5092 C506.5025,304.8392 489.5725,330.4512 490.8745,360.4042 C491.1595,366.9592 491.3735,372.3532 491.5325,376.7802 C491.7015,381.4832 497.2155,384.1522 500.8455,381.1562 C501.7475,380.4102 502.6575,379.9632 503.5415,379.9632 C515.3765,379.9632 553.2375,358.6672 555.4815,351.2872 C557.7255,343.9082 540.8235,300.8022 541.7655,268.9352 C542.7055,237.0672 557.3505,189.8042 532.7945,166.3632" id="Fill-117" stroke="none" fill="#393A3A" fill-rule="evenodd"></path>
                        <path d="M525.732,347.4409 C525.732,347.4409 510.278,353.8429 509.028,370.4079 C507.778,386.9719 515.591,395.4109 512.779,406.6619 C509.965,417.9129 508.403,425.6199 511.84,431.7669 C515.279,437.9159 531.843,464.1689 546.532,452.9179 C561.221,441.6659 525.732,347.4409 525.732,347.4409" id="Fill-119" stroke="none" fill="#134277" fill-rule="evenodd"></path>
                        <path d="M478.1802,688.0151 C478.1802,689.3381 474.6512,695.0741 478.1802,699.9261 C481.7092,704.7791 487.4452,715.8591 483.0332,722.0091 C478.6212,728.1601 470.2402,728.1601 462.2982,710.0731 C454.3582,691.9851 448.6232,693.3091 448.1822,688.0151 C447.7412,682.7211 456.1252,679.1681 464.5052,676.0921 C472.8862,673.0161 478.1802,688.0151 478.1802,688.0151" id="Fill-121" stroke="none" fill="#EF861F" fill-rule="evenodd"></path>
                        <path d="M477.3463,690.7788 C476.6333,690.2138 475.9323,689.7958 475.2553,689.5878 C475.2553,689.5878 473.0663,696.7828 475.2553,701.6328 C477.4463,706.4818 482.7643,712.4258 481.8253,720.0918 C481.6543,721.4998 481.4453,722.7948 481.2683,723.9438 C481.9083,723.4018 482.5003,722.7518 483.0333,722.0088 C487.4453,715.8588 481.7093,704.7788 478.1803,699.9258 C475.8773,696.7598 476.5793,693.2258 477.3463,690.7788" id="Fill-123" stroke="none" fill="#ED9344" fill-rule="evenodd"></path>
                        <path d="M527.1548,412.6 C527.1548,412.6 516.2168,420.722 505.9028,420.255 C505.9028,420.255 500.5898,419.788 505.9028,435.728 C511.2158,451.666 514.3418,461.356 524.6548,462.918 C534.9678,464.481 541.5318,465.106 543.4068,462.918 C545.2818,460.73 527.1548,412.6 527.1548,412.6" id="Fill-125" stroke="none" fill="#1D3863" fill-rule="evenodd"></path>
                        <path d="M650.2701,473.1274 C650.2701,473.1274 642.8361,514.4084 610.7771,554.3144 C578.7161,594.2184 539.4281,627.2434 539.4281,627.2434 C539.4281,627.2434 493.4031,688.7054 476.8901,694.4394 L464.5051,676.0924 C464.5051,676.0924 489.2311,632.0594 517.8051,609.3554 C517.8051,609.3554 530.5461,558.8584 548.0951,504.9844 C565.6441,451.1104 650.2701,473.1274 650.2701,473.1274" id="Fill-127" stroke="none" fill="#474647" fill-rule="evenodd"></path>
                        <path d="M524.4976,348.2192 C523.1896,349.8632 515.4406,355.4062 521.2986,371.0322 C527.1546,386.6592 527.1546,391.4482 525.9046,408.7432 C524.6546,426.0382 532.1076,441.9522 538.8516,446.3412 C545.5946,450.7292 552.8246,388.8962 544.0316,368.9832 C535.2386,349.0712 524.4976,348.2192 524.4976,348.2192" id="Fill-129" stroke="none" fill="#1D3863" fill-rule="evenodd"></path>
                        <path d="M539.4283,494.4565 C539.4283,494.4565 536.5773,512.3445 543.5423,523.3525 C550.5073,534.3605 605.4373,577.7055 624.4133,583.8975 C624.4133,583.8975 622.0613,680.2205 633.7573,692.6045 C633.7573,692.6045 645.4533,696.7325 650.9583,692.6045 C656.4623,688.4775 675.7273,594.2185 669.5343,576.3295 C663.3423,558.4415 633.7573,506.9655 613.8053,486.2625 L539.4283,494.4565 Z" id="Fill-131" stroke="none" fill="#393A3A" fill-rule="evenodd"></path>
                        <path d="M627.6207,485.3178 C633.9977,485.7548 654.3657,482.2168 657.8537,481.4418 C661.3427,480.6668 661.7297,443.8428 657.8537,410.1218 C653.9777,376.3998 632.3727,328.2718 632.6597,327.3188 C632.9457,326.3668 662.8927,341.9018 683.4357,333.7618 C683.4357,333.7618 712.8937,307.9108 704.7547,254.9428 C704.7547,254.9428 705.1417,258.5658 691.9637,260.8918 C678.7847,263.2168 677.2347,251.5888 676.8477,260.8918 C676.4597,270.1938 668.3197,286.0868 671.8087,294.2258 C671.8087,294.2258 644.7377,288.5198 635.6767,283.5268 C632.4197,281.7338 630.5677,277.9448 622.6667,278.8498 C621.2907,279.0068 620.4657,281.9788 619.0617,281.9438 C611.4757,281.7578 603.6037,282.3488 595.8367,284.1488 C595.8367,284.1488 584.2087,303.1408 549.7107,294.6138 C549.7107,294.6138 524.9037,293.6018 518.3137,310.9688 C511.7247,328.3358 516.8947,338.8008 527.1007,351.5918 C537.3077,364.3828 545.0587,370.9728 541.1827,416.7108 C537.3077,462.4488 534.9817,500.8218 539.6337,504.3108 C544.2847,507.7988 552.0367,496.5578 591.5727,497.7208 C591.5727,497.7208 622.0307,497.9648 622.5077,497.8248 C622.9847,497.6838 624.3217,486.2618 624.3217,486.2618 C624.3217,486.2618 623.2787,485.0208 627.6207,485.3178" id="Fill-133" stroke="none" fill="#EF861F" fill-rule="evenodd"></path>
                        <path d="M618.939,357.9482 C618.939,357.9482 614.389,371.3112 590.9,368.9832 C580.983,368.0002 550.584,367.1662 519.757,335.6872 C519.757,335.6872 519.15,336.5112 518.212,337.9412 C520.269,342.4832 523.341,346.8802 527.101,351.5922 C537.307,364.3832 545.06,370.9722 541.183,416.7102 C540.853,420.6092 540.535,424.4482 540.23,428.2222 C556.513,428.8142 561.226,371.1802 567.826,373.2172 C567.826,373.2172 615.869,383.8812 618.939,357.9482" id="Fill-135" stroke="none" fill="#E8821E" fill-rule="evenodd"></path>
                        <path d="M635.6763,283.5273 C645.7943,285.6863 671.8083,294.2263 671.8083,294.2263 C668.3203,286.0863 676.4593,270.1943 676.8473,260.8913 C677.2343,251.5893 678.7843,263.2173 691.9633,260.8913 C692.8293,260.7383 693.6333,260.5803 694.3863,260.4173 C695.6183,262.0303 692.1553,264.3933 686.0363,264.6353 C676.6613,265.0063 678.7253,285.4213 678.6543,294.9563 C678.5833,304.4913 669.7843,303.0013 661.7523,296.4463 C653.7203,289.8903 638.7293,286.3303 638.7293,286.3303 L635.6763,283.5273 Z" id="Fill-137" stroke="none" fill="#E8821E" fill-rule="evenodd"></path>
                        <path d="M619.0621,281.9443 C613.4311,281.8063 607.6441,282.0993 601.8591,282.9933 C600.2211,283.3273 598.4621,283.6603 596.5821,283.9903 C596.3331,284.0453 596.0841,284.0903 595.8361,284.1483 C595.8361,284.1483 584.2081,303.1413 549.7101,294.6133 C549.7101,294.6133 537.8901,294.1343 528.4021,299.5483 C531.9231,300.3633 537.6661,302.1723 543.7991,306.0893 C553.7791,312.4633 576.9161,316.1703 583.6851,310.9683 C590.4551,305.7673 593.9181,294.7603 605.1861,290.0083 C615.0521,285.8463 616.6811,286.2043 619.7181,281.7333 C619.5111,281.8673 619.2951,281.9503 619.0621,281.9443" id="Fill-139" stroke="none" fill="#E8821E" fill-rule="evenodd"></path>
                        <path d="M559.8472,304.7919 C559.8472,304.7919 561.0812,312.5839 572.5922,310.6649 C584.1032,308.7469 583.3832,298.9139 583.3832,298.9139 C583.3832,298.9139 554.6792,299.2529 559.8472,304.7919" id="Fill-141" stroke="none" fill="#E2CFB8" fill-rule="evenodd"></path>
                        <path d="M599.4527,207.7294 C599.4527,207.7294 595.6777,228.2284 599.4527,239.0174 C603.2287,249.8064 609.7027,280.5544 587.5857,298.8964 C565.4677,317.2374 539.0347,297.8174 517.4567,270.8444 C517.4567,270.8444 508.8257,276.2394 503.4317,260.0554 C498.0367,243.8724 510.9827,244.4114 513.6807,252.5034 C513.6807,252.5034 509.3647,238.4784 521.2327,217.4394 C533.1007,196.4004 532.5607,191.0064 535.2587,188.8484 C537.9557,186.6904 589.7427,175.9014 599.4527,207.7294" id="Fill-143" stroke="none" fill="#FDF4E7" fill-rule="evenodd"></path>
                        <path d="M536.8072,221.4091 C537.1302,220.4431 537.6312,219.6591 538.1962,218.8891 C538.7582,218.1231 539.4172,217.4461 540.1052,216.7991 C541.5032,215.5301 543.1012,214.5171 544.7702,213.6941 C546.4332,212.8461 548.1982,212.2591 549.9732,211.7791 C550.8652,211.5551 551.7722,211.3961 552.6692,211.2251 C553.5802,211.1171 554.4892,211.0131 555.4002,210.9591 L555.5632,211.8401 C554.7202,212.1621 553.8742,212.4351 553.0312,212.7021 L550.5432,213.5971 C548.9192,214.2551 547.2912,214.8741 545.7662,215.6831 C544.2332,216.4691 542.7422,217.3261 541.3622,218.3341 C540.0042,219.3421 538.6602,220.4861 537.6212,221.7811 L536.8072,221.4091 Z" id="Fill-145" stroke="none" fill="#CBB8A5" fill-rule="evenodd"></path>
                        <path d="M578.9332,209.832 C579.7332,208.832 580.6852,208.208 581.7012,207.64 C582.7172,207.095 583.7812,206.658 584.8712,206.334 C585.9552,205.984 587.0642,205.748 588.1742,205.549 C589.2882,205.371 590.4102,205.263 591.5322,205.221 L591.6502,206.108 L588.4582,206.895 C587.4102,207.183 586.3632,207.461 585.3412,207.802 C584.3192,208.139 583.3112,208.505 582.3422,208.939 C581.3862,209.36 580.3842,209.853 579.6092,210.418 L578.9332,209.832 Z" id="Fill-147" stroke="none" fill="#CBB8A5" fill-rule="evenodd"></path>
                        <path d="M568.1763,212.9184 C567.3183,214.6764 566.6903,216.5974 566.2883,218.5094 C565.8873,220.4294 565.7253,222.3824 565.8763,224.3004 C566.0253,226.2184 566.4863,228.0914 567.2043,229.8604 C567.9193,231.6254 568.9393,233.3334 570.1273,234.8164 C571.3383,236.3094 572.7553,237.5754 574.4043,238.7184 C575.2113,239.3034 576.0953,239.8714 576.9253,240.6834 C577.1383,240.8704 577.3353,241.0974 577.5223,241.3484 L577.8023,241.7114 L578.0273,242.1354 L578.2413,242.5614 L578.3723,243.0194 C578.4603,243.3254 578.5383,243.6324 578.5343,243.9334 C578.6463,245.1714 578.3393,246.2314 578.0973,247.2454 C577.8273,248.2734 577.4523,249.2734 576.9963,250.2314 C576.0623,252.1414 574.8733,253.9064 573.1833,255.2884 L572.6143,254.5974 C573.9263,253.2174 574.9733,251.4664 575.6593,249.6534 C575.9923,248.7354 576.2843,247.8054 576.4883,246.8534 C576.6743,245.8914 576.8663,244.9264 576.7343,244.1304 C576.6283,243.3164 576.2423,242.6954 575.5773,242.1144 C574.9173,241.5364 574.0713,241.0084 573.2153,240.4244 C571.4893,239.2924 569.7763,237.8874 568.4223,236.2124 C567.0703,234.5264 565.9233,232.7264 565.1443,230.7014 C564.3393,228.6994 563.8703,226.5554 563.8083,224.4044 C563.6873,220.0854 565.0343,215.8934 567.4253,212.4294 L568.1763,212.9184 Z" id="Fill-149" stroke="none" fill-opacity="0.8" fill="#CBB8A5" fill-rule="evenodd"></path>
                        <path d="M589.2686,227.9355 C588.643933,228.426833 587.785933,229.087833 586.6946,229.9185 C585.2546,230.579833 584.1376,230.986167 583.3436,231.1375 C582.1606,231.3555 580.8436,231.3115 579.6996,230.7125 C578.5586,230.1095 577.7746,229.0405 577.2706,227.9385 L577.1746,227.7545 L577.2786,227.5545 C577.9626,226.2475 578.8926,225.2025 579.9556,224.2715 C581.0096,223.3385 582.2246,222.6065 583.4896,222.0195 C584.7726,221.4695 586.1146,221.0635 587.4826,220.8635 C588.1616,220.7305 588.8586,220.7425 589.5396,220.6765 C590.2256,220.6705 590.9116,220.7095 591.5906,220.7455 C590.9126,220.8515 590.2376,220.9055 589.5706,221.0145 C588.9106,221.1605 588.2396,221.2275 587.5996,221.4355 C586.2896,221.7245 585.0576,222.2475 583.8626,222.8025 C582.6776,223.3915 581.5986,224.1585 580.6036,225.0105 C579.6286,225.8695 578.7276,226.8875 578.0806,227.9555 L578.0896,227.5745 C578.5256,228.5755 579.1756,229.4755 580.0926,229.9835 C581.0096,230.4865 582.1286,230.5645 583.2116,230.3875 C585.3916,229.9925 587.4646,228.8455 589.2686,227.5105 L589.2686,227.9355 Z" id="Fill-151" stroke="none" fill="#CBB8A5" fill-rule="evenodd"></path>
                        <path d="M549.3394,233.9633 C548.0484,234.2773 546.7894,234.7743 545.6164,235.3863 C544.4484,236.0113 543.3244,236.7193 542.3454,237.6013 C541.3604,238.4653 540.4304,239.4043 539.6784,240.4833 C538.8674,241.5213 538.2524,242.6903 537.6264,243.8603 L537.6264,243.8613 L537.4814,243.3253 C538.4304,243.9733 539.6904,244.3493 540.9034,244.3873 C542.1354,244.4363 543.3724,244.1303 544.5094,243.6053 C545.6694,243.1093 546.6734,242.3023 547.6504,241.4863 C548.0974,241.0293 548.5634,240.5893 548.9994,240.1193 L550.2334,238.6353 L550.5344,238.8583 L549.3314,240.4083 C548.9024,240.9033 548.4414,241.3713 547.9954,241.8553 C547.0174,242.7313 546.0014,243.6053 544.7834,244.1783 C543.5944,244.7773 542.2574,245.1603 540.8904,245.1523 C539.5194,245.1393 538.1744,244.8223 536.9474,244.0453 L536.6444,243.8523 L536.8034,243.5083 C537.0794,242.8723 537.3394,242.2213 537.6714,241.6073 C538.0304,241.0083 538.3574,240.3853 538.7904,239.8323 C539.5974,238.6843 540.6044,237.6833 541.6904,236.8023 C543.8934,235.0793 546.5334,233.9013 549.3044,233.6533 L549.3394,233.9633 Z" id="Fill-153" stroke="none" fill="#CBB8A5" fill-rule="evenodd"></path>
                        <path d="M571.1871,273.0761 C572.4861,272.6471 574.0081,271.8681 574.5481,270.6961 C574.6791,270.4151 574.7551,270.0961 574.7461,269.8361 C574.7181,269.8041 574.7571,269.7931 574.6861,269.7521 C574.6461,269.7091 574.5311,269.6531 574.3981,269.6211 C573.8411,269.4751 573.0771,269.5761 572.3941,269.7651 C571.6931,269.9511 571.0081,270.2521 570.3681,270.6251 C569.7411,270.9951 569.0841,271.4661 568.6451,271.9221 C568.4001,272.1811 568.3961,272.3341 568.4071,272.3401 C568.4251,272.4241 568.7381,272.6121 569.0551,272.7111 C569.3831,272.8241 569.7511,272.8961 570.1211,272.9581 L570.6841,273.0291 L570.9681,273.0541 L571.1091,273.0641 C571.1621,273.0691 571.2091,273.0671 571.1871,273.0761 M571.3051,273.9641 L571.0871,273.9701 L570.9321,273.9701 L570.6251,273.9651 L570.0081,273.9321 C569.5951,273.8921 569.1801,273.8441 568.7501,273.7321 C568.3361,273.5881 567.8391,273.4861 567.4361,272.8891 C567.3431,272.7251 567.2701,272.5581 567.2791,272.3681 C567.2651,272.1731 567.2861,271.9951 567.3491,271.8691 C567.4471,271.5561 567.6021,271.3731 567.7501,271.1781 C568.3731,270.4661 569.0381,270.0331 569.7521,269.5801 C570.4701,269.1491 571.2401,268.7971 572.0631,268.5651 C572.8941,268.3631 573.7531,268.2021 574.7351,268.4551 C574.9781,268.5261 575.2431,268.6281 575.4901,268.8531 C575.7491,269.0461 575.9271,269.4431 575.9431,269.7951 C575.9561,270.3251 575.8091,270.7901 575.5921,271.2141 C575.1511,272.0601 574.4411,272.6441 573.7071,273.0751 C572.9291,273.4951 572.2201,273.7531 571.3051,273.9641" id="Fill-155" stroke="none" fill="#CBB8A5" fill-rule="evenodd"></path>
                        <path d="M569.5425,280.8393 C569.9185,280.0713 570.4345,279.4883 571.0525,278.9733 C571.6645,278.4653 572.3685,278.0693 573.1085,277.7813 C573.8535,277.5073 574.6335,277.3323 575.4135,277.2923 C575.8035,277.2583 576.1915,277.2973 576.5765,277.3153 C576.9605,277.3693 577.3395,277.4343 577.7105,277.5283 L577.6485,278.4223 C576.9385,278.5433 576.2555,278.6303 575.5925,278.7673 C574.9255,278.8813 574.2905,279.0743 573.6595,279.2713 C573.0415,279.5013 572.4455,279.7783 571.8785,280.1193 C571.3195,280.4543 570.7535,280.8763 570.3065,281.3083 L569.5425,280.8393 Z" id="Fill-157" stroke="none" fill="#CBB8A5" fill-rule="evenodd"></path>
                        <path d="M606.9847,230.2586 C613.9337,221.1076 614.0467,176.9406 586.3197,164.1096 C560.9447,152.3656 558.0397,153.0086 529.1667,166.0896 C529.1667,166.0896 524.5187,170.8276 529.1667,176.1416 C533.8137,181.4556 535.2587,188.8486 535.2587,188.8486 C535.2587,188.8486 556.3837,183.8366 575.3477,187.1426 C594.3127,190.4496 599.4527,207.7296 599.4527,207.7296 C599.4527,207.7296 593.2637,228.7196 602.5767,252.0966 C603.7727,255.0976 600.0357,239.4096 606.9847,230.2586 Z" id="Fill-159" stroke="none" fill="#474647" fill-rule="evenodd"></path>
                        <path d="M640.8297,242.9169 C641.5427,241.8729 642.1817,240.5839 642.8217,239.3879 L644.7247,235.7199 L646.6427,232.0559 C647.3027,230.8429 647.9427,229.6219 648.7247,228.4679 C648.7557,228.4239 648.8157,228.4119 648.8597,228.4419 C648.9037,228.4719 648.9157,228.5299 648.8887,228.5739 L648.8857,228.5789 C648.1687,229.7399 647.5767,230.9889 646.9737,232.2239 L645.2137,235.9599 L643.4677,239.7089 C642.8547,240.9639 642.3357,242.1869 641.5457,243.4539 C641.4157,243.6639 641.1397,243.7279 640.9297,243.5979 C640.7197,243.4669 640.6557,243.1909 640.7857,242.9809 C640.7887,242.9769 640.7927,242.9719 640.7957,242.9669 L640.8297,242.9169 Z" id="Fill-161" stroke="none" fill="#CBB8A5" fill-rule="evenodd"></path>
                        <path d="M646.7408,245.477 L652.0248,238.031 C652.0448,238.004 652.0828,237.998 652.1098,238.017 C652.1358,238.035 652.1418,238.07 652.1268,238.097 L647.4918,245.964 C647.3668,246.177 647.0918,246.248 646.8788,246.123 C646.6658,245.997 646.5948,245.722 646.7198,245.509 C646.7258,245.498 646.7338,245.487 646.7408,245.477" id="Fill-163" stroke="none" fill="#CBB8A5" fill-rule="evenodd"></path>
                        <path d="M674.7271,229.7377 C672.6891,229.6937 670.6651,229.5917 668.6401,229.4137 C667.6281,229.3257 666.6191,229.2157 665.6131,229.0647 C664.6081,228.9107 663.6021,228.7377 662.6231,228.4347 C662.5661,228.4177 662.5351,228.3567 662.5521,228.2987 C662.5691,228.2427 662.6281,228.2117 662.6831,228.2257 C663.6561,228.4677 664.6591,228.5837 665.6591,228.6797 C666.6611,228.7737 667.6671,228.8267 668.6741,228.8577 C670.6871,228.9227 672.7091,228.9107 674.7161,228.8427 L674.7221,228.8417 C674.9691,228.8337 675.1761,229.0277 675.1851,229.2747 C675.1931,229.5217 674.9991,229.7297 674.7521,229.7377 L674.7271,229.7377 Z" id="Fill-165" stroke="none" fill="#CBB8A5" fill-rule="evenodd"></path>
                        <path d="M673.6109,224.7358 C671.6099,224.6608 669.6289,224.5028 667.6499,224.2528 C666.6619,224.1188 665.6759,223.9588 664.7019,223.7418 C663.7349,223.5068 662.7469,223.2488 661.8959,222.6818 C661.8609,222.6588 661.8519,222.6128 661.8749,222.5788 C661.8969,222.5458 661.9399,222.5358 661.9739,222.5558 L661.9799,222.5598 C662.8199,223.0468 663.8039,223.2428 664.7659,223.4128 C665.7379,223.5658 666.7179,223.6628 667.7009,223.7328 C669.6679,223.8568 671.6479,223.8898 673.6099,223.8398 L673.6159,223.8398 C673.8629,223.8338 674.0689,224.0288 674.0749,224.2768 C674.0819,224.5238 673.8859,224.7298 673.6379,224.7358 L673.6109,224.7358 Z" id="Fill-167" stroke="none" fill="#CBB8A5" fill-rule="evenodd"></path>
                        <path d="M675.9937,219.9179 C674.6887,219.8039 673.4237,219.6089 672.1517,219.3699 C670.8867,219.1259 669.6287,218.8329 668.3957,218.4449 C667.1667,218.0549 665.9447,217.6199 664.7977,217.0129 C663.6527,216.4129 662.5557,215.6919 661.6587,214.7439 C661.6087,214.6909 661.6107,214.6089 661.6637,214.5599 C661.7147,214.5119 661.7967,214.5159 661.8477,214.5639 C662.7517,215.4429 663.8447,216.0989 664.9817,216.6359 C666.1207,217.1809 667.3367,217.5579 668.5557,217.8889 C669.7767,218.2189 671.0237,218.4569 672.2757,218.6439 C673.5257,218.8269 674.7977,218.9669 676.0427,219.0239 L676.0537,219.0239 C676.3007,219.0359 676.4917,219.2449 676.4797,219.4919 C676.4697,219.7389 676.2597,219.9299 676.0137,219.9189 C676.0077,219.9189 675.9997,219.9179 675.9937,219.9179" id="Fill-169" stroke="none" fill="#CBB8A5" fill-rule="evenodd"></path>
                        <path d="M624.2896,485.479 C639.4216,411 618.9376,357.948 618.9376,357.948" id="Stroke-171" stroke="#CF751F" stroke-width="0.895" fill="none"></path>
                        <path d="M556.7017,431.767 C556.7017,431.043 556.2057,425.497 556.0877,420.255 C556.0047,416.577 556.1087,413.046 556.7017,411.438 C558.1387,407.536 569.2277,412.875 585.4507,411.438 C601.6737,410 602.6997,405.277 603.1107,413.286 C603.5207,421.294 603.9317,427.044 603.1107,427.661" id="Stroke-173" stroke="#CF751F" stroke-width="0.895" fill="none"></path>
                        <path d="M556.0875,420.2553 C556.0875,420.2553 574.9785,425.6073 596.7445,418.8303" id="Stroke-175" stroke="#CF751F" stroke-width="0.895" fill="none"></path>
                        <path d="M524.8521,348.6953 C524.8521,348.6953 511.4701,359.2563 515.3761,379.9633 C517.2831,390.0733 522.4671,394.7853 519.9661,406.6613 L517.4661,418.5383" id="Stroke-177" stroke="#1D3863" stroke-width="1" fill="none"></path>
                        <path d="M555.6871,361.0327 C552.0511,373.4037 551.0821,404.9847 540.2301,428.2217 L539.4281,438.4677 C539.4281,438.4677 559.9791,418.2797 561.7401,362.9817 C561.7401,362.1177 555.9571,360.1157 555.6871,361.0327" id="Fill-179" stroke="none" fill="#1D3863" fill-rule="evenodd"></path>
                        <path d="M551.4752,388.6391 C553.0452,389.5061 555.9882,391.0871 558.4272,391.2451 C558.9102,391.2771 559.2442,391.7291 559.1412,392.2011 C558.5502,394.8941 556.9282,402.2591 556.2332,405.0341 C556.1142,405.5061 555.6352,405.7871 555.1652,405.6571 C552.9642,405.0471 548.1152,403.7701 548.0952,402.7341 C548.0762,401.6441 550.0322,391.9091 550.6152,389.0371 C550.6942,388.6461 551.1252,388.4461 551.4752,388.6391 Z" id="Stroke-181" stroke="#E0DCD8" stroke-width="0.895" fill="none"></path>
                        <path d="M508.4039,253.9423 C507.8469,255.6893 507.6309,257.5713 507.9119,259.3103 C508.0559,260.1803 508.3259,261.0233 508.7849,261.7603 C508.9719,262.1533 509.2689,262.4783 509.5229,262.8303 C509.8259,263.1413 510.1279,263.4663 510.4589,263.7483 C511.0779,264.3193 511.9959,264.7413 512.2769,264.4513 C512.4569,264.3193 512.5969,263.9493 512.6069,263.5503 C512.6239,263.1513 512.5659,262.7213 512.4439,262.3083 C511.9629,260.6423 510.5009,259.2033 508.5839,258.9463 C509.5359,258.8793 510.5269,259.1443 511.3689,259.6893 C512.2009,260.2493 512.8599,261.0733 513.2449,262.0253 C513.4359,262.5033 513.5709,263.0143 513.5799,263.5613 C513.5829,264.0943 513.5089,264.7313 512.9779,265.2553 C512.7049,265.5043 512.3319,265.6343 511.9879,265.6493 C511.6559,265.6473 511.3459,265.5843 511.0839,265.4793 C510.5489,265.2753 510.1099,264.9833 509.7149,264.6663 C508.1269,263.4193 506.9969,261.4813 506.8189,259.4623 C506.5919,257.4463 507.0669,255.4673 507.9799,253.7403 L508.4039,253.9423 Z" id="Fill-183" stroke="none" fill="#CBB8A5" fill-rule="evenodd"></path>
                        <path d="M564.813,233.8085 C564.813,233.8085 570.033,243.8435 573.802,244.7815 C577.572,245.7205 571.264,256.1185 569.924,255.4655 C568.584,254.8135 564.936,253.0555 564.813,233.8085" id="Fill-185" stroke="none" fill-opacity="0.3" fill="#E2CFB8" fill-rule="evenodd"></path>
                        <path d="M518.6871,333.5141 C519.9021,335.3031 521.3991,336.9231 522.9521,338.4661 C524.5011,340.0181 526.1541,341.4741 527.8471,342.8761 C531.2441,345.6731 534.8311,348.2431 538.5391,350.6191 C545.9611,355.3611 553.8751,359.3451 562.1231,362.4091 C570.3701,365.4591 579.0071,367.5021 587.7561,368.1051 C596.4991,368.6901 605.3531,367.5991 613.5521,364.5941 L613.5541,364.5931 L613.2221,364.8281 C617.4651,359.3961 621.0231,353.3001 624.1141,347.0631 C625.6791,343.9441 627.0671,340.7361 628.3821,337.5031 L630.2521,332.6101 L631.8871,327.6321 C633.9061,320.9501 635.6301,314.1521 636.5931,307.2241 C637.2271,303.7821 637.4571,300.2881 637.8161,296.8101 C638.0351,295.0731 638.0121,293.3211 638.0961,291.5741 L638.2811,286.3301 L638.4021,286.6351 L638.4001,286.6341 C637.2611,285.4521 636.0021,284.3401 634.6981,283.3211 C633.3881,282.3031 632.0061,281.3781 630.5461,280.6181 C629.0881,279.8641 627.5381,279.2701 625.9411,279.0661 C624.3481,278.8351 622.7241,279.1151 621.3521,279.8961 L621.3511,279.8961 L621.4581,279.8101 C618.6711,283.0841 616.0891,286.5721 613.6461,290.1281 C611.1991,293.6871 608.8981,297.3461 606.7681,301.0981 C604.6231,304.8421 602.6261,308.6691 600.8381,312.5881 C598.9921,316.4811 597.4511,320.5041 595.9801,324.5401 L595.9801,324.5421 L595.4651,325.8311 L594.3181,325.0861 C590.5571,322.6451 586.4091,320.5561 582.2011,318.7971 C577.9721,317.0431 573.5911,315.6541 569.1251,314.6521 C564.6641,313.6001 560.0811,313.1361 555.5051,313.0811 L552.0691,313.1281 L548.6501,313.4721 L546.9391,313.6501 L545.2541,313.9911 L541.8801,314.6701 L541.6501,313.8061 L545.0651,313.0311 L546.7751,312.6441 L548.5121,312.4201 L551.9931,311.9871 L555.4981,311.8541 C560.1661,311.7981 564.8641,312.1631 569.4441,313.1281 C574.0311,314.0411 578.5401,315.3551 582.9051,317.0441 C587.2741,318.7571 591.4861,320.7371 595.5541,323.2431 L593.8921,323.7871 L593.8921,323.7861 C595.4931,319.7151 597.1621,315.6711 599.1341,311.7741 C601.0461,307.8501 603.1641,304.0321 605.4261,300.3081 C607.6731,296.5741 610.0861,292.9441 612.6441,289.4211 C615.2031,285.8951 617.8751,282.4681 620.7931,279.2091 L620.8471,279.1491 L620.9011,279.1221 L620.9021,279.1211 C622.4561,278.2291 624.3201,277.9241 626.0541,278.1781 C627.8001,278.4031 629.4371,279.0371 630.9581,279.8231 C632.4811,280.6171 633.9041,281.5701 635.2481,282.6141 C636.5911,283.6651 637.8591,284.7831 639.0541,286.0231 L639.0561,286.0251 L639.1811,286.1571 L639.1771,286.3301 L639.0331,291.6091 C638.9631,293.3671 639.0001,295.1321 638.7921,296.8831 C638.4601,300.3871 638.2551,303.9091 637.6461,307.3811 C636.7321,314.3701 635.0491,321.2381 633.0661,327.9961 L631.4571,333.0331 L629.6081,337.9881 C628.3061,341.2631 626.9301,344.5141 625.3731,347.6801 C622.2831,354.0311 618.7891,360.1611 614.4321,365.8311 L614.3031,365.9991 L614.0991,366.0671 L614.0971,366.0681 C605.6451,369.1081 596.5621,370.1571 587.6621,369.5051 C578.7521,368.8331 570.0111,366.7021 561.6921,363.5641 C553.3731,360.4141 545.4171,356.3441 537.9621,351.5141 C534.2371,349.0931 530.6361,346.4781 527.2201,343.6291 C525.5171,342.2011 523.8551,340.7181 522.2891,339.1291 C520.7181,337.5471 519.2051,335.8931 517.9421,334.0111 L518.6871,333.5141 Z" id="Fill-187" stroke="none" fill="#CF751F" fill-rule="evenodd"></path>
                        <path d="M542.7056,237.0673 C542.7056,237.0673 539.9836,241.2503 543.7996,243.3673 C546.3486,244.7813 551.1666,238.3733 547.7416,235.8743 C545.7656,234.4323 543.2266,235.7233 542.7056,237.0673" id="Fill-189" stroke="none" fill="#504A44" fill-rule="evenodd"></path>
                        <path d="M583.9908,222.2641 C583.9908,222.2641 587.5428,222.0561 587.0108,225.0361 C586.4778,228.0171 586.2938,229.9361 582.9408,230.2461 C579.5888,230.5571 579.6808,224.6311 581.8368,223.4481 L583.9908,222.2641 Z" id="Fill-191" stroke="none" fill="#504A44" fill-rule="evenodd"></path>
                        <path d="M545.6187,236.3427 C545.6187,236.3427 544.8667,237.4987 545.9207,238.0827 C546.6247,238.4737 547.9557,236.7037 547.0097,236.0137 C546.4637,235.6147 545.7627,235.9717 545.6187,236.3427" id="Fill-193" stroke="none" fill="#FDF4E7" fill-rule="evenodd"></path>
                        <path d="M584.3121,223.663 C584.3121,223.663 583.4341,225.013 584.6651,225.696 C585.4881,226.152 587.0421,224.084 585.9371,223.278 C585.2991,222.813 584.4801,223.229 584.3121,223.663" id="Fill-195" stroke="none" fill="#FDF4E7" fill-rule="evenodd"></path>
                        <path d="M619.7183,428.227 C619.0003,430.13 604.9853,466.141 559.1593,478.513 C559.1593,478.513 548.0953,482.018 548.0953,493.501 C548.0953,504.985 585.3083,487.045 604.7983,486.262 C624.2893,485.479 631.4533,397.118 619.7183,428.227" id="Fill-197" stroke="none" fill="#E8821E" fill-rule="evenodd"></path>
                        <path d="M628.0425,261.4526 C628.0425,261.4526 632.5215,268.2526 638.7295,269.4286 C644.9375,270.6036 637.4365,276.5846 635.6765,275.5036 C633.9155,274.4236 620.5475,258.7506 628.0425,261.4526" id="Fill-199" stroke="none" fill-opacity="0.3" fill="#E2CFB8" fill-rule="evenodd"></path>
                    </g>
                </g>
            </g>
        </g>
    </g>
</svg>