<?xml version="1.0" encoding="UTF-8"?>
<svg width="653px" height="324px" viewBox="0 0 653 324" version="1.1" xmlns="http://www.w3.org/2000/svg" xmlns:xlink="http://www.w3.org/1999/xlink">
    <!-- Generator: Sketch 52.6 (67491) - http://www.bohemiancoding.com/sketch -->
    <title>homeimg3_behance</title>
    <desc>Created with Sketch.</desc>
    <defs>
        <linearGradient x1="33.4631951%" y1="49.9999726%" x2="127.012998%" y2="49.9999726%" id="linearGradient-1">
            <stop stop-color="#B5C6E4" offset="0%"></stop>
            <stop stop-color="#FDFEFF" offset="100%"></stop>
        </linearGradient>
        <linearGradient x1="11.1833915%" y1="30.6293184%" x2="111.006444%" y2="100%" id="linearGradient-2">
            <stop stop-color="#C3D1E9" offset="0%"></stop>
            <stop stop-color="#CAD7EC" offset="18.1449202%"></stop>
            <stop stop-color="#BDCBE4" offset="47.8184151%"></stop>
            <stop stop-color="#DAE3F2" offset="100%"></stop>
        </linearGradient>
        <linearGradient x1="5.80964758%" y1="50%" x2="94.2403171%" y2="63.9951031%" id="linearGradient-3">
            <stop stop-color="#A8B4D5" stop-opacity="0" offset="0%"></stop>
            <stop stop-color="#A8B4D5" stop-opacity="0.815751445" offset="52.5785766%"></stop>
            <stop stop-color="#A8B4D5" stop-opacity="0.237262228" offset="100%"></stop>
        </linearGradient>
        <path d="M0,55.025 L191.558,76.887 C198.3945,77.918 198.3945,77.918 201.514,74.7485 L254.771,23.52 L254.771,15.604 L127.386,0.069 L0,55.025 Z" id="path-4"></path>
        <linearGradient x1="-13.1494517%" y1="72.3541383%" x2="46.5840003%" y2="33.3308963%" id="linearGradient-6">
            <stop stop-color="#9CAAC9" offset="0%"></stop>
            <stop stop-color="#E6ECF7" offset="100%"></stop>
        </linearGradient>
        <polygon id="path-7" points="0.0672 0.145234111 172.8157 0.145234111 172.8157 188 0.0672 188"></polygon>
        <polygon id="path-9" points="0.06725 0.1275 172.81575 0.1275 172.81575 53.43655 0.06725 53.43655"></polygon>
        <polygon id="path-11" points="0.0002 0.3531 11.8547 0.3531 11.8547 14.5 0.0002 14.5"></polygon>
        <polygon id="path-13" points="0.16225 0.454 12.017 0.454 12.017 14.60085 0.16225 14.60085"></polygon>
        <polygon id="path-15" points="0 0.479 28.2899 0.479 28.2899 10.3315 0 10.3315"></polygon>
        <polygon id="path-17" points="0 0.31325 28.2899 0.31325 28.2899 10.16575 0 10.16575"></polygon>
        <polygon id="path-19" points="0 0.14745 28.2899 0.14745 28.2899 9.99995 0 9.99995"></polygon>
        <polygon id="path-21" points="0.3945 0.233 89.4715 0.233 89.4715 212.60884 0.3945 212.60884"></polygon>
        <path d="M75.495,0.516 L1.0565,24.869 C0.6095,25.0155 0.307,25.4325 0.307,25.903 L0.307,180.8615 C0.307,181.6015 1.03,182.1255 1.7335,181.8955 L76.171,157.542 C76.6185,157.3955 76.9205,156.979 76.9205,156.508 L76.9205,1.55 C76.9205,0.93 76.4135,0.461 75.835,0.4615 C75.7235,0.4615 75.609,0.479 75.495,0.516" id="path-23"></path>
        <linearGradient x1="50%" y1="0%" x2="50%" y2="121.39647%" id="linearGradient-25">
            <stop stop-color="#F6F6F6" offset="0%"></stop>
            <stop stop-color="#C5D1E9" offset="100%"></stop>
        </linearGradient>
        <polygon id="path-26" points="0 0.396902409 88.6747 0.396902409 88.6747 82.3952976 0 82.3952976"></polygon>
        <polygon id="path-28" points="0.2446 0.48636093 76.5255 0.48636093 76.5255 68.8061818 0.2446 68.8061818"></polygon>
        <linearGradient x1="50%" y1="0%" x2="50%" y2="100%" id="linearGradient-30">
            <stop stop-color="#334888" offset="2.75921243%"></stop>
            <stop stop-color="#334888" offset="47.4959357%"></stop>
            <stop stop-color="#334888" offset="100%"></stop>
        </linearGradient>
    </defs>
    <g id="homeimg3_behance" stroke="none" stroke-width="1" fill="none" fill-rule="evenodd">
        <g>
            <path d="M306.133,142.099 C228.4345,149.9595 90.976,193.3115 19.038,248.22 C5.989,258.18 0.109,267.2185 0,275.152 L0,275.603 C0.502,311.0645 116.954,324.188 222.121,298.655 C351.14,267.331 355.7825,304.497 355.7825,304.497 C364.2485,320.701 359.847,331.956 440.904,316.659 C559.3495,294.306 623.823,231.0635 622.265,203.099 C620.708,175.1345 524.2805,190.321 476.755,198.387 C452.962,202.4255 429.7015,186.342 402.6545,170.2585 C378.473,155.879 351.2665,141.4995 317.944,141.5 C314.091,141.5 310.154,141.6925 306.133,142.099" id="Fill-1" fill="url(#linearGradient-1)"></path>
            <path d="M413.444129,222 C413.359262,222.000508 413.274894,222.013204 413.193521,222.038595 L325.61939,249.037403 C324.760232,249.30249 324.807159,250.555816 325.683789,250.75387 L432.394512,258.412969 C436.811608,259.411364 441.414914,259.132057 445.683742,257.607042 L525.416129,229.120799 C526.280778,228.812038 526.152978,227.529766 525.244897,227.403316 L413.564441,222.008633 C413.526001,222.003047 413.487561,222.000508 413.448622,222 L413.444129,222 Z" id="Fill-1" fill="url(#linearGradient-2)"></path>
            <path d="M233.386,161.5 L106,216.456 L297.558,238.318 C304.3945,239.349 304.3945,239.349 307.514,236.1795 L360.771,184.951 L360.771,177.035 L233.386,161.5 Z" id="Fill-1" fill="url(#linearGradient-3)"></path>
            <path d="M431.427,122.791837 L367.9235,141.521337 C367.462,141.657337 367,141.311837 367,140.830337 L367,96.4503372 C367,96.1308372 367.2095,95.8498372 367.5165,95.7593372 L431.02,77.0298372 C431.481,76.8938372 431.9435,77.2398372 431.9435,77.7208372 L431.9435,122.100837 C431.9435,122.420337 431.7335,122.701337 431.427,122.791837" id="Fill-1" fill="#BDC9E6" opacity="0.268415179"></path>
            <g id="Group-31" transform="translate(106.000000, 47.500000)">
                <g id="Group-3" transform="translate(0.000000, 112.679000)">
                    <mask id="mask-5" fill="white">
                        <use xlink:href="#path-4"></use>
                    </mask>
                    <g id="Clip-2"></g>
                    <path d="M0,55.025 L191.558,76.887 C198.3945,77.918 198.3945,77.918 201.514,74.7485 L254.771,23.52 L254.771,15.604 L127.386,0.069 L0,55.025 Z" id="Fill-1" mask="url(#mask-5)"></path>
                </g>
                <g id="Group-30" transform="translate(41.500000, 0.179000)">
                    <path d="M103.71245,114.93105 L3.34795,166.14055 C3.09595,166.26905 2.79745,166.08605 2.79745,165.80355 L2.79745,33.25855 C2.79745,33.08755 2.91195,32.93755 3.07745,32.89305 L103.44195,5.83455 C103.68195,5.76955 103.91845,5.95055 103.91845,6.19955 L103.91845,114.59405 C103.91845,114.73605 103.83895,114.86655 103.71245,114.93105" id="Fill-4" fill="#6D86AB"></path>
                    <g id="Group-3" transform="translate(2.500000, 0.321000)" fill="url(#linearGradient-6)">
                        <polygon id="Fill-1" points="109.8625 107.835 0 159.178 0 37.1945 20.5 0.27455"></polygon>
                    </g>
                    <polygon id="Fill-16" fill="#0B1627" points="194.70205 142.5377 177.86255 158.4512 177.86255 165.1237 194.70205 149.2097"></polygon>
                    <polygon id="Fill-6" fill="#182344" points="103.9185 10.1144 2.7975 37.2039 2.7975 32.9684 103.9185 5.8794"></polygon>
                    <path d="M103.9185,114.8257 L3.1585,166.2372 C2.993,166.3212 2.7975,166.2017 2.7975,166.0162 L2.7975,153.9802 L103.9185,107.3847 L103.9185,114.8257 Z" id="Fill-8" fill="#182344"></path>
                    <path d="M213.16315,124.88035 L103.91865,113.11285 L10.22415,157.20885 C8.57165,157.98635 8.97315,160.44285 10.78715,160.65435 L155.00515,177.45035 C156.79215,177.65885 158.57965,177.06085 159.88165,175.81835 L213.19265,124.96685 C213.22365,124.93735 213.20565,124.88485 213.16315,124.88035" id="Fill-10" fill="#324363"></path>
                    <path d="M2.79745,166.42125 C1.17295,165.82025 0.09445,164.27125 0.09445,162.53925 L0.09445,36.85075 C0.09445,35.11875 1.17295,33.56975 2.79745,32.96875 L2.79745,166.42125 Z" id="Fill-12" fill="#182344"></path>
                    <path d="M187.38385,149.48805 C187.38735,149.58105 187.39785,149.67205 187.39785,149.76555 C187.39785,153.68405 184.22185,156.86005 180.30335,156.86005 C180.08585,156.86005 179.87185,156.84655 179.65885,156.82755 L159.74835,175.74505 C158.39385,177.03255 156.53185,177.64305 154.67785,177.40855 L9.61985,159.04855 L9.61985,167.10155 L153.62335,183.93105 C156.14785,184.22655 158.67285,183.38455 160.51535,181.63405 L212.48535,132.25605 C212.98735,131.77955 213.27085,131.11805 213.27085,130.42605 L213.27085,124.97755 C213.27085,124.94505 213.23235,124.92855 213.20935,124.95105 L187.38385,149.48805 Z" id="Fill-14" fill="#182344"></path>
                    <path d="M184.47955,139.8285 L157.64055,135.8705 C157.30655,135.821 156.96705,135.913 156.70305,136.124 L134.45705,153.9155 C133.63155,154.5755 133.98255,155.9015 135.02655,156.0675 L164.60055,160.759 C164.97455,160.8185 165.35455,160.7005 165.62905,160.44 L185.14005,141.9145 C185.87605,141.216 185.48355,139.9765 184.47955,139.8285" id="Fill-16" fill="#647A9A"></path>
                    <path d="M159.3321,123.03955 L107.9206,118.51405 C107.1891,118.44955 106.4546,118.59505 105.8031,118.93355 L35.8166,155.27605 C34.7501,155.83005 35.0361,157.42755 36.2281,157.57755 L105.0171,166.22255 C106.0286,166.35005 107.0496,166.07155 107.8566,165.44855 L159.9726,125.22855 C160.8556,124.54755 160.4431,123.13755 159.3321,123.03955" id="Fill-18" fill="#647A9A"></path>
                    <polygon id="Stroke-20" stroke="#545454" stroke-width="0.5" points="39.83455 168.5901 30.28205 167.5976 30.28205 165.6126 39.83455 166.6051"></polygon>
                    <polygon id="Stroke-22" stroke="#545454" stroke-width="0.5" points="54.5201 170.2522 44.9676 169.2597 44.9676 167.2747 54.5201 168.2672"></polygon>
                    <path d="M59.39995,158.7522 L120.25695,120.5142" id="Stroke-24" stroke="#324363" stroke-width="0.5"></path>
                    <path d="M77.9908,161.82005 L131.9693,122.30655" id="Stroke-26" stroke="#324363" stroke-width="0.5"></path>
                    <path d="M94.1978,163.24535 L146.7043,123.25735" id="Stroke-28" stroke="#324363" stroke-width="0.5"></path>
                </g>
            </g>
            <path d="M364.8455,49.7705749 L311.7725,65.4240749 C311.3865,65.5375749 311,65.2485749 311,64.8465749 L311,27.7555749 C311,27.4890749 311.1755,27.2535749 311.4315,27.1780749 L364.5045,11.5250749 C364.8905,11.4110749 365.277,11.7000749 365.277,12.1025749 L365.277,49.1930749 C365.277,49.4600749 365.1015,49.6950749 364.8455,49.7705749" id="Fill-1" fill="#BDC9E6" opacity="0.3"></path>
            <g id="Group-247" transform="translate(170.000000, 0.000000)">
                <g id="Group-3" transform="translate(0.000000, 0.372500)">
                    <mask id="mask-8" fill="white">
                        <use xlink:href="#path-7"></use>
                    </mask>
                    <g id="Clip-2"></g>
                    <path d="M171.5887,140.54145 L2.2002,187.93695 C1.1287,188.23645 0.0672,187.43145 0.0672,186.31895 L0.0672,49.22195 C0.0672,48.46845 0.5692,47.80695 1.2947,47.60395 L170.6827,0.20845 C171.7542,-0.09155 172.8157,0.71395 172.8157,1.82645 L172.8157,138.92345 C172.8157,139.67695 172.3142,140.33845 171.5887,140.54145" id="Fill-1" fill="#F6F6FA" opacity="0.9" mask="url(#mask-8)"></path>
                </g>
                <polygon id="Fill-4" fill="#F6F6FA" points="158.8216 92.65065 153.0626 94.13215 153.0626 90.24265 158.8216 88.77265"></polygon>
                <polygon id="Stroke-6" stroke="#A6AFCA" stroke-width="0.5" points="158.8216 92.65065 153.0626 94.13215 153.0626 90.24265 158.8216 88.77265"></polygon>
                <polygon id="Fill-8" fill="#F6F6FA" points="166.2347 90.65605 160.4757 92.15305 160.4757 88.35755 166.2347 86.86055"></polygon>
                <polygon id="Stroke-10" stroke="#A6AFCA" stroke-width="0.5" points="166.2347 90.65605 160.4757 92.15305 160.4757 88.35755 166.2347 86.86055"></polygon>
                <path d="M35.61555,74.9026 C35.09105,78.6321 31.64305,81.6561 27.91305,81.6561 C24.18305,81.6561 21.58455,78.6321 22.10855,74.9026 C22.63255,71.1726 26.08155,68.1491 29.81155,68.1491 C33.54105,68.1491 36.14005,71.1726 35.61555,74.9026" id="Fill-12" fill="#A8B2CE"></path>
                <g id="Group-16" transform="translate(0.000000, 0.372500)">
                    <mask id="mask-10" fill="white">
                        <use xlink:href="#path-9"></use>
                    </mask>
                    <g id="Clip-15"></g>
                    <path d="M172.81575,5.10105 L0.06725,53.43655 L0.06725,49.17905 C0.06725,48.45055 0.55225,47.81155 1.25375,47.61505 L170.75475,0.18855 C171.78975,-0.10145 172.81575,0.67705 172.81575,1.75205 L172.81575,5.10105 Z" id="Fill-14" fill="#9CA4B8" mask="url(#mask-10)"></path>
                </g>
                <path d="M172.81575,17.2184 L0.06725,65.5539" id="Stroke-17" stroke="#A8B2CE" stroke-width="0.5"></path>
                <path d="M25.10335,55.8412 L7.88935,60.6322 C7.54185,60.7287 7.19735,60.4672 7.19735,60.1062 L7.19735,55.0052 C7.19735,54.7602 7.36135,54.5447 7.59685,54.4792 L24.81085,49.6887 C25.15835,49.5917 25.50285,49.8532 25.50285,50.2142 L25.50285,55.3152 C25.50285,55.5602 25.33985,55.7757 25.10335,55.8412 Z" id="Stroke-19" stroke="#A8B2CE" stroke-width="0.5"></path>
                <path d="M90.34845,62.19495 L66.58795,69.03595 L66.58795,60.25495 L90.09095,53.48745 C90.38795,53.40195 90.68445,53.62495 90.68445,53.93395 L90.68445,61.74845 C90.68445,61.95545 90.54695,62.13745 90.34845,62.19495 Z" id="Stroke-21" stroke="#A8B2CE" stroke-width="0.5"></path>
                <path d="M122.81525,27.74685 L113.53025,30.21035 C112.08525,30.59335 110.90475,29.55785 111.15675,28.12835 C111.32775,27.15785 112.12475,26.30635 113.10525,26.04635 L122.39075,23.58335 C123.83525,23.19985 125.01575,24.23535 124.76375,25.66485 C124.59325,26.63535 123.79625,27.48685 122.81525,27.74685" id="Fill-23" fill="#A8B2CE"></path>
                <path d="M44.58575,48.27455 L54.16475,45.61555" id="Stroke-25" stroke="#A8B2CE" stroke-width="0.5"></path>
                <path d="M57.742,76.23195 L67.3215,73.57295" id="Stroke-27" stroke="#A8B2CE" stroke-width="0.5"></path>
                <path d="M24.4471,85.56055 L34.0266,82.90155" id="Stroke-29" stroke="#A8B2CE" stroke-width="0.5"></path>
                <path d="M26.6595,75.58595 L31.584,74.21895" id="Stroke-31" stroke="#F6F6FA" stroke-width="0.5" stroke-linecap="round" stroke-linejoin="round"></path>
                <path d="M28.8475,72.35465 L29.237,77.45065" id="Stroke-33" stroke="#F6F6FA" stroke-width="0.5" stroke-linecap="round" stroke-linejoin="round"></path>
                <path d="M59.62285,43.9539 L69.20235,41.2949" id="Stroke-35" stroke="#A8B2CE" stroke-width="0.5"></path>
                <path d="M74.66045,39.63305 L84.23995,36.97405" id="Stroke-37" stroke="#A8B2CE" stroke-width="0.5"></path>
                <path d="M89.69805,35.3124 L99.27755,32.6534" id="Stroke-39" stroke="#A8B2CE" stroke-width="0.5"></path>
                <path d="M68.78545,65.554 C68.26095,69.284 64.81295,72.3075 61.08295,72.3075 C57.35295,72.3075 54.75445,69.284 55.27795,65.554 C55.80245,61.824 59.25145,58.8005 62.98095,58.8005 C66.71095,58.8005 69.30945,61.824 68.78545,65.554" id="Fill-41" fill="#F6F6FA"></path>
                <path d="M68.78545,65.554 C68.26095,69.284 64.81295,72.3075 61.08295,72.3075 C57.35295,72.3075 54.75445,69.284 55.27795,65.554 C55.80245,61.824 59.25145,58.8005 62.98095,58.8005 C66.71095,58.8005 69.30945,61.824 68.78545,65.554 Z" id="Stroke-43" stroke="#A6AFCA" stroke-width="0.5"></path>
                <path d="M101.01205,64.2826 L110.59155,61.6236" id="Stroke-45" stroke="#A8B2CE" stroke-width="0.5"></path>
                <path d="M111.5555,53.6045 C111.031,57.3345 107.583,60.358 103.853,60.358 C100.123,60.358 97.5245,57.3345 98.0485,53.6045 C98.5725,49.8745 102.0215,46.851 105.7515,46.851 C109.481,46.851 112.0795,49.8745 111.5555,53.6045" id="Fill-47" fill="#F6F6FA"></path>
                <path d="M111.5555,53.6045 C111.031,57.3345 107.583,60.358 103.853,60.358 C100.123,60.358 97.5245,57.3345 98.0485,53.6045 C98.5725,49.8745 102.0215,46.851 105.7515,46.851 C109.481,46.851 112.0795,49.8745 111.5555,53.6045 Z" id="Stroke-49" stroke="#A6AFCA" stroke-width="0.5"></path>
                <path d="M122.4725,58.4109 L132.052,55.7519" id="Stroke-51" stroke="#A8B2CE" stroke-width="0.5"></path>
                <path d="M133.51595,47.7328 C132.99145,51.4628 129.54345,54.4863 125.81345,54.4863 C122.08345,54.4863 119.48445,51.4628 120.00845,47.7328 C120.53295,44.0028 123.98195,40.9793 127.71145,40.9793 C131.44145,40.9793 134.03995,44.0028 133.51595,47.7328" id="Fill-53" fill="#F6F6FA"></path>
                <path d="M133.51595,47.7328 C132.99145,51.4628 129.54345,54.4863 125.81345,54.4863 C122.08345,54.4863 119.48445,51.4628 120.00845,47.7328 C120.53295,44.0028 123.98195,40.9793 127.71145,40.9793 C131.44145,40.9793 134.03995,44.0028 133.51595,47.7328 Z" id="Stroke-55" stroke="#A6AFCA" stroke-width="0.5"></path>
                <path d="M144.2845,52.26065 L153.864,49.60165" id="Stroke-57" stroke="#A8B2CE" stroke-width="0.5"></path>
                <path d="M154.82795,41.58265 C154.30345,45.31265 150.85545,48.33615 147.12545,48.33615 C143.39545,48.33615 140.79695,45.31265 141.32095,41.58265 C141.84495,37.85265 145.29395,34.82915 149.02395,34.82915 C152.75345,34.82915 155.35245,37.85265 154.82795,41.58265" id="Fill-59" fill="#F6F6FA"></path>
                <path d="M154.82795,41.58265 C154.30345,45.31265 150.85545,48.33615 147.12545,48.33615 C143.39545,48.33615 140.79695,45.31265 141.32095,41.58265 C141.84495,37.85265 145.29395,34.82915 149.02395,34.82915 C152.75345,34.82915 155.35245,37.85265 154.82795,41.58265 Z" id="Stroke-61" stroke="#A6AFCA" stroke-width="0.5"></path>
                <path d="M158.63165,16.1681 C158.29165,18.5876 156.05465,20.5491 153.63515,20.5491 C151.21565,20.5491 149.52965,18.5876 149.87015,16.1681 C150.20965,13.7486 152.44715,11.7871 154.86665,11.7871 C157.28615,11.7871 158.97165,13.7486 158.63165,16.1681 Z" id="Stroke-63" stroke="#A8B2CE" stroke-width="0.5"></path>
                <g id="Group-68" transform="translate(15.000000, 91.372500)">
                    <path d="M0.49785,6.9299 L24.22085,0.3454" id="Fill-65" fill="#F6F6FA"></path>
                    <path d="M0.49785,6.9299 L24.22085,0.3454" id="Stroke-67" stroke="#A6AFCA" stroke-width="0.5"></path>
                </g>
                <g id="Group-72" transform="translate(23.500000, 122.872500)">
                    <path d="M0.4471,5.06365 L16.9196,0.49165" id="Fill-69" fill="#F6F6FA"></path>
                    <path d="M0.4471,5.06365 L16.9196,0.49165" id="Stroke-71" stroke="#A6AFCA" stroke-width="0.5"></path>
                </g>
                <g id="Group-76" transform="translate(23.500000, 124.872500)">
                    <path d="M0.4471,4.9122 L17.0451,0.3052" id="Fill-73" fill="#F6F6FA"></path>
                    <path d="M0.4471,4.9122 L17.0451,0.3052" id="Stroke-75" stroke="#A6AFCA" stroke-width="0.5"></path>
                </g>
                <g id="Group-80" transform="translate(15.000000, 88.872500)">
                    <path d="M0.49785,6.63755 L24.22085,0.05305" id="Fill-77" fill="#F6F6FA"></path>
                    <path d="M0.49785,6.63755 L24.22085,0.05305" id="Stroke-79" stroke="#A6AFCA" stroke-width="0.5"></path>
                </g>
                <path d="M22.4139,130.2847 C22.1629,132.0702 20.5119,133.5182 18.7264,133.5182 C16.9409,133.5182 15.6964,132.0702 15.9474,130.2847 C16.1984,128.4992 17.8494,127.0517 19.6349,127.0517 C21.4209,127.0517 22.6649,128.4992 22.4139,130.2847" id="Fill-81" fill="#A8B2CE"></path>
                <polygon id="Fill-83" fill="#F6F6FA" points="60.3958 114.2631 15.9153 126.1436 15.9153 101.4006 60.3958 89.5196"></polygon>
                <polygon id="Stroke-85" stroke="#A6AFCA" stroke-width="0.5" points="60.3958 114.2631 15.9153 126.1436 15.9153 101.4006 60.3958 89.5196"></polygon>
                <polygon id="Fill-87" fill="#F6F6FA" points="53.4183 122.12295 47.6593 123.60445 47.6593 119.71495 53.4183 118.24495"></polygon>
                <polygon id="Stroke-89" stroke="#A6AFCA" stroke-width="0.5" points="53.4183 122.12295 47.6593 123.60445 47.6593 119.71495 53.4183 118.24495"></polygon>
                <polygon id="Fill-91" fill="#F6F6FA" points="60.83135 120.1283 55.07235 121.6253 55.07235 117.8298 60.83135 116.3328"></polygon>
                <polygon id="Stroke-93" stroke="#A6AFCA" stroke-width="0.5" points="60.83135 120.1283 55.07235 121.6253 55.07235 117.8298 60.83135 116.3328"></polygon>
                <g id="Group-98" transform="translate(120.500000, 61.872500)">
                    <path d="M0.4007,6.9576 L24.1242,0.3731" id="Fill-95" fill="#F6F6FA"></path>
                    <path d="M0.4007,6.9576 L24.1242,0.3731" id="Stroke-97" stroke="#A6AFCA" stroke-width="0.5"></path>
                </g>
                <g id="Group-102" transform="translate(129.000000, 93.872500)">
                    <path d="M0.3504,4.5914 L16.8224,0.0194" id="Fill-99" fill="#F6F6FA"></path>
                    <path d="M0.3504,4.5914 L16.8224,0.0194" id="Stroke-101" stroke="#A6AFCA" stroke-width="0.5"></path>
                </g>
                <g id="Group-106" transform="translate(129.000000, 95.372500)">
                    <path d="M0.3504,4.9399 L16.9479,0.3329" id="Fill-103" fill="#F6F6FA"></path>
                    <path d="M0.3504,4.9399 L16.9479,0.3329" id="Stroke-105" stroke="#A6AFCA" stroke-width="0.5"></path>
                </g>
                <g id="Group-110" transform="translate(120.500000, 59.372500)">
                    <path d="M0.4007,6.66525 L24.1242,0.08075" id="Fill-107" fill="#F6F6FA"></path>
                    <path d="M0.4007,6.66525 L24.1242,0.08075" id="Stroke-109" stroke="#A6AFCA" stroke-width="0.5"></path>
                </g>
                <path d="M127.8172,100.8124 C127.5662,102.5979 125.9152,104.0459 124.1297,104.0459 C122.3442,104.0459 121.0997,102.5979 121.3507,100.8124 C121.6017,99.0269 123.2527,97.5794 125.0382,97.5794 C126.8242,97.5794 128.0682,99.0269 127.8172,100.8124" id="Fill-111" fill="#A8B2CE"></path>
                <polygon id="Fill-113" fill="#F6F6FA" points="165.79915 84.7908 121.31865 96.6713 121.31865 71.9283 165.79915 60.0473"></polygon>
                <polygon id="Stroke-115" stroke="#A6AFCA" stroke-width="0.5" points="165.79915 84.7908 121.31865 96.6713 121.31865 71.9283 165.79915 60.0473"></polygon>
                <g id="Group-120" transform="translate(15.000000, 135.372500)">
                    <path d="M0.49785,6.75495 L24.22085,0.17045" id="Fill-117" fill="#F6F6FA"></path>
                    <path d="M0.49785,6.75495 L24.22085,0.17045" id="Stroke-119" stroke="#A6AFCA" stroke-width="0.5"></path>
                </g>
                <g id="Group-124" transform="translate(23.500000, 166.872500)">
                    <path d="M0.4471,4.88865 L16.9196,0.31665" id="Fill-121" fill="#F6F6FA"></path>
                    <path d="M0.4471,4.88865 L16.9196,0.31665" id="Stroke-123" stroke="#A6AFCA" stroke-width="0.5"></path>
                </g>
                <g id="Group-128" transform="translate(23.500000, 168.872500)">
                    <path d="M0.4471,4.73725 L17.0451,0.13025" id="Fill-125" fill="#F6F6FA"></path>
                    <path d="M0.4471,4.73725 L17.0451,0.13025" id="Stroke-127" stroke="#A6AFCA" stroke-width="0.5"></path>
                </g>
                <g id="Group-132" transform="translate(15.000000, 132.372500)">
                    <path d="M0.49785,6.9626 L24.22085,0.3781" id="Fill-129" fill="#F6F6FA"></path>
                    <path d="M0.49785,6.9626 L24.22085,0.3781" id="Stroke-131" stroke="#A6AFCA" stroke-width="0.5"></path>
                </g>
                <path d="M22.4139,174.10975 C22.1629,175.89525 20.5119,177.34275 18.7264,177.34275 C16.9409,177.34275 15.6964,175.89525 15.9474,174.10975 C16.1984,172.32425 17.8494,170.87625 19.6349,170.87625 C21.4209,170.87625 22.6649,172.32425 22.4139,174.10975" id="Fill-133" fill="#A8B2CE"></path>
                <polygon id="Fill-135" fill="#F6F6FA" points="60.3958 158.08805 15.9153 169.96855 15.9153 145.22555 60.3958 133.34455"></polygon>
                <polygon id="Stroke-137" stroke="#A6AFCA" stroke-width="0.5" points="60.3958 158.08805 15.9153 169.96855 15.9153 145.22555 60.3958 133.34455"></polygon>
                <polygon id="Fill-139" fill="#F6F6FA" points="53.4183 165.9479 47.6593 167.4294 47.6593 163.5399 53.4183 162.0699"></polygon>
                <polygon id="Stroke-141" stroke="#A6AFCA" stroke-width="0.5" points="53.4183 165.9479 47.6593 167.4294 47.6593 163.5399 53.4183 162.0699"></polygon>
                <polygon id="Fill-143" fill="#F6F6FA" points="60.83135 163.95325 55.07235 165.45025 55.07235 161.65475 60.83135 160.15775"></polygon>
                <polygon id="Stroke-145" stroke="#A6AFCA" stroke-width="0.5" points="60.83135 163.95325 55.07235 165.45025 55.07235 161.65475 60.83135 160.15775"></polygon>
                <g id="Group-150" transform="translate(68.000000, 120.372500)">
                    <path d="M0.19955,7.01875 L23.92255,0.43425" id="Fill-147" fill="#F6F6FA"></path>
                    <path d="M0.19955,7.01875 L23.92255,0.43425" id="Stroke-149" stroke="#A6AFCA" stroke-width="0.5"></path>
                </g>
                <g id="Group-154" transform="translate(76.500000, 152.372500)">
                    <path d="M0.14875,4.65255 L16.62125,0.08055" id="Fill-151" fill="#F6F6FA"></path>
                    <path d="M0.14875,4.65255 L16.62125,0.08055" id="Stroke-153" stroke="#A6AFCA" stroke-width="0.5"></path>
                </g>
                <g id="Group-158" transform="translate(76.500000, 153.872500)">
                    <path d="M0.14875,5.00105 L16.74625,0.39405" id="Fill-155" fill="#F6F6FA"></path>
                    <path d="M0.14875,5.00105 L16.74625,0.39405" id="Stroke-157" stroke="#A6AFCA" stroke-width="0.5"></path>
                </g>
                <g id="Group-162" transform="translate(68.000000, 117.872500)">
                    <path d="M0.19955,6.7264 L23.92255,0.1419" id="Fill-159" fill="#F6F6FA"></path>
                    <path d="M0.19955,6.7264 L23.92255,0.1419" id="Stroke-161" stroke="#A6AFCA" stroke-width="0.5"></path>
                </g>
                <path d="M75.11555,159.37355 C74.86455,161.15905 73.21355,162.60705 71.42805,162.60705 C69.64255,162.60705 68.39805,161.15905 68.64905,159.37355 C68.90005,157.58805 70.55105,156.14055 72.33655,156.14055 C74.12255,156.14055 75.36655,157.58805 75.11555,159.37355" id="Fill-163" fill="#A8B2CE"></path>
                <polygon id="Fill-165" fill="#F6F6FA" points="113.0975 143.3518 68.617 155.2328 68.617 130.4893 113.0975 118.6083"></polygon>
                <polygon id="Stroke-167" stroke="#A6AFCA" stroke-width="0.5" points="113.0975 143.3518 68.617 155.2328 68.617 130.4893 113.0975 118.6083"></polygon>
                <polygon id="Fill-169" fill="#F6F6FA" points="106.11995 151.2118 100.36095 152.6933 100.36095 148.8038 106.11995 147.3338"></polygon>
                <polygon id="Stroke-171" stroke="#A6AFCA" stroke-width="0.5" points="106.11995 151.2118 100.36095 152.6933 100.36095 148.8038 106.11995 147.3338"></polygon>
                <polygon id="Fill-173" fill="#F6F6FA" points="113.53305 149.2172 107.77405 150.7142 107.77405 146.9187 113.53305 145.4217"></polygon>
                <polygon id="Stroke-175" stroke="#A6AFCA" stroke-width="0.5" points="113.53305 149.2172 107.77405 150.7142 107.77405 146.9187 113.53305 145.4217"></polygon>
                <g id="Group-180" transform="translate(120.500000, 105.872500)">
                    <path d="M0.4007,6.7827 L24.1242,0.1982" id="Fill-177" fill="#F6F6FA"></path>
                    <path d="M0.4007,6.7827 L24.1242,0.1982" id="Stroke-179" stroke="#A6AFCA" stroke-width="0.5"></path>
                </g>
                <g id="Group-184" transform="translate(129.000000, 137.372500)">
                    <path d="M0.3504,4.91635 L16.8224,0.34435" id="Fill-181" fill="#F6F6FA"></path>
                    <path d="M0.3504,4.91635 L16.8224,0.34435" id="Stroke-183" stroke="#A6AFCA" stroke-width="0.5"></path>
                </g>
                <g id="Group-188" transform="translate(129.000000, 139.372500)">
                    <path d="M0.3504,4.76495 L16.9479,0.15795" id="Fill-185" fill="#F6F6FA"></path>
                    <path d="M0.3504,4.76495 L16.9479,0.15795" id="Stroke-187" stroke="#A6AFCA" stroke-width="0.5"></path>
                </g>
                <g id="Group-192" transform="translate(120.500000, 102.872500)">
                    <path d="M0.4007,6.9903 L24.1242,0.4058" id="Fill-189" fill="#F6F6FA"></path>
                    <path d="M0.4007,6.9903 L24.1242,0.4058" id="Stroke-191" stroke="#A6AFCA" stroke-width="0.5"></path>
                </g>
                <path d="M127.8172,144.63745 C127.5662,146.42295 125.9152,147.87045 124.1297,147.87045 C122.3442,147.87045 121.0997,146.42295 121.3507,144.63745 C121.6017,142.85195 123.2527,141.40395 125.0382,141.40395 C126.8242,141.40395 128.0682,142.85195 127.8172,144.63745" id="Fill-193" fill="#A8B2CE"></path>
                <polygon id="Fill-195" fill="#F6F6FA" points="165.79915 128.61575 121.31865 140.49625 121.31865 115.75325 165.79915 103.87225"></polygon>
                <polygon id="Stroke-197" stroke="#A6AFCA" stroke-width="0.5" points="165.79915 128.61575 121.31865 140.49625 121.31865 115.75325 165.79915 103.87225"></polygon>
                <path d="M134.46075,105.80815 L69.77375,123.90765 C69.36475,124.02215 68.95925,123.71465 68.95925,123.28965 L68.95925,70.93415 C68.95925,70.64665 69.15075,70.39415 69.42825,70.31665 L134.11525,52.21665 C134.52425,52.10265 134.92925,52.41015 134.92925,52.83465 L134.92925,105.19015 C134.92925,105.47815 134.73775,105.73065 134.46075,105.80815" id="Fill-199" fill="#A6AFCA"></path>
                <path d="M137.8553,101.45325 L74.0893,119.29525 C73.6858,119.40825 73.2863,119.10475 73.2863,118.68625 L73.2863,67.07625 C73.2863,66.79225 73.4753,66.54325 73.7483,66.46675 L137.5143,48.62475 C137.9178,48.51225 138.3178,48.81525 138.3178,49.23425 L138.3178,100.84425 C138.3178,101.12775 138.1288,101.37675 137.8553,101.45325" id="Fill-201" fill="#F6F6FA"></path>
                <path d="M137.8553,101.45325 L74.0893,119.29525 C73.6858,119.40825 73.2863,119.10475 73.2863,118.68625 L73.2863,67.07625 C73.2863,66.79225 73.4753,66.54325 73.7483,66.46675 L137.5143,48.62475 C137.9178,48.51225 138.3178,48.81525 138.3178,49.23425 L138.3178,100.84425 C138.3178,101.12775 138.1288,101.37675 137.8553,101.45325 Z" id="Stroke-203" stroke="#A6AFCA" stroke-width="0.5"></path>
                <g id="Group-208" transform="translate(84.500000, 65.872500)">
                    <path d="M0.30305,7.02195 L24.02655,0.43745" id="Fill-205" fill="#F6F6FA"></path>
                    <path d="M0.30305,7.02195 L24.02655,0.43745" id="Stroke-207" stroke="#A6AFCA" stroke-width="0.5"></path>
                </g>
                <g id="Group-212" transform="translate(84.500000, 63.372500)">
                    <path d="M0.30305,6.7296 L24.02655,0.1451" id="Fill-209" fill="#F6F6FA"></path>
                    <path d="M0.30305,6.7296 L24.02655,0.1451" id="Stroke-211" stroke="#A6AFCA" stroke-width="0.5"></path>
                </g>
                <g id="Group-216" transform="translate(93.000000, 97.872500)">
                    <path d="M0.25275,4.6556 L16.72475,0.0836" id="Fill-213" fill="#F6F6FA"></path>
                    <path d="M0.25275,4.6556 L16.72475,0.0836" id="Stroke-215" stroke="#A6AFCA" stroke-width="0.5"></path>
                </g>
                <g id="Group-220" transform="translate(93.000000, 99.372500)">
                    <path d="M0.25275,5.00425 L16.85025,0.39725" id="Fill-217" fill="#F6F6FA"></path>
                    <path d="M0.25275,5.00425 L16.85025,0.39725" id="Stroke-219" stroke="#A6AFCA" stroke-width="0.5"></path>
                </g>
                <path d="M91.71955,104.87675 C91.46855,106.66225 89.81755,108.10975 88.03205,108.10975 C86.24655,108.10975 85.00205,106.66225 85.25305,104.87675 C85.50405,103.09125 87.15505,101.64325 88.94055,101.64325 C90.72655,101.64325 91.97055,103.09125 91.71955,104.87675" id="Fill-221" fill="#A8B2CE"></path>
                <polygon id="Fill-223" fill="#F6F6FA" points="129.7015 88.855 85.221 100.7355 85.221 75.9925 129.7015 64.1115"></polygon>
                <polygon id="Stroke-225" stroke="#A6AFCA" stroke-width="0.5" points="129.7015 88.855 85.221 100.7355 85.221 75.9925 129.7015 64.1115"></polygon>
                <polygon id="Fill-227" fill="#F6F6FA" points="122.72395 96.71485 116.96495 98.19635 116.96495 94.30685 122.72395 92.83685"></polygon>
                <polygon id="Stroke-229" stroke="#A6AFCA" stroke-width="0.5" points="122.72395 96.71485 116.96495 98.19635 116.96495 94.30685 122.72395 92.83685"></polygon>
                <polygon id="Fill-231" fill="#F6F6FA" points="130.13655 94.72025 124.37805 96.21725 124.37805 92.42175 130.13655 90.92475"></polygon>
                <polygon id="Stroke-233" stroke="#A6AFCA" stroke-width="0.5" points="130.13655 94.72025 124.37805 96.21725 124.37805 92.42175 130.13655 90.92475"></polygon>
                <polygon id="Fill-235" fill="#A6AFC9" points="161.98715 15.0702 162.68215 13.4077 160.55365 13.9877"></polygon>
                <polygon id="Stroke-237" stroke="#A8B2CE" stroke-width="0.5" stroke-linecap="round" stroke-linejoin="round" points="161.98715 15.0702 162.68215 13.4077 160.55365 13.9877"></polygon>
                <polygon id="Fill-239" fill="#F6F6FA" points="158.8216 136.4756 153.0626 137.9571 153.0626 134.0676 158.8216 132.5976"></polygon>
                <polygon id="Stroke-241" stroke="#A6AFCA" stroke-width="0.5" points="158.8216 136.4756 153.0626 137.9571 153.0626 134.0676 158.8216 132.5976"></polygon>
                <polygon id="Fill-243" fill="#F6F6FA" points="166.2347 134.48095 160.4757 135.97795 160.4757 132.18245 166.2347 130.68545"></polygon>
                <polygon id="Stroke-245" stroke="#A6AFCA" stroke-width="0.5" points="166.2347 134.48095 160.4757 135.97795 160.4757 132.18245 166.2347 130.68545"></polygon>
            </g>
            <g id="Group-89" transform="translate(319.000000, 5.000000)">
                <g id="Group-15" transform="translate(52.500000, 36.391000)">
                    <path d="M76.31975,124.42815 L1.22925,135.59615 C0.77175,135.66415 0.36075,135.30965 0.36075,134.84765 L0.36075,88.15665 C0.36075,87.78115 0.63575,87.46265 1.00675,87.40765 L76.09725,76.23965 C76.55425,76.17165 76.96525,76.52565 76.96525,76.98815 L76.96525,123.67915 C76.96525,124.05465 76.69075,124.37315 76.31975,124.42815" id="Fill-3" fill="#FBFDFF" opacity="0.95"></path>
                    <g id="Group-7" transform="translate(21.000000, 89.109000)">
                        <g id="Group-3" transform="translate(0.000000, 2.046100)">
                            <mask id="mask-12" fill="white">
                                <use xlink:href="#path-11"></use>
                            </mask>
                            <g id="Clip-2"></g>
                            <polygon id="Fill-1" fill="#BDC9E6" mask="url(#mask-12)" points="11.8547 12.7061 0.0002 14.5001 0.0002 2.1471 11.8547 0.3531"></polygon>
                        </g>
                        <g id="Group-6" transform="translate(15.500000, 0.046100)">
                            <mask id="mask-14" fill="white">
                                <use xlink:href="#path-13"></use>
                            </mask>
                            <g id="Clip-5"></g>
                            <polygon id="Fill-4" fill="#BDC9E6" mask="url(#mask-14)" points="12.01725 12.30685 0.16225 14.10085 0.16225 1.74785 12.01725 -0.04615"></polygon>
                        </g>
                    </g>
                    <path d="M6.74945,113.10295 L61.24745,105.19345" id="Stroke-5" stroke="#BDC9E6" stroke-width="0.5"></path>
                    <path d="M6.74945,116.13225 L61.24745,108.22275" id="Stroke-7" stroke="#BDC9E6" stroke-width="0.5"></path>
                    <path d="M6.74945,119.16155 L61.24745,111.25205" id="Stroke-9" stroke="#BDC9E6" stroke-width="0.5"></path>
                    <path d="M6.74945,122.19085 L61.24745,114.28135" id="Stroke-11" stroke="#BDC9E6" stroke-width="0.5"></path>
                    <path d="M80.48675,42.77175 L21.92625,60.04325 C21.34625,60.21475 20.76525,59.77975 20.76525,59.17525 L20.76525,18.41175 C20.76525,18.01025 21.02925,17.65675 21.41375,17.54325 L79.97475,0.27175 C80.55425,0.10025 81.13575,0.53525 81.13575,1.13975 L81.13575,41.90325 C81.13575,42.30475 80.87175,42.65825 80.48675,42.77175" id="Fill-13" fill="#BDC9E6" opacity="0.3"></path>
                    <g id="Group-18" transform="translate(30.000000, 17.109000)">
                        <path d="M13.4579,4.31755 L28.3124,0.24105" id="Stroke-1" stroke="#F6F6FA" stroke-width="0.5"></path>
                        <path d="M13.55165,7.70985 L28.40665,3.63335" id="Stroke-3" stroke="#F6F6FA" stroke-width="0.5"></path>
                        <path d="M13.55165,11.1021 L28.40665,7.0256" id="Stroke-5" stroke="#F6F6FA" stroke-width="0.5"></path>
                        <path d="M11.1034,8.4407 C10.6784,11.4637 7.8839,13.9142 4.8609,13.9142 C1.8379,13.9142 -0.2681,11.4637 0.1564,8.4407 C0.5814,5.4177 3.3764,2.9672 6.3994,2.9672 C9.4224,2.9672 11.5284,5.4177 11.1034,8.4407" id="Fill-7" fill="#F6F6FA"></path>
                        <g id="Group-11" transform="translate(0.000000, 11.467050)">
                            <mask id="mask-16" fill="white">
                                <use xlink:href="#path-15"></use>
                            </mask>
                            <g id="Clip-10"></g>
                            <polygon id="Fill-9" fill="#F6F6FA" mask="url(#mask-16)" points="28.2899 2.219 -0.0001 10.3315 -0.0001 8.5915 28.2899 0.479"></polygon>
                        </g>
                        <g id="Group-14" transform="translate(0.000000, 15.967050)">
                            <mask id="mask-18" fill="white">
                                <use xlink:href="#path-17"></use>
                            </mask>
                            <g id="Clip-13"></g>
                            <polygon id="Fill-12" fill="#F6F6FA" mask="url(#mask-18)" points="28.2899 2.05325 -0.0001 10.16575 -0.0001 8.42575 28.2899 0.31325"></polygon>
                        </g>
                        <g id="Group-17" transform="translate(0.000000, 20.467050)">
                            <mask id="mask-20" fill="white">
                                <use xlink:href="#path-19"></use>
                            </mask>
                            <g id="Clip-16"></g>
                            <polygon id="Fill-15" fill="#F6F6FA" mask="url(#mask-20)" points="28.2899 1.88745 -0.0001 9.99995 -0.0001 8.25995 28.2899 0.14745"></polygon>
                        </g>
                    </g>
                </g>
                <polyline id="Stroke-17" stroke="#A8B2CE" stroke-width="0.5" points="71.3422 164.95815 71.3422 203.25965 60.8687 204.81715"></polyline>
                <g id="Group-88" transform="translate(0.000000, 0.391000)">
                    <g id="Group-22" transform="translate(33.000000, 193.500000)">
                        <polygon id="Fill-18" fill="#B1BCD8" points="27.8686 17.5711 0.0401 21.7101 0.0401 4.1921 27.8686 0.0531"></polygon>
                        <polygon id="Stroke-20" stroke="#A4ACC6" stroke-width="0.5" points="27.8686 17.5711 0.0401 21.7101 0.0401 4.1921 27.8686 0.0531"></polygon>
                    </g>
                    <polygon id="Fill-23" fill="#BDC9E6" points="67.9833 136.90495 59.3233 138.16395 59.3233 134.45345 67.9833 133.19445"></polygon>
                    <polygon id="Fill-25" fill="#BDC9E6" points="67.9833 142.419 59.3233 143.678 59.3233 139.9675 67.9833 138.7085"></polygon>
                    <path d="M102.41155,104.89285 L105.39455,108.41385" id="Stroke-27" stroke="#BDC9E6" stroke-width="0.5"></path>
                    <path d="M105.4506,104.79335 L102.1611,108.84185" id="Stroke-29" stroke="#BDC9E6" stroke-width="0.5"></path>
                    <path d="M73.14445,162.94715 C73.01645,163.85365 72.17245,164.54965 71.25895,164.50165 C70.34545,164.45365 69.70945,163.68015 69.83795,162.77415 C69.96645,161.86765 70.81045,161.17115 71.72345,161.21915 C72.63645,161.26715 73.27295,162.04065 73.14445,162.94715 Z" id="Stroke-31" stroke="#A8B2CE" stroke-width="0.5"></path>
                    <polyline id="Stroke-33" stroke="#A8B2CE" stroke-width="0.75" points="85.24065 2.1314 90.96465 0.4434 90.96465 7.0984"></polyline>
                    <path d="M64.91595,90.71075 L1.41245,109.44025 C0.95045,109.57675 0.48845,109.23075 0.48845,108.74925 L0.48845,64.36925 C0.48845,64.05025 0.69795,63.76875 1.00495,63.67875 L64.50845,44.94875 C64.96945,44.81275 65.43195,45.15875 65.43195,45.63975 L65.43195,90.01975 C65.43195,90.33925 65.22195,90.62025 64.91595,90.71075" id="Fill-35" fill-opacity="0.9" fill="#BDC9E6"></path>
                    <g id="Group-41" transform="translate(31.500000, 4.500000)">
                        <path d="M56.03705,39.94545 L1.52305,56.02395 C0.95255,56.19195 0.38055,55.76445 0.38055,55.16995 L0.38055,17.25495 C0.38055,16.86045 0.64055,16.51295 1.01905,16.40095 L55.53355,0.32295 C56.10355,0.15445 56.67505,0.58195 56.67505,1.17645 L56.67505,39.09145 C56.67505,39.48645 56.41555,39.83395 56.03705,39.94545" id="Fill-37" fill="#E9F0FC"></path>
                        <g id="Group-5" transform="translate(56.500000, 8.109000)" stroke="#A8B2CE" stroke-width="0.5">
                            <path d="M18.9706,37.32145 C18.8421,38.23445 17.9981,38.97495 17.0851,38.97495 C16.1716,38.97495 15.5356,38.23445 15.6641,37.32145 C15.7921,36.40845 16.6361,35.66795 17.5496,35.66795 C18.4626,35.66795 19.0991,36.40845 18.9706,37.32145 Z" id="Stroke-1"></path>
                            <polyline id="Stroke-3" points="0.0707 5.3483 17.0707 0.3343 17.0707 35.8863"></polyline>
                        </g>
                        <path d="M56.03705,39.94545 L1.52305,56.02395 C0.95255,56.19195 0.38055,55.76445 0.38055,55.16995 L0.38055,17.25495 C0.38055,16.86045 0.64055,16.51295 1.01905,16.40095 L55.53355,0.32295 C56.10355,0.15445 56.67505,0.58195 56.67505,1.17645 L56.67505,39.09145 C56.67505,39.48645 56.41555,39.83395 56.03705,39.94545 Z" id="Stroke-39" stroke="#BDC9E6" stroke-width="0.5"></path>
                    </g>
                    <polygon id="Fill-42" fill="#B1BCD8" points="52.64785 43.5623 40.34935 47.1893 40.34935 29.8123 52.64785 26.1853"></polygon>
                    <polyline id="Stroke-44" stroke="#A8B2CE" stroke-width="0.75" points="40.11225 55.2127 34.67025 56.8177 34.67025 51.5642"></polyline>
                    <path d="M63.64445,58.3605 C63.51645,59.2735 62.67245,60.014 61.75895,60.014 C60.84545,60.014 60.20945,59.2735 60.33795,58.3605 C60.46645,57.4475 61.31045,56.707 62.22345,56.707 C63.13645,56.707 63.77295,57.4475 63.64445,58.3605 Z" id="Stroke-46" stroke="#A8B2CE" stroke-width="0.5"></path>
                    <polyline id="Stroke-48" stroke="#A8B2CE" stroke-width="0.5" points="62.06635 60.01675 62.06635 101.04725 43.65585 106.47725"></polyline>
                    <polygon id="Fill-50" fill="#B1BCD8" points="81.49845 21.00905 56.59445 28.15055 56.59445 25.29855 81.49845 18.15705"></polygon>
                    <polygon id="Fill-52" fill="#B1BCD8" points="81.49845 26.6281 56.59445 33.7696 56.59445 30.9176 81.49845 23.7761"></polygon>
                    <polygon id="Fill-54" fill="#B1BCD8" points="81.49845 31.80705 56.59445 38.94855 56.59445 36.09655 81.49845 28.95505"></polygon>
                    <polygon id="Fill-56" fill="#BDC9E6" points="83.30365 110.1878 59.32315 113.4233 59.32315 109.7133 83.30365 106.4773"></polygon>
                    <polygon id="Fill-58" fill="#BDC9E6" points="83.30365 117.13385 59.32315 120.36935 59.32315 116.65935 83.30365 113.42335"></polygon>
                    <polygon id="Fill-60" fill="#BDC9E6" points="83.30365 124.08 59.32315 127.3155 59.32315 123.605 83.30365 120.3695"></polygon>
                    <path d="M43.97305,111.11025 C42.97705,118.19875 36.42305,123.94475 29.33505,123.94475 C22.24655,123.94475 17.30755,118.19875 18.30405,111.11025 C19.30005,104.02175 25.85405,98.27575 32.94205,98.27575 C40.03055,98.27575 44.96955,104.02175 43.97305,111.11025" id="Fill-62" fill="#FEFEFE"></path>
                    <path d="M43.97305,111.11025 C42.97705,118.19875 36.42305,123.94475 29.33505,123.94475 C22.24655,123.94475 17.30755,118.19875 18.30405,111.11025 C19.30005,104.02175 25.85405,98.27575 32.94205,98.27575 C40.03055,98.27575 44.96955,104.02175 43.97305,111.11025 Z" id="Stroke-64" stroke="#A8B2CE" stroke-width="0.5"></path>
                    <path d="M42.75725,111.11025 C41.85525,117.52725 35.92275,122.72925 29.50575,122.72925 C23.08875,122.72925 18.61825,117.52725 19.51975,111.11025 C20.42175,104.69325 26.35425,99.49125 32.77125,99.49125 C39.18825,99.49125 43.65925,104.69325 42.75725,111.11025" id="Fill-66" fill="#A8B2CE"></path>
                    <path d="M33.64495,110.11025 C33.26895,112.78375 30.79745,114.95125 28.12395,114.95125 C25.44995,114.95125 23.58745,112.78375 23.96345,110.11025 C24.33895,107.43675 26.81095,105.26925 29.48445,105.26925 C32.15795,105.26925 34.02045,107.43675 33.64495,110.11025" id="Fill-68" fill="#FEFEFE"></path>
                    <path d="M33.64495,110.11025 C33.26895,112.78375 30.79745,114.95125 28.12395,114.95125 C25.44995,114.95125 23.58745,112.78375 23.96345,110.11025 C24.33895,107.43675 26.81095,105.26925 29.48445,105.26925 C32.15795,105.26925 34.02045,107.43675 33.64495,110.11025 Z" id="Stroke-70" stroke="#A8B2CE" stroke-width="0.5"></path>
                    <polygon id="Fill-72" fill="#F6F6FA" points="34.61075 78.5154 25.95925 80.8329 25.95925 77.5929 34.61075 75.2754"></polygon>
                    <polygon id="Fill-74" fill="#F6F6FA" points="55.67035 72.5778 38.23785 77.3708 38.23785 74.1308 55.67035 69.3383"></polygon>
                    <polygon id="Fill-76" fill="#F6F6FA" points="55.67035 78.3964 38.23785 83.1894 38.23785 79.9494 55.67035 75.1564"></polygon>
                    <polygon id="Fill-78" fill="#F6F6FA" points="55.67035 84.215 38.23785 89.008 38.23785 85.768 55.67035 80.975"></polygon>
                    <polygon id="Fill-80" fill="#F6F6FA" points="34.61075 84.07265 25.95925 86.39015 25.95925 83.15015 34.61075 80.83265"></polygon>
                    <path d="M36.6625,115.5512 L32.6315,113.2242 C32.494,113.1447 32.447,112.9687 32.5265,112.8307 L32.938,112.1182 C33.0175,111.9802 33.194,111.9332 33.3315,112.0127 L37.3615,114.3397 C37.4995,114.4192 37.547,114.5952 37.467,114.7332 L37.0555,115.4457 C36.976,115.5837 36.8,115.6307 36.6625,115.5512" id="Fill-82" fill="#FEFEFE"></path>
                    <path d="M36.6625,115.5512 L32.6315,113.2242 C32.494,113.1447 32.447,112.9687 32.5265,112.8307 L32.938,112.1182 C33.0175,111.9802 33.194,111.9332 33.3315,112.0127 L37.3615,114.3397 C37.4995,114.4192 37.547,114.5952 37.467,114.7332 L37.0555,115.4457 C36.976,115.5837 36.8,115.6307 36.6625,115.5512 Z" id="Stroke-84" stroke="#A8B2CE" stroke-width="0.5"></path>
                    <path d="M28.2719,113.71425 C26.2819,113.71425 24.8949,112.10075 25.1744,110.11025" id="Stroke-86" stroke="#A8B2CE" stroke-width="0.5"></path>
                </g>
            </g>
            <g id="Group-78" transform="translate(407.500000, 39.000000)">
                <g id="Group-6" transform="translate(21.000000, 0.267000)">
                    <g id="Group-3">
                        <mask id="mask-22" fill="white">
                            <use xlink:href="#path-21"></use>
                        </mask>
                        <g id="Clip-2"></g>
                        <path d="M89.4715,3.17005 L87.93,2.34455 C84.5045,0.18455 80.299,-0.34945 76.443,0.88655 L5.8485,23.51105 C2.599,24.55205 0.3945,27.57405 0.3945,30.98655 L0.3945,200.72555 C0.3945,204.83805 2.528,208.65605 6.031,210.81105 L9.409,212.54005 C9.82,212.75055 10.3085,212.45255 10.31,211.99105 L10.803,26.93605 L89.4715,3.17005 Z" id="Fill-1" fill="#2D2C34" mask="url(#mask-22)"></path>
                    </g>
                    <path d="M88.41245,188.16995 L13.40445,212.70945 C9.67345,213.93045 5.83895,211.14995 5.83895,207.22445 L5.83895,32.72645 C5.83895,30.23045 7.44345,28.01745 9.81595,27.24145 L84.82345,2.70145 C88.55445,1.48095 92.38945,4.26095 92.38945,8.18695 L92.38945,182.68495 C92.38945,185.18045 90.78495,187.39395 88.41245,188.16995" id="Fill-4" fill="#393943"></path>
                </g>
                <g id="Group-9" transform="translate(31.500000, 11.267000)">
                    <mask id="mask-24" fill="white">
                        <use xlink:href="#path-23"></use>
                    </mask>
                    <g id="Clip-8"></g>
                    <path d="M75.495,0.516 L1.0565,24.869 C0.6095,25.0155 0.307,25.4325 0.307,25.903 L0.307,180.8615 C0.307,181.6015 1.03,182.1255 1.7335,181.8955 L76.171,157.542 C76.6185,157.3955 76.9205,156.979 76.9205,156.508 L76.9205,1.55 C76.9205,0.93 76.4135,0.461 75.835,0.4615 C75.7235,0.4615 75.609,0.479 75.495,0.516" id="Fill-7" fill="url(#linearGradient-25)" mask="url(#mask-24)"></path>
                </g>
                <g id="Group-77" transform="translate(0.000000, 11.267000)">
                    <polygon id="Fill-10" fill="#FEFEFE" points="65.93295 103.37915 40.01795 111.72515 40.01795 98.37815 65.93295 90.03215"></polygon>
                    <polygon id="Fill-12" fill="#FEFEFE" points="99.07795 102.4888 40.01795 121.3148 40.01795 114.4293 99.07795 95.6033"></polygon>
                    <polygon id="Fill-14" fill="#FEFEFE" points="99.07795 112.6381 40.01795 131.4641 40.01795 124.5786 99.07795 105.7526"></polygon>
                    <polygon id="Fill-16" fill="#FEFEFE" points="99.07795 92.292 70.11395 101.3415 70.11395 87.9945 99.07795 78.945"></polygon>
                    <polygon id="Stroke-18" stroke="#B0BACE" stroke-width="0.5" points="96.93585 71.6476 40.01785 90.4951 40.01785 61.9171 96.93585 43.0696"></polygon>
                    <g id="Group-24" transform="translate(40.000000, 116.500000)">
                        <polygon id="Fill-20" fill="#FEFEFE" points="59.07795 28.68995 0.01795 48.06995 0.01795 19.49195 59.07795 0.11195"></polygon>
                        <polygon id="Stroke-22" stroke="#C7CFE1" stroke-width="0.5" points="59.07795 28.68995 0.01795 48.06995 0.01795 19.49195 59.07795 0.11195"></polygon>
                    </g>
                    <path d="M106.99495,0.5159 L105.67095,0.9494 L105.67095,153.5269 C105.67095,153.9974 105.36845,154.4144 104.92145,154.5604 L31.80695,178.4809 L31.80695,180.8614 C31.80695,181.6014 32.52945,182.1254 33.23345,181.8954 L107.67145,157.5419 C108.11845,157.3959 108.42145,156.9784 108.42145,156.5084 L108.42145,1.5499 C108.42145,0.8099 107.69795,0.2859 106.99495,0.5159" id="Fill-25" fill="#C2CBDA"></path>
                    <path d="M85.96225,153.09705 L3.96525,175.96405 C3.53325,176.08455 3.10575,175.76005 3.10575,175.31155 L3.10575,124.88205 C3.10575,124.57805 3.30825,124.31105 3.60075,124.22955 L85.59775,101.36255 C86.03025,101.24205 86.45725,101.56655 86.45725,102.01455 L86.45725,152.44455 C86.45725,152.74855 86.25475,153.01555 85.96225,153.09705" id="Fill-27" fill="#C2CBDA" opacity="0.3"></path>
                    <g id="Group-31" transform="translate(0.000000, 92.000000)">
                        <mask id="mask-27" fill="white">
                            <use xlink:href="#path-26"></use>
                        </mask>
                        <g id="Clip-30" opacity="0.286202567"></g>
                        <path d="M88.0062,57.86685 L1.1667,82.36035 C0.5812,82.52535 -0.0003,82.08535 -0.0003,81.47685 L-0.0003,25.80885 C-0.0003,25.39785 0.2732,25.03735 0.6687,24.92535 L87.5077,0.43185 C88.0932,0.26685 88.6747,0.70685 88.6747,1.31535 L88.6747,56.98335 C88.6747,57.39435 88.4017,57.75535 88.0062,57.86685" id="Fill-29" fill="#FBFBFF" opacity="0.95" mask="url(#mask-27)"></path>
                    </g>
                    <path d="M78.54525,6.8059 L62.31425,11.8124 C61.60825,12.0299 60.89925,11.4849 60.92875,10.7474 C60.94625,10.2929 61.24825,9.8999 61.68275,9.7659 L77.91375,4.7594 C78.61975,4.5414 79.32875,5.0869 79.29975,5.8244 C79.28225,6.2784 78.97975,6.6719 78.54525,6.8059" id="Fill-32" fill="#585764"></path>
                    <path d="M56.74445,12.965 C56.74445,13.6795 56.16495,14.259 55.45045,14.259 C54.73595,14.259 54.15645,13.6795 54.15645,12.965 C54.15645,12.2505 54.73595,11.671 55.45045,11.671 C56.16495,11.671 56.74445,12.2505 56.74445,12.965" id="Fill-34" fill="#585764"></path>
                    <polygon id="Fill-36" fill="#C7CFE1" points="96.93585 23.9777 40.01785 42.8252 40.01785 35.9397 96.93585 17.0922"></polygon>
                    <polygon id="Fill-38" fill="#C7CFE1" points="96.93585 29.9357 40.01785 48.7832 40.01785 47.0752 96.93585 28.2277"></polygon>
                    <polygon id="Fill-40" fill="#C7CFE1" points="96.8553 34.25515 39.9373 53.10265 39.9373 51.39465 96.8553 32.54715"></polygon>
                    <polygon id="Fill-42" fill="#C7CFE1" points="96.8553 38.40565 39.9373 57.25315 39.9373 55.54515 96.8553 36.69765"></polygon>
                    <path d="M130.6937,63.51175 L55.6522,84.43925 C55.2572,84.54925 54.8657,84.25225 54.8657,83.84175 L54.8657,37.69025 C54.8657,37.41175 55.0512,37.16775 55.3192,37.09275 L130.3607,16.16575 C130.7557,16.05525 131.1467,16.35225 131.1467,16.76275 L131.1467,62.91475 C131.1467,63.19275 130.9617,63.43675 130.6937,63.51175" id="Fill-44" fill="#C2CBDA" opacity="0.3"></path>
                    <g id="Group-48" transform="translate(56.500000, 12.500000)">
                        <mask id="mask-29" fill="white">
                            <use xlink:href="#path-28"></use>
                        </mask>
                        <g id="Clip-47"></g>
                        <path d="M76.0721,47.8556 L1.0306,68.7831 C0.6356,68.8931 0.2446,68.5961 0.2446,68.1861 L0.2446,22.0341 C0.2446,21.7556 0.4296,21.5116 0.6976,21.4371 L75.7391,0.5096 C76.1346,0.3991 76.5256,0.6966 76.5256,1.1066 L76.5256,47.2586 C76.5256,47.5366 76.3401,47.7811 76.0721,47.8556" id="Fill-46" fill="#F6F6FA" opacity="0.95" mask="url(#mask-29)"></path>
                    </g>
                    <polygon id="Fill-49" fill="#A8B2CE" points="94.96225 58.69655 66.21425 66.70655 66.21425 58.89055 94.96225 50.88055"></polygon>
                    <polygon id="Stroke-51" stroke="#A8B2CE" stroke-width="0.5" points="63.37045 146.3091 42.37045 152.3626 42.37045 145.5466 63.37045 139.4931"></polygon>
                    <polygon id="Fill-53" fill="#A8B2CE" points="82.13605 111.63505 38.27905 123.74955 38.27905 121.43355 82.13605 109.31905"></polygon>
                    <polygon id="Fill-55" fill="#A8B2CE" points="82.13605 116.42395 38.27905 128.53845 38.27905 126.22245 82.13605 114.10795"></polygon>
                    <polygon id="Fill-57" fill="#A8B2CE" points="82.13605 121.2128 38.27905 133.3273 38.27905 131.0113 82.13605 118.8968"></polygon>
                    <polygon id="Fill-59" fill="#A8B2CE" points="82.13605 126.0016 38.27905 138.1161 38.27905 135.8001 82.13605 123.6856"></polygon>
                    <polygon id="Stroke-61" stroke="#A8B2CE" stroke-width="0.5" points="82.13605 140.71865 66.96605 144.92765 66.96605 138.11165 82.13605 133.90265"></polygon>
                    <polygon id="Stroke-63" stroke="#A8B2CE" stroke-width="0.5" points="121.42025 51.33375 103.52625 56.35125 103.52625 34.76625 121.42025 29.74875"></polygon>
                    <path d="M11.15705,155.42785 L36.80455,148.30885" id="Stroke-65" stroke="#A8B2CE" stroke-width="0.5"></path>
                    <path d="M11.15705,160.35965 L36.80455,153.24065" id="Stroke-67" stroke="#A8B2CE" stroke-width="0.5"></path>
                    <path d="M33.1634,134.1432 C32.3539,139.9067 27.0249,144.5792 21.2609,144.5792 C15.4974,144.5792 11.4819,139.9067 12.2919,134.1432 C13.1019,128.3797 18.4309,123.7072 24.1949,123.7072 C29.9579,123.7072 33.9734,128.3797 33.1634,134.1432" id="Fill-69" fill="#A8B2CE"></path>
                    <path d="M66.19025,45.4723 L93.94725,37.5473" id="Stroke-71" stroke="#A8B2CE" stroke-width="0.5"></path>
                    <path d="M66.3592,49.1343 L94.1162,41.2093" id="Stroke-73" stroke="#A8B2CE" stroke-width="0.5"></path>
                    <path d="M66.52815,53.2964 L94.28515,45.3709" id="Stroke-75" stroke="#A8B2CE" stroke-width="0.5"></path>
                </g>
            </g>
            <g id="Group-129" transform="translate(504.000000, 88.000000)">
                <path d="M18.01065,224.31295 L17.40315,225.96245 C17.40315,225.96245 15.22565,227.28845 13.10415,225.13745 C10.98165,222.98695 3.95265,220.39845 1.03465,225.33995 C-1.88285,230.28145 1.43265,235.71895 10.18615,235.05545 C18.93915,234.39245 19.73465,235.85145 23.58115,235.98395 C27.42715,236.11645 25.17265,227.09795 25.17265,225.50645 C25.17265,223.91495 18.01065,224.31295 18.01065,224.31295" id="Fill-1" fill="#DF593A"></path>
                <path d="M63.1034,217.6817 C63.1034,217.6817 65.3584,221.3662 62.1754,222.5082 C58.9919,223.6497 53.6874,220.9872 51.8304,226.9602 C49.9734,232.9337 57.4009,234.9232 61.3794,232.2707 C65.3584,229.6182 66.5514,227.6187 70.2654,226.9602 C73.9789,226.3022 70.1329,217.2837 68.6739,216.6207 C67.2149,215.9577 63.1034,217.6817 63.1034,217.6817" id="Fill-3" fill="#DF593A"></path>
                <path d="M38.9081,27.3187 C38.9081,27.3187 33.9891,20.2652 43.0486,8.0532 C52.1076,-4.1583 58.1586,1.8367 58.1586,1.8367 C58.1586,1.8367 70.9806,-5.9343 78.3071,10.4957 C85.6341,26.9257 88.9761,32.8677 109.1746,37.7787 C129.3741,42.6897 137.3671,66.6577 138.0331,68.1067 C138.6991,69.5552 157.5716,85.5417 134.2586,127.2827 C110.9451,169.0242 90.2966,136.1642 77.6411,136.3862 C64.9851,136.6082 56.0661,131.5012 56.0661,131.5012 L31.1956,66.2647 C31.1956,66.2647 43.9811,59.3422 43.0486,45.7982 C42.1166,32.2547 38.9081,27.3187 38.9081,27.3187" id="Fill-5" fill="url(#linearGradient-30)"></path>
                <path d="M65.56095,37.77865 C65.56095,37.77865 63.19895,52.05865 74.18495,52.36015 C85.17095,52.66165 89.77595,48.09665 95.44795,58.50215 C101.12045,68.90715 126.27895,67.34915 118.05745,102.82615 C109.83595,138.30315 98.32545,118.70515 84.55395,123.02315 C70.78295,127.34115 61.90345,139.08715 56.06645,131.50165 C50.22945,123.91515 26.76745,29.06165 65.56095,37.77865" id="Fill-7" fill="#2D4379"></path>
                <path d="M48.8988,47.118 C48.8988,47.118 48.8053,55.2985 48.8988,56.321 C48.9923,57.344 45.7743,58.3665 44.9418,58.3665 C44.1098,58.3665 46.7393,65.3785 55.2118,64.502 C63.6843,63.6255 66.4603,56.0065 66.4603,56.0065 C66.4603,56.0065 63.5383,55.422 62.0773,56.0065 C62.0773,56.0065 61.7633,47.576 65.5608,37.7785 C69.3593,27.981 47.6373,42.5895 48.8988,47.118" id="Fill-9" fill="#EBD6BC"></path>
                <path d="M67.2504,32.27865 C67.2504,32.27865 72.1949,30.47165 69.8769,35.26165 C67.5594,40.05165 61.5329,41.37715 63.3869,37.77865 C63.3869,37.77865 53.5579,51.94015 43.9774,48.84965 C34.3974,45.75915 35.9564,33.49915 39.8194,25.15515 C43.6824,16.81065 52.0864,9.21215 60.9149,12.08365 C68.5319,14.56115 68.0719,22.12715 65.8599,24.59965 C63.6799,27.03615 65.0484,32.57965 67.2504,32.27865" id="Fill-11" fill="#F6EADA"></path>
                <path d="M47.41735,25.716 C47.41735,29.74 44.15535,34.1895 40.13135,35.654 C36.10735,37.1185 32.84485,35.0435 32.84485,31.0195 C32.84485,26.996 36.10735,22.5465 40.13135,21.082 C44.15535,19.6175 47.41735,21.692 47.41735,25.716 Z" id="Stroke-13" stroke="#DF593A" stroke-width="0.5"></path>
                <path d="M66.7079,28.57135 C66.7079,32.63585 63.4129,36.51185 59.3479,37.22835 C55.2834,37.94535 51.9889,35.23135 51.9889,31.16685 C51.9889,27.10235 55.2834,23.22635 59.3479,22.50935 C63.4129,21.79285 66.7079,24.50685 66.7079,28.57135 Z" id="Stroke-15" stroke="#DF593A" stroke-width="0.5"></path>
                <path d="M47.2914,27.11675 C47.2914,27.11675 50.5069,26.02025 52.5044,27.95325" id="Stroke-17" stroke="#DF593A" stroke-width="0.5"></path>
                <path d="M47.2914,34.4061 C47.2914,34.4061 43.8879,33.2441 45.2734,31.6576 C46.6584,30.0711 48.3989,26.2371 48.3989,26.2371" id="Stroke-19" stroke="#314582" stroke-width="0.5"></path>
                <g id="Group-24" transform="translate(57.000000, 19.485500)">
                    <path d="M0.43445,0.74845 C0.43445,0.74845 2.72395,0.56295 3.34295,0.74845" id="Fill-21" fill="#334888"></path>
                    <path d="M0.43445,0.74845 C0.43445,0.74845 2.72395,0.56295 3.34295,0.74845" id="Stroke-23" stroke="#314582" stroke-width="0.5"></path>
                </g>
                <g id="Group-28" transform="translate(45.500000, 41.485500)">
                    <path d="M0.05215,0.1614 C0.05215,0.1614 0.80365,0.2854 1.17015,0.4709" id="Fill-25" fill="#334888"></path>
                    <path d="M0.05215,0.1614 C0.05215,0.1614 0.80365,0.2854 1.17015,0.4709" id="Stroke-27" stroke="#314582" stroke-width="0.5"></path>
                </g>
                <path d="M44.34365,26.6036 C44.34365,27.1896 43.99715,27.7906 43.56965,27.9461 C43.14265,28.1016 42.79615,27.7526 42.79615,27.1666 C42.79615,26.5811 43.14265,25.9801 43.56965,25.8246 C43.99715,25.6691 44.34365,26.0181 44.34365,26.6036" id="Fill-29" fill="#334888"></path>
                <path d="M44.34365,26.6036 C44.34365,27.1896 43.99715,27.7906 43.56965,27.9461 C43.14265,28.1016 42.79615,27.7526 42.79615,27.1666 C42.79615,26.5811 43.14265,25.9801 43.56965,25.8246 C43.99715,25.6691 44.34365,26.0181 44.34365,26.6036 Z" id="Stroke-31" stroke="#314582" stroke-width="0.5"></path>
                <path d="M58.34365,28.6036 C58.34365,29.1896 57.99715,29.7906 57.56965,29.9461 C57.14265,30.1016 56.79615,29.7526 56.79615,29.1666 C56.79615,28.5811 57.14265,27.9801 57.56965,27.8246 C57.99715,27.6691 58.34365,28.0181 58.34365,28.6036" id="Fill-33" fill="#334888"></path>
                <path d="M58.34365,28.6036 C58.34365,29.1896 57.99715,29.7906 57.56965,29.9461 C57.14265,30.1016 56.79615,29.7526 56.79615,29.1666 C56.79615,28.5811 57.14265,27.9801 57.56965,27.8246 C57.99715,27.6691 58.34365,28.0181 58.34365,28.6036 Z" id="Stroke-35" stroke="#314582" stroke-width="0.5"></path>
                <path d="M57.0497,28.72005 C57.0497,28.72005 57.5607,28.97055 58.1587,28.88505 C58.1587,28.88505 58.0277,29.96205 57.3522,29.86905 C56.8147,29.79505 56.9407,29.12755 57.0497,28.72005" id="Fill-37" fill="#F6EADA"></path>
                <path d="M43.1278,26.6915 C43.1278,26.6915 43.5513,26.9635 44.0458,26.871 C44.0458,26.871 43.9373,28.0405 43.3783,27.9395 C42.9333,27.8595 43.0378,27.134 43.1278,26.6915" id="Fill-39" fill="#F6EADA"></path>
                <path d="M32.75235,117.91925 C32.75235,117.91925 9.81735,151.70125 17.40335,225.96225 L25.98735,226.96025 C25.98735,226.96025 44.95135,182.24375 43.75385,159.48675 C43.75385,159.48675 46.74835,207.19725 64.11635,219.97325 L69.90535,217.57775 C69.90535,217.57775 67.50985,209.79275 68.30785,202.60575 C69.10685,195.41925 77.49135,118.67275 59.92385,117.91925 C42.35685,117.16575 32.75235,117.91925 32.75235,117.91925" id="Fill-41" fill="#2D488D"></path>
                <path d="M32.75235,117.91925 C32.75235,117.91925 9.81735,151.70125 17.40335,225.96225 L25.98735,226.96025 C25.98735,226.96025 44.95135,182.24375 43.75385,159.48675 C43.75385,159.48675 46.74835,207.19725 64.11635,219.97325 L69.90535,217.57775 C69.90535,217.57775 67.50985,209.79275 68.30785,202.60575 C69.10685,195.41925 77.49135,118.67275 59.92385,117.91925 C42.35685,117.16575 32.75235,117.91925 32.75235,117.91925 Z" id="Stroke-43" stroke="#1E386E" stroke-width="0.5"></path>
                <path d="M97.92665,71.8227 C97.92665,71.8227 99.55215,66.3802 99.76415,65.8147 C99.97665,65.2492 98.42115,61.9267 98.84515,60.8667 C99.26965,59.8067 99.78415,60.0892 99.78415,60.0892 C99.78415,60.0892 100.04665,57.8982 101.03665,58.0392 C101.03665,58.0392 100.96765,56.1307 102.02665,56.5552 C102.02665,56.5552 101.60215,54.8587 103.15715,54.1517 C104.71215,53.4447 105.06515,56.0062 105.06515,56.0062 C105.06515,56.0062 107.25665,57.9687 109.09465,58.3222 C110.93215,58.6757 110.79115,61.3617 110.79115,61.3617 C110.79115,61.3617 111.35615,64.5422 109.23565,66.8747 C107.11515,69.2077 105.63565,69.4522 103.65165,73.4482 C101.66765,77.4447 100.96565,79.2447 100.96565,79.2447 L97.92665,71.8227 Z" id="Fill-45" fill="#F6EADA"></path>
                <path d="M97.92665,71.8227 C97.92665,71.8227 99.55215,66.3802 99.76415,65.8147 C99.97665,65.2492 98.42115,61.9267 98.84515,60.8667 C99.26965,59.8067 99.78415,60.0892 99.78415,60.0892 C99.78415,60.0892 100.04665,57.8982 101.03665,58.0392 C101.03665,58.0392 100.96765,56.1307 102.02665,56.5552 C102.02665,56.5552 101.60215,54.8587 103.15715,54.1517 C104.71215,53.4447 105.06515,56.0062 105.06515,56.0062 C105.06515,56.0062 107.25665,57.9687 109.09465,58.3222 C110.93215,58.6757 110.79115,61.3617 110.79115,61.3617 C110.79115,61.3617 111.35615,64.5422 109.23565,66.8747 C107.11515,69.2077 105.63565,69.4522 103.65165,73.4482 C101.66765,77.4447 100.96565,79.2447 100.96565,79.2447 L97.92665,71.8227 Z" id="Stroke-47" stroke="#CAA480" stroke-width="0.5"></path>
                <path d="M44.9418,58.3664 C44.9418,58.3664 29.8483,57.2679 27.7538,58.3664 C25.6598,59.4649 19.2153,67.3594 19.5368,91.3649 C19.8593,115.3709 22.9208,116.7989 25.6598,115.7624 C28.3983,114.7264 30.8153,113.1154 30.8153,113.1154 L31.2983,120.3654 C31.2983,120.3654 56.2708,122.4599 64.9713,120.3654 C64.9713,120.3654 70.8438,101.2829 71.6768,91.9564 C71.6973,91.7259 72.0223,91.6989 72.0808,91.9229 C73.0683,95.6914 76.3003,106.7049 81.0823,109.8929 C86.8823,113.7599 100.2548,87.4984 102.0268,78.1539 C102.0268,78.1539 98.4823,71.2259 98.3213,69.9369 C98.1603,68.6479 89.7678,78.1529 86.5598,87.4984 C86.5598,87.4984 89.1383,62.0424 84.9493,60.4314 C80.7603,58.8204 66.4603,56.0064 66.4603,56.0064 C66.4603,56.0064 62.5808,62.1759 54.6598,62.0424 C46.7383,61.9089 44.9418,58.3664 44.9418,58.3664" id="Fill-49" fill="#DF593A"></path>
                <path d="M44.9418,58.3664 C44.9418,58.3664 29.8483,57.2679 27.7538,58.3664 C25.6598,59.4649 19.2153,67.3594 19.5368,91.3649 C19.8593,115.3709 22.9208,116.7989 25.6598,115.7624 C28.3983,114.7264 30.8153,113.1154 30.8153,113.1154 L31.2983,120.3654 C31.2983,120.3654 56.2708,122.4599 64.9713,120.3654 C64.9713,120.3654 70.8438,101.2829 71.6768,91.9564 C71.6973,91.7259 72.0223,91.6989 72.0808,91.9229 C73.0683,95.6914 76.3003,106.7049 81.0823,109.8929 C86.8823,113.7599 100.2548,87.4984 102.0268,78.1539 C102.0268,78.1539 98.4823,71.2259 98.3213,69.9369 C98.1603,68.6479 89.7678,78.1529 86.5598,87.4984 C86.5598,87.4984 89.1383,62.0424 84.9493,60.4314 C80.7603,58.8204 66.4603,56.0064 66.4603,56.0064 C66.4603,56.0064 62.5808,62.1759 54.6598,62.0424 C46.7383,61.9089 44.9418,58.3664 44.9418,58.3664 Z" id="Stroke-51" stroke="#C64D34" stroke-width="0.5"></path>
                <path d="M42.2572,73.48605 L42.2572,111.78755 C42.2572,112.34105 42.7447,112.76805 43.2932,112.69505 L64.1447,110.12705 C64.5732,110.07055 64.9032,109.72255 64.9372,109.29205 L67.9647,70.26005 C68.0112,69.67355 67.5002,69.19555 66.9182,69.28155 L43.0392,72.58005 C42.5902,72.64605 42.2572,73.03155 42.2572,73.48605" id="Fill-53" fill="#C64D34"></path>
                <path d="M43.65905,74.5163 L43.65905,112.8738 C43.65905,113.4418 44.15855,113.8798 44.72155,113.8048 L64.59755,111.1713 C65.03655,111.1128 65.37555,110.7558 65.41055,110.3143 L68.51505,71.2078 C68.56305,70.6063 68.03905,70.1163 67.44155,70.2043 L44.46105,73.5873 C44.00055,73.6548 43.65905,74.0503 43.65905,74.5163" id="Fill-55" fill="#EFE1D1"></path>
                <path d="M36.09365,94.66875 C36.09365,94.66875 52.15465,92.14425 59.70065,94.33275 C59.70065,94.33275 66.73415,92.04525 67.75715,89.35925 C68.78065,86.67375 65.79865,87.30925 64.61565,88.31875 C60.77615,91.59275 62.12965,90.00225 51.83065,91.26475 C41.53165,92.52775 39.11015,92.00575 38.47065,92.53725 C37.83165,93.06825 36.30565,80.03275 34.12665,78.81325 C34.12665,78.81325 37.07715,89.01475 36.09365,94.66875" id="Fill-57" fill="#C64D34"></path>
                <path d="M64.6156,88.3187 C60.7761,91.5927 62.1296,90.0022 51.8306,91.2652 C48.2301,91.7062 45.5941,91.9297 43.6591,92.0562 L43.6591,93.7912 C48.8656,93.3502 55.5621,93.1322 59.7006,94.3327 C59.7006,94.3327 64.8636,92.6522 66.9846,90.4812 L67.2231,87.4852 C66.4491,87.3292 65.2641,87.7657 64.6156,88.3187" id="Fill-59" fill="#E5D7CB"></path>
                <path d="M58.5863,92.825 C58.5863,92.825 65.6303,90.7075 66.1133,89.3395 C66.5963,87.971 67.1593,87.7295 68.0448,88.293 C68.9298,88.8565 69.3323,90.7075 68.6083,91.593 C68.6083,91.593 70.3788,92.5935 68.6888,94.669 C68.6888,94.669 69.6548,95.134 68.9298,96.422 C68.9298,96.422 69.6548,96.905 68.6083,98.1925 C67.5618,99.4805 64.1788,102.4895 58.5863,99.0935 C58.5863,99.0935 59.1838,98.373 59.1853,96.7505 C59.1873,95.1285 58.5863,92.825 58.5863,92.825" id="Fill-61" fill="#F6EADA"></path>
                <path d="M58.5863,92.825 C58.5863,92.825 65.6303,90.7075 66.1133,89.3395 C66.5963,87.971 67.1593,87.7295 68.0448,88.293 C68.9298,88.8565 69.3323,90.7075 68.6083,91.593 C68.6083,91.593 70.3788,92.5935 68.6888,94.669 C68.6888,94.669 69.6548,95.134 68.9298,96.422 C68.9298,96.422 69.6548,96.905 68.6083,98.1925 C67.5618,99.4805 64.1788,102.4895 58.5863,99.0935 C58.5863,99.0935 59.1838,98.373 59.1853,96.7505 C59.1873,95.1285 58.5863,92.825 58.5863,92.825 Z" id="Stroke-63" stroke="#CAA480" stroke-width="0.5"></path>
                <path d="M34.12685,78.8132 C34.12685,78.8132 37.07685,89.0147 36.09385,94.6687" id="Stroke-65" stroke="#C64D34" stroke-width="0.5"></path>
                <path d="M64.3798,93.4782 C64.3798,93.4782 66.5498,93.0407 68.6083,91.5927" id="Stroke-67" stroke="#CEA782" stroke-width="0.5" stroke-linecap="round" stroke-linejoin="round"></path>
                <path d="M64.9281,95.58795 C64.9281,95.58795 67.4281,95.52145 68.6886,94.66895" id="Stroke-69" stroke="#CEA782" stroke-width="0.5" stroke-linecap="round" stroke-linejoin="round"></path>
                <path d="M65.3505,97.95075 C65.3505,97.95075 67.025,97.93125 68.93,96.42225" id="Stroke-71" stroke="#CEA782" stroke-width="0.5" stroke-linecap="round" stroke-linejoin="round"></path>
                <path d="M45.288,80.4863 L57.367,79.2448" id="Stroke-73" stroke="#C5AB91" stroke-width="0.5"></path>
                <path d="M45.60635,82.551 L57.36685,81.31" id="Stroke-75" stroke="#C5AB91" stroke-width="0.5"></path>
                <path d="M51.32755,87.49835 L60.77605,86.74085" id="Stroke-77" stroke="#C5AB91" stroke-width="0.5"></path>
                <path d="M74.18495,79.54745 C74.18495,79.54745 71.79045,88.29845 71.67645,91.95645" id="Stroke-79" stroke="#C64D34" stroke-width="0.5"></path>
                <path d="M101.0365,58.0394 C101.0365,58.0394 101.3105,63.1254 102.344,63.8144 C103.378,64.5034 103.5215,60.9269 103.5215,60.9269" id="Stroke-81" stroke="#CEA782" stroke-width="0.5" stroke-linecap="round" stroke-linejoin="round"></path>
                <path d="M99.78405,60.0892 C99.78405,60.0892 100.15955,64.5897 101.03655,64.6327 C101.91355,64.6757 101.86055,63.0762 101.86055,63.0762" id="Stroke-83" stroke="#CEA782" stroke-width="0.5" stroke-linecap="round" stroke-linejoin="round"></path>
                <path d="M99.56045,64.6336 C99.56045,64.6336 99.93195,65.3221 100.23395,65.3221 C100.53495,65.3221 100.68095,64.6116 100.46995,63.9026" id="Stroke-85" stroke="#CEA782" stroke-width="0.5" stroke-linecap="round" stroke-linejoin="round"></path>
                <polygon id="Fill-87" fill="#F6EADA" points="108.6952 50.11565 109.1727 49.05665 113.0612 51.42215 112.4907 52.36015"></polygon>
                <polygon id="Stroke-89" stroke="#C64D34" stroke-width="0.5" points="108.6952 50.11565 109.1727 49.05665 113.0612 51.42215 112.4907 52.36015"></polygon>
                <polygon id="Fill-91" fill="#DF593A" points="108.6952 50.11565 112.4907 52.36015 104.2372 66.56165 101.3487 65.19015"></polygon>
                <polygon id="Stroke-93" stroke="#C64D34" stroke-width="0.5" points="108.6952 50.11565 112.4907 52.36015 104.2372 66.56165 101.3487 65.19015"></polygon>
                <path d="M109.17275,49.05685 L113.06125,51.42185 L113.77225,50.26985 C113.77225,50.26985 112.84975,47.38135 109.66025,47.80235 L109.17275,49.05685 Z" id="Fill-95" fill="#F6EADA"></path>
                <path d="M109.17275,49.05685 L113.06125,51.42185 L113.77225,50.26985 C113.77225,50.26985 112.84975,47.38135 109.66025,47.80235 L109.17275,49.05685 Z" id="Stroke-97" stroke="#C64D34" stroke-width="0.5"></path>
                <polygon id="Fill-99" fill="#F6EADA" points="101.34855 65.19 100.81905 66.302 101.12055 68.907 103.55105 67.756 104.23705 66.5615"></polygon>
                <polygon id="Stroke-101" stroke="#C64D34" stroke-width="0.5" points="101.34855 65.19 100.81905 66.302 101.12055 68.907 103.55105 67.756 104.23705 66.5615"></polygon>
                <path d="M101.1205,68.9072 L102.361,68.3192 C102.167,67.9742 101.77,67.5902 100.9625,67.5417 L101.1205,68.9072 Z" id="Fill-103" fill="#DF593A"></path>
                <path d="M101.1205,68.9072 L102.361,68.3192 C102.167,67.9742 101.77,67.5902 100.9625,67.5417 L101.1205,68.9072 Z" id="Stroke-105" stroke="#C64D34" stroke-width="0.5"></path>
                <path d="M86.55995,87.49835 C86.55995,87.49835 84.62245,92.79835 84.55395,94.33285" id="Stroke-107" stroke="#C64D34" stroke-width="0.5"></path>
                <path d="M42.41395,146.1965 L43.75395,159.4865" id="Stroke-109" stroke="#1E386E" stroke-width="0.5"></path>
                <path d="M70.4955,5.3442 C70.4955,5.3442 72.9615,3.8152 75.4135,4.0037 C77.866,4.1922 78.1745,5.3937 77.237,6.0787 C76.2995,6.7637 74.219,2.9347 82.079,4.2552" id="Stroke-111" stroke="#1E386E" stroke-width="0.5"></path>
                <path d="M43.0487,13.4356 C42.9047,13.2471 43.0307,7.9651 39.5722,8.9081 C36.1142,9.8516 39.9352,11.3606 40.1312,9.7886 C40.3272,8.2166 36.1767,7.6506 36.1767,7.6506" id="Stroke-113" stroke="#1E386E" stroke-width="0.5"></path>
                <path d="M126.64735,54.77145 C126.64735,54.77145 133.78785,52.86745 137.52835,56.87945 C141.26835,60.89195 133.72235,57.82795 135.07985,56.87945 C136.43685,55.93145 140.52035,57.43845 148.68085,62.36145" id="Stroke-115" stroke="#1E386E" stroke-width="0.5"></path>
                <g id="Group-120" transform="translate(102.000000, 55.985500)">
                    <path d="M0.02675,0.5695 C0.02675,0.5695 1.85125,6.9675 2.75625,6.709 C3.66075,6.4505 3.06525,0.021 3.06525,0.021" id="Fill-117" fill="#F4E8D8"></path>
                    <path d="M0.02675,0.5695 C0.02675,0.5695 1.85125,6.9675 2.75625,6.709 C3.66075,6.4505 3.06525,0.021 3.06525,0.021" id="Stroke-119" stroke="#CEA782" stroke-width="0.5" stroke-linecap="round" stroke-linejoin="round"></path>
                </g>
                <g id="Group-124" transform="translate(105.000000, 58.485500)">
                    <path d="M5.2543,0.62845 C5.2543,0.62845 3.5893,-0.78855 1.1778,2.48545 C-1.2347,5.75945 1.2638,5.19995 1.5653,4.89845 C1.8668,4.59695 3.2023,3.15495 4.2358,3.87595" id="Fill-121" fill="#F4E8D8"></path>
                    <path d="M5.2543,0.62845 C5.2543,0.62845 3.5893,-0.78855 1.1778,2.48545 C-1.2347,5.75945 1.2638,5.19995 1.5653,4.89845 C1.8668,4.59695 3.2023,3.15495 4.2358,3.87595" id="Stroke-123" stroke="#CEA782" stroke-width="0.5" stroke-linecap="round" stroke-linejoin="round"></path>
                </g>
                <g id="Group-128" transform="translate(30.500000, 92.485500)">
                    <path d="M1.2919,3.5353 C1.2919,3.5353 12.7224,-1.1352 28.0864,0.3393 C28.0864,0.3393 29.4384,5.0103 28.0864,6.6083 C26.7344,8.2058 4.0094,19.9018 0.3154,20.6298" id="Fill-125" fill="#DF593A"></path>
                    <path d="M1.2919,3.5353 C1.2919,3.5353 12.7224,-1.1352 28.0864,0.3393 C28.0864,0.3393 29.4384,5.0103 28.0864,6.6083 C26.7344,8.2058 4.0094,19.9018 0.3154,20.6298" id="Stroke-127" stroke="#C64D34" stroke-width="0.5"></path>
                </g>
            </g>
        </g>
    </g>
</svg>