<?xml version="1.0" encoding="UTF-8"?>
<svg width="24px" height="19px" viewBox="0 0 24 19" version="1.1" xmlns="http://www.w3.org/2000/svg" xmlns:xlink="http://www.w3.org/1999/xlink">
    <!-- Generator: Sketch 52.6 (67491) - http://www.bohemiancoding.com/sketch -->
    <title>icon_contact_medium</title>
    <desc>Created with Sketch.</desc>
    <defs>
        <polygon id="path-1" points="2.88e-06 9.60080849e-06 23.9948928 9.60080849e-06 23.9948928 18.9975998 2.88e-06 18.9975998"></polygon>
    </defs>
    <g id="Website" stroke="none" stroke-width="1" fill="none" fill-rule="evenodd">
        <g id="Home-Copy-2" transform="translate(-640.000000, -3145.000000)">
            <g id="icon_contact_medium" transform="translate(640.000000, 3145.000000)">
                <mask id="mask-2" fill="white">
                    <use xlink:href="#path-1"></use>
                </mask>
                <g id="Clip-2"></g>
                <path d="M23.9948957,2.79968216 L23.0458781,2.79968216 C22.6935389,2.79968216 22.1952797,3.30802577 22.1952797,3.63338757 L22.1952797,15.4280576 C22.1952797,15.7537938 22.6935389,16.1979272 23.0458781,16.1979272 L23.9948957,16.1979272 L23.9948957,18.9975998 L15.3967517,18.9975998 L15.3967517,16.1979272 L17.1963677,16.1979272 L17.1963677,3.79949116 L17.1081725,3.79949116 L12.9056861,18.9975998 L9.65213088,18.9975998 L5.50382688,3.79949116 L5.39885088,3.79949116 L5.39885088,16.1979272 L7.19846688,16.1979272 L7.19846688,18.9975998 L2.88e-06,18.9975998 L2.88e-06,16.1979272 L0.92183328,16.1979272 C1.30135008,16.1979272 1.79961888,15.7537938 1.79961888,15.4280576 L1.79961888,3.63329156 C1.79961888,3.30792976 1.30135008,2.79958615 0.92183328,2.79958615 L2.88e-06,2.79958615 L2.88e-06,9.60080849e-06 L9.00127008,9.60080849e-06 L11.9565821,10.9985614 L12.0381245,10.9985614 L15.0205181,9.60080849e-06 L23.9948957,9.60080849e-06 L23.9948957,2.79968216" id="Fill-1" fill="#323232" mask="url(#mask-2)"></path>
            </g>
        </g>
    </g>
</svg>