<?xml version="1.0" encoding="UTF-8"?>
<svg width="31px" height="19px" viewBox="0 0 31 19" version="1.1" xmlns="http://www.w3.org/2000/svg" xmlns:xlink="http://www.w3.org/1999/xlink">
    <!-- Generator: Sketch 52.6 (67491) - http://www.bohemiancoding.com/sketch -->
    <title>icon_contact_behance</title>
    <desc>Created with Sketch.</desc>
    <defs>
        <polygon id="path-1" points="3.5962877e-05 3.54477612e-05 30.9369211 3.54477612e-05 30.9369211 18.9737332 3.5962877e-05 18.9737332"></polygon>
    </defs>
    <g id="Website" stroke="none" stroke-width="1" fill="none" fill-rule="evenodd">
        <g id="Home-Copy-2" transform="translate(-696.000000, -3145.000000)">
            <g id="icon_contact_behance" transform="translate(696.000000, 3145.000000)">
                <mask id="mask-2" fill="white">
                    <use xlink:href="#path-1"></use>
                </mask>
                <g id="Clip-2"></g>
                <path d="M27.1924304,10.2432332 C27.124964,9.29876306 26.8049664,8.58392351 26.228913,8.09538246 C25.6576067,7.60542351 24.9438875,7.35955784 24.0922865,7.35955784 C23.1655232,7.35955784 22.44979,7.62243843 21.9412749,8.1390541 C21.4293794,8.65474813 21.1107483,9.35569216 20.9802749,10.2433041 L27.1924304,10.2433041 L27.1924304,10.2432332 Z M30.8143237,9.88918097 C30.907971,10.5099422 30.9503353,11.4105989 30.9332169,12.5877481 L20.893964,12.5877481 C20.9492749,13.9536922 21.4277251,14.9088675 22.3349965,15.455472 C22.8820638,15.798181 23.545507,15.9656362 24.3223051,15.9656362 C25.1413237,15.9656362 25.8090104,15.761528 26.322848,15.3419683 C26.6029269,15.1194981 26.849848,14.8056437 27.0633956,14.4095504 L30.7431172,14.4095504 C30.6467367,15.2162705 30.203674,16.0344757 29.4075278,16.8658675 C28.1739292,18.1875019 26.4438271,18.8500914 24.2218248,18.8500914 C22.3863515,18.8500914 20.7685974,18.2912929 19.3645348,17.1775951 C17.9650754,16.0599981 17.2622169,14.2474123 17.2622169,11.7331735 C17.2622169,9.37533022 17.8932216,7.5707556 19.1594026,6.31455784 C20.4303306,5.05609142 22.0705255,4.42980037 24.0922865,4.42980037 C25.2907135,4.42980037 26.3708944,4.64092724 27.3346995,5.06530784 C28.2954118,5.4902556 29.0893283,6.15894216 29.7146508,7.07796082 C30.2806346,7.8873041 30.644507,8.823125 30.8143237,9.88918097 Z M11.7205534,12.9759011 C11.7205534,11.9903116 11.3117993,11.3088638 10.4961613,10.9433265 C10.0399362,10.7354608 9.39641647,10.6292593 8.57114037,10.6217444 L4.43943735,10.6217444 L4.43943735,15.678084 L8.50719838,15.678084 C9.34290371,15.678084 9.98980394,15.5703228 10.4565302,15.3453713 C11.2983492,14.9317668 11.7205534,14.1445429 11.7205534,12.9759011 Z M4.43943735,7.48036381 L8.51273666,7.48036381 C9.34980858,7.48036381 10.0264142,7.32354291 10.5475882,7.01011381 C11.0684745,6.69703918 11.3283422,6.14065112 11.3283422,5.34187127 C11.3283422,4.45929291 10.9841775,3.87341231 10.2944095,3.59146082 C9.70138167,3.39564739 8.94278074,3.29476306 8.02220302,3.29476306 L4.43943735,3.29476306 L4.43943735,7.48036381 Z M15.0261891,10.4675466 C15.5263608,11.2312332 15.7762309,12.1584049 15.7762309,13.2468638 C15.7762309,14.3725429 15.4944258,15.3823787 14.9211775,16.2743862 C14.5563701,16.8646623 14.1035255,17.3633414 13.5594791,17.7647519 C12.9466717,18.2289757 12.2211566,18.5472966 11.3870336,18.7173041 C10.5503933,18.8877369 9.64470418,18.9737332 8.66917517,18.9737332 L3.5962877e-05,18.9737332 L3.5962877e-05,3.54477612e-05 L9.29643968,3.54477612e-05 C11.6397088,0.0375391791 13.300906,0.706722015 14.2819014,2.02091231 C14.8706137,2.8269944 15.1622726,3.79415112 15.1622726,4.91834142 C15.1622726,6.07826306 14.8670893,7.00649813 14.2726949,7.7116959 C13.9419803,8.10708022 13.4535325,8.46666231 12.8069919,8.79136381 C13.7863329,9.14470709 14.5294698,9.70123694 15.0261891,10.4675466 Z M27.9382285,2.68506157 L20.1866462,2.68506157 L20.1866462,0.787188433 L27.9389478,0.787188433 L27.9389478,2.68506157 L27.9382285,2.68506157 Z" id="Fill-1" fill="#323232" mask="url(#mask-2)"></path>
            </g>
        </g>
    </g>
</svg>