<?xml version="1.0" encoding="UTF-8"?>
<svg width="25px" height="25px" viewBox="0 0 25 25" version="1.1" xmlns="http://www.w3.org/2000/svg" xmlns:xlink="http://www.w3.org/1999/xlink">
    <!-- Generator: Sketch 52.6 (67491) - http://www.bohemiancoding.com/sketch -->
    <title>icon_contact_instagram</title>
    <desc>Created with Sketch.</desc>
    <defs>
        <polygon id="path-1" points="0 0 24.937259 0 24.937259 24.9372383 0 24.9372383"></polygon>
    </defs>
    <g id="Website" stroke="none" stroke-width="1" fill="none" fill-rule="evenodd">
        <g id="Home-Copy-2" transform="translate(-760.000000, -3142.000000)">
            <g id="icon_contact_instagram" transform="translate(760.000000, 3142.000000)">
                <mask id="mask-2" fill="white">
                    <use xlink:href="#path-1"></use>
                </mask>
                <g id="Clip-2"></g>
                <path d="M7.32801653,0.0752548209 C6.0007438,0.135447658 5.09454545,0.346260331 4.30136364,0.654593664 C3.48132231,0.973050964 2.78621212,1.39956612 2.09309917,2.09267906 C1.399573,2.78599862 0.973264463,3.48117769 0.655013774,4.30115014 C0.346473829,5.09433196 0.135592287,6.00073691 0.0754683196,7.32780303 C0.0145179063,8.65769284 -1.37741047e-05,9.08221074 -1.37741047e-05,12.4686433 C-1.37741047e-05,15.8550758 0.0145179063,16.2793871 0.0754683196,17.6094146 C0.135592287,18.9367562 0.346473829,19.8428857 0.655013774,20.6357231 C0.973264463,21.4559022 1.399573,22.151219 2.09309917,22.844332 C2.78621212,23.5377204 3.48132231,23.9637534 4.30136364,24.282624 C5.09454545,24.5910262 6.0007438,24.8016322 7.32801653,24.8619628 C8.65811295,24.9227755 9.08242424,24.9372383 12.4686501,24.9372383 C15.8552893,24.9372383 16.2797383,24.9227755 17.6096281,24.8619628 C18.9367631,24.8016322 19.8430992,24.5910262 20.6364876,24.282624 C21.4559091,23.9637534 22.1516391,23.5377204 22.8447521,22.844332 C23.5379339,22.151219 23.9639669,21.4559022 24.2828375,20.6357231 C24.5910331,19.8428857 24.8020523,18.9367562 24.8624518,17.6094146 C24.9231956,16.2793871 24.937314,15.8550758 24.937314,12.4686433 C24.937314,9.08221074 24.9231956,8.65769284 24.8624518,7.32780303 C24.8020523,6.00073691 24.5910331,5.09433196 24.2828375,4.30115014 C23.9639669,3.48117769 23.5379339,2.78599862 22.8447521,2.09267906 C22.1516391,1.39956612 21.4559091,0.973050964 20.6364876,0.654593664 C19.8430992,0.346260331 18.9367631,0.135447658 17.6096281,0.0752548209 C16.2797383,0.0145110193 15.8552893,-2.0661157e-05 12.4686501,-2.0661157e-05 C9.08242424,-2.0661157e-05 8.65811295,0.0145110193 7.32801653,0.0752548209 M7.43049587,22.6176102 C6.21472452,22.5624449 5.55460055,22.3596901 5.11541322,22.1887534 C4.53304408,21.9622383 4.11809917,21.692197 3.68166667,21.2557645 C3.24530303,20.8195386 2.9750551,20.4043871 2.74867769,19.8222934 C2.57794766,19.3831061 2.3750551,18.7227066 2.31940771,17.5070041 C2.25949036,16.192197 2.2465427,15.7977066 2.2465427,12.4686433 C2.2465427,9.13916667 2.25949036,8.74502066 2.31940771,7.43007576 C2.3750551,6.21457989 2.57794766,5.55438705 2.74867769,5.11499311 C2.9750551,4.53283058 3.24530303,4.11747245 3.68166667,3.68124656 C4.11809917,3.24502066 4.53304408,2.97463499 5.11541322,2.7486708 C5.55460055,2.57794077 6.21472452,2.3748416 7.43049587,2.31926309 C8.74509642,2.25927686 9.13958678,2.24653581 12.4686501,2.24653581 C15.7978512,2.24653581 16.1922039,2.25927686 17.5074242,2.31926309 C18.7227135,2.3748416 19.3831129,2.57794077 19.822438,2.7486708 C20.4046006,2.97463499 20.8197521,3.24502066 21.2561846,3.68124656 C21.6926171,4.11747245 21.9624518,4.53283058 22.1887603,5.11499311 C22.3594904,5.55438705 22.5626584,6.21457989 22.6182369,7.43007576 C22.6781543,8.74502066 22.6904821,9.13916667 22.6904821,12.4686433 C22.6904821,15.7977066 22.6781543,16.192197 22.6182369,17.5070041 C22.5626584,18.7227066 22.3594904,19.3831061 22.1887603,19.8222934 C21.9624518,20.4043871 21.6926171,20.8195386 21.2561846,21.2557645 C20.8197521,21.692197 20.4046006,21.9622383 19.822438,22.1887534 C19.3831129,22.3596901 18.7227135,22.5624449 17.5074242,22.6176102 C16.1926171,22.6779408 15.7982645,22.6904752 12.4686501,22.6904752 C9.13958678,22.6904752 8.74509642,22.6779408 7.43049587,22.6176102 M17.628292,5.81272039 C17.628292,6.63882231 18.2981956,7.30913912 19.124573,7.30913912 C19.9509504,7.30913912 20.620854,6.63882231 20.620854,5.81272039 C20.620854,4.98634298 19.9509504,4.31664601 19.124573,4.31664601 C18.2981956,4.31664601 17.628292,4.98634298 17.628292,5.81272039 M6.06582645,12.4686433 C6.06582645,16.004938 8.93249311,18.8711915 12.4686501,18.8711915 C16.0051515,18.8711915 18.871405,16.004938 18.871405,12.4686433 C18.871405,8.93227961 16.0051515,6.06561295 12.4686501,6.06561295 C8.93249311,6.06561295 6.06582645,8.93227961 6.06582645,12.4686433 M8.31258953,12.4686433 C8.31258953,10.1731887 10.1731956,8.3124449 12.4686501,8.3124449 C14.7642424,8.3124449 16.6250551,10.1731887 16.6250551,12.4686433 C16.6250551,14.7642355 14.7642424,16.6248416 12.4686501,16.6248416 C10.1731956,16.6248416 8.31258953,14.7642355 8.31258953,12.4686433" id="Fill-1" fill="#323232" mask="url(#mask-2)"></path>
            </g>
        </g>
    </g>
</svg>