<?xml version="1.0" encoding="UTF-8"?>
<svg width="325px" height="325px" viewBox="0 0 325 325" version="1.1" xmlns="http://www.w3.org/2000/svg" xmlns:xlink="http://www.w3.org/1999/xlink">
    <!-- Generator: Sketch 52.6 (67491) - http://www.bohemiancoding.com/sketch -->
    <title>img_problems_graphic_01</title>
    <desc>Created with Sketch.</desc>
    <defs>
        <polygon id="path-1" points="0.000549295775 0 118.098592 0 118.098592 52.0654182 0.000549295775 52.0654182"></polygon>
    </defs>
    <g id="Wireframe" stroke="none" stroke-width="1" fill="none" fill-rule="evenodd">
        <g id="-" transform="translate(-140.000000, -342.000000)">
            <g id="img_01" transform="translate(205.000000, 366.000000)">
                <path d="M166.246563,266.409002 L159.295225,266.409002 L53.4706479,266.409002 C44.4539577,266.409002 37.0769155,259.048596 37.0769155,250.05224 L37.0769155,30.8184649 L37.0769155,22.8716379 L37.0769155,16.9581025 C37.0769155,12.8284928 38.6314225,9.04689925 41.1856479,6.15863868 C44.1957887,2.7552045 48.5929014,0.601340357 53.4706479,0.601340357 L166.246563,0.601340357 C175.263254,0.601340357 182.640296,7.96174633 182.640296,16.9581025 L182.640296,236.956417 L182.640296,250.05224 C182.640296,255.850683 179.577972,260.969536 174.983113,263.876978 C172.450859,265.480045 169.451704,266.409002 166.246563,266.409002" id="Fill-1" fill="#FFFFFF"></path>
                <path d="M166.246563,266.409002 L159.295225,266.409002 L53.4706479,266.409002 C44.4539577,266.409002 37.0769155,259.048596 37.0769155,250.05224 L37.0769155,30.8184649 L37.0769155,22.8716379 L37.0769155,16.9581025 C37.0769155,12.8284928 38.6314225,9.04689925 41.1856479,6.15863868 C44.1957887,2.7552045 48.5929014,0.601340357 53.4706479,0.601340357 L166.246563,0.601340357 C175.263254,0.601340357 182.640296,7.96174633 182.640296,16.9581025 L182.640296,236.956417 L182.640296,250.05224 C182.640296,255.850683 179.577972,260.969536 174.983113,263.876978 C172.450859,265.480045 169.451704,266.409002 166.246563,266.409002 Z" id="Stroke-3" stroke="#E2E2E2" stroke-width="2.74515845"></path>
                <path d="M171.65493,36.2250476 L171.65493,29.867586" id="Stroke-5" stroke="#878787" stroke-width="2.74515845" stroke-linecap="round" stroke-linejoin="round"></path>
                <path d="M155.260648,274.629857 C164.277338,274.629857 171.65438,267.269451 171.65438,258.273095 L171.65438,41.7056179" id="Stroke-7" stroke="#878787" stroke-width="2.74515845" stroke-linecap="round" stroke-linejoin="round"></path>
                <path d="M144.241225,274.629857 L150.214817,274.629857" id="Stroke-9" stroke="#878787" stroke-width="2.74515845" stroke-linecap="round" stroke-linejoin="round"></path>
                <path d="M26.0915493,156.797595 L26.0915493,258.273095 C26.0915493,267.269451 33.4685915,274.629857 42.4852817,274.629857 L139.120141,274.629857" id="Stroke-11" stroke="#878787" stroke-width="2.74515845" stroke-linecap="round" stroke-linejoin="round"></path>
                <path d="M26.0915493,145.836454 L26.0915493,151.317025" id="Stroke-13" stroke="#878787" stroke-width="2.74515845" stroke-linecap="round" stroke-linejoin="round"></path>
                <path d="M171.65493,25.1795061 C171.65493,16.1831499 164.277887,8.82274393 155.261197,8.82274393 L144.137958,8.82274393 C141.13331,8.82274393 138.697183,11.2506366 138.697183,14.2512488 L138.697183,14.6348888 C138.697183,18.9919422 135.156972,22.5241698 130.792817,22.5241698 L66.8438028,22.5241698 C62.5400704,22.5241698 59.0492958,19.0412673 59.0492958,14.7445002 L59.0492958,14.0155843 C59.0492958,11.1465058 56.7175352,8.82274393 53.8419718,8.82274393 L42.4852817,8.82274393 C33.4685915,8.82274393 26.0915493,16.1831499 26.0915493,25.1795061 L26.0915493,140.356432" id="Stroke-15" stroke="#878787" stroke-width="2.74515845" stroke-linecap="round" stroke-linejoin="round"></path>
                <path d="M159.118627,88.2904658 L37.2546127,88.2904658 C36.4004577,88.2904658 35.7028521,87.5944334 35.7028521,86.744945 L35.7028521,76.1345608 C35.7028521,75.2850724 36.4004577,74.58904 37.2546127,74.58904 L159.118627,74.58904 C159.972782,74.58904 160.667641,75.2850724 160.667641,76.1345608 L160.667641,86.744945 C160.667641,87.5944334 159.972782,88.2904658 159.118627,88.2904658" id="Fill-17" fill="#CEEFEC"></path>
                <path d="M159.118627,69.1084696 L37.2546127,69.1084696 C36.4004577,69.1084696 35.7028521,68.4124372 35.7028521,67.5629488 L35.7028521,56.9525646 C35.7028521,56.1030762 36.4004577,55.4070438 37.2546127,55.4070438 L159.118627,55.4070438 C159.972782,55.4070438 160.667641,56.1030762 160.667641,56.9525646 L160.667641,67.5629488 C160.667641,68.4124372 159.972782,69.1084696 159.118627,69.1084696" id="Fill-19" fill="#CEEFEC"></path>
                <path d="M142.570268,86.9203232 L2.99421127,86.9203232 C1.34632394,86.9203232 0.000549295775,85.5775835 0.000549295775,83.9334124 L0.000549295775,46.0626713 C0.000549295775,44.4185002 1.34632394,43.0757605 2.99421127,43.0757605 L142.570268,43.0757605 C144.218155,43.0757605 145.56393,44.4185002 145.56393,46.0626713 L145.56393,83.9334124 C145.56393,85.5775835 144.218155,86.9203232 142.570268,86.9203232" id="Fill-21" fill="#CEEFEC"></path>
                <path d="M138.697183,82.8098955 L4.11971831,82.8098955 C2.60915493,82.8098955 1.37323944,81.5767671 1.37323944,80.0696103 L1.37323944,47.1861883 C1.37323944,45.6790314 2.60915493,44.4459031 4.11971831,44.4459031 L138.697183,44.4459031 C140.207746,44.4459031 141.443662,45.6790314 141.443662,47.1861883 L141.443662,80.0696103 C141.443662,81.5767671 140.207746,82.8098955 138.697183,82.8098955" id="Fill-23" fill="#FFFFFF"></path>
                <path d="M138.697183,82.8098955 L4.11971831,82.8098955 C2.60915493,82.8098955 1.37323944,81.5767671 1.37323944,80.0696103 L1.37323944,47.1861883 C1.37323944,45.6790314 2.60915493,44.4459031 4.11971831,44.4459031 L138.697183,44.4459031 C140.207746,44.4459031 141.443662,45.6790314 141.443662,47.1861883 L141.443662,80.0696103 C141.443662,81.5767671 140.207746,82.8098955 138.697183,82.8098955 Z" id="Stroke-25" stroke="#00BBB3" stroke-width="2.74515845"></path>
                <path d="M159.118627,123.914173 L37.2546127,123.914173 C36.4004577,123.914173 35.7028521,123.218141 35.7028521,122.368652 L35.7028521,111.758268 C35.7028521,110.90878 36.4004577,110.212747 37.2546127,110.212747 L159.118627,110.212747 C159.972782,110.212747 160.667641,110.90878 160.667641,111.758268 L160.667641,122.368652 C160.667641,123.218141 159.972782,123.914173 159.118627,123.914173" id="Fill-27" fill="#CEEFEC"></path>
                <path d="M159.118627,195.161587 L37.2546127,195.161587 C36.4004577,195.161587 35.7028521,194.465555 35.7028521,193.616067 L35.7028521,183.005682 C35.7028521,182.156194 36.4004577,181.460162 37.2546127,181.460162 L159.118627,181.460162 C159.972782,181.460162 160.667641,182.156194 160.667641,183.005682 L160.667641,193.616067 C160.667641,194.465555 159.972782,195.161587 159.118627,195.161587" id="Fill-29" fill="#CEEFEC"></path>
                <path d="M159.688796,206.122728 L36.684993,206.122728 C36.1466831,206.122728 35.7045,205.681542 35.7045,205.144446 L35.7045,201.62044 C35.7045,201.083344 36.1466831,200.642158 36.684993,200.642158 L159.688796,200.642158 C160.227106,200.642158 160.669289,201.083344 160.669289,201.62044 L160.669289,205.144446 C160.669289,205.681542 160.227106,206.122728 159.688796,206.122728" id="Fill-31" fill="#CEEFEC"></path>
                <path d="M159.688796,217.083869 L36.684993,217.083869 C36.1466831,217.083869 35.7045,216.642683 35.7045,216.105587 L35.7045,212.58158 C35.7045,212.044484 36.1466831,211.603298 36.684993,211.603298 L159.688796,211.603298 C160.227106,211.603298 160.669289,212.044484 160.669289,212.58158 L160.669289,216.105587 C160.669289,216.642683 160.227106,217.083869 159.688796,217.083869" id="Fill-33" fill="#CEEFEC"></path>
                <path d="M93.0355986,165.018451 L37.4221479,165.018451 C36.4773592,165.018451 35.7028521,164.24569 35.7028521,163.305772 L35.7028521,131.107422 C35.7028521,130.167504 36.4773592,129.394743 37.4221479,129.394743 L93.0355986,129.394743 C93.9803873,129.394743 94.7521479,130.167504 94.7521479,131.107422 L94.7521479,163.305772 C94.7521479,164.24569 93.9803873,165.018451 93.0355986,165.018451" id="Fill-35" fill="#CEEFEC"></path>
                <path d="M158.951092,165.018451 L103.337641,165.018451 C102.392852,165.018451 101.618345,164.24569 101.618345,163.305772 L101.618345,131.107422 C101.618345,130.167504 102.392852,129.394743 103.337641,129.394743 L158.951092,129.394743 C159.89588,129.394743 160.667641,130.167504 160.667641,131.107422 L160.667641,163.305772 C160.667641,164.24569 159.89588,165.018451 158.951092,165.018451" id="Fill-37" fill="#CEEFEC"></path>
                <path d="M159.789317,236.918875 L123.099106,236.918875 C122.612979,236.918875 122.217486,236.521534 122.217486,236.039243 L122.217486,223.442153 C122.217486,222.959862 122.612979,222.565261 123.099106,222.565261 L159.789317,222.565261 C160.272697,222.565261 160.66819,222.959862 160.66819,223.442153 L160.66819,236.039243 C160.66819,236.521534 160.272697,236.918875 159.789317,236.918875" id="Fill-39" fill="#CEEFEC"></path>
                <path d="M117.905514,237.636008 L81.2153028,237.636008 C80.7291761,237.636008 80.3336831,237.241407 80.3336831,236.759116 L80.3336831,224.162025 C80.3336831,223.676995 80.7291761,223.282394 81.2153028,223.282394 L117.905514,223.282394 C118.388894,223.282394 118.784387,223.676995 118.784387,224.162025 L118.784387,236.759116 C118.784387,237.241407 118.388894,237.636008 117.905514,237.636008" id="Fill-41" fill="#CEEFEC"></path>
                <path d="M76.0217113,237.636008 L39.3315,237.636008 C38.8453732,237.636008 38.4498803,237.241407 38.4498803,236.759116 L38.4498803,224.162025 C38.4498803,223.676995 38.8453732,223.282394 39.3315,223.282394 L76.0217113,223.282394 C76.5050915,223.282394 76.9005845,223.676995 76.9005845,224.162025 L76.9005845,236.759116 C76.9005845,237.241407 76.5050915,237.636008 76.0217113,237.636008" id="Fill-43" fill="#CEEFEC"></path>
                <g id="Group-48" transform="translate(21.971831, 62.257757)">
                    <path d="M0,1.37014259 L93.3802817,1.37014259" id="Fill-45" fill="#FFFFFF"></path>
                    <path d="M0,1.37014259 L93.3802817,1.37014259" id="Stroke-47" stroke="#00BBB3" stroke-width="2.74515845" stroke-linecap="round" stroke-linejoin="round"></path>
                </g>
                <g id="Group-52" transform="translate(21.971831, 70.478612)">
                    <path d="M0,1.37014259 L75.1601408,1.37014259" id="Fill-49" fill="#FFFFFF"></path>
                    <path d="M0,1.37014259 L75.1601408,1.37014259" id="Stroke-51" stroke="#00BBB3" stroke-width="2.74515845" stroke-linecap="round" stroke-linejoin="round"></path>
                </g>
                <g id="Group-56" transform="translate(54.929577, 54.036901)">
                    <path d="M0,1.37014259 L61.7957746,1.37014259" id="Fill-53" fill="#FFFFFF"></path>
                    <path d="M0,1.37014259 L61.7957746,1.37014259" id="Stroke-55" stroke="#00BBB3" stroke-width="2.74515845" stroke-linecap="round" stroke-linejoin="round"></path>
                </g>
                <g id="Group-60" transform="translate(101.619718, 70.478612)">
                    <path d="M2.34411972,1.37014259 L13.7310211,1.37014259" id="Fill-57" fill="#FFFFFF"></path>
                    <path d="M2.34411972,1.37014259 L13.7310211,1.37014259" id="Stroke-59" stroke="#00BBB3" stroke-width="2.74515845" stroke-linecap="round" stroke-linejoin="round"></path>
                </g>
                <g id="Group-64" transform="translate(19.225352, 54.036901)">
                    <path d="M2.34411972,1.37014259 L28.8366549,1.37014259" id="Fill-61" fill="#FFFFFF"></path>
                    <path d="M2.34411972,1.37014259 L28.8366549,1.37014259" id="Stroke-63" stroke="#00BBB3" stroke-width="2.74515845" stroke-linecap="round" stroke-linejoin="round"></path>
                </g>
                <path d="M142.220092,229.415152 L3.57234507,229.415152 C1.7349507,229.415152 0.229880282,227.913476 0.229880282,226.080225 L0.229880282,177.944376 C0.229880282,176.111125 1.7349507,174.609449 3.57234507,174.609449 L142.220092,174.609449 C144.057486,174.609449 145.562556,176.111125 145.562556,177.944376 L145.562556,226.080225 C145.562556,227.913476 144.057486,229.415152 142.220092,229.415152" id="Fill-65" fill="#CEEFEC"></path>
                <path d="M138.329704,225.304724 L4.48829577,225.304724 C2.77449296,225.304724 1.37378873,223.907179 1.37378873,222.197241 L1.37378873,179.087075 C1.37378873,177.377137 2.77449296,175.979591 4.48829577,175.979591 L138.329704,175.979591 C140.043507,175.979591 141.444211,177.377137 141.444211,179.087075 L141.444211,222.197241 C141.444211,223.907179 140.043507,225.304724 138.329704,225.304724" id="Fill-67" fill="#FFFFFF"></path>
                <path d="M138.329704,225.304724 L4.48829577,225.304724 C2.77449296,225.304724 1.37378873,223.907179 1.37378873,222.197241 L1.37378873,179.087075 C1.37378873,177.377137 2.77449296,175.979591 4.48829577,175.979591 L138.329704,175.979591 C140.043507,175.979591 141.444211,177.377137 141.444211,179.087075 L141.444211,222.197241 C141.444211,223.907179 140.043507,225.304724 138.329704,225.304724 Z" id="Stroke-69" stroke="#00BBB3" stroke-width="2.74515845"></path>
                <g id="Group-74" transform="translate(10.985915, 188.310875)">
                    <path d="M1.37323944,1.37014259 L113.978873,1.37014259" id="Fill-71" fill="#FFFFFF"></path>
                    <path d="M1.37323944,1.37014259 L113.978873,1.37014259" id="Stroke-73" stroke="#00BBB3" stroke-width="2.74515845" stroke-linecap="round" stroke-linejoin="round"></path>
                </g>
                <g id="Group-78" transform="translate(10.985915, 196.531730)">
                    <path d="M1.37323944,1.37014259 L92.0070423,1.37014259" id="Fill-75" fill="#FFFFFF"></path>
                    <path d="M1.37323944,1.37014259 L92.0070423,1.37014259" id="Stroke-77" stroke="#00BBB3" stroke-width="2.74515845" stroke-linecap="round" stroke-linejoin="round"></path>
                </g>
                <g id="Group-82" transform="translate(109.859155, 196.531730)">
                    <path d="M1.37323944,1.37014259 L15.1056338,1.37014259" id="Fill-79" fill="#FFFFFF"></path>
                    <path d="M1.37323944,1.37014259 L15.1056338,1.37014259" id="Stroke-81" stroke="#00BBB3" stroke-width="2.74515845" stroke-linecap="round" stroke-linejoin="round"></path>
                </g>
                <g id="Group-85" transform="translate(76.901408, 100.621749)">
                    <mask id="mask-2" fill="white">
                        <use xlink:href="#path-1"></use>
                    </mask>
                    <g id="Clip-84"></g>
                    <path d="M115.160408,52.0654182 L2.93928169,52.0654182 C1.32160563,52.0654182 0.000549295775,50.7473411 0.000549295775,49.1333131 L0.000549295775,2.93210513 C0.000549295775,1.31807717 1.32160563,0 2.93928169,0 L115.160408,0 C116.775338,0 118.099141,1.31807717 118.099141,2.93210513 L118.099141,49.1333131 C118.099141,50.7473411 116.775338,52.0654182 115.160408,52.0654182" id="Fill-83" fill="#CEEFEC" mask="url(#mask-2)"></path>
                </g>
                <path d="M188.150007,148.57674 L79.6311338,148.57674 C78.1288099,148.57674 76.9011338,147.351832 76.9011338,145.852896 L76.9011338,104.715735 C76.9011338,103.216799 78.1288099,101.991892 79.6311338,101.991892 L188.150007,101.991892 C189.652331,101.991892 190.880007,103.216799 190.880007,104.715735 L190.880007,145.852896 C190.880007,147.351832 189.652331,148.57674 188.150007,148.57674" id="Fill-86" fill="#FFFFFF"></path>
                <path d="M188.150007,148.57674 L79.6311338,148.57674 C78.1288099,148.57674 76.9011338,147.351832 76.9011338,145.852896 L76.9011338,104.715735 C76.9011338,103.216799 78.1288099,101.991892 79.6311338,101.991892 L188.150007,101.991892 C189.652331,101.991892 190.880007,103.216799 190.880007,104.715735 L190.880007,145.852896 C190.880007,147.351832 189.652331,148.57674 188.150007,148.57674 Z" id="Stroke-88" stroke="#00BBB3" stroke-width="2.74515845"></path>
                <path d="M182.007782,143.401163 L173.383838,133.19086 L159.091162,116.27234 C156.896725,113.671809 152.562782,113.671809 150.368345,116.27234 L136.075669,133.19086 L132.052077,137.956216 L119.489683,123.087429 C117.569894,120.812992 113.774261,120.812992 111.851725,123.087429 L97.8309507,139.688077 L94.0023592,144.223249 C92.4945423,146.007174 93.9034859,148.577562 96.3917958,148.577562 L130.294331,148.577562 L134.952359,148.577562 L179.165176,148.577562 C182.123134,148.577562 183.798486,145.522144 182.007782,143.401163" id="Fill-90" fill="#FFFFFF"></path>
                <path d="M182.007782,143.401163 L173.383838,133.19086 L159.091162,116.27234 C156.896725,113.671809 152.562782,113.671809 150.368345,116.27234 L136.075669,133.19086 L132.052077,137.956216 L119.489683,123.087429 C117.569894,120.812992 113.774261,120.812992 111.851725,123.087429 L97.8309507,139.688077 L94.0023592,144.223249 C92.4945423,146.007174 93.9034859,148.577562 96.3917958,148.577562 L130.294331,148.577562 L134.952359,148.577562 L179.165176,148.577562 C182.123134,148.577562 183.798486,145.522144 182.007782,143.401163 Z" id="Stroke-92" stroke="#00BBB3" stroke-width="2.74515845" stroke-linecap="round" stroke-linejoin="round"></path>
                <path d="M102.992958,114.323175 C102.992958,116.594871 101.15007,118.433603 98.8732394,118.433603 C96.5964085,118.433603 94.7535211,116.594871 94.7535211,114.323175 C94.7535211,112.051479 96.5964085,110.212747 98.8732394,110.212747 C101.15007,110.212747 102.992958,112.051479 102.992958,114.323175" id="Fill-94" fill="#FFFFFF"></path>
                <path d="M102.992958,114.323175 C102.992958,116.594871 101.15007,118.433603 98.8732394,118.433603 C96.5964085,118.433603 94.7535211,116.594871 94.7535211,114.323175 C94.7535211,112.051479 96.5964085,110.212747 98.8732394,110.212747 C101.15007,110.212747 102.992958,112.051479 102.992958,114.323175 Z" id="Stroke-96" stroke="#00BBB3" stroke-width="2.74515845" stroke-linecap="round" stroke-linejoin="round"></path>
                <path d="M40.3644507,217.083869 L15.4401549,217.083869 C13.7455775,217.083869 12.3586056,215.702765 12.3586056,214.009269 L12.3586056,209.197328 C12.3586056,207.503832 13.7455775,206.122728 15.4401549,206.122728 L40.3644507,206.122728 C42.0590282,206.122728 43.446,207.503832 43.446,209.197328 L43.446,214.009269 C43.446,215.702765 42.0590282,217.083869 40.3644507,217.083869" id="Fill-98" fill="#FFFFFF"></path>
                <path d="M40.3644507,217.083869 L15.4401549,217.083869 C13.7455775,217.083869 12.3586056,215.702765 12.3586056,214.009269 L12.3586056,209.197328 C12.3586056,207.503832 13.7455775,206.122728 15.4401549,206.122728 L40.3644507,206.122728 C42.0590282,206.122728 43.446,207.503832 43.446,209.197328 L43.446,214.009269 C43.446,215.702765 42.0590282,217.083869 40.3644507,217.083869 Z" id="Stroke-100" stroke="#00BBB3" stroke-width="2.74515845" stroke-linecap="round" stroke-linejoin="round"></path>
                <path d="M81.8110141,217.083869 L56.8867183,217.083869 C55.1921408,217.083869 53.805169,215.702765 53.805169,214.009269 L53.805169,209.197328 C53.805169,207.503832 55.1921408,206.122728 56.8867183,206.122728 L81.8110141,206.122728 C83.5055915,206.122728 84.8925634,207.503832 84.8925634,209.197328 L84.8925634,214.009269 C84.8925634,215.702765 83.5055915,217.083869 81.8110141,217.083869" id="Fill-102" fill="#FFFFFF"></path>
                <path d="M81.8110141,217.083869 L56.8867183,217.083869 C55.1921408,217.083869 53.805169,215.702765 53.805169,214.009269 L53.805169,209.197328 C53.805169,207.503832 55.1921408,206.122728 56.8867183,206.122728 L81.8110141,206.122728 C83.5055915,206.122728 84.8925634,207.503832 84.8925634,209.197328 L84.8925634,214.009269 C84.8925634,215.702765 83.5055915,217.083869 81.8110141,217.083869 Z" id="Stroke-104" stroke="#00BBB3" stroke-width="2.74515845" stroke-linecap="round" stroke-linejoin="round"></path>
                <path d="M123.257577,217.083869 L98.3332817,217.083869 C96.6387042,217.083869 95.2517324,215.702765 95.2517324,214.009269 L95.2517324,209.197328 C95.2517324,207.503832 96.6387042,206.122728 98.3332817,206.122728 L123.257577,206.122728 C124.952155,206.122728 126.339127,207.503832 126.339127,209.197328 L126.339127,214.009269 C126.339127,215.702765 124.952155,217.083869 123.257577,217.083869" id="Fill-106" fill="#FFFFFF"></path>
                <path d="M123.257577,217.083869 L98.3332817,217.083869 C96.6387042,217.083869 95.2517324,215.702765 95.2517324,214.009269 L95.2517324,209.197328 C95.2517324,207.503832 96.6387042,206.122728 98.3332817,206.122728 L123.257577,206.122728 C124.952155,206.122728 126.339127,207.503832 126.339127,209.197328 L126.339127,214.009269 C126.339127,215.702765 124.952155,217.083869 123.257577,217.083869 Z" id="Stroke-108" stroke="#00BBB3" stroke-width="2.74515845" stroke-linecap="round" stroke-linejoin="round"></path>
                <path d="M127.868092,14.3027662 L89.1042887,14.3027662 C87.6788662,14.3027662 86.5143592,13.1408853 86.5143592,11.7186773 L86.5143592,11.4062848 C86.5143592,9.98407678 87.6788662,8.82219587 89.1042887,8.82219587 L127.868092,8.82219587 C129.293514,8.82219587 130.458021,9.98407678 130.458021,11.4062848 L130.458021,11.7186773 C130.458021,13.1408853 129.293514,14.3027662 127.868092,14.3027662" id="Fill-110" fill="#FFFFFF"></path>
                <path d="M127.868092,14.3027662 L89.1042887,14.3027662 C87.6788662,14.3027662 86.5143592,13.1408853 86.5143592,11.7186773 L86.5143592,11.4062848 C86.5143592,9.98407678 87.6788662,8.82219587 89.1042887,8.82219587 L127.868092,8.82219587 C129.293514,8.82219587 130.458021,9.98407678 130.458021,11.4062848 L130.458021,11.7186773 C130.458021,13.1408853 129.293514,14.3027662 127.868092,14.3027662 Z" id="Stroke-112" stroke="#E2E2E2" stroke-width="2.11377201"></path>
            </g>
        </g>
    </g>
</svg>