<?xml version="1.0" encoding="UTF-8"?>
<svg width="325px" height="325px" viewBox="0 0 325 325" version="1.1" xmlns="http://www.w3.org/2000/svg" xmlns:xlink="http://www.w3.org/1999/xlink">
    <!-- Generator: Sketch 52.6 (67491) - http://www.bohemiancoding.com/sketch -->
    <title>img_problems_graphic_03</title>
    <desc>Created with Sketch.</desc>
    <defs>
        <polygon id="path-1" points="1.29461512 0.641348767 59.903628 0.641348767 59.903628 98.6291103 1.29461512 98.6291103"></polygon>
        <polygon id="path-3" points="1.29461512 0.641348767 59.903628 0.641348767 59.903628 98.6291103 1.29461512 98.6291103"></polygon>
    </defs>
    <g id="Wireframe" stroke="none" stroke-width="1" fill="none" fill-rule="evenodd">
        <g id="-" transform="translate(-995.000000, -342.000000)">
            <g id="img_03" transform="translate(1008.000000, 391.000000)">
                <path d="M60.1853855,166.204139 L9.78536812,166.204139 C7.52957971,166.204139 5.68087036,164.356141 5.68087036,162.095458 L5.68087036,72.3222039 C5.68087036,70.0641164 7.52957971,68.2161183 9.78536812,68.2161183 L60.1853855,68.2161183 C62.4437667,68.2161183 64.2898832,70.0641164 64.2898832,72.3222039 L64.2898832,162.095458 C64.2898832,164.356141 62.4437667,166.204139 60.1853855,166.204139" id="Fill-1" fill="#CEEFEC"></path>
                <path d="M166.492655,101.316567 L116.092638,101.316567 C113.83685,101.316567 111.98814,99.4685687 111.98814,97.2078857 L111.98814,7.43463137 C111.98814,5.17654384 113.83685,3.32854578 116.092638,3.32854578 L166.492655,3.32854578 C168.751037,3.32854578 170.597153,5.17654384 170.597153,7.43463137 L170.597153,97.2078857 C170.597153,99.4685687 168.751037,101.316567 166.492655,101.316567" id="Fill-3" fill="#CEEFEC"></path>
                <g id="Group-7" transform="translate(110.693525, 127.271336)">
                    <mask id="mask-2" fill="white">
                        <use xlink:href="#path-1"></use>
                    </mask>
                    <g id="Clip-6"></g>
                    <path d="M55.7991302,98.6293698 L5.39911288,98.6293698 C3.14332447,98.6293698 1.29461512,96.7813717 1.29461512,94.5206887 L1.29461512,4.74743436 C1.29461512,2.48934683 3.14332447,0.641348767 5.39911288,0.641348767 L55.7991302,0.641348767 C58.0575115,0.641348767 59.903628,2.48934683 59.903628,4.74743436 L59.903628,94.5206887 C59.903628,96.7813717 58.0575115,98.6293698 55.7991302,98.6293698" id="Fill-5" fill="#CEEFEC" mask="url(#mask-2)"></path>
                </g>
                <path d="M249.464183,101.316567 L199.064166,101.316567 C196.808377,101.316567 194.959668,99.4685687 194.959668,97.2078857 L194.959668,7.43463137 C194.959668,5.17654384 196.808377,3.32854578 199.064166,3.32854578 L249.464183,3.32854578 C251.722564,3.32854578 253.568681,5.17654384 253.568681,7.43463137 L253.568681,97.2078857 C253.568681,99.4685687 251.722564,101.316567 249.464183,101.316567" id="Fill-8" fill="#E2E2E2"></path>
                <g id="Group-12" transform="translate(193.665053, 127.271336)">
                    <mask id="mask-4" fill="white">
                        <use xlink:href="#path-3"></use>
                    </mask>
                    <g id="Clip-11"></g>
                    <path d="M55.7991302,98.6293698 L5.39911288,98.6293698 C3.14332447,98.6293698 1.29461512,96.7813717 1.29461512,94.5206887 L1.29461512,4.74743436 C1.29461512,2.48934683 3.14332447,0.641348767 5.39911288,0.641348767 L55.7991302,0.641348767 C58.0575115,0.641348767 59.903628,2.48934683 59.903628,4.74743436 L59.903628,94.5206887 C59.903628,96.7813717 58.0575115,98.6293698 55.7991302,98.6293698" id="Fill-10" fill="#E2E2E2" mask="url(#mask-4)"></path>
                </g>
                <path d="M54.999665,161.013134 L4.59964764,161.013134 C2.34385923,161.013134 0.495149877,159.165135 0.495149877,156.904452 L0.495149877,67.1311981 C0.495149877,64.8731106 2.34385923,63.0251125 4.59964764,63.0251125 L54.999665,63.0251125 C57.2580462,63.0251125 59.1041627,64.8731106 59.1041627,67.1311981 L59.1041627,156.904452 C59.1041627,159.165135 57.2580462,161.013134 54.999665,161.013134" id="Fill-13" fill="#FFFFFF"></path>
                <path d="M54.999665,161.013134 L4.59964764,161.013134 C2.34385923,161.013134 0.495149877,159.165135 0.495149877,156.904452 L0.495149877,67.1311981 C0.495149877,64.8731106 2.34385923,63.0251125 4.59964764,63.0251125 L54.999665,63.0251125 C57.2580462,63.0251125 59.1041627,64.8731106 59.1041627,67.1311981 L59.1041627,156.904452 C59.1041627,159.165135 57.2580462,161.013134 54.999665,161.013134 Z" id="Stroke-15" stroke="#00BBB3" stroke-width="2.59453829"></path>
                <path d="M161.912108,98.4853922 L111.512091,98.4853922 C109.256303,98.4853922 107.407593,96.6373942 107.407593,94.3767112 L107.407593,4.6034568 C107.407593,2.34277377 109.256303,0.497371212 111.512091,0.497371212 L161.912108,0.497371212 C164.17049,0.497371212 166.016606,2.34277377 166.016606,4.6034568 L166.016606,94.3767112 C166.016606,96.6373942 164.17049,98.4853922 161.912108,98.4853922" id="Fill-17" fill="#FFFFFF"></path>
                <path d="M161.912108,98.4853922 L111.512091,98.4853922 C109.256303,98.4853922 107.407593,96.6373942 107.407593,94.3767112 L107.407593,4.6034568 C107.407593,2.34277377 109.256303,0.497371212 111.512091,0.497371212 L161.912108,0.497371212 C164.17049,0.497371212 166.016606,2.34277377 166.016606,4.6034568 L166.016606,94.3767112 C166.016606,96.6373942 164.17049,98.4853922 161.912108,98.4853922 Z" id="Stroke-19" stroke="#00BBB3" stroke-width="2.59453829"></path>
                <path d="M161.912108,222.411572 L111.512091,222.411572 C109.256303,222.411572 107.407593,220.563573 107.407593,218.30289 L107.407593,128.529636 C107.407593,126.271549 109.256303,124.42355 111.512091,124.42355 L161.912108,124.42355 C164.17049,124.42355 166.016606,126.271549 166.016606,128.529636 L166.016606,218.30289 C166.016606,220.563573 164.17049,222.411572 161.912108,222.411572" id="Fill-21" fill="#FFFFFF"></path>
                <path d="M161.912108,222.411572 L111.512091,222.411572 C109.256303,222.411572 107.407593,220.563573 107.407593,218.30289 L107.407593,128.529636 C107.407593,126.271549 109.256303,124.42355 111.512091,124.42355 L161.912108,124.42355 C164.17049,124.42355 166.016606,126.271549 166.016606,128.529636 L166.016606,218.30289 C166.016606,220.563573 164.17049,222.411572 161.912108,222.411572 Z" id="Stroke-23" stroke="#00BBB3" stroke-width="2.59453829"></path>
                <path d="M245.40506,98.4853922 L195.007636,98.4853922 C192.749255,98.4853922 190.903138,96.6373942 190.903138,94.3767112 L190.903138,4.6034568 C190.903138,2.34277377 192.749255,0.497371212 195.007636,0.497371212 L245.40506,0.497371212 C247.663442,0.497371212 249.509558,2.34277377 249.509558,4.6034568 L249.509558,94.3767112 C249.509558,96.6373942 247.663442,98.4853922 245.40506,98.4853922" id="Fill-25" fill="#FFFFFF"></path>
                <path d="M245.40506,98.4853922 L195.007636,98.4853922 C192.749255,98.4853922 190.903138,96.6373942 190.903138,94.3767112 L190.903138,4.6034568 C190.903138,2.34277377 192.749255,0.497371212 195.007636,0.497371212 L245.40506,0.497371212 C247.663442,0.497371212 249.509558,2.34277377 249.509558,4.6034568 L249.509558,94.3767112 C249.509558,96.6373942 247.663442,98.4853922 245.40506,98.4853922 Z" id="Stroke-27" stroke="#878787" stroke-width="2.59453829" stroke-linecap="round" stroke-linejoin="round"></path>
                <path d="M245.40506,222.411572 L195.007636,222.411572 C192.749255,222.411572 190.903138,220.563573 190.903138,218.30289 L190.903138,128.529636 C190.903138,126.271549 192.749255,124.42355 195.007636,124.42355 L245.40506,124.42355 C247.663442,124.42355 249.509558,126.271549 249.509558,128.529636 L249.509558,218.30289 C249.509558,220.563573 247.663442,222.411572 245.40506,222.411572" id="Fill-29" fill="#FFFFFF"></path>
                <path d="M245.40506,222.411572 L195.007636,222.411572 C192.749255,222.411572 190.903138,220.563573 190.903138,218.30289 L190.903138,128.529636 C190.903138,126.271549 192.749255,124.42355 195.007636,124.42355 L245.40506,124.42355 C247.663442,124.42355 249.509558,126.271549 249.509558,128.529636 L249.509558,218.30289 C249.509558,220.563573 247.663442,222.411572 245.40506,222.411572 Z" id="Stroke-31" stroke="#878787" stroke-width="2.59453829" stroke-linecap="round" stroke-linejoin="round"></path>
                <g id="Group-36" transform="translate(83.770993, 46.810746)" stroke="#878787" stroke-linecap="round" stroke-linejoin="round" stroke-width="2.59453829">
                    <path d="M14.4791366,130.179524 L3.37650903,130.179524 C1.63929267,130.179524 0.218405261,127.843572 0.218405261,124.988519 L0.218405261,65.2919519 L0.218405261,5.59538515 C0.218405261,2.74033196 1.63929267,0.404379352 3.37650903,0.404379352 L14.4791366,0.404379352" id="Stroke-35"></path>
                </g>
                <path d="M257.711034,176.990271 L260.303894,176.990271" id="Stroke-37" stroke="#878787" stroke-width="2.59453829" stroke-linecap="round" stroke-linejoin="round"></path>
                <path d="M265.460575,176.990271 L268.813143,176.990271 C270.55036,176.990271 271.971247,174.654318 271.971247,171.799265 L271.971247,112.102698 L271.971247,52.4061315 C271.971247,49.5510783 270.55036,47.2151257 268.813143,47.2151257 L262.883272,47.2151257" id="Stroke-39" stroke="#878787" stroke-width="2.59453829" stroke-linecap="round" stroke-linejoin="round" stroke-dasharray="5.160536575317384,5.160536575317384"></path>
                <path d="M260.303894,47.2151257 L257.711034,47.2151257" id="Stroke-41" stroke="#878787" stroke-width="2.59453829" stroke-linecap="round" stroke-linejoin="round"></path>
                <g id="Group-46" transform="translate(66.614901, 109.102816)">
                    <path d="M1.81733574,2.99988225 L17.3744972,2.99988225" id="Fill-43" fill="#FFFFFF"></path>
                    <path d="M1.81733574,2.99988225 L17.3744972,2.99988225" id="Stroke-45" stroke="#878787" stroke-width="2.59453829" stroke-linecap="round" stroke-linejoin="round"></path>
                </g>
                <path d="M170.850216,47.2151257 L186.407378,47.2151257" id="Fill-47" fill="#FFFFFF"></path>
                <path d="M170.850216,47.2151257 L173.443076,47.2151257" id="Stroke-49" stroke="#878787" stroke-width="2.59453829" stroke-linecap="round" stroke-linejoin="round"></path>
                <path d="M176.900656,47.2151257 L182.086376,47.2151257" id="Stroke-51" stroke="#878787" stroke-width="2.59453829" stroke-linecap="round" stroke-linejoin="round" stroke-dasharray="3.458519363403321,3.458519363403321"></path>
                <path d="M183.814517,47.2151257 L186.407378,47.2151257" id="Stroke-53" stroke="#878787" stroke-width="2.59453829" stroke-linecap="round" stroke-linejoin="round"></path>
                <g id="Group-58" transform="translate(170.329311, 173.990388)">
                    <path d="M0.520905622,2.99988225 L16.0780671,2.99988225" id="Fill-55" fill="#FFFFFF"></path>
                    <path d="M0.520905622,2.99988225 L16.0780671,2.99988225" id="Stroke-57" stroke="#878787" stroke-width="2.59453829" stroke-linecap="round" stroke-linejoin="round"></path>
                </g>
                <g id="Group-62" transform="translate(9.571976, 75.361278)">
                    <path d="M2.42380575,2.99988225 L38.7238491,2.99988225" id="Fill-59" fill="#FFFFFF"></path>
                    <path d="M2.42380575,2.99988225 L38.7238491,2.99988225" id="Stroke-61" stroke="#00BBB3" stroke-width="2.59453829"></path>
                </g>
                <g id="Group-66" transform="translate(9.571976, 83.147787)">
                    <path d="M2.42380575,2.99988225 L38.7238491,2.99988225" id="Fill-63" fill="#FFFFFF"></path>
                    <path d="M2.42380575,2.99988225 L38.7238491,2.99988225" id="Stroke-65" stroke="#00BBB3" stroke-width="2.59453829"></path>
                </g>
                <g id="Group-70" transform="translate(118.472106, 10.473706)">
                    <path d="M0.520905622,2.99988225 L19.9673574,2.99988225" id="Fill-67" fill="#FFFFFF"></path>
                    <path d="M0.520905622,2.99988225 L19.9673574,2.99988225" id="Stroke-69" stroke="#00BBB3" stroke-width="2.59453829" stroke-linecap="round" stroke-linejoin="round"></path>
                </g>
                <g id="Group-74" transform="translate(144.400708, 10.473706)">
                    <path d="M0.520905622,2.99988225 L10.8923466,2.99988225" id="Fill-71" fill="#FFFFFF"></path>
                    <path d="M0.520905622,2.99988225 L10.8923466,2.99988225" id="Stroke-73" stroke="#00BBB3" stroke-width="2.59453829" stroke-linecap="round" stroke-linejoin="round"></path>
                </g>
                <g id="Group-78" transform="translate(118.472106, 145.439857)">
                    <path d="M0.520905622,2.99988225 L22.5602177,2.99988225" id="Fill-75" fill="#FFFFFF"></path>
                    <path d="M0.520905622,2.99988225 L22.5602177,2.99988225" id="Stroke-77" stroke="#00BBB3" stroke-width="2.59453829"></path>
                </g>
                <g id="Group-82" transform="translate(144.400708, 145.439857)">
                    <path d="M0.520905622,2.99988225 L10.8923466,2.99988225" id="Fill-79" fill="#FFFFFF"></path>
                    <path d="M0.520905622,2.99988225 L10.8923466,2.99988225" id="Stroke-81" stroke="#00BBB3" stroke-width="2.59453829"></path>
                </g>
                <g id="Group-86" transform="translate(118.472106, 18.260214)">
                    <path d="M0.520905622,2.99988225 L36.820949,2.99988225" id="Fill-83" fill="#FFFFFF"></path>
                    <path d="M0.520905622,2.99988225 L36.820949,2.99988225" id="Stroke-85" stroke="#00BBB3" stroke-width="2.59453829" stroke-linecap="round" stroke-linejoin="round"></path>
                </g>
                <g id="Group-90" transform="translate(118.472106, 137.653348)">
                    <path d="M0.520905622,2.99988225 L36.820949,2.99988225" id="Fill-87" fill="#FFFFFF"></path>
                    <path d="M0.520905622,2.99988225 L36.820949,2.99988225" id="Stroke-89" stroke="#00BBB3" stroke-width="2.59453829"></path>
                </g>
                <g id="Group-94" transform="translate(9.571976, 90.934296)">
                    <path d="M2.42380575,2.99988225 L38.7238491,2.99988225" id="Fill-91" fill="#FFFFFF"></path>
                    <path d="M2.42380575,2.99988225 L38.7238491,2.99988225" id="Stroke-93" stroke="#00BBB3" stroke-width="2.59453829"></path>
                </g>
                <g id="Group-98" transform="translate(201.443633, 10.473706)">
                    <path d="M0.520905622,2.99988225 L36.820949,2.99988225" id="Fill-95" fill="#FFFFFF"></path>
                    <path d="M0.520905622,2.99988225 L36.820949,2.99988225" id="Stroke-97" stroke="#878787" stroke-width="2.59453829" stroke-linecap="round" stroke-linejoin="round"></path>
                </g>
                <g id="Group-102" transform="translate(201.443633, 18.260214)">
                    <path d="M0.520905622,2.99988225 L36.820949,2.99988225" id="Fill-99" fill="#FFFFFF"></path>
                    <path d="M0.520905622,2.99988225 L36.820949,2.99988225" id="Stroke-101" stroke="#878787" stroke-width="2.59453829" stroke-linecap="round" stroke-linejoin="round"></path>
                </g>
                <g id="Group-106" transform="translate(201.443633, 145.439857)">
                    <path d="M0.520905622,2.99988225 L22.5602177,2.99988225" id="Fill-103" fill="#FFFFFF"></path>
                    <path d="M0.520905622,2.99988225 L22.5602177,2.99988225" id="Stroke-105" stroke="#878787" stroke-width="2.59453829" stroke-linecap="round" stroke-linejoin="round"></path>
                </g>
                <g id="Group-110" transform="translate(227.372236, 145.439857)">
                    <path d="M0.520905622,2.99988225 L10.8923466,2.99988225" id="Fill-107" fill="#FFFFFF"></path>
                    <path d="M0.520905622,2.99988225 L10.8923466,2.99988225" id="Stroke-109" stroke="#878787" stroke-width="2.59453829" stroke-linecap="round" stroke-linejoin="round"></path>
                </g>
                <g id="Group-114" transform="translate(214.407935, 137.653348)">
                    <path d="M23.8566478,2.99988225 L1.81733574,2.99988225" id="Fill-111" fill="#FFFFFF"></path>
                    <path d="M23.8566478,2.99988225 L1.81733574,2.99988225" id="Stroke-113" stroke="#878787" stroke-width="2.59453829" stroke-linecap="round" stroke-linejoin="round"></path>
                </g>
                <g id="Group-118" transform="translate(201.443633, 137.653348)">
                    <path d="M10.8923466,2.99988225 L0.520905622,2.99988225" id="Fill-115" fill="#FFFFFF"></path>
                    <path d="M10.8923466,2.99988225 L0.520905622,2.99988225" id="Stroke-117" stroke="#878787" stroke-width="2.59453829" stroke-linecap="round" stroke-linejoin="round"></path>
                </g>
                <g id="Group-122" transform="translate(272.250325, 28.450978)">
                    <path d="M3.25369389,0.00774552708 L0.736026593,5.96182918" id="Fill-119" fill="#FFFFFF"></path>
                    <path d="M19.2429987,56.1070363 L16.7253314,62.06112" id="Stroke-121" stroke="#00BBB3" stroke-width="1.84731126" stroke-linecap="round" stroke-linejoin="round"></path>
                </g>
                <g id="Group-126" transform="translate(276.636580, 32.840566)">
                    <path d="M4.92176731,0.855883019 L0.384261888,3.09320652" id="Fill-123" fill="#FFFFFF"></path>
                    <path d="M20.9110721,56.9551738 L16.3735667,59.1924973" id="Stroke-125" stroke="#00BBB3" stroke-width="1.84731126" stroke-linecap="round" stroke-linejoin="round"></path>
                </g>
                <g id="Group-130" transform="translate(267.064605, 27.649560)">
                    <path d="M1.00283191,0.151463532 L2.03738315,5.10627857" id="Fill-127" fill="#FFFFFF"></path>
                    <path d="M16.9921367,56.2507543 L18.026688,61.2055694" id="Stroke-129" stroke="#00BBB3" stroke-width="1.84731126" stroke-linecap="round" stroke-linejoin="round"></path>
                </g>
                <path d="M46.3929247,152.332993 L15.2786018,152.332993 C13.8525287,152.332993 12.6857416,151.165017 12.6857416,149.73749 L12.6857416,147.141987 C12.6857416,145.714461 13.8525287,144.546484 15.2786018,144.546484 L46.3929247,144.546484 C47.8189978,144.546484 48.9857849,145.714461 48.9857849,147.141987 L48.9857849,149.73749 C48.9857849,151.165017 47.8189978,152.332993 46.3929247,152.332993" id="Fill-131" fill="#CEEFEC"></path>
                <path d="M236.370757,165.310508 L203.858883,165.310508 C202.816553,165.310508 201.963502,164.456587 201.963502,163.415791 L201.963502,159.418716 C201.963502,158.377919 202.816553,157.523999 203.858883,157.523999 L236.370757,157.523999 C237.413087,157.523999 238.263545,158.377919 238.263545,159.418716 L238.263545,163.415791 C238.263545,164.456587 237.413087,165.310508 236.370757,165.310508" id="Fill-133" fill="#E2E2E2"></path>
                <path d="M236.370757,175.692519 L203.858883,175.692519 C202.816553,175.692519 201.963502,174.838599 201.963502,173.797802 L201.963502,169.800728 C201.963502,168.759931 202.816553,167.906011 203.858883,167.906011 L236.370757,167.906011 C237.413087,167.906011 238.263545,168.759931 238.263545,169.800728 L238.263545,173.797802 C238.263545,174.838599 237.413087,175.692519 236.370757,175.692519" id="Fill-135" fill="#E2E2E2"></path>
                <path d="M236.370757,186.074531 L203.858883,186.074531 C202.816553,186.074531 201.963502,185.22061 201.963502,184.179814 L201.963502,180.182739 C201.963502,179.141943 202.816553,178.288022 203.858883,178.288022 L236.370757,178.288022 C237.413087,178.288022 238.263545,179.141943 238.263545,180.182739 L238.263545,184.179814 C238.263545,185.22061 237.413087,186.074531 236.370757,186.074531" id="Fill-137" fill="#E2E2E2"></path>
                <path d="M152.123024,45.9173742 L122.162524,45.9173742 C120.420122,45.9173742 118.994049,44.4898476 118.994049,42.7430742 L118.994049,30.923154 C118.994049,29.1763805 120.420122,27.7488539 122.162524,27.7488539 L152.123024,27.7488539 C153.865426,27.7488539 155.294092,29.1763805 155.294092,30.923154 L155.294092,42.7430742 C155.294092,44.4898476 153.865426,45.9173742 152.123024,45.9173742" id="Fill-139" fill="#CEEFEC"></path>
                <path d="M152.123024,66.6813974 L122.162524,66.6813974 C120.420122,66.6813974 118.994049,65.2538708 118.994049,63.5070974 L118.994049,51.6871772 C118.994049,49.9404037 120.420122,48.5128771 122.162524,48.5128771 L152.123024,48.5128771 C153.865426,48.5128771 155.294092,49.9404037 155.294092,51.6871772 L155.294092,63.5070974 C155.294092,65.2538708 153.865426,66.6813974 152.123024,66.6813974" id="Fill-141" fill="#CEEFEC"></path>
                <path d="M152.123024,87.4454207 L122.162524,87.4454207 C120.420122,87.4454207 118.994049,86.0178941 118.994049,84.2711206 L118.994049,72.4512004 C118.994049,70.7044269 120.420122,69.2769003 122.162524,69.2769003 L152.123024,69.2769003 C153.865426,69.2769003 155.294092,70.7044269 155.294092,72.4512004 L155.294092,84.2711206 C155.294092,86.0178941 153.865426,87.4454207 152.123024,87.4454207" id="Fill-143" fill="#CEEFEC"></path>
                <path d="M152.039534,183.479028 L122.24757,183.479028 C120.458496,183.479028 118.99353,182.012569 118.99353,180.221672 L118.99353,163.376858 C118.99353,161.585961 120.458496,160.119502 122.24757,160.119502 L152.039534,160.119502 C153.828607,160.119502 155.293573,161.585961 155.293573,163.376858 L155.293573,180.221672 C155.293573,182.012569 153.828607,183.479028 152.039534,183.479028" id="Fill-145" fill="#CEEFEC"></path>
                <path d="M128.360497,214.625063 L119.99593,214.625063 C119.446243,214.625063 118.992493,214.173445 118.992493,213.620603 L118.992493,207.843014 C118.992493,207.290172 119.446243,206.838554 119.99593,206.838554 L128.360497,206.838554 C128.912776,206.838554 129.363934,207.290172 129.363934,207.843014 L129.363934,213.620603 C129.363934,214.173445 128.912776,214.625063 128.360497,214.625063" id="Fill-147" fill="#CEEFEC"></path>
                <path d="M141.324798,214.625063 L132.960231,214.625063 C132.410545,214.625063 131.956794,214.173445 131.956794,213.620603 L131.956794,207.843014 C131.956794,207.290172 132.410545,206.838554 132.960231,206.838554 L141.324798,206.838554 C141.877077,206.838554 142.328235,207.290172 142.328235,207.843014 L142.328235,213.620603 C142.328235,214.173445 141.877077,214.625063 141.324798,214.625063" id="Fill-149" fill="#CEEFEC"></path>
                <path d="M154.289099,214.625063 L145.924532,214.625063 C145.374846,214.625063 144.921095,214.173445 144.921095,213.620603 L144.921095,207.843014 C144.921095,207.290172 145.374846,206.838554 145.924532,206.838554 L154.289099,206.838554 C154.841379,206.838554 155.292536,207.290172 155.292536,207.843014 L155.292536,213.620603 C155.292536,214.173445 154.841379,214.625063 154.289099,214.625063" id="Fill-151" fill="#CEEFEC"></path>
                <path d="M235.011061,58.8948887 L205.219097,58.8948887 C203.430024,58.8948887 201.965058,57.4284296 201.965058,55.6375326 L201.965058,38.7927188 C201.965058,37.0018218 203.430024,35.5353626 205.219097,35.5353626 L235.011061,35.5353626 C236.800135,35.5353626 238.265101,37.0018218 238.265101,38.7927188 L238.265101,55.6375326 C238.265101,57.4284296 236.800135,58.8948887 235.011061,58.8948887" id="Fill-153" fill="#E2E2E2"></path>
                <path d="M211.332025,90.0409236 L202.967457,90.0409236 C202.417771,90.0409236 201.964021,89.5893061 201.964021,89.0364639 L201.964021,83.2588745 C201.964021,82.7060324 202.417771,82.2544149 202.967457,82.2544149 L211.332025,82.2544149 C211.884304,82.2544149 212.335461,82.7060324 212.335461,83.2588745 L212.335461,89.0364639 C212.335461,89.5893061 211.884304,90.0409236 211.332025,90.0409236" id="Fill-155" fill="#E2E2E2"></path>
                <path d="M224.296326,90.0409236 L215.931759,90.0409236 C215.382072,90.0409236 214.928322,89.5893061 214.928322,89.0364639 L214.928322,83.2588745 C214.928322,82.7060324 215.382072,82.2544149 215.931759,82.2544149 L224.296326,82.2544149 C224.848605,82.2544149 225.299763,82.7060324 225.299763,83.2588745 L225.299763,89.0364639 C225.299763,89.5893061 224.848605,90.0409236 224.296326,90.0409236" id="Fill-157" fill="#E2E2E2"></path>
                <path d="M237.260627,90.0409236 L228.89606,90.0409236 C228.346373,90.0409236 227.892623,89.5893061 227.892623,89.0364639 L227.892623,83.2588745 C227.892623,82.7060324 228.346373,82.2544149 228.89606,82.2544149 L237.260627,82.2544149 C237.812906,82.2544149 238.264064,82.7060324 238.264064,83.2588745 L238.264064,89.0364639 C238.264064,89.5893061 237.812906,90.0409236 237.260627,90.0409236" id="Fill-159" fill="#E2E2E2"></path>
                <path d="M286.232497,109.507195 C286.232497,116.673379 280.427083,122.48471 273.268196,122.48471 C266.109309,122.48471 260.303894,116.673379 260.303894,109.507195 C260.303894,102.341012 266.109309,96.5296808 273.268196,96.5296808 C280.427083,96.5296808 286.232497,102.341012 286.232497,109.507195" id="Fill-161" fill="#FFFFFF"></path>
                <path d="M286.232497,109.507195 C286.232497,116.673379 280.427083,122.48471 273.268196,122.48471 C266.109309,122.48471 260.303894,116.673379 260.303894,109.507195 C260.303894,102.341012 266.109309,96.5296808 273.268196,96.5296808 C280.427083,96.5296808 286.232497,102.341012 286.232497,109.507195 Z" id="Stroke-163" stroke="#878787" stroke-width="2.59453829" stroke-linecap="round" stroke-linejoin="round"></path>
                <path d="M270.675335,105.613941 C270.675335,106.3303 270.094535,106.911692 269.378905,106.911692 C268.663276,106.911692 268.082475,106.3303 268.082475,105.613941 C268.082475,104.897582 268.663276,104.31619 269.378905,104.31619 C270.094535,104.31619 270.675335,104.897582 270.675335,105.613941" id="Fill-165" fill="#878787"></path>
                <path d="M279.750346,105.613941 C279.750346,106.3303 279.169546,106.911692 278.453916,106.911692 C277.738287,106.911692 277.157486,106.3303 277.157486,105.613941 C277.157486,104.897582 277.738287,104.31619 278.453916,104.31619 C279.169546,104.31619 279.750346,104.897582 279.750346,105.613941" id="Fill-167" fill="#878787"></path>
                <path d="M268.082475,114.698201 C268.082475,114.698201 273.268196,109.507195 278.453916,114.698201" id="Stroke-169" stroke="#878787" stroke-width="2.11714324" stroke-linecap="round" stroke-linejoin="round"></path>
            </g>
        </g>
    </g>
</svg>