<?xml version="1.0" encoding="UTF-8"?>
<svg width="325px" height="325px" viewBox="0 0 325 325" version="1.1" xmlns="http://www.w3.org/2000/svg" xmlns:xlink="http://www.w3.org/1999/xlink">
    <!-- Generator: Sketch 52.6 (67491) - http://www.bohemiancoding.com/sketch -->
    <title>img_research_graphic</title>
    <desc>Created with Sketch.</desc>
    <defs>
        <filter x="-3.4%" y="-3.0%" width="106.7%" height="106.0%" filterUnits="objectBoundingBox" id="filter-1">
            <feGaussianBlur stdDeviation="2.1384" in="SourceGraphic"></feGaussianBlur>
        </filter>
        <polygon id="path-2" points="0 0.104347149 260.458622 0.104347149 260.458622 100.084684 0 100.084684"></polygon>
        <linearGradient x1="50%" y1="5.39649566%" x2="50%" y2="100%" id="linearGradient-4">
            <stop stop-color="#475368" stop-opacity="0.999915082" offset="0%"></stop>
            <stop stop-color="#677593" offset="100%"></stop>
        </linearGradient>
        <path d="M80.9828481,9.31037032 C127.060997,20.1068603 167.1207,21.4109842 199.844499,5.05580288 C232.569799,-11.2993785 275.111938,14.8686116 255.476759,54.1213469 C235.841579,93.3755823 -61.950396,139.17069 11.6796528,42.67332 C11.6796528,42.67332 34.9046996,-1.48611964 80.9828481,9.31037032 Z" id="path-5"></path>
        <filter x="-1.3%" y="-2.5%" width="102.7%" height="107.0%" filterUnits="objectBoundingBox" id="filter-6">
            <feOffset dx="0" dy="1" in="SourceAlpha" result="shadowOffsetOuter1"></feOffset>
            <feGaussianBlur stdDeviation="1" in="shadowOffsetOuter1" result="shadowBlurOuter1"></feGaussianBlur>
            <feColorMatrix values="0 0 0 0 0   0 0 0 0 0   0 0 0 0 0  0 0 0 0.5 0" type="matrix" in="shadowBlurOuter1"></feColorMatrix>
        </filter>
    </defs>
    <g id="Wireframe" stroke="none" stroke-width="1" fill="none" fill-rule="evenodd">
        <g id="-" transform="translate(-140.000000, -832.000000)">
            <g id="img_interview" transform="translate(170.000000, 874.000000)">
                <rect id="Rectangle" fill="#475268" x="110.286765" y="46.720517" width="63.1323529" height="1.55735057" rx="0.778675283"></rect>
                <g id="Group-17" transform="translate(63.132353, 110.571890)" stroke="#4D5971" stroke-linecap="round" stroke-linejoin="round" stroke-opacity="0.458559783" stroke-width="1.4282449">
                    <path d="M4.00456375,-1.94955163e-13 L4.00456375,3.0034618" id="Stroke-23"></path>
                    <path d="M4.00456375,7.00793452 L4.00456375,10.0113963" id="Stroke-27"></path>
                    <path d="M6.00698866,5.00576967 L8.00941356,5.00576967" id="Stroke-31"></path>
                    <path d="M4.54303262e-13,5.00576967 L2.00242491,5.00576967" id="Stroke-35"></path>
                </g>
                <g id="Group-17" transform="translate(180.044118, 52.171244)" stroke="#4D5971" stroke-linecap="round" stroke-linejoin="round" stroke-width="1.4282449">
                    <path d="M4.00456375,-1.94955163e-13 L4.00456375,3.0034618" id="Stroke-23"></path>
                    <path d="M4.00456375,7.00793452 L4.00456375,10.0113963" id="Stroke-27"></path>
                    <path d="M6.00698866,5.00576967 L8.00941356,5.00576967" id="Stroke-31"></path>
                    <path d="M4.54303262e-13,5.00576967 L2.00242491,5.00576967" id="Stroke-35"></path>
                </g>
                <g id="Group-17" opacity="0.600260417" transform="translate(199.529412, 133.932149)" stroke="#4D5971" stroke-linecap="round" stroke-linejoin="round" stroke-width="1.4282449">
                    <path d="M4.00456375,-1.94955163e-13 L4.00456375,3.0034618" id="Stroke-23"></path>
                    <path d="M4.00456375,7.00793452 L4.00456375,10.0113963" id="Stroke-27"></path>
                    <path d="M6.00698866,5.00576967 L8.00941356,5.00576967" id="Stroke-31"></path>
                    <path d="M4.54303262e-13,5.00576967 L2.00242491,5.00576967" id="Stroke-35"></path>
                </g>
                <path d="M106.717884,95.7770598 L67.4806456,95.7770598 C65.5172498,95.7770598 63.9117647,97.2818957 63.9117647,99.1222045 L63.9117647,115.838343 C63.9117647,117.67386 65.5172498,119.178696 67.4806456,119.178696 L90.5403204,119.178696 L95.0602212,123.420032 L99.5852349,119.178696 L106.717884,119.178696 C108.68128,119.178696 110.286765,117.67386 110.286765,115.838343 L110.286765,99.1222045 C110.286765,97.2818957 108.68128,95.7770598 106.717884,95.7770598 Z" id="Stroke-212" fill-opacity="0.266898777" fill="#4D5971" transform="translate(87.099265, 109.598546) scale(-1, 1) translate(-87.099265, -109.598546) "></path>
                <path d="M113.303704,14.8986393 C119.304643,10.9454993 125.234143,8.96892926 131.092202,8.96892926 C139.879292,8.96892926 144.165677,3.27654218 154.024362,5.63281803 C163.883048,7.98909387 167.312156,10.8342008 174.170372,17.3373025 C181.028588,23.8404041 183.171781,42.1303774 179.956992,49.0399229 C176.742203,55.9494684 170.955583,53.4998203 170.955583,59.3987486 C170.955583,65.2976769 172.884457,78.710324 166.026241,78.710324 C159.168024,78.710324 163.24009,88.5308863 157.024832,93.4576449 C150.809574,98.3844034 144.379996,98.8128172 154.024362,100.740679 C163.668729,102.668541 175.456288,98.1701966 179.956992,110.37999 C184.457696,122.589783 189.17272,129.65861 186.815208,135.013782 C184.457696,140.368955 182.957462,142.939438 184.886335,145.50992 C186.815208,148.080403 196.459575,138.869507 218.105819,138.869507 C239.752064,138.869507 254.754412,145.50992 259.898074,157.505506 C265.041736,169.501093 270.828356,193.920679 252.3969,200.775299 C233.965444,207.62992 73.6544118,219.197092 73.6544118,219.197092 C73.6544118,219.197092 73.8689614,185.995023 86.0851589,157.505506 C98.3013563,129.015989 108.803,111.451024 119.947601,106.095852 C131.092202,100.740679 126.591498,99.6696448 119.947601,93.4576449 C115.518336,89.3163116 113.303704,63.1299764 113.303704,14.8986393 Z" id="Path-6" fill="#515D76" opacity="0.0890531994" filter="url(#filter-1)"></path>
                <g id="Group-102" transform="translate(0.000000, 7.786753)">
                    <path d="M100.935751,53.6326031 C100.935751,53.6326031 96.3477553,47.5177876 93.2890917,49.0464915 C90.230428,50.5751954 88.7010962,58.2187148 93.2890917,62.8063267 C97.8770871,67.3924383 100.935751,59.7474187 100.935751,59.7474187 L100.935751,53.6326031 Z" id="Fill-1" fill="#F1DDBF"></path>
                    <path d="M99.2180665,45.5301725 L95.9447861,47.1653906 C95.9447861,47.1653906 95.9462869,57.1462218 99.2180665,61.8523494 L99.2180665,45.5301725 Z" id="Fill-3" fill="#E7D0AC"></path>
                    <path d="M124.579461,97.0497438 C124.579461,97.0497438 109.853451,90.5073712 93.4915518,97.0497438 C93.4915518,97.0497438 83.6732114,105.227334 82.0373216,126.48967 C82.0373216,126.48967 88.5823816,134.667261 101.672502,136.303979 C101.672502,136.303979 100.035111,147.752006 103.308391,160.836751 C106.580171,173.919996 157.30326,152.65766 157.30326,152.65766 C157.30326,152.65766 160.576541,142.844852 160.576541,129.760106 C160.576541,129.760106 176.93844,129.760106 181.84761,124.854452 C181.84761,124.854452 178.57433,103.592116 167.121601,95.4145257 C167.121601,95.4145257 154.031481,90.5073712 132.760411,97.0497438 C111.489341,103.592116 124.579461,97.0497438 124.579461,97.0497438" id="Fill-5" fill="#1EC0B2"></path>
                    <g id="Group-9" transform="translate(0.000000, 132.882794)">
                        <mask id="mask-3" fill="white">
                            <use xlink:href="#path-2"></use>
                        </mask>
                        <g id="Clip-8"></g>
                        <g id="Fill-7" mask="url(#mask-3)">
                            <use fill="black" fill-opacity="1" filter="url(#filter-6)" xlink:href="#path-5"></use>
                            <use fill="url(#linearGradient-4)" fill-rule="evenodd" xlink:href="#path-5"></use>
                        </g>
                    </g>
                    <path d="M90.4164412,178.008599 C89.9645767,176.950743 87.8399211,176.383168 84.0424743,176.305872 C84.0424743,176.305872 87.3142539,169.763499 90.5875343,166.493063 C93.8593139,163.221126 93.8593139,159.95069 95.4967045,155.043536 C96.5187604,151.975627 99.7218455,149.483859 101.86351,146.736992 C101.86351,146.094049 97.6817023,146.094049 86.7229322,143.161951 L81.9818535,165.928988 C81.9818535,165.928988 42.8686742,179.797266 47.4686762,186.239125 C52.0686783,192.682484 61.9000972,192.803572 66.8077665,191.168354 C71.7169367,189.533136 74.2256347,191.025835 79.1333041,189.390617 C84.0424743,187.755399 88.9516445,184.483462 90.5875343,182.848244 C92.2234241,181.213026 91.094238,179.595382 90.4164412,178.008599 Z" id="Fill-10" fill="#444F68" opacity="0.566894531"></path>
                    <path d="M121.306631,87.2361849 C121.306631,87.2361849 120.488686,94.5961666 121.306631,95.4137756 C122.124576,96.2328849 113.943626,92.9609485 113.125681,97.0504939 C112.307736,99.503321 111.570835,108.506022 127.851691,110.133739 C145.031535,109.31613 145.031535,97.8666027 144.21359,95.4137756 C143.395646,92.9609485 136.850586,94.5961666 136.032641,95.4137756 C135.214696,96.2328849 136.032641,87.2361849 136.032641,87.2361849 L121.306631,87.2361849 Z" id="Fill-12" fill="#FFF5E6"></path>
                    <path d="M156.478411,53.6326031 C156.478411,53.6326031 161.066407,47.5177876 164.125071,49.0464915 C167.183734,50.5751954 168.713066,58.2187148 164.125071,62.8063267 C159.537075,67.3924383 156.478411,59.7474187 156.478411,59.7474187 L156.478411,53.6326031 Z" id="Fill-14" fill="#F1DDBF"></path>
                    <path d="M156.485765,56.9787994 C156.485765,56.9787994 158.121655,61.8859539 159.757545,61.8859539 C161.394936,61.8859539 164.666715,60.2507358 164.666715,55.3435813 C164.666715,50.4364269 156.485765,56.9787994 156.485765,56.9787994" id="Fill-16" fill="#E7D0AC"></path>
                    <path d="M128.670086,91.3251303 C112.471775,91.3251303 99.2180665,78.0768633 99.2180665,61.8852038 L99.2180665,45.5300225 C99.2180665,29.3383629 112.471775,16.090096 128.670086,16.090096 C144.868397,16.090096 158.122106,29.3383629 158.122106,45.5300225 L158.122106,61.8852038 C158.122106,78.0768633 144.868397,91.3251303 128.670086,91.3251303" id="Fill-18" fill="#FFF5E6"></path>
                    <path d="M113.398079,59.4319266 C112.349009,59.4319266 111.489041,58.5738122 111.489041,57.5236721 L111.489041,55.6154176 C111.489041,54.5667777 112.349009,53.7086633 113.398079,53.7086633 C114.448651,53.7086633 115.307118,54.5667777 115.307118,55.6154176 L115.307118,57.5236721 C115.307118,58.5738122 114.448651,59.4319266 113.398079,59.4319266" id="Fill-20" fill="#565656"></path>
                    <path d="M141.214509,59.4319266 C140.163938,59.4319266 139.305471,58.5738122 139.305471,57.5236721 L139.305471,55.6154176 C139.305471,54.5667777 140.163938,53.7086633 141.214509,53.7086633 C142.26358,53.7086633 143.122047,54.5667777 143.122047,55.6154176 L143.122047,57.5236721 C143.122047,58.5738122 142.26358,59.4319266 141.214509,59.4319266" id="Fill-22" fill="#565656"></path>
                    <path d="M128.670086,65.1566901 L125.396806,65.1566901 C124.497817,65.1566901 123.760916,64.4665981 123.760916,63.6234856 L125.396806,54.4227585 C125.396806,53.5796461 126.133706,52.889554 127.034196,52.889554 C127.933185,52.889554 128.670086,53.5796461 128.670086,54.4227585 L130.305976,63.6234856 C130.305976,64.4665981 129.570576,65.1566901 128.670086,65.1566901" id="Fill-24" fill="#F1DDBF"></path>
                    <path d="M132.760711,75.787708 C124.579761,79.0596444 121.306481,75.787708 121.306481,75.787708" id="Stroke-28" stroke="#1AA498" stroke-width="1.6315992" stroke-linecap="round" stroke-linejoin="round"></path>
                    <path d="M144.213891,7.09489627 C144.213891,7.09489627 140.94061,2.18774179 147.48567,0.552523692 C154.032231,-1.0826944 162.21168,0.552523692 167.12085,10.3653325 C167.12085,10.3653325 173.66591,15.2724869 173.66591,23.4500776 C173.66591,31.6276683 176.93769,39.8052589 172.03002,43.0771953 C167.12085,46.3476315 167.12085,38.1700408 165.48496,36.5348228 C163.849071,34.8996047 157.304011,20.1796414 150.758951,13.6372688 L144.213891,7.09489627 Z" id="Fill-30" fill="#1EBCAE"></path>
                    <path d="M143.810921,2.82952738 C142.688311,4.8022905 144.214641,7.09459623 144.214641,7.09459623 L150.7582,13.6369688 C157.30326,20.1793414 163.84832,34.8993046 165.48421,36.5345227 C166.924994,37.9747148 167.10209,44.476582 170.471423,43.7804891 C171.338894,27.4013046 161.385481,14.4470768 154.849425,7.91220527 C150.545084,3.61113163 146.25425,2.84902998 143.810921,2.82952738" id="Fill-32" fill="#1EADA0"></path>
                    <path d="M150.7588,3.82355996 C151.45668,3.07496012 152.474234,2.63540149 153.529307,2.54388929 C154.590385,2.45687768 155.661967,2.7329145 156.623991,3.17847392 C158.53453,4.14610298 160.021839,5.67630707 161.362068,7.20801135 C164.048529,10.3194263 166.280243,13.7743871 168.180276,17.4048713 C170.02628,21.0578585 171.558614,24.922374 172.227978,29.01642 C172.556657,31.0581923 172.583671,33.1719742 172.403573,35.1852428 C172.300017,36.2038786 172.223476,37.2165137 171.91881,38.2441507 C171.870784,38.3746681 171.824258,38.5036853 171.729707,38.6417038 C171.684682,38.7077126 171.614144,38.7902236 171.488076,38.8352296 C171.345498,38.8742348 171.211925,38.8097262 171.153393,38.7512184 C170.905759,38.5111863 170.848728,38.2681539 170.748173,38.0236213 C170.587586,37.5315557 170.482529,37.0349895 170.39398,36.5339226 C170.560571,37.0124865 170.748173,37.4850495 170.976297,37.9261083 C171.085857,38.1346361 171.219429,38.3866697 171.359005,38.4781819 C171.353002,38.5591927 171.452056,38.3716677 171.500082,38.1271351 C171.66217,37.1835093 171.62465,36.1573724 171.602138,35.1612396 C171.58863,33.132969 171.390522,31.1887097 170.973296,29.2549518 C170.086313,25.3979374 168.547976,21.6954436 166.725985,18.151971 C164.905495,14.605498 162.784842,11.1925428 160.379033,8.015119 C159.152866,6.44740991 157.878673,4.90970482 156.242783,3.88056756 C155.42784,3.37650033 154.510841,3.01345191 153.541314,2.97444671 C152.582292,2.95644431 151.572243,3.20997812 150.7588,3.82355996" id="Fill-34" fill="#1EADA0"></path>
                    <path d="M98.3995213,52.8898541 C98.3995213,52.8898541 127.851541,43.0770453 134.396601,23.4499276 C134.396601,23.4499276 147.486721,23.4499276 155.667671,49.6194179 C163.84862,75.787408 167.121901,46.3474815 167.121901,38.1698908 C167.121901,29.9923002 157.30356,-2.71806252 127.851541,5.45952815 C127.851541,5.45952815 113.125531,-1.08284442 103.308691,12.0019007 C93.4903511,25.0851457 75.4925618,54.5250722 98.3995213,52.8898541" id="Fill-36" fill="#1EC0B2"></path>
                    <path d="M166.302605,43.8945043 C166.302605,45.5297224 159.757545,53.7088133 158.121655,45.5297224 C156.485765,37.3521318 145.031535,24.2673866 141.759756,20.9969504 C138.486475,17.7265142 130.305526,17.7265142 125.397856,27.539323 C120.488686,37.3521318 105.762676,45.5297224 99.2176163,47.1649405 C94.5275653,48.338097 89.8510216,47.8310294 87.5697808,47.4484783 C88.4747731,51.1449714 91.653502,53.3712683 98.3996714,52.8897041 C98.3996714,52.8897041 127.851691,43.0768953 134.396751,23.4497776 C134.396751,23.4497776 147.48537,23.4497776 155.667821,49.6192679 C162.735165,72.2272832 166.137515,53.3367637 166.932948,42.5023187 C166.548739,42.8923707 166.302605,43.4504451 166.302605,43.8945043" id="Fill-38" fill="#1EBCAE"></path>
                    <path d="M126.215201,23.4499276 C125.538333,23.130385 124.85246,23.5744442 124.303161,23.9374926 C123.740355,24.3410464 123.240583,24.8391129 122.779832,25.3701837 C121.835819,26.4098224 121.008869,27.561976 120.193926,28.7201305 C118.574545,31.0949472 116.898133,33.424758 115.190204,35.7455675 C113.440252,38.0228712 111.723318,40.3916872 109.427069,42.3254451 C107.117313,44.2757052 104.358813,45.3288456 101.672351,46.3474815 C104.087165,44.76177 106.607036,43.3215779 108.571604,41.3773186 C110.522665,39.4150569 112.160056,37.0582426 113.881492,34.767437 C115.608932,32.4766315 117.345376,30.1798252 119.177873,27.9565286 C120.105378,26.8298784 121.100419,25.7452337 122.230533,24.7926067 C122.800844,24.3245442 123.411676,23.8924866 124.087043,23.5639428 C124.717386,23.2594022 125.605869,22.9488608 126.215201,23.4499276" id="Fill-40" fill="#1CB4A6"></path>
                    <path d="M119.670291,23.4499276 C119.569736,22.7553349 119.04445,22.2242641 118.442623,22.2272645 C117.83029,22.2362657 117.22396,22.5003009 116.661154,22.8258443 C116.093846,23.1423866 115.543046,23.5219372 115.020762,23.9224906 C114.555509,24.3245442 114.069244,24.7986075 113.599489,25.2771713 L108.001444,31.2029616 L102.34937,37.1077492 L99.5053228,40.0451409 C98.5357954,41.01277 97.5872795,41.9833994 96.7633314,43.0770453 C97.9309665,40.5597096 99.7019297,38.4084226 101.39335,36.2631365 C103.114786,34.1253514 104.94278,32.0835791 106.812797,30.080812 C108.709829,28.1035483 110.633876,26.1517879 112.732017,24.3485474 C113.269309,23.9044882 113.787091,23.4499276 114.421936,23.040373 C115.037271,22.6863257 115.658609,22.3562817 116.330975,22.0997475 C117.001839,21.8627159 117.73874,21.6706903 118.499654,21.7982073 C118.876359,21.8867191 119.238056,22.1012477 119.439165,22.4222905 C119.634271,22.7448335 119.695805,23.107882 119.670291,23.4499276" id="Fill-42" fill="#1CB4A6"></path>
                    <path d="M129.487881,13.6371188 C128.030588,12.0604085 125.930946,11.2923061 123.891337,11.3073081 C121.836719,11.2623021 119.828627,11.8908859 117.948104,12.7339984 C114.176553,14.4967335 110.684153,16.9330584 107.401868,19.5434066 C104.122584,22.1702569 101.104443,25.1316519 98.5305426,28.4335923 C95.9701499,31.7280317 93.9410463,35.5310389 93.4908014,39.8051089 C93.2836887,35.5025351 95.0111283,31.2044618 97.4949793,27.6879928 C99.9518156,24.1040148 103.025487,20.9925998 106.375309,18.2697367 C109.776159,15.6113821 113.382621,13.173557 117.458838,11.5608419 C119.493945,10.7702365 121.722657,10.2631688 123.943865,10.512202 C126.130555,10.7612353 128.314242,11.8113753 129.487881,13.6371188" id="Fill-44" fill="#1CB4A6"></path>
                    <path d="M145.850381,23.4499276 C147.738408,24.345547 149.633939,25.4346923 151.320856,26.751868 C153.033288,28.0480408 154.60014,29.5452405 155.9974,31.2044618 C157.367645,32.8801853 158.5713,34.7239312 159.396749,36.7447007 C160.246211,38.7489681 160.684449,40.9392602 160.57639,43.0770453 C159.500305,38.9409937 157.375149,35.4125231 154.738215,32.2471009 C153.435506,30.6523882 151.985718,29.1701905 150.492406,27.7164966 C148.994591,26.2778047 147.396222,24.8766179 145.850381,23.4499276" id="Fill-46" fill="#1CB4A6"></path>
                    <path d="M134.396301,10.3656325 C136.167264,9.70254406 138.181359,9.83606186 140.025863,10.3821347 C140.953367,10.6731735 141.816337,11.1277341 142.652291,11.6273008 C143.464233,12.1418694 144.222145,12.8184596 144.912521,13.4110387 C147.594479,15.7723536 151.140908,16.9050047 154.549262,18.5852288 C156.242183,19.4538446 157.936605,20.5039847 159.297845,21.9696802 C160.680097,23.4428766 161.522055,25.2896229 162.149396,27.0478574 C163.452105,30.6243345 164.029919,34.4318423 163.84832,38.1703409 C163.393573,34.4648467 162.404535,30.8703673 160.963751,27.5219207 C160.199836,25.8401964 159.426915,24.2409831 158.176735,23.0378226 C156.964076,21.7956569 155.440747,20.8505309 153.813862,20.0449234 C150.599114,18.4082052 146.84107,17.1525377 144.037545,14.3336617 C142.763352,12.9954832 141.405113,11.861332 139.743709,11.1277341 C138.112322,10.3821347 136.242305,10.0655925 134.396301,10.3656325" id="Fill-48" fill="#1CB4A6"></path>
                    <path d="M85.6828045,129.86377 C83.5186273,135.704049 79.2788212,147.425113 78.765542,151.022592 C77.9475971,156.747356 72.220482,167.377774 72.220482,167.377774 L82.8552665,169.832101 C82.8552665,169.832101 93.9853203,152.765825 97.869433,135.596035 C92.3824485,134.277359 88.3137355,131.877039 85.6828045,129.86377" id="Fill-50" fill="#FFF5E6"></path>
                    <path d="M84.569649,167.040529 C87.8444302,161.516792 94.9297841,148.589568 97.8698832,135.596335 C92.4174175,134.28666 88.3682151,131.908843 85.7357833,129.901575 C86.4561751,131.223252 87.5952947,132.646942 89.4007767,133.848602 C94.3084461,137.120538 95.9458367,137.120538 94.3084461,142.027693 C92.8451502,146.415778 85.9999269,163.483554 84.569649,167.040529" id="Fill-52" fill-opacity="0.4" fill="#F6E1C5"></path>
                    <path d="M145.031685,174.389023 C154.850026,171.117087 174.483705,159.66906 176.119595,156.397123 C177.249709,154.137822 178.38274,148.948437 177.096326,145.733723 C175.924188,145.994757 175.352678,147.415426 174.16253,147.641956 L171.211925,149.854751 L153.212635,164.574714 C153.212635,164.574714 130.305676,169.481869 127.033896,169.481869 C123.760616,169.481869 127.033896,176.024241 130.305676,177.659459 C133.578956,179.294677 135.214846,177.659459 145.031685,174.389023 Z" id="Fill-54" fill="#444F68"></path>
                    <path d="M162.595289,129.7106 C161.75183,136.270975 163.030525,145.443198 163.030525,151.840051 C163.030525,151.840051 156.485465,153.47677 151.576295,156.747206 C148.304516,158.382424 143.396846,161.65436 140.941511,162.471969 C137.836322,163.505607 132.760561,159.200033 131.124671,160.836751 C129.487281,162.471969 131.124671,164.107187 131.124671,164.107187 C131.124671,164.107187 126.215501,164.107187 126.215501,167.377624 C124.579611,170.64956 127.130999,173.9455 130.305225,174.739105 C136.850285,176.372823 138.913908,173.312415 143.396846,171.467169 C149.317567,169.029344 151.576295,168.196733 158.121355,164.924796 C164.666415,161.65436 166.041163,161.283811 172.847365,156.747206 C177.756535,153.47677 176.120645,142.027243 177.756535,127.307279 C177.21474,127.541311 176.62642,127.703332 176.009585,127.820348 C171.336043,129.18703 165.583414,129.592084 162.595289,129.7106" id="Fill-56" fill="#FFF5E6"></path>
                    <path d="M133.535582,149.470528 L133.579106,149.427022 C133.579106,149.427022 118.853096,147.791804 112.308036,146.156586 C105.762976,144.519868 105.762976,134.707059 105.762976,131.436623 C105.762976,128.164687 102.489696,123.257532 100.853806,121.622314 C99.8662691,120.633682 99.6156113,128.704309 99.2253991,135.875265 C100.152904,136.071791 101.105922,136.247315 102.111469,136.373331 C102.111469,136.373331 101.161474,140.773868 101.289043,146.255599 C112.11293,147.782803 122.936818,148.95746 133.535582,149.470528 Z" id="Fill-58" fill="#1EBCAE"></path>
                    <path d="M101.672201,123.218334 C102.317552,125.399625 102.461631,127.579416 102.490146,129.760707 C102.466133,131.941997 102.320554,134.123288 101.672201,136.303079 C101.023849,134.123288 100.87827,131.941997 100.854256,129.760707 C100.882772,127.579416 101.02685,125.399625 101.672201,123.218334" id="Fill-60" fill="#1CB4A6"></path>
                    <path d="M160.801749,129.66015 C160.801749,129.66015 166.140367,129.61193 172.188657,128.374264 C172.454301,126.365497 165.34079,128.462133 162.894459,126.016807 C160.439124,123.56248 159.082028,120.107581 156.628193,117.654754 C154.174358,115.201927 155.810248,134.827544 154.174358,143.005135 C152.536968,151.184226 145.991908,147.912289 139.448349,147.912289 C136.166063,147.912289 133.709227,148.734399 132.071836,149.555008 C140.832101,150.005068 149.440784,150.005068 157.770314,149.379485 C158.712827,145.310942 160.801749,137.554203 160.801749,129.66015 Z" id="Fill-62" fill="#1EBCAE"></path>
                    <path d="M157.30356,118.31193 C158.031456,119.240553 158.579254,120.254689 159.055013,121.297328 C159.538276,122.336966 159.911979,123.418611 160.228651,124.521258 C160.513806,125.631406 160.761441,126.756556 160.837983,127.917711 C160.92503,129.069864 160.908521,130.259523 160.576841,131.396675 C159.881963,129.171878 159.253121,127.107603 158.651293,124.953315 C158.086986,122.799028 157.515175,120.646241 157.30356,118.31193" id="Fill-64" fill="#1CB4A6"></path>
                    <g id="Group-6" transform="translate(68.123150, 174.011510) rotate(10.000000) translate(-68.123150, -174.011510) translate(46.897319, 156.437737)">
                        <g id="Group-5">
                            <path d="M10.2467806,18.1705735 C10.2467806,18.1705735 2.06583079,19.8057916 0.428440179,24.712946 C-1.20744961,29.6186003 3.70172058,36.1609729 13.5185601,34.5257548 C23.3369005,32.8905367 23.3369005,29.6186003 31.5178503,27.9833822 C39.6988001,26.3481641 44.6079702,21.4410096 41.3346898,18.1705735 C38.0629103,14.8986371 23.3369005,13.263419 10.2467806,18.1705735" id="Fill-66" fill="#2F8F93"></path>
                            <path d="M22.6124565,23.6059484 L19.5072675,24.0050016 C12.1472643,24.9516279 5.41310143,19.7549348 4.46608633,12.3979536 L3.86726062,7.74733328 C3.79822307,7.21626245 4.17492796,6.72869743 4.70621694,6.66118842 L34.7405532,2.7981732 L35.3033593,7.17425685 C36.3374217,15.2153293 30.6553311,22.5723105 22.6124565,23.6059484" id="Fill-68" fill="#14959A"></path>
                            <path d="M30.6676378,7.5982134 L33.5462035,6.97563036 C35.9219958,6.46406213 38.2842807,7.98676522 38.7975598,10.3600818 C39.310839,12.7348985 37.7875105,15.0977136 35.4117182,15.6092819 L32.5331525,16.2303647" id="Stroke-70" stroke="#14959A" stroke-width="2.04024744"></path>
                            <path d="M5.33911118,8.3570146 C5.33911118,8.3570146 2.06132834,6.7187961 8.61689403,3.44235912 C15.1724597,0.16592213 28.2835911,-1.47229636 33.1987646,1.80414062 C38.1169396,5.08057761 18.4502426,9.99523309 5.33911118,8.3570146" id="Fill-72" fill="#FBF4E7"></path>
                            <path d="M19.2640495,21.8609157 C14.0637209,22.5300049 10.3165762,22.7464473 7.5610774,18.6884061 C8.24845127,21.7773181 8.71931402,23.1525879 12.4578475,25.0218372 C19.0029075,28.2937736 30.4556368,23.3866191 32.0930274,20.116183 C32.8779544,18.5454735 33.486921,15.751314 33.306823,14.1506005 C31.0345871,17.5785577 26.7696319,20.896287 22.3692385,21.4618624 L19.2640495,21.8609157 Z" id="Fill-100" fill="#228387"></path>
                            <path d="M5.33911118,8.3570146 C5.33911118,8.3570146 2.06132834,6.7187961 8.61689403,3.44235912 C15.1724597,0.16592213 28.2835911,-1.47229636 33.1987646,1.80414062 C38.1169396,5.08057761 18.4502426,9.99523309 5.33911118,8.3570146 Z" id="Stroke-74" stroke="#14959A" stroke-width="2.4473988"></path>
                        </g>
                        <path d="M35.302759,7.17410683 L34.7399528,2.79802318 L33.8619753,2.91203839 C33.2571463,8.51828611 29.8803096,12.9378756 22.5188055,17.3529644 C16.6761276,20.8559316 10.0185064,19.3587319 6.67919008,18.2140793 C9.43468884,22.2706203 14.3093403,24.6739408 19.5066672,24.0048516 L22.6118561,23.6057984 C30.6562316,22.5721605 36.3368214,15.2151793 35.302759,7.17410683" id="Fill-98" fill="#148E92"></path>
                    </g>
                    <path d="M155.66722,49.6191178 C147.48627,23.4496275 134.396151,23.4496275 134.396151,23.4496275 C128.106229,42.3116432 100.672808,52.1049494 98.5446502,52.8400474 C100.324618,52.7110302 102.806969,52.251969 106.273854,51.2543359 C120.489587,47.1647905 131.942316,32.4463275 136.849985,30.8096092 C141.759155,29.1743911 148.304215,47.1647905 153.213386,52.071945 C155.051886,53.9096901 156.890386,55.7474352 158.472246,56.8980887 C157.609277,55.2178646 156.675769,52.844548 155.66722,49.6191178" id="Fill-76" fill-opacity="0.4" fill="#F6E1C5"></path>
                    <path d="M106.400373,81.0625615 C111.812317,87.3273971 119.789156,91.3254303 128.669486,91.3254303 C135.478689,91.3254303 141.7491,88.9641154 146.751321,85.0485932 C141.593015,86.4287773 134.323061,88.0549941 128.669486,88.0549941 C121.198422,88.0549941 110.904323,83.3263635 106.400373,81.0625615" id="Fill-78" fill-opacity="0.4" fill="#F6E1C5"></path>
                    <path d="M121.306631,61.0677448 L103.308842,61.0677448 C102.408352,61.0677448 101.671451,60.3311465 101.671451,59.4325267 L101.671451,52.8901541 C101.671451,51.9900341 102.408352,51.2534358 103.308842,51.2534358 L121.306631,51.2534358 C122.207121,51.2534358 122.942521,51.9900341 122.942521,52.8901541 L122.942521,59.4325267 C122.942521,60.3311465 122.207121,61.0677448 121.306631,61.0677448 Z" id="Stroke-80" stroke="#1AA498" stroke-width="1.6315992"></path>
                    <path d="M150.7588,61.0677448 L132.761011,61.0677448 C131.860521,61.0677448 131.123621,60.3311465 131.123621,59.4325267 L131.123621,52.8901541 C131.123621,51.9900341 131.860521,51.2534358 132.761011,51.2534358 L150.7588,51.2534358 C151.65929,51.2534358 152.39469,51.9900341 152.39469,52.8901541 L152.39469,59.4325267 C152.39469,60.3311465 151.65929,61.0677448 150.7588,61.0677448 Z" id="Stroke-82" stroke="#1AA498" stroke-width="1.6315992"></path>
                    <path d="M130.305676,63.6234856 L130.211124,63.0924148 C126.220454,64.9886677 126.21445,62.703863 126.21445,62.703863 L126.21445,53.1265856 C126.136408,53.1715916 126.056865,53.2165976 125.986326,53.2721051 L125.455037,54.1557229 C125.437028,54.2472351 125.396505,54.3282459 125.396505,54.4227585 L123.760616,63.6234856 C123.760616,64.4665981 124.497516,65.1566901 125.396505,65.1566901 L128.669786,65.1566901 C129.570276,65.1566901 130.305676,64.4665981 130.305676,63.6234856" id="Fill-84" fill="#E7D0AC"></path>
                    <path d="M121.306631,51.2541859 L103.308842,51.2541859 C102.408352,51.2541859 101.671451,51.9907842 101.671451,52.889404 L101.671451,59.4317766 C101.671451,59.75732 101.793017,60.0438582 101.958107,60.2988922 L122.657366,52.0237886 C122.364706,51.5722283 121.881444,51.2541859 121.306631,51.2541859" id="Fill-86" fill-opacity="0.4" fill="#FFECD1"></path>
                    <path d="M150.7588,51.2541859 L132.761011,51.2541859 C131.860521,51.2541859 131.123621,51.9907842 131.123621,52.889404 L131.123621,59.4317766 C131.123621,59.8518326 131.294714,60.2268826 131.557356,60.5179214 L151.765848,51.6337365 C151.485196,51.4102067 151.14451,51.2541859 150.7588,51.2541859" id="Fill-88" fill-opacity="0.4" fill="#FFECD1"></path>
                    <path d="M144.213891,95.4140756 C144.182373,95.3180628 144.125342,95.237052 144.075815,95.1530408 C143.528018,97.2113154 141.943155,100.174211 137.668831,103.591666 C129.487881,110.134039 116.397761,105.228385 114.761871,100.32123 C113.876389,97.6643758 114.908951,95.9736503 116.042067,94.9760172 C114.632801,95.0855318 113.415639,95.6016007 113.125981,97.0492937 C112.308036,99.5036211 111.571136,108.506322 127.851991,110.134039 C145.031835,109.31643 145.031835,97.8669028 144.213891,95.4140756" id="Fill-90" fill-opacity="0.4" fill="#F6E1C5"></path>
                    <path d="M162.35936,137.754523 C162.531954,138.009557 162.494434,137.598502 162.348855,136.855903 C162.347354,136.861904 162.344352,136.869405 162.342851,136.876906 C162.350355,137.169445 162.348855,137.457483 162.35936,137.754523" id="Fill-92" fill="#F6E1C5"></path>
                    <path d="M176.009585,127.820798 C171.336043,129.18748 165.583414,129.592534 162.595289,129.71105 C162.317638,131.860837 162.281618,134.300162 162.341651,136.821998 C162.343151,136.8325 162.346153,136.846002 162.347654,136.855003 C162.829416,135.192781 165.287753,132.214884 167.939695,132.214884 C171.211475,132.214884 177.756535,127.307729 177.756535,127.307729 C177.21474,127.54026 176.62642,127.703782 176.009585,127.820798" id="Fill-94" fill-opacity="0.4" fill="#F6E1C5"></path>
                    <path d="M175.757448,151.711184 C175.001036,152.741822 174.036011,153.925479 172.847365,155.112138 C169.575585,158.382574 141.759456,168.196883 138.487676,171.467319 C135.214396,174.739255 131.942616,173.102537 130.305225,173.102537 C129.005518,173.102537 126.676252,170.010625 125.77276,168.738455 C125.309008,171.518326 127.57374,174.055164 130.305225,174.739255 C136.850285,176.372973 138.913908,173.312565 143.396846,171.467319 C149.317567,169.029494 151.576295,168.196883 158.121355,164.924947 C164.666415,161.65451 166.039662,161.283961 172.847365,156.747356 C174.321166,155.766225 175.197643,154.033494 175.757448,151.711184" id="Fill-96" fill-opacity="0.4" fill="#F6E1C5"></path>
                </g>
                <g id="Group-13" transform="translate(26.110294, 16.741519)">
                    <path d="M63.0856994,3.11470113 L9.5462319,3.11470113 C6.86716551,3.11470113 4.67647059,5.17346196 4.67647059,7.6911822 L4.67647059,30.5604744 C4.67647059,33.0716381 6.86716551,35.1303989 9.5462319,35.1303989 L41.0113086,35.1303989 L47.1787427,40.9329573 L53.3531535,35.1303989 L63.0856994,35.1303989 C65.7647658,35.1303989 67.9554607,33.0716381 67.9554607,30.5604744 L67.9554607,7.6911822 C67.9554607,5.17346196 65.7647658,3.11470113 63.0856994,3.11470113 Z" id="Stroke-212" stroke-opacity="0.5" stroke="#4D5971" stroke-width="1.1664" fill-opacity="0.266898777" fill="#FFFFFF" stroke-linecap="round" stroke-linejoin="round"></path>
                    <rect id="Rectangle" fill-opacity="0.3" fill="#4D5971" x="0" y="0" width="65.0808824" height="31.5363489" rx="4.2768"></rect>
                    <rect id="Rectangle" fill="#4D5971" opacity="0.8" x="15.9779412" y="13.2374798" width="11.6911765" height="1.16801292" rx="0.5832"></rect>
                    <rect id="Rectangle-Copy-13" fill="#4D5971" opacity="0.8" x="30.7867647" y="13.2374798" width="26.1102941" height="1.16801292" rx="0.5832"></rect>
                    <rect id="Rectangle-Copy-9" fill="#4D5971" opacity="0.8" x="15.9779412" y="18.2988691" width="40.9191176" height="1.16801292" rx="0.5832"></rect>
                    <rect id="Rectangle-Copy-10" fill="#4D5971" opacity="0.8" x="15.9779412" y="23.3602585" width="40.9191176" height="1.16801292" rx="0.5832"></rect>
                </g>
                <g id="Group-14" transform="translate(167.963235, 77.088853)">
                    <path d="M14.6148795,23.8888692 L17.8731488,20.6354326 L18.034026,20.6354326 L40.5357529,20.6354326 C41.8241228,20.6354326 42.8685529,19.5910025 42.8685529,18.3026326 L42.8685529,4.66828821 C42.8685529,3.37991834 41.8241228,2.33548821 40.5357529,2.33548821 L2.7216,2.33548821 C1.43323014,2.33548821 0.3888,3.37991834 0.3888,4.66828821 L0.3888,18.3026326 C0.3888,19.5910025 1.43323014,20.6354326 2.7216,20.6354326 L10.2572895,20.6354326 L10.3711313,20.7491056 L13.5156329,23.8889433 C13.819245,24.1922685 14.3111933,24.1922685 14.6148795,23.8888692 Z" id="Combined-Shape" stroke-opacity="0.547526042" stroke="#4D5971" stroke-width="0.7776" fill-opacity="0.299196105" fill="#FFFFFF"></path>
                    <rect id="Rectangle" fill-opacity="0.365800498" fill="#4D5971" x="3.11764706" y="0" width="43.2573529" height="17.9095315" rx="1.5552"></rect>
                    <rect id="Rectangle" fill="#4D5971" opacity="0.571335565" x="8.18382353" y="6.6187399" width="31.1764706" height="1"></rect>
                    <rect id="Rectangle-Copy-21" fill="#4D5971" opacity="0.571335565" x="8.18382353" y="10.5121163" width="31.1764706" height="1"></rect>
                </g>
                <ellipse id="Oval" stroke-opacity="0.600883152" stroke="#4D5971" stroke-width="1.1664" cx="56.3125" cy="91.6890145" rx="4.09191176" ry="4.08804523"></ellipse>
                <ellipse id="Oval-Copy-4" stroke-opacity="0.600883152" stroke="#FFFFFF" stroke-width="1.1664" cx="220.183824" cy="111.350565" rx="3.11764706" ry="3.11470113"></ellipse>
                <ellipse id="Oval-Copy-5" stroke-opacity="0.600883152" stroke="#4D5971" stroke-width="1.1664" cx="186.279412" cy="5.06138934" rx="5.06617647" ry="5.06138934"></ellipse>
            </g>
        </g>
    </g>
</svg>