<?xml version="1.0" encoding="utf-8"?>
<!-- Generator: Adobe Illustrator 23.0.1, SVG Export Plug-In . SVG Version: 6.00 Build 0)  -->
<svg version="1.1" id="Layer_1" xmlns="http://www.w3.org/2000/svg" xmlns:xlink="http://www.w3.org/1999/xlink" x="0px" y="0px"
	 viewBox="0 0 900.05 185.1" enable-background="new 0 0 900.05 185.1" xml:space="preserve">
<g>
	<path fill="#1F3F6F" d="M521.248,67.238c-2.215,0.356-4.138,1.392-5.713,3.08c-0.042,0.046-4.151,5.085-3.59,7.617l0.373,1.614
		l5.336,2.16l-1.658,1.375c-3.467,2.877-6.689,5.551-9.915,8.221c-3.153,2.609-6.315,5.207-9.479,7.804
		c-7.119,5.844-14.48,11.888-21.604,17.992c-4.064,3.483-8.027,7.17-11.859,10.736c-2.892,2.69-5.881,5.472-8.871,8.124
		c-6.042,5.361-13.458,11.161-22.648,13.539c-1.89,0.489-3.963,0.148-5.544-0.91c-1.35-0.905-2.212-2.249-2.424-3.785
		c-0.733-5.302,0.053-8.594,2.713-11.365c13.194-13.741,25.011-26.377,36.125-38.628c7.518-8.287,16.875-18.601,20.212-32.172
		c1.207-4.905,1.243-10.148,0.1-14.383c-1.364-5.056-4.125-7.196-6.2-8.1c-2.128-0.929-5.684-1.496-10.535,1.06
		c-3.936,2.075-7.338,4.947-10.483,7.71c-15.838,13.908-25.472,32.181-34.787,49.853c-0.759,1.44-1.519,2.88-2.281,4.318
		c-2.332,4.395-4.576,6.819-8.005,8.645c-5.878,3.131-11.513,6.797-16.728,10.291c-5.114,3.427-10.267,6.965-15.251,10.387
		c-6.581,4.519-13.387,9.192-20.157,13.643c-5.088,3.345-10.32,4.791-15.545,4.301c-2.712-0.255-5.508-1.333-7.584-7.441
		c-0.914-2.687-0.587-3.996,3.148-6.45c7.995-5.256,15.15-10.06,21.764-15.643c6.713-5.667,14.321-12.089,16.781-22.267
		c0.743-3.076,0.541-6.312-0.543-8.656c-2.077-4.49-4.852-7.225-8.247-8.129c-3.59-0.957-7.512,0.127-11.999,3.31
		c-5.164,3.663-10.264,7.934-15.159,12.695l-0.734,0.714c-7.561,7.344-15.378,14.937-18.459,26.041
		c-1.41,5.083-4.439,8.73-9.82,11.823c-4.032,2.318-8.088,5.061-9.504,10.805h-4.783c-1.067,0-1.955-0.066-2.739-0.125
		c-1.723-0.129-3.35-0.252-4.815,0.768c-2.831,1.967-5.596,4.071-8.27,6.106c-1.881,1.432-3.826,2.911-5.755,4.314
		c-1.374,0.997-2.828,1.912-4.358,2.857c-0.651-2.907,0.329-5.448,1.492-8.468l0.171-0.443c1.165-3.041,2.602-6.097,3.992-9.053
		c1.438-3.062,2.926-6.227,4.174-9.483c2.407-6.286,5.109-13.73,6.891-21.285c1.101-4.666-0.4-9.427-4.014-12.734
		c-3.804-3.482-9.191-4.638-14.06-3.026c-2.116,0.702-4.009,1.734-5.84,2.733l-0.218,0.119
		c-12.319,6.712-23.644,15.585-34.622,27.126c-0.72,0.757-1.46,1.491-2.218,2.213c3.236-9.064,6.872-17.758,10.424-26.249
		c1.624-3.881,3.26-7.757,4.897-11.633c4.12-9.759,8.38-19.852,12.359-29.879c1.324-3.335,4.84-12.194-4.377-17.614l-1.716-0.932
		l-1.607,1.051c-0.106,0.07-0.234,0.13-0.361,0.197c-0.788,0.414-2.107,1.106-2.718,2.603c-2.853,6.97-5.673,13.955-8.493,20.94
		c-13.434,33.275-27.327,67.681-44.63,99.832c-0.731,1.357-0.513,2.714-0.353,3.705c0.041,0.256,0.09,0.528,0.106,0.807l0.099,1.718
		l12.196,6.624l1.632-1.799c0.544-0.599,1.085-1.162,1.611-1.712c1.157-1.206,2.352-2.453,3.379-3.863
		c11.955-16.416,23.779-30.221,36.15-42.202c5.632-5.454,12.366-10.141,18.879-14.674c1.016-0.707,2.03-1.413,3.042-2.122
		c0.881-0.619,2.226-0.978,3.804-1.333c-1.489,9.112-5.371,16.772-9.141,24.213c-0.472,0.931-0.942,1.86-1.407,2.789
		c-4.653,9.297-6.948,16.568-7.677,24.314c-0.691,7.338,3.864,10.117,7.524,12.351c3.655,2.23,9.776,5.959,15.754,0.801
		c5.968-5.149,11.524-10.677,16.704-15.9c1.567-1.578,2.806-3.357,4.242-5.417c0.721-1.035,1.467-2.105,2.353-3.298l1.987-2.676
		l1.596,1.065c5.617,3.744,10.141,1.088,13.135-0.668c0.477-0.28,0.944-0.554,1.4-0.8c0.08,0.139,0.158,0.277,0.232,0.415
		c8.573,15.874,21.859,20.871,38.423,14.454c9.102-3.527,16.503-9.471,23.66-15.219c2.204-1.77,4.482-3.599,6.752-5.308
		c6.057-4.558,12.039-9.197,18.372-14.109c1.347-1.045,2.71-2.102,4.094-3.174c-0.26,3.584-1.202,6.691-2.911,9.789
		c-2.374,4.301-2.344,8.293,0.092,12.202c0.576,0.924,1.071,1.973,1.594,3.082c0.766,1.623,1.557,3.301,2.724,4.862
		c8.374,11.219,19.961,13.84,30.995,7.012c2.84-1.758,6.131-3.907,9.005-6.522c3.357-3.051,6.677-6.227,9.889-9.298
		c3.666-3.506,7.457-7.132,11.281-10.551c9.818-8.775,19.935-17.561,29.72-26.058l6.699-5.818c1.949-1.696,3.986-3.386,5.956-5.021
		c3.362-2.79,6.838-5.675,10.097-8.756c3.499-3.309,5.109-3.206,5.521-3.088c0.381,0.104,1.722,0.768,2.939,4.957
		c0.602,2.074,0.469,5.025-0.339,7.519c-3.768,11.627-11.962,20.664-19.481,27.972c-9.009,8.757-18.962,17.832-30.694,24.884
		c-1.353,0.814-2.645,1.684-3.894,2.527c-4.338,2.926-8.085,5.45-13.146,4.993c-2.978-0.272-4.872,0.824-5.931,1.792
		c-1.096,1.001-2.401,2.873-2.399,6.101c0.003,4.615,2.703,7.801,7.219,8.524c1.007,0.161,2.009,0.242,3.004,0.242
		c4.308,0,8.488-1.508,12.464-4.503c0.83-0.625,1.655-1.26,2.481-1.894c2.873-2.207,5.586-4.293,8.512-6.028
		c17.246-10.229,32.743-24.235,48.772-44.077c4.637-5.74,7.983-13.192,9.182-20.444c1.408-8.524-0.088-16.254-4.328-22.357
		C540.398,71.724,530.614,65.736,521.248,67.238z M436.646,100.501c7.452-15.064,17.719-28.932,30.519-41.219
		c0.633-0.607,1.488-1.127,2.532-1.672c-1.536,7.751-5.239,13.932-9.511,20.462c-5.618,8.587-12.793,15.591-20.389,23.006
		c-1.704,1.664-3.408,3.326-5.093,5.009c-0.526,0.525-1.031,1.067-1.519,1.62C434.318,105.296,435.472,102.875,436.646,100.501z
		 M363.151,96.751c-5.079,11.549-14.632,18.633-24.645,25.28C345.244,112.175,351.555,101.934,363.151,96.751z"/>
	<path fill="#1F3F6F" d="M894.023,87.386c-0.232-3.245-3.362-8.56-7.212-9.254c-3.728-0.661-8.24,2.76-10.059,5.496
		c-3.161,4.753-7.673,7.543-13.929,10.506c-4.506,2.133-9.148,4.219-13.638,6.235c-8.164,3.667-16.605,7.46-24.675,11.737
		c-9.474,5.021-20.075,8.136-32.41,9.522c-7.207,0.815-14.416-1.136-22.041-5.956c-6.154-3.891-9.856-9.715-12.94-15.43
		c-3.881-7.195-9.594-10.534-15.642-14.068l-2.911-1.707l-1.677,1.454c-0.849,0.736-1.681,1.443-2.495,2.134
		c-1.778,1.51-3.458,2.937-5.1,4.48c-8.486,7.978-19.866,18.265-32.664,27.057c-2.47,1.696-4.41,2.516-7.058,1.873
		c0.039-0.777,0.06-1.551,0.08-2.313c0.076-2.851,0.155-5.799,1.23-7.421c7.015-10.583,14.744-21.64,25.246-30.292
		c2.204-1.815,4.093-2.055,6.319-0.8c0.318,0.179,0.639,0.385,0.964,0.591c1.891,1.2,6.324,4.012,9.949-0.687
		c3.189-4.137,2.348-8.878-2.253-12.684c-0.499-0.412-0.996-1.054-1.4-1.806c-1.823-3.397-4.25-4.666-5.964-5.131
		c-2.551-0.692-5.346-0.171-8.09,1.505c-4.514,2.757-9.693,6.161-13.879,10.5c-3.474,3.603-6.637,7.521-9.697,11.311
		c-2.213,2.741-4.503,5.575-6.856,8.219l-0.224,0.252c-3.244,3.646-6.598,7.415-10.441,9.887
		c-8.574,5.518-17.434,10.941-26.001,16.186c-7.108,4.351-14.457,8.85-21.626,13.391c-6.356,4.025-13.045,5.178-20.449,3.527
		c-4.875-1.089-8.745-4.38-9.63-8.189c-0.261-1.121,0.551-1.86,4.133-3.769c1.038-0.552,2.111-1.124,3.078-1.784
		c4.239-2.892,8.496-5.759,12.752-8.626c7.793-5.25,15.849-10.678,23.679-16.18c2.337-1.642,4.188-3.83,5.822-5.761
		c0.701-0.828,1.362-1.61,2.025-2.313l1.825-1.935l-1.64-2.094c-8.906-11.369-13.278-12.717-25.993-7.998
		c-11.728,4.354-21.082,10.16-28.596,17.751l-1.156,1.164c-6.255,6.287-12.722,12.787-14.585,22.786
		c-0.175,0.626-1.548,1.95-2.457,2.223c-3.456,1.035-7.401,1.673-12.06,1.949c-5.535,0.327-8.241,2.514-8.043,6.499
		c0.153,3.084,3.983,6.888,7.19,7.14c4.23,0.332,8.493,0.209,13.006,0.079c1.234-0.035,2.5-0.072,3.805-0.101
		c0.348,0.565,0.768,1.218,1.227,1.855c7.322,10.177,18.529,15.608,29.867,15.607c7.028-0.001,14.11-2.088,20.345-6.427
		c4.842-3.369,9.434-7.154,13.874-10.815c3.569-2.942,7.259-5.983,11.004-8.742c4.218-3.106,8.694-5.872,13.434-8.8
		c0.607-0.375,1.221-0.754,1.839-1.137c-0.581,5.034-0.338,12.197,7.953,16.923c9.352,5.331,17.914,4.822,26.177-1.551
		c3.468-2.674,6.782-5.586,9.988-8.403c0.953-0.837,1.905-1.673,2.861-2.504c4.98-4.326,9.94-8.672,15-13.104l4.534-3.97
		c0.796,0.55,1.779,1.23,1.988,1.634c2.777,5.371,6.592,9.517,11.666,12.674c0.574,0.357,1.223,1.264,1.849,2.141
		c0.254,0.354,0.506,0.706,0.763,1.042c5.401,7.085,12.434,11.771,20.905,13.927c16.58,4.223,33.115,1.958,50.547-6.921
		c7.347-3.743,14.981-7.461,22.69-11.049c9.607-4.471,19.42-8.935,28.91-13.252c3.385-1.54,6.77-3.08,10.129-4.613
		c0.156-0.06,0.343-0.098,0.523-0.144c0.989-0.25,2.829-0.716,3.503-2.612c0.242-0.68,0.513-1.367,0.785-2.058
		C893.053,93.565,894.247,90.531,894.023,87.386z M629.901,89.197c-3.96,6.775-20.056,18.073-32.415,22.313
		C605.175,99.844,615.835,92.515,629.901,89.197z"/>
	<path fill="#1F3F6F" d="M194.691,131.121l-1.935-2.444c-1.356-1.715-5.481-6.932-11.334-3.135
		c-0.857,0.556-1.732,1.092-2.606,1.631c-2.432,1.495-4.947,3.041-7.197,5.015c-8.572,7.524-18.746,14.415-32.019,21.689
		c-13.62,7.463-27.608,7.95-42.768,1.488c-6.92-2.95-11.4-8.508-13.693-16.991c-1.271-4.703-0.008-5.91,4.434-7.15
		c24.285-6.777,45.852-19.021,64.104-36.391c3.227-3.072,6.089-6.251,8.505-9.449l0.16-0.212c2.291-3.025,6.124-8.09,1.878-13.802
		c-0.537-0.722-1.067-1.516-1.627-2.357c-2.694-4.043-6.387-9.569-13.629-8.744c-8.038,0.926-15.788,2.059-22.25,5.714
		c-20.091,11.368-37.233,28.31-50.953,50.355l-0.303,0.49c-1.57,2.543-2.35,3.677-4.371,3.905c-2.693,0.305-5.369,0.802-7.958,1.282
		c-4.276,0.793-8.308,1.532-12.297,1.466c-9.418-0.185-19.056-1.428-28.377-2.63l-2.639-0.339c-5.039-0.649-8.23,1.125-10.68,5.919
		L6,128.654l1.936,1.579c0.43,0.351,0.879,0.781,1.355,1.236c1.253,1.199,2.674,2.558,4.59,3.276
		c8.59,3.219,17.789,4.335,27.344,3.328c5.104-0.541,9.24-0.959,13.014-1.315c3.135-0.296,6.271-0.567,9.517-0.847l1.57-0.137
		c0.044,0.464,0.085,0.928,0.125,1.386c0.288,3.292,0.588,6.695,2.062,9.737c5.133,10.583,13.084,18.447,22.994,22.74
		c8.87,3.842,17.745,5.757,26.452,5.757c11.359,0,22.428-3.262,32.798-9.758c10.359-6.487,19.638-14.082,29.461-22.124
		c4.222-3.456,8.587-7.029,13.013-10.477L194.691,131.121z M93.168,114.796c1.631-2.346,3.228-4.576,5.011-6.661
		c9.834-11.494,18.237-19.063,27.246-24.54c4.74-2.881,10.525-4.616,16.12-6.293l1.837-0.552c0.582-0.176,1.122-0.265,1.623-0.265
		c1.222,0,2.219,0.53,3.065,1.627C139.467,89.158,125.221,102.799,93.168,114.796z"/>
	<path fill="#1F3F6F" d="M805.992,69.33c1.995,0.278,4.117,0.488,6.271,0.487c6.184,0,12.634-1.727,17.089-8.537l1.01-1.543
		l-0.877-1.621c-4.45-8.228-10.39-10.774-17.649-7.564c-2.684,1.185-4.239,0.046-7.4-3.051c-0.698-0.684-0.848-1.077,0.947-4.14
		c0.189-0.323,0.376-0.643,0.553-0.959c1.658-2.957,3.408-5.944,5.101-8.832c1.944-3.318,3.955-6.748,5.856-10.186
		c1.297-2.345,2.349-4.712,3.463-7.218c0.488-1.097,0.982-2.211,1.507-3.339l1.093-2.351L811.756,2.64l-1.828,2.055
		c-0.579,0.651-1.204,1.278-1.808,1.885c-1.409,1.417-2.866,2.882-3.874,4.751l-0.164,0.303
		c-5.294,9.814-10.767,19.961-15.547,30.276c-1.725,3.723-2.758,9.295-1.175,13.35C790.326,62.859,797.292,68.118,805.992,69.33z"/>
	<path fill="#1F3F6F" d="M770.993,39.298c0.073,0.002,0.147,0.003,0.221,0.003c4.95,0,10.62-4.224,10.938-10.034l0.08-1.472
		l-1.093-0.99c-0.545-0.494-1.155-1.117-1.802-1.778c-1.784-1.822-4.003-4.09-6.777-5.565c-1.76-0.935-3.895-0.845-6.013,0.253
		c-2.603,1.35-5.465,4.499-5.895,7.907c-0.339,2.693,0.585,5.541,2.537,7.813C765.235,37.815,768.08,39.223,770.993,39.298z"/>
	<path fill="#1F3F6F" d="M842.373,35.624c0.239,0,0.479-0.009,0.719-0.028c3.028-0.236,5.964-1.77,7.856-4.101
		c1.481-1.824,2.149-3.951,1.885-5.988c-0.697-5.355-6.33-9.87-12.105-9.67c-5.332,0.189-8.443,3.403-8.324,8.599
		c0.08,3.481,1.448,6.672,3.753,8.755C837.908,34.773,840.092,35.624,842.373,35.624z"/>
</g>
</svg>
