<?xml version="1.0" encoding="UTF-8"?>
<svg width="1366px" height="750px" viewBox="0 0 1366 750" version="1.1" xmlns="http://www.w3.org/2000/svg" xmlns:xlink="http://www.w3.org/1999/xlink">
    <!-- Generator: Sketch 52.6 (67491) - http://www.bohemiancoding.com/sketch -->
    <title>Group</title>
    <desc>Created with Sketch.</desc>
    <g id="Website" stroke="none" stroke-width="1" fill="none" fill-rule="evenodd">
        <g id="Home-Copy-3" transform="translate(0.000000, -60.000000)">
            <g id="Group" transform="translate(0.000000, 60.000000)">
                <rect id="Rectangle" fill="#FFFFFF" x="0" y="0" width="1366" height="750"></rect>
                <g id="Group-141" transform="translate(483.000000, 196.000000)">
                    <path d="M52.4293731,468.312638 C52.4293731,468.312638 -74.5399495,338.741842 66.6982118,222.89524 C207.937094,107.047917 369.524524,253.702272 410.133008,193.584541 C450.740771,133.466089 436.555502,30.0577129 584.231427,4.92334731 C742.739018,-22.0545989 855.412846,154.201509 779.238889,227.148659 C703.065653,300.09581 712.587577,357.222315 728.456491,381.821401 C744.326846,406.421928 745.926922,456.722358 709.427051,468.312638 L52.4293731,468.312638 Z" id="Fill-1" fill="#EEEEEE"></path>
                    <path d="M471.851174,468.496275 C473.506002,456.191329 474.469938,438.114297 476.424465,439.678351 C478.572787,441.396576 475.912959,457.860566 476.600249,468.496275 L554.691991,468.496275 C551.148916,428.034039 540.311486,410.324426 540.311486,410.324426 L432.106486,403.993286 C411.262282,426.291318 410.015217,458.793523 410.140572,468.496275 L471.851174,468.496275 Z" id="Fill-3" fill="#295A92"></path>
                    <path d="M498.662629,203.539804 C498.662629,203.539804 499.111457,225.690869 495.135403,223.987052 C491.16007,222.283234 478.466812,218.284847 480.170629,222.735665 C481.874446,227.185041 484.936995,248.978052 510.768016,254.090224 C536.598317,259.202396 541.710489,227.149019 541.710489,227.149019 C541.710489,227.149019 545.197371,220.406514 525.298371,223.115331 C525.298371,223.115331 521.446952,225.939417 523.070081,203.539804 C524.69393,181.140191 498.662629,203.539804 498.662629,203.539804" id="Fill-5" fill="#DCC1AC"></path>
                    <path d="M271.597684,468.496275 C275.562931,461.283329 280.487071,457.476576 280.487071,457.476576 C282.559028,460.136404 283.203813,464.340834 283.220383,468.496275 L354.768458,468.496275 C347.930135,385.481114 322.132974,401.304641 322.132974,401.304641 L226.816469,405.890178 C205.74677,429.057049 196.741394,455.332576 193.308544,468.496275 L271.597684,468.496275 Z" id="Fill-7" fill="#DB8B34"></path>
                    <path d="M288.019168,179.32867 C288.019168,179.32867 309.141458,160.402251 311.55634,148.24139 C313.970501,136.08053 322.486705,87.7720892 271.852716,72.3131 C221.218006,56.8541108 223.795705,69.7368419 224.439049,72.3131 C224.439049,72.3131 207.692652,66.5157989 190.945533,87.7720892 C174.198415,109.027659 172.910286,115.206788 171.622157,143.678906 C170.334028,172.150304 176.774673,180.377616 140.704899,227.148659 C104.634404,273.920423 167.757049,291.310885 167.757049,291.310885 L311.55634,258.112025 C311.55634,258.112025 291.052899,235.272949 288.019168,213.373315 C284.985437,191.473681 288.019168,179.32867 288.019168,179.32867" id="Fill-9" fill="#C9651B"></path>
                    <path d="M242.906411,201.970852 C242.906411,201.970852 246.665615,219.167518 244.350873,220.490228 C242.036131,221.812938 223.847432,227.435174 212.602959,229.749916 C201.359927,232.063938 212.724712,255.526905 239.920948,257.509529 C267.117185,259.492153 298.179249,256.848895 304.12712,245.613787 C310.074271,234.37868 317.344131,225.126916 304.12712,223.804927 C290.909389,222.483658 271.638604,223.804927 267.064594,224.466282 C262.492024,225.126916 268.656744,199.40612 271.852572,196.735486 C275.04768,194.065572 242.906411,201.970852 242.906411,201.970852" id="Fill-11" fill="#F1E5D5"></path>
                    <path d="M263.698312,109.192998 C263.698312,109.192998 287.885312,110.160535 293.206409,133.379998 C298.527505,156.600181 300.945989,196.750471 270.954484,208.360202 C240.962258,219.969933 220.16128,182.722256 219.677151,178.851385 C219.677151,178.851385 213.872645,194.815396 203.71386,179.335514 C193.555796,163.855632 206.133065,157.083589 212.421699,164.82389 C212.421699,164.82389 213.872645,108.709589 263.698312,109.192998" id="Fill-13" fill="#FDF3E4"></path>
                    <path d="M266.456911,148.241174 C266.456911,150.330422 269.143395,164.06326 271.53162,170.033465 C271.53162,170.033465 274.517083,173.616163 262.277696,173.616163" id="Stroke-15" stroke="#EA9D58" stroke-width="1.8"></path>
                    <path d="M253.023411,187.347705 C253.023411,187.347705 254.8144,190.930404 269.143755,187.347705" id="Stroke-17" stroke="#EA9D58" stroke-width="1.8"></path>
                    <path d="M276.009598,137.494518 C276.009598,137.494518 282.278781,136.300045 284.965265,137.494518" id="Stroke-19" stroke="#EA9D58" stroke-width="1.8"></path>
                    <path d="M248.177366,179.287894 C248.177366,179.287894 231.231409,179.287894 230.633452,163.465808 C230.036935,147.643722 244.962806,140.181506 253.023699,145.256216 C258.701409,148.831711 262.601097,154.925109 263.262452,160.928453 C263.540538,163.446356 263.248043,165.94841 262.277624,168.242259 C258.993903,176.003453 252.126043,179.770582 248.177366,179.287894 Z" id="Stroke-21" stroke="#EA9D58" stroke-width="1.8"></path>
                    <path d="M271.852356,158.092191 C271.852356,158.092191 272.726238,143.594256 284.964904,143.678546 C297.204291,143.762837 300.189754,160.182159 293.921291,169.735062 C287.652109,179.287966 271.874689,176.600761 271.852356,158.092191 Z" id="Stroke-23" stroke="#EA9D58" stroke-width="1.8"></path>
                    <path d="M241.754731,160.926796 C241.754731,160.926796 237.628828,158.529204 241.754731,154.403301 C245.880634,150.278118 248.505161,161.075204 241.754731,160.926796" id="Fill-25" fill="#EA9D58"></path>
                    <path d="M282.362639,157.195832 C282.362639,157.195832 280.336069,154.383273 283.297757,152.044037 C286.260166,149.70552 288.755015,153.447434 287.819176,156.409843 C286.884058,159.372252 284.077262,159.385219 282.362639,157.195832" id="Fill-27" fill="#EA9D58"></path>
                    <path d="M212.603319,229.749628 C212.603319,229.749628 223.891018,252.184542 259.926932,247.953456 C295.964287,243.72237 299.490072,221.508628 299.490072,221.508628 C299.490072,221.508628 297.022599,218.334413 322.056825,223.623811 C347.091771,228.912488 370.010094,249.011047 376.004792,263.820209 C381.998771,278.62937 354.848642,341.39252 348.502373,352.323606 C342.154663,363.253972 345.328158,406.270854 337.218997,412.617843 C329.109115,418.964832 314.005298,442.941467 212.603319,428.484596 C212.603319,428.484596 202.877513,418.964832 198.646427,379.825305 C198.646427,379.825305 159.354889,379.838273 147.083083,330.753209 C134.811997,281.668144 167.098072,232.759585 212.603319,229.749628" id="Fill-29" fill="#F39F32"></path>
                    <path d="M261.083223,354.982066 C261.083223,354.982066 252.72047,357.087883 253.023051,326.804603 C253.325631,296.521324 253.015126,268.478582 253.015126,268.478582 C253.015126,268.478582 250.681653,257.347937 274.580481,257.209614 C298.478588,257.071291 372.442266,257.209614 372.442266,257.209614 C372.442266,257.209614 389.259986,253.268861 389.259986,268.003098 C389.259986,282.737334 386.408524,341.67356 386.408524,341.67356 C386.408524,341.67356 386.883287,352.193281 372.149771,355.013044 C357.415534,357.833528 261.083223,354.982066 261.083223,354.982066" id="Fill-31" fill="#71706C"></path>
                    <path d="M245.904913,354.89972 C245.904913,354.89972 256.598977,353.948032 260.661483,350.469796 C264.723988,346.990839 261.990676,342.767677 267.208031,334.568462 C272.426106,326.369247 273.668128,333.326441 270.686268,343.512602 C267.705848,353.699484 283.110085,342.022032 292.054225,338.543796 C300.998365,335.065559 300.501268,342.767677 293.047698,348.233581 C293.047698,348.233581 296.65273,345.25172 298.700913,348.730677 C300.749816,352.208914 296.525934,352.954559 296.525934,352.954559 C296.525934,352.954559 301.992558,351.131151 302.488934,354.89972 C302.985311,358.66829 300.004171,357.922645 300.004171,357.922645 C300.004171,357.922645 305.085365,358.916839 302.544408,361.898699 C300.004171,364.879839 297.767956,366.12186 294.289719,366.370409 C290.811483,366.618957 288.575268,373.326882 275.904343,370.345742 C263.233418,367.364602 252.053063,372.581957 252.053063,372.581957 L245.904913,354.89972 Z" id="Fill-33" fill="#FDF3E4"></path>
                    <path d="M175.694676,155.028274 C175.694676,155.028274 180.144773,180.099962 161.901322,187.347489 C143.659311,194.595737 132.392504,207.49936 129.57202,218.177575" id="Stroke-35" stroke="#B55921" stroke-width="1.8"></path>
                    <path d="M182.369173,118.956051 C182.369173,118.956051 173.025195,106.942158 160.566797,116.731362 C148.108399,126.519846 165.230141,127.331771 165.016173,120.736233 C164.802205,114.139255 141.648302,128.029868 141.648302,128.029868" id="Stroke-37" stroke="#B55921" stroke-width="1.8"></path>
                    <path d="M259.927292,75.3517301 C259.927292,75.3517301 264.644669,62.8933323 276.009454,62.4488269 C287.374959,62.0036011 281.928508,73.8899774 276.009454,68.9002785 C270.0904,63.9098591 280.255669,56.2192677 290.489378,60.2241387" id="Stroke-39" stroke="#B55921" stroke-width="1.8"></path>
                    <path d="M223.779856,199.437387 C223.779856,199.437387 227.80634,216.592269 214.151308,222.895312" id="Stroke-41" stroke="#B55921" stroke-width="1.8"></path>
                    <path d="M218.003015,199.437387 C218.003015,199.437387 219.428026,215.192473 208.298822,222.895312" id="Stroke-43" stroke="#B55921" stroke-width="1.8"></path>
                    <path d="M210.650305,201.01268 C210.650305,201.01268 212.050822,218.0984 201.8978,227.148443" id="Stroke-45" stroke="#B55921" stroke-width="1.8"></path>
                    <path d="M299.008537,120.456706 C299.008537,120.456706 306.427526,137.038126 296.999977,151.293997" id="Stroke-47" stroke="#B55921" stroke-width="1.8"></path>
                    <path d="M317.015759,311.730252 C317.015759,311.730252 311.786877,301.749413 317.015759,294.144553 C322.24392,286.539692 331.749275,290.817606 328.422329,298.897951 C325.095383,306.976854 332.179372,304.125391 329.112501,311.730252 C326.04563,319.335112 317.015759,311.730252 317.015759,311.730252" id="Fill-49" fill="#FDF3E4"></path>
                    <path d="M480.642727,138.346499 C480.642727,138.346499 480.642727,160.4248 478.300609,172.801789 C475.959211,185.179499 476.29349,203.577843 495.026834,209.933477 C513.760178,216.289112 534.83492,207.59208 544.536232,186.851617 C544.536232,186.851617 545.204791,192.873692 550.222587,187.185897 C555.240383,181.498822 561.931017,172.13251 556.912501,170.125391 C551.894705,168.118273 547.881189,172.466789 546.87763,170.460391 C545.874071,168.453273 548.215469,159.086241 552.563985,152.061327 C556.912501,145.036413 567.618092,131.655865 545.874071,125.63451 C524.130049,119.613155 515.432297,103.890488 480.642727,138.346499" id="Fill-51" fill="#EBCEB6"></path>
                    <path d="M579.994505,113.257376 C569.958914,91.5133548 548.215613,91.8476344 539.183581,92.851914 C530.150828,93.8547527 520.784516,94.5240323 509.745366,87.4991183 C498.706215,80.4742043 461.909527,81.8127634 461.909527,116.791086 C461.909527,151.769409 493.35414,149.384785 506.735409,145.036269 C520.115957,140.687753 525.802312,125.300086 538.849301,130.652882 C551.894849,136.004957 546.877054,152.396183 546.877054,152.396183 C543.197817,158.751817 542.862817,161.428215 546.877054,170.460247 C547.881333,172.467366 551.894849,168.118129 556.912645,170.125968 C561.537806,171.976032 556.21743,180.075108 551.42657,185.785237 C551.994269,186.940086 552.76729,188.058194 553.901968,189.192871 C558.919763,194.210667 565.944677,168.787409 572.969591,156.07614 C579.994505,143.364151 590.030817,135.001398 579.994505,113.257376" id="Fill-53" fill="#2B5CA9"></path>
                    <path d="M520.87493,148.629486 C520.87493,148.629486 531.964511,147.79811 533.904629,148.629486 C535.844747,149.460862 537.230855,151.124335 533.904629,151.401701 C530.577683,151.678346 512.558285,153.341819 520.87493,148.629486" id="Fill-55" fill="#2B5CA9"></path>
                    <path d="M475.999987,166.882952 C476.130385,164.744715 474.025288,155.559952 475.688761,154.727855 C477.352234,153.896478 484.526998,154.137823 487.022568,154.137823 C489.517417,154.137823 499.8066,152.233005 500.360611,157.50079 C500.915342,162.767134 501.746718,168.866296 497.311751,169.975038 C492.876062,171.08378 475.727665,171.371231 475.999987,166.882952" id="Fill-57" fill="#EBCEB6"></path>
                    <path d="M475.999987,166.882952 C476.130385,164.744715 474.025288,155.559952 475.688761,154.727855 C477.352234,153.896478 484.526998,154.137823 487.022568,154.137823 C489.517417,154.137823 499.8066,152.233005 500.360611,157.50079 C500.915342,162.767134 501.746718,168.866296 497.311751,169.975038 C492.876062,171.08378 475.727665,171.371231 475.999987,166.882952 Z" id="Stroke-59" stroke="#2B5CA9" stroke-width="1.8"></path>
                    <path d="M512.281135,164.383275 C512.281135,164.383275 511.726404,157.777652 513.667963,156.946275 C515.608082,156.114178 531.687361,155.560168 534.18149,156.946275 C536.67634,158.332383 538.893824,157.682555 538.339813,164.383275 C537.785082,171.083996 536.122329,169.61648 529.468437,170.349877 C522.815985,171.083996 510.895028,171.820275 512.281135,164.383275" id="Fill-61" fill="#EBCEB6"></path>
                    <path d="M512.281135,164.383275 C512.281135,164.383275 511.726404,157.777652 513.667963,156.946275 C515.608082,156.114178 531.687361,155.560168 534.18149,156.946275 C536.67634,158.332383 538.893824,157.682555 538.339813,164.383275 C537.785082,171.083996 536.122329,169.61648 529.468437,170.349877 C522.815985,171.083996 510.895028,171.820275 512.281135,164.383275 Z" id="Stroke-63" stroke="#2B5CA9" stroke-width="1.8"></path>
                    <path d="M500.779541,162.243814 C500.779541,162.243814 508.565949,160.922545 512.208444,162.243814" id="Stroke-65" stroke="#2B5CA9" stroke-width="2"></path>
                    <path d="M504.129829,158.191395 C504.129829,158.191395 503.390668,168.51804 500.810087,173.312502 C498.228786,178.106965 497.121485,181.241556 502.469238,181.610416 C507.817711,181.979276 513.534324,181.610416 513.534324,181.610416" id="Stroke-67" stroke="#2B5CA9" stroke-width="1.8"></path>
                    <path d="M501.547808,194.886862 C501.547808,194.886862 507.63256,194.518002 510.767872,194.886862" id="Stroke-69" stroke="#2B5CA9" stroke-width="1.8"></path>
                    <path d="M355.919705,104.987199 C355.919705,104.987199 351.842791,167.501801 355.919705,170.560747 C359.99734,173.618253 391.148738,176.20964 394.827254,170.091027 C398.504329,163.973134 398.95748,110.622403 398.95748,104.987199 C398.95748,99.3527151 349.577759,99.0486935 355.919705,104.987199" id="Fill-71" fill="#C9651B"></path>
                    <path d="M370.869999,116.757514 C370.869999,116.757514 368.604246,128.571127 370.869999,127.996224 C373.135752,127.42132 408.0903,129.518492 407.374913,128.016396 C406.659526,126.515019 407.658762,121.044073 407.385719,116.757514 C407.112676,112.470955 367.246235,111.530794 370.869999,116.757514" id="Fill-73" fill="#F39F32" opacity="0.480538504"></path>
                    <path d="M345.500197,135.851722 C345.500197,135.851722 370.439326,135.222786 376.544251,135.851722 C382.648455,136.481377 379.930272,144.531463 379.930272,148.207818 C379.930272,151.884173 375.652358,151.575829 369.862982,151.276851 C364.074326,150.978592 346.406498,153.203281 345.500197,150.052119 C344.593896,146.900958 345.500197,135.851722 345.500197,135.851722" id="Fill-75" fill="#DB8B34"></path>
                    <path d="M374.040828,158.158327 C374.040828,158.158327 405.371613,157.636735 407.375129,158.158327 C409.377925,158.679918 408.662538,164.558628 407.434204,167.281854 C406.205871,170.00508 379.930344,168.182391 376.532796,167.281854 C373.135247,166.381316 374.040828,158.158327 374.040828,158.158327" id="Fill-77" fill="#F39F32" opacity="0.480538504"></path>
                    <path d="M619.699786,334.807213 C619.699786,334.807213 616.041442,353.884923 619.699786,352.956288 C623.35741,352.026933 679.807431,355.414396 678.651861,352.989428 C677.497012,350.56374 679.110775,341.729826 678.669872,334.807213 C678.228248,327.8846 613.847012,326.365933 619.699786,334.807213" id="Fill-79" fill="#F39F32"></path>
                    <path d="M550.939487,363.323277 C550.939487,363.323277 620.326272,361.693665 637.311132,363.323277 C654.295272,364.95289 646.732917,385.78917 646.732917,395.305331 C646.732917,404.822213 634.82853,404.022535 618.723315,403.249514 C602.61738,402.476492 553.460272,408.235611 550.939487,400.079622 C548.418702,391.922912 550.939487,363.323277 550.939487,363.323277" id="Fill-81" fill="#DB8B34"></path>
                    <path d="M610.251201,392.396595 C610.251201,392.396595 664.929685,391.106304 668.425932,392.396595 C671.921459,393.686885 670.672233,408.228767 668.529674,414.966229 C666.386395,421.703691 620.529577,417.193799 614.599717,414.966229 C608.669857,412.737939 610.251201,392.396595 610.251201,392.396595" id="Fill-83" fill="#3366AF" opacity="0.530505952"></path>
                    <path d="M355.894346,218.680796 C355.894346,218.680796 354.212862,212.725 351.885153,207.563118 C350.447895,204.377376 344.035346,204.96957 338.106927,194.222914 C332.177067,183.476258 338.477228,181.623312 341.812099,186.811129 C345.14769,191.998946 346.393314,195.708441 351.885153,195.892151 C357.376991,196.07514 361.453185,198.696785 369.975873,181.63628 C378.499282,164.576495 382.401131,168.064817 380.636077,177.437613 C378.870303,186.811129 370.346895,195.334538 372.199841,202.005 C374.052067,208.674742 381.381723,215.716226 381.052486,220.904043 C380.723249,226.09186 355.894346,218.680796 355.894346,218.680796" id="Fill-85" fill="#DCC1AC"></path>
                    <path d="M566.80026,310.710771 C563.445217,325.939943 560.876163,328.526287 560.876163,328.526287 C560.876163,328.526287 565.303206,302.917158 555.703475,285.077147 C555.703475,285.077147 570.156024,295.481599 566.80026,310.710771 M606.611948,254.642577 C569.037196,210.683373 538.359841,222.949416 538.359841,222.949416 C524.608991,245.124975 506.09826,243.215115 506.09826,243.215115 C488.127131,242.156803 482.450142,220.439438 482.450142,220.439438 C473.384249,217.237846 434.97668,218.891954 419.656013,232.374083 C404.334626,245.856212 398.819733,260.563792 398.819733,260.563792 C397.594282,245.243126 381.047443,211.537803 376.862465,210.593319 C372.678206,209.648835 353.470819,212.763255 352.245368,214.080201 C351.019196,215.397868 366.952948,324.297362 366.952948,337.167126 C366.952948,350.036169 382.886701,367.195373 392.079389,365.969922 C401.271357,364.74447 422.720002,341.457287 422.720002,341.457287 C418.430561,367.808459 426.396357,411.318835 428.235615,414.382825 C430.074153,417.446814 543.446798,430.316577 545.285335,419.286072 C547.123873,408.254846 558.689658,376.119341 558.689658,376.119341 C605.549314,374.088448 644.185981,298.601061 606.611948,254.642577" id="Fill-87" fill="#3366AF"></path>
                    <path d="M560.87638,328.526647 C560.87638,328.526647 548.664369,346.072002 516.853057,342.329368 C485.041025,338.587454 476.059423,332.598518 476.059423,332.598518 C476.059423,332.598518 465.953949,348.859346 469.696584,351.769884 C473.439218,354.680422 488.250541,374.354647 558.689874,376.119701" id="Stroke-89" stroke="#2B5A91" stroke-width="1.8"></path>
                    <path d="M422.719858,341.457143 C422.719858,341.457143 442.28674,319.731853 449.951396,298.221971" id="Stroke-91" stroke="#3161A3" stroke-width="0.72"></path>
                    <path d="M449.622015,350.125502 C449.622015,350.125502 452.112542,313.407341 453.706854,313.407341 C455.301886,313.407341 476.058918,316.475653 476.058918,316.475653 C476.058918,316.475653 472.927209,349.612556 470.471983,353.293954 C468.017477,356.976792 454.039692,355.956663 449.622015,350.125502" id="Fill-93" fill="#9BA1A8"></path>
                    <path d="M456.694045,317.769473 C456.694045,317.769473 448.100755,311.730108 458.749432,311.477237 C469.396669,311.223645 477.802647,314.291957 475.747981,316.746462 C473.693314,319.200968 464.069809,322.241903 456.694045,317.769473" id="Fill-95" fill="#FEFEFE"></path>
                    <path d="M456.694045,317.769473 C456.694045,317.769473 448.100755,311.730108 458.749432,311.477237 C469.396669,311.223645 477.802647,314.291957 475.747981,316.746462 C473.693314,319.200968 464.069809,322.241903 456.694045,317.769473 Z" id="Stroke-97" stroke="#9AA0A7" stroke-width="0.59472"></path>
                    <path d="M472.371109,331.133308 C472.371109,331.133308 463.867872,330.765888 456.42727,326.804243 C448.987388,322.842598 450.26327,330.2832 452.601066,331.984135 C452.601066,331.984135 445.562463,332.196662 450.7827,338.148856 C450.7827,338.148856 445.38884,337.723082 449.951324,343.250222 C449.951324,343.250222 444.538012,343.675996 449.951324,348.990609 C455.365356,354.305222 470.88342,350.903351 476.40984,348.990609 C481.93698,347.077146 476.05899,332.598662 476.05899,332.598662 C476.05899,332.598662 475.77298,329.645619 472.371109,331.133308" id="Fill-99" fill="#DCC1AC"></path>
                    <path d="M323.292795,55.6285871 L323.292795,72.194157 L335.794418,55.6285871 C335.794418,55.6285871 338.294311,46.5662968 369.54801,52.1914151 C400.802429,57.8172538 419.120085,45.3163505 418.711601,22.1883828 C418.304558,-0.939584946 360.797666,-8.44070323 334.543752,11.5620387 C308.291278,31.5647806 313.291784,41.5629097 323.292795,55.6285871" id="Fill-101" fill="#F39F32"></path>
                    <path d="M685.436944,236.742915 L685.436944,248.613442 L695.796009,236.742915 C695.796009,236.742915 697.867966,230.248958 723.764546,234.279765 C749.661847,238.311291 764.840589,229.352743 764.502708,212.780689 C764.164105,196.207915 716.514138,190.832786 694.76003,205.166463 C673.006643,219.4987 677.149837,226.664098 685.436944,236.742915" id="Fill-103" fill="#3366AF"></path>
                    <path d="M112.516342,389.409331 C112.516342,389.409331 110.77074,402.943331 109.887492,404.428858 C109.002804,405.912944 107.235589,386.116966 103.257374,387.106837 C99.2798796,388.096708 63.4817075,393.468234 62.5970194,387.070815 C61.7130516,380.672675 59.0618688,371.713406 62.5970194,367.284202 C66.1328903,362.856439 127.565406,355.393503 134.636428,361.352181 C141.70817,367.310138 145.244041,390.721234 136.404363,389.409331 C127.565406,388.096708 112.516342,389.409331 112.516342,389.409331" id="Fill-105" fill="#F39F32" opacity="0.569312686"></path>
                    <path d="M128.617667,397.938431 C128.617667,397.938431 126.872065,411.473152 125.988817,412.957958 C125.104849,414.442765 123.336914,394.646786 119.358699,395.635937 C115.381204,396.625808 79.5830323,401.998055 78.6990645,395.599915 C77.8143763,389.202496 75.1631935,380.242506 78.6990645,375.814023 C82.2342151,371.385539 143.667452,363.922603 150.738473,369.881281 C157.810215,375.839238 161.345366,399.251055 152.505688,397.938431 C143.667452,396.625808 128.617667,397.938431 128.617667,397.938431" id="Fill-107" fill="#F39F32"></path>
                    <path d="M239.921309,112.890822 C239.921309,112.890822 218.513008,127.113553 221.595008,143.701456 C224.675567,160.288639 209.544373,152.152822 208.298749,159.891682 C208.298749,159.891682 201.568491,123.131015 239.921309,112.890822" id="Fill-109" fill="#C9651B"></path>
                    <path d="M217.789191,275.240899 C217.789191,275.240899 188.412933,302.704415 199.886503,334.259254 C211.360794,365.814092 244.089213,348.283867 248.177654,349.452404 C252.265374,350.620942 256.940245,366.398361 256.355976,373.411028 C255.771708,380.422974 237.938901,384.488361 198.646643,379.825738 C198.646643,379.825738 160.997686,293.271824 217.789191,275.240899" id="Fill-111" fill="#F39F32"></path>
                    <path d="M217.789191,275.240899 C217.789191,275.240899 188.412933,302.704415 199.886503,334.259254 C211.360794,365.814092 244.089213,348.283867 248.177654,349.452404 C252.265374,350.620942 256.940245,366.398361 256.355976,373.411028 C255.771708,380.422974 237.938901,384.488361 198.646643,379.825738" id="Stroke-113" stroke="#E08E36" stroke-width="1.8"></path>
                    <path d="M558.689802,376.119341 C488.251189,374.355008 473.439146,354.680061 469.696512,351.769524 C465.953877,348.858986 476.059351,332.598878 476.059351,332.598878 C476.059351,332.598878 485.040953,338.587094 516.852985,342.329728 C548.664297,346.072362 560.876308,328.526287 560.876308,328.526287 L558.689802,376.119341 Z" id="Fill-115" fill="#3366AF"></path>
                    <path d="M339.489792,23.0938194 L399.053513,23.0938194 C399.053513,23.0938194 401.716223,27.5042925 397.799965,27.5042925 C393.883706,27.5042925 328.708556,28.4840774 339.489792,23.0938194" id="Fill-117" fill="#3366AF"></path>
                    <path d="M577.806487,379.582232 L637.370928,379.582232 C637.370928,379.582232 640.032917,382.298254 636.116659,382.298254 C632.201122,382.298254 567.025971,382.901254 577.806487,379.582232" id="Fill-119" fill="#3366AF"></path>
                    <path d="M561.622817,387.456317 L621.186538,387.456317 C621.186538,387.456317 623.849247,390.173059 619.932989,390.173059 C616.016731,390.173059 550.841581,390.776059 561.622817,387.456317" id="Fill-121" fill="#3366AF"></path>
                    <path d="M335.523176,33.3845871 C335.523176,33.3845871 390.943703,35.3801785 391.433596,36.0977269 C391.923488,36.8152753 392.722445,39.2049419 389.383252,38.7445871 C386.043338,38.2849527 323.715327,37.7950602 335.523176,33.3845871" id="Fill-123" fill="#3366AF"></path>
                    <path d="M632.447292,153.250397 C632.447292,153.250397 634.916206,170.344762 636.166153,172.219322 C637.415378,174.095322 639.915991,149.092074 645.542551,150.34202 C651.167669,151.591967 701.798776,158.376977 703.048723,150.296633 C704.298669,142.216289 708.049228,130.900494 703.048723,125.307074 C698.048938,119.712934 611.162905,110.288268 601.161895,117.813881 C591.160163,125.339494 586.159658,154.908106 598.662002,153.250397 C611.162905,151.591967 632.447292,153.250397 632.447292,153.250397" id="Fill-125" fill="#3366AF"></path>
                    <path d="M615.992813,136.039538 C615.992813,136.039538 614.979168,134.633258 616.460372,133.46328 C617.941576,132.294022 619.189361,134.164978 618.721082,135.646183 C618.253523,137.128108 616.850125,137.134591 615.992813,136.039538" id="Fill-127" fill="#F39F32"></path>
                    <path d="M626.916767,136.039538 C626.916767,136.039538 625.903122,134.633258 627.383605,133.46328 C628.86553,132.294022 630.113315,134.164978 629.645035,135.646183 C629.177476,137.128108 627.773358,137.134591 626.916767,136.039538" id="Fill-129" fill="#F39F32"></path>
                    <path d="M637.998278,136.039538 C637.998278,136.039538 636.985354,134.633258 638.465838,133.46328 C639.947042,132.294022 641.194827,134.164978 640.726547,135.646183 C640.259709,137.128108 638.85559,137.134591 637.998278,136.039538" id="Fill-131" fill="#F39F32"></path>
                    <path d="M648.922232,136.039538 C648.922232,136.039538 647.908587,134.633258 649.389791,133.46328 C650.870996,132.294022 652.118781,134.164978 651.650501,135.646183 C651.182942,137.128108 649.779544,137.134591 648.922232,136.039538" id="Fill-133" fill="#F39F32"></path>
                    <path d="M659.49721,136.957005 C659.49721,136.957005 658.483565,135.550726 659.964048,134.381468 C661.445973,133.21221 662.693758,135.082446 662.225478,136.564371 C661.757919,138.045575 660.353801,138.052059 659.49721,136.957005" id="Fill-135" fill="#F39F32"></path>
                    <path d="M672.004165,137.776639 C672.004165,137.776639 670.990519,136.370359 672.471724,135.201101 C673.952928,134.031123 675.200713,135.90208 674.732433,137.383284 C674.264874,138.865209 672.861476,138.871692 672.004165,137.776639" id="Fill-137" fill="#F39F32"></path>
                    <path d="M271.852356,159.891826 C271.852356,159.891826 267.544184,158.175041 263.262668,160.927804" id="Stroke-139" stroke="#EA9D58" stroke-width="1.8"></path>
                </g>
            </g>
        </g>
    </g>
</svg>