<?xml version="1.0" encoding="UTF-8"?>
<svg width="28px" height="21px" viewBox="0 0 28 21" version="1.1" xmlns="http://www.w3.org/2000/svg" xmlns:xlink="http://www.w3.org/1999/xlink">
    <!-- Generator: Sketch 52.6 (67491) - http://www.bohemiancoding.com/sketch -->
    <title>icon_contact_email</title>
    <desc>Created with Sketch.</desc>
    <g id="Website" stroke="none" stroke-width="1" fill="none" fill-rule="evenodd">
        <g id="Home-Copy-2" transform="translate(-580.000000, -3144.000000)">
            <g id="icon_contact_email" transform="translate(580.000000, 3145.000000)">
                <path d="M21.6079313,14.479487 C21.50415,14.479487 21.4003688,14.442313 21.318525,14.3671391 L16.4635875,9.90792174 C16.2939937,9.75261739 16.2855562,9.49074783 16.4458687,9.32470435 C16.6044937,9.1570087 16.8711188,9.14957391 17.0424,9.30653043 L21.8973375,13.7665739 C22.0669313,13.9210522 22.0753687,14.1837478 21.9150563,14.3489652 C21.8323688,14.4357043 21.7209938,14.479487 21.6079313,14.479487" id="Fill-1" fill="#000000"></path>
                <path d="M21.6079313,14.479487 C21.50415,14.479487 21.4003688,14.442313 21.318525,14.3671391 L16.4635875,9.90792174 C16.2939937,9.75261739 16.2855562,9.49074783 16.4458687,9.32470435 C16.6044937,9.1570087 16.8711188,9.14957391 17.0424,9.30653043 L21.8973375,13.7665739 C22.0669313,13.9210522 22.0753687,14.1837478 21.9150563,14.3489652 C21.8323688,14.4357043 21.7209938,14.479487 21.6079313,14.479487 Z" id="Stroke-3" stroke="#323232" stroke-width="0.84375"></path>
                <path d="M5.40160312,14.479487 C5.28938438,14.479487 5.17716562,14.4357043 5.09363437,14.3489652 C4.93416562,14.1837478 4.94260312,13.9210522 5.11219687,13.7665739 L9.96882187,9.30653043 C10.1392594,9.15122609 10.4067281,9.15783478 10.5653531,9.32470435 C10.7248219,9.49074783 10.7163844,9.75261739 10.5467906,9.90792174 L5.69016562,14.3671391 C5.60916562,14.442313 5.50538438,14.479487 5.40160312,14.479487" id="Fill-5" fill="#000000"></path>
                <path d="M5.40160312,14.479487 C5.28938438,14.479487 5.17716562,14.4357043 5.09363437,14.3489652 C4.93416562,14.1837478 4.94260312,13.9210522 5.11219687,13.7665739 L9.96882187,9.30653043 C10.1392594,9.15122609 10.4067281,9.15783478 10.5653531,9.32470435 C10.7248219,9.49074783 10.7163844,9.75261739 10.5467906,9.90792174 L5.69016562,14.3671391 C5.60916562,14.442313 5.50538438,14.479487 5.40160312,14.479487 Z" id="Stroke-7" stroke="#323232" stroke-width="0.84375"></path>
                <path d="M2.53125,1.23904783 C1.83346875,1.23904783 1.265625,1.79500435 1.265625,2.47817826 L1.265625,16.5604826 C1.265625,17.2444826 1.83346875,17.799613 2.53125,17.799613 L24.478875,17.799613 C25.1766563,17.799613 25.7445,17.2444826 25.7445,16.5604826 L25.7445,2.47817826 C25.7445,1.79500435 25.1766563,1.23904783 24.478875,1.23904783 L2.53125,1.23904783 Z M24.478875,18.6257 L2.53125,18.6257 C1.3685625,18.6257 0.421875,17.6996565 0.421875,16.5604826 L0.421875,2.47817826 C0.421875,1.33900435 1.3685625,0.41296087 2.53125,0.41296087 L24.478875,0.41296087 C25.6415625,0.41296087 26.58825,1.33900435 26.58825,2.47817826 L26.58825,16.5604826 C26.58825,17.6996565 25.6415625,18.6257 24.478875,18.6257 Z" id="Fill-9" fill="#000000"></path>
                <path d="M2.53125,1.23904783 C1.83346875,1.23904783 1.265625,1.79500435 1.265625,2.47817826 L1.265625,16.5604826 C1.265625,17.2444826 1.83346875,17.799613 2.53125,17.799613 L24.478875,17.799613 C25.1766563,17.799613 25.7445,17.2444826 25.7445,16.5604826 L25.7445,2.47817826 C25.7445,1.79500435 25.1766563,1.23904783 24.478875,1.23904783 L2.53125,1.23904783 Z M24.478875,18.6257 L2.53125,18.6257 C1.3685625,18.6257 0.421875,17.6996565 0.421875,16.5604826 L0.421875,2.47817826 C0.421875,1.33900435 1.3685625,0.41296087 2.53125,0.41296087 L24.478875,0.41296087 C25.6415625,0.41296087 26.58825,1.33900435 26.58825,2.47817826 L26.58825,16.5604826 C26.58825,17.6996565 25.6415625,18.6257 24.478875,18.6257 Z" id="Stroke-11" stroke="#323232" stroke-width="0.84375"></path>
                <path d="M13.5049781,11.5946261 C12.9438844,11.5946261 12.3827906,11.4120609 11.9558531,11.0485826 L1.12210313,1.79475652 C0.946603125,1.64606087 0.928040625,1.38501739 1.08075938,1.21236522 C1.23516563,1.04053913 1.50094687,1.02484348 1.67644688,1.17188696 L12.5101969,10.4240609 C13.0493531,10.8850174 13.9606031,10.8850174 14.4989156,10.4240609 L25.3191656,1.18675652 C25.4938219,1.03723478 25.7596031,1.05375652 25.9148531,1.2264087 C26.0675719,1.39906087 26.0498531,1.66010435 25.8743531,1.80962609 L15.0541031,11.0477565 C14.6263219,11.4120609 14.0660719,11.5946261 13.5049781,11.5946261" id="Fill-13" fill="#000000"></path>
                <path d="M13.5049781,11.5946261 C12.9438844,11.5946261 12.3827906,11.4120609 11.9558531,11.0485826 L1.12210313,1.79475652 C0.946603125,1.64606087 0.928040625,1.38501739 1.08075938,1.21236522 C1.23516563,1.04053913 1.50094687,1.02484348 1.67644688,1.17188696 L12.5101969,10.4240609 C13.0493531,10.8850174 13.9606031,10.8850174 14.4989156,10.4240609 L25.3191656,1.18675652 C25.4938219,1.03723478 25.7596031,1.05375652 25.9148531,1.2264087 C26.0675719,1.39906087 26.0498531,1.66010435 25.8743531,1.80962609 L15.0541031,11.0477565 C14.6263219,11.4120609 14.0660719,11.5946261 13.5049781,11.5946261 Z" id="Stroke-15" stroke="#323232" stroke-width="0.84375"></path>
            </g>
        </g>
    </g>
</svg>