<?xml version="1.0" encoding="UTF-8"?>
<svg width="166px" height="111px" viewBox="0 0 166 111" version="1.1" xmlns="http://www.w3.org/2000/svg" xmlns:xlink="http://www.w3.org/1999/xlink">
    <!-- Generator: Sketch 52.6 (67491) - http://www.bohemiancoding.com/sketch -->
    <title>img_about_tools_ui_hover</title>
    <desc>Created with Sketch.</desc>
    <defs>
        <polygon id="path-1" points="0.584345161 0.476593548 49.3944946 0.476593548 49.3944946 49.5806452 0.584345161 49.5806452"></polygon>
    </defs>
    <g id="Website" stroke="none" stroke-width="1" fill="none" fill-rule="evenodd">
        <g id="Home-Copy-2" transform="translate(-600.000000, -1885.000000)">
            <g id="img_about_tools_ui_hover" transform="translate(600.000000, 1885.000000)">
                <path d="M150.926519,61.0586065 L150.926519,58.6596387 L150.926519,8.25963871 C150.926519,4.2131871 147.635003,0.90196129 143.612638,0.90196129 L8.21155161,0.90196129 C4.18918602,0.90196129 0.897669892,4.2131871 0.897669892,8.25963871 L0.897669892,88.4715097 C0.897669892,92.5179613 4.18918602,95.8291871 8.21155161,95.8291871 L113.441304,95.8291871 L115.533294,95.8291871" id="Stroke-1" stroke="#134277" stroke-width="1.8"></path>
                <path d="M73.7920925,43.032929 C73.8621247,42.792671 73.9088129,42.5433806 73.9088129,42.2832516 L73.9088129,18.0424774 C73.9088129,17.7335742 73.8477591,17.4427355 73.7543828,17.1663484 L46.1275548,30.0897032 L73.7920925,43.032929 Z" id="Fill-3" fill="#134277"></path>
                <path d="M43.7561548,28.98 L72.3760043,15.5923871 C72.0168645,15.4135484 71.6164237,15.3051613 71.1872516,15.3051613 L16.8458108,15.3051613 C16.319671,15.3051613 15.8312409,15.4623226 15.4164344,15.7224516 L43.7561548,28.98 Z" id="Fill-5" fill="#134277"></path>
                <path d="M43.7561548,31.1992258 L15.2835527,44.52 C15.7270903,44.8343226 16.2622086,45.0221935 16.8458108,45.0221935 L71.1872516,45.0221935 C71.6756817,45.0221935 72.1264022,44.8812903 72.5232516,44.6554839 L43.7561548,31.1992258 Z" id="Fill-7" fill="#134277"></path>
                <path d="M14.2131366,17.3775226 C14.1592656,17.5906839 14.1215559,17.811071 14.1215559,18.0422968 L14.1215559,42.283071 C14.1215559,42.467329 14.1413086,42.6443613 14.1754269,42.8195871 L41.3874484,30.0895226 L14.2131366,17.3775226 Z" id="Fill-9" fill="#134277"></path>
                <path d="M136.687166,43.032929 C136.755402,42.792671 136.803886,42.5433806 136.803886,42.2832516 L136.803886,18.0424774 C136.803886,17.7335742 136.741037,17.4427355 136.649456,17.1663484 L109.022628,30.0897032 L136.687166,43.032929 Z" id="Fill-11" fill="#134277"></path>
                <path d="M106.651228,28.98 L135.271077,15.5923871 C134.910142,15.4135484 134.511497,15.3051613 134.082325,15.3051613 L79.7408839,15.3051613 C79.2147441,15.3051613 78.726314,15.4623226 78.3115075,15.7224516 L106.651228,28.98 Z" id="Fill-13" fill="#134277"></path>
                <path d="M106.651228,31.1992258 L78.1768301,44.52 C78.6203677,44.8343226 79.1572817,45.0221935 79.7408839,45.0221935 L134.082325,45.0221935 C134.570755,45.0221935 135.021475,44.8812903 135.418325,44.6554839 L106.651228,31.1992258 Z" id="Fill-15" fill="#134277"></path>
                <path d="M77.106414,17.3775226 C77.0543387,17.5906839 77.016629,17.811071 77.016629,18.0422968 L77.016629,42.283071 C77.016629,42.467329 77.0363817,42.6443613 77.0687043,42.8195871 L104.280726,30.0895226 L77.106414,17.3775226 Z" id="Fill-17" fill="#134277"></path>
                <path d="M15.0197645,51.4531613 L136.804066,51.4531613" id="Stroke-19" stroke="#134277" stroke-width="0.9"></path>
                <path d="M15.0197645,55.8280258 L136.804066,55.8280258" id="Stroke-21" stroke="#134277" stroke-width="0.9"></path>
                <path d="M15.0197645,60.203071 L136.804066,60.203071" id="Stroke-23" stroke="#134277" stroke-width="0.9"></path>
                <path d="M71.0021151,75.7589677 L17.0305882,75.7589677 C15.9244376,75.7589677 15.0194054,74.8485161 15.0194054,73.7357419 L15.0194054,68.2495484 C15.0194054,67.1367742 15.9244376,66.2263226 17.0305882,66.2263226 L71.0021151,66.2263226 C72.1064699,66.2263226 73.0115022,67.1367742 73.0115022,68.2495484 L73.0115022,73.7357419 C73.0115022,74.8485161 72.1064699,75.7589677 71.0021151,75.7589677" id="Fill-25" fill="#134277"></path>
                <g id="Group-29" transform="translate(115.924731, 61.338916)">
                    <mask id="mask-2" fill="white">
                        <use xlink:href="#path-1"></use>
                    </mask>
                    <g id="Clip-28"></g>
                    <path d="M39.5330548,22.6038194 L25.4314312,36.7898839 C25.1800333,37.0427871 24.806528,37.1584 24.3809473,37.1150452 L15.6861731,36.2136258 C14.6213237,36.1052387 13.5744312,35.0520774 13.4630978,33.9808516 L12.5688398,25.2304 C12.525743,24.8040774 12.638872,24.4283355 12.8920656,24.1736258 L26.9954849,9.98936774 C27.5719043,9.40769032 28.6996032,9.60098065 29.5130548,10.4193032 L39.1056785,20.0693677 C39.9191301,20.8876903 40.1112699,22.0221419 39.5330548,22.6038194 M24.9878935,0.476593548 C11.5111731,0.476593548 0.584345161,11.4688516 0.584345161,25.0280774 C0.584345161,38.5891097 11.5111731,49.5813677 24.9878935,49.5813677 C38.4682054,49.5813677 49.3950333,38.5891097 49.3950333,25.0280774 C49.3950333,11.4688516 38.4682054,0.476593548 24.9878935,0.476593548" id="Fill-27" fill="#134277" mask="url(#mask-2)"></path>
                </g>
                <path d="M132.246941,95.0778839 L137.483199,95.4897548 C137.88364,95.5204645 138.106306,95.034529 137.822586,94.7473032 L132.176909,89.0696258 C131.893188,88.7842065 131.410145,89.0082065 131.440672,89.4092387 L131.850091,94.6768516 C131.866253,94.8900129 132.035048,95.0598194 132.246941,95.0778839" id="Fill-30" fill="#323232"></path>
                <path d="M132.246941,95.0778839 L137.483199,95.4897548 C137.88364,95.5204645 138.106306,95.034529 137.822586,94.7473032 L132.176909,89.0696258 C131.893188,88.7842065 131.410145,89.0082065 131.440672,89.4092387 L131.850091,94.6768516 C131.866253,94.8900129 132.035048,95.0598194 132.246941,95.0778839 Z" id="Stroke-32" stroke="#134277" stroke-width="1.4904" fill="#134277"></path>
                <path d="M150.586234,85.0294968 L141.839385,76.2284645 C141.649041,76.0387871 141.649041,75.7280774 141.839385,75.5365935 L143.293901,74.0733677 C143.484245,73.8818839 143.793105,73.8818839 143.981654,74.0733677 L152.728503,82.8725935 C152.918847,83.062271 152.918847,83.3747871 152.728503,83.5626581 L151.273987,85.0294968 C151.083643,85.2173677 150.774783,85.2173677 150.586234,85.0294968" id="Fill-34" fill="#CBCBCB"></path>
                <path d="M150.586234,85.0294968 L141.839385,76.2284645 C141.649041,76.0387871 141.649041,75.7280774 141.839385,75.5365935 L143.293901,74.0733677 C143.484245,73.8818839 143.793105,73.8818839 143.981654,74.0733677 L152.728503,82.8725935 C152.918847,83.062271 152.918847,83.3747871 152.728503,83.5626581 L151.273987,85.0294968 C151.083643,85.2173677 150.774783,85.2173677 150.586234,85.0294968 Z" id="Stroke-36" stroke="#134277" stroke-width="1.8" fill="#134277"></path>
            </g>
        </g>
    </g>
</svg>