<?xml version="1.0" encoding="UTF-8"?>
<svg width="166px" height="111px" viewBox="0 0 166 111" version="1.1" xmlns="http://www.w3.org/2000/svg" xmlns:xlink="http://www.w3.org/1999/xlink">
    <!-- Generator: Sketch 52.6 (67491) - http://www.bohemiancoding.com/sketch -->
    <title>img_about_tools_grahic_hover</title>
    <desc>Created with Sketch.</desc>
    <defs>
        <polygon id="path-1" points="0.585243011 0.476412903 49.3941355 0.476412903 49.3941355 49.5806452 0.585243011 49.5806452"></polygon>
    </defs>
    <g id="Website" stroke="none" stroke-width="1" fill="none" fill-rule="evenodd">
        <g id="Home-Copy-2" transform="translate(-230.000000, -1885.000000)">
            <g id="img_about_tools_grahic_hover" transform="translate(230.000000, 1885.000000)">
                <path d="M50.3154839,41.1665032 L23.5685484,77.0498581 C22.193043,78.8978581 23.5039032,81.533471 25.7988065,81.533471 L79.289086,81.533471 C81.5821935,81.533471 82.8930538,78.8978581 81.5157527,77.0498581 L54.7706129,41.1665032 C53.6572796,39.6725677 51.4288172,39.6725677 50.3154839,41.1665032" id="Fill-1" fill="#134277"></path>
                <path d="M45.2020516,27.1701161 C45.2020516,32.5370839 40.8780086,36.8870194 35.5429871,36.8870194 C30.2079656,36.8870194 25.8839226,32.5370839 25.8839226,27.1701161 C25.8839226,21.8031484 30.2079656,17.4532129 35.5429871,17.4532129 C40.8780086,17.4532129 45.2020516,21.8031484 45.2020516,27.1701161" id="Fill-3" fill="#134277"></path>
                <g id="Group-7" transform="translate(115.924731, 61.338916)">
                    <mask id="mask-2" fill="white">
                        <use xlink:href="#path-1"></use>
                    </mask>
                    <g id="Clip-6"></g>
                    <path d="M36.2388452,20.1306065 L34.075028,22.796929 C33.8146516,23.1112516 33.3495656,23.1618323 33.0335226,22.9017032 L24.7212323,16.0697032 C24.4069849,15.8095742 24.3602968,15.3398968 24.6170817,15.0219613 L26.7826946,12.3556387 C27.0394796,12.0395097 27.5099527,11.9907355 27.8224043,12.252671 L36.1328989,19.0828645 C36.4489419,19.3429935 36.4974258,19.812671 36.2388452,20.1306065 M32.2739419,25.1922839 L30.1370602,29.0797677 C30.0526624,29.2315097 29.9359419,29.3597677 29.7940817,29.4591226 L16.486157,38.6051871 C16.2616946,38.7587355 15.9636086,38.7460903 15.7535118,38.572671 L15.1735011,38.0939613 C14.8825978,37.8573161 14.8412968,37.4273806 15.0765333,37.1365419 L20.6001032,30.3370581 C20.7186194,30.188929 20.9017806,30.0949935 21.0867376,30.1184774 C21.4943613,30.172671 21.9145548,30.0245419 22.1946839,29.6795097 C22.6274473,29.1466065 22.5484366,28.3626065 22.0187054,27.9272516 C21.4889742,27.4918968 20.7096409,27.5713806 20.2768774,28.1042839 C19.9967484,28.4475097 19.9374903,28.8918968 20.070372,29.2820903 C20.1296301,29.460929 20.0739634,29.6578323 19.9554473,29.8041548 L14.4300817,36.6036387 C14.1948452,36.8962839 13.7674688,36.9396387 13.4783613,36.7011871 L12.8983505,36.2224774 C12.6882538,36.0508645 12.6164258,35.7600258 12.7205763,35.508929 L18.9803828,20.5677677 C19.0468237,20.4088 19.1473828,20.2660903 19.2802645,20.1558968 L22.6418129,17.2728 C22.9219419,17.0343484 23.3295656,17.028929 23.613286,17.2619613 L32.0889849,24.2330581 C32.3745011,24.4660903 32.4517161,24.868929 32.2739419,25.1922839 M24.9887914,0.476412903 C11.5102753,0.476412903 0.585243011,11.468671 0.585243011,25.0278968 C0.585243011,38.588929 11.5102753,49.5811871 24.9887914,49.5811871 C38.4673075,49.5811871 49.3941355,38.588929 49.3941355,25.0278968 C49.3941355,11.468671 38.4673075,0.476412903 24.9887914,0.476412903" id="Fill-5" fill="#134277" mask="url(#mask-2)"></path>
                </g>
                <path d="M82.878329,81.532929 L114.288695,81.532929 C115.48463,74.8508645 119.104759,69.0178323 124.204544,64.9768 L97.7987914,29.5468645 C96.829114,28.2444129 94.8861677,28.2444129 93.9146946,29.5468645 L71.1344581,60.1120258 L82.9519527,75.9672516 C84.0006409,77.3708645 84.1658452,79.2224774 83.3847161,80.7922839 C83.248243,81.0668645 83.0614903,81.2962839 82.878329,81.532929" id="Fill-8" fill="#134277"></path>
                <path d="M150.925442,61.0586065 L150.925442,58.6596387 L150.925442,8.25963871 C150.925442,4.2131871 147.635722,0.90196129 143.613356,0.90196129 L8.21047419,0.90196129 C4.1881086,0.90196129 0.896592473,4.2131871 0.896592473,8.25963871 L0.896592473,88.4715097 C0.896592473,92.5179613 4.1881086,95.8291871 8.21047419,95.8291871 L113.442023,95.8291871 L115.532216,95.8291871" id="Stroke-10" stroke="#134277" stroke-width="1.8"></path>
            </g>
        </g>
    </g>
</svg>