<?xml version="1.0" encoding="UTF-8"?>
<svg width="325px" height="325px" viewBox="0 0 325 325" version="1.1" xmlns="http://www.w3.org/2000/svg" xmlns:xlink="http://www.w3.org/1999/xlink">
    <!-- Generator: Sketch 52.6 (67491) - http://www.bohemiancoding.com/sketch -->
    <title>img_problems_graphic_02</title>
    <desc>Created with Sketch.</desc>
    <defs>
        <path d="M0.81566211,57.0475102 C0.81566211,87.7753469 25.6816203,112.684408 56.3628386,112.684408 C87.0411229,112.684408 111.907081,87.7753469 111.907081,57.0475102 C111.907081,26.3196735 87.0411229,1.41061224 56.3628386,1.41061224 C25.6816203,1.41061224 0.81566211,26.3196735 0.81566211,57.0475102" id="path-1"></path>
        <path d="M0.81566211,57.0475102 C0.81566211,87.7753469 25.6816203,112.684408 56.3628386,112.684408 C87.0411229,112.684408 111.907081,87.7753469 111.907081,57.0475102 C111.907081,26.3196735 87.0411229,1.41061224 56.3628386,1.41061224 C25.6816203,1.41061224 0.81566211,26.3196735 0.81566211,57.0475102" id="path-3"></path>
    </defs>
    <g id="Wireframe" stroke="none" stroke-width="1" fill="none" fill-rule="evenodd">
        <g id="-" transform="translate(-567.000000, -342.000000)">
            <g id="img_02" transform="translate(599.000000, 362.000000)">
                <g id="Group-155" transform="translate(2.934036, 0.104196)">
                    <path d="M175.785161,281.191837 L132.079755,281.191837 C125.827323,281.191837 120.710364,276.066612 120.710364,269.804082 L120.710364,249.920327 C120.710364,238.027102 130.427892,228.293878 142.301937,228.293878 L163.66759,228.293878 C175.541635,228.293878 185.259164,238.027102 185.259164,249.920327 L185.259164,271.702531 C185.259164,276.921796 180.996009,281.191837 175.785161,281.191837" id="Fill-1" fill="#E2E2E2"></path>
                    <path d="M74.5609058,282.661224 L30.8555001,282.661224 C24.6030686,282.661224 19.4861091,277.536 19.4861091,271.273469 L19.4861091,251.389714 C19.4861091,239.49649 29.2036376,229.763265 41.0776828,229.763265 L62.4433356,229.763265 C74.3173808,229.763265 84.0349092,239.49649 84.0349092,251.389714 L84.0349092,273.171918 C84.0349092,278.391184 79.7717544,282.661224 74.5609058,282.661224" id="Fill-3" fill="#E2E2E2"></path>
                    <g id="Group-8" transform="translate(23.472291, 168.048980)">
                        <path d="M3.34890911,0 L3.34890911,6.17142857" id="Fill-5" fill="#FFFFFF"></path>
                        <path d="M3.34890911,0 L3.34890911,6.17142857" id="Stroke-7" stroke="#E2E2E2" stroke-width="2.93877551" stroke-linecap="round" stroke-linejoin="round"></path>
                    </g>
                    <g id="Group-12" transform="translate(23.472291, 179.804082)">
                        <path d="M3.34890911,2.64460408 L3.34890911,8.81603265" id="Fill-9" fill="#FFFFFF"></path>
                        <path d="M3.34890911,2.64460408 L3.34890911,8.81603265" id="Stroke-11" stroke="#E2E2E2" stroke-width="2.93877551" stroke-linecap="round" stroke-linejoin="round"></path>
                    </g>
                    <g id="Group-16" transform="translate(29.340364, 176.865306)">
                        <path d="M1.58848729,1.46938776 L5.69613821,1.46938776" id="Fill-13" fill="#FFFFFF"></path>
                        <path d="M1.58848729,1.46938776 L5.69613821,1.46938776" id="Stroke-15" stroke="#E2E2E2" stroke-width="2.93877551" stroke-linecap="round" stroke-linejoin="round"></path>
                    </g>
                    <g id="Group-20" transform="translate(17.604218, 176.865306)">
                        <path d="M1.00226682,1.46938776 L5.10991774,1.46938776" id="Fill-17" fill="#FFFFFF"></path>
                        <path d="M1.00226682,1.46938776 L5.10991774,1.46938776" id="Stroke-19" stroke="#E2E2E2" stroke-width="2.93877551" stroke-linecap="round" stroke-linejoin="round"></path>
                    </g>
                    <g id="Group-24" transform="translate(212.849456, 244.457143)">
                        <path d="M1.7500719,0 L1.7500719,6.17142857" id="Fill-21" fill="#FFFFFF"></path>
                        <path d="M1.7500719,0 L1.7500719,6.17142857" id="Stroke-23" stroke="#E2E2E2" stroke-width="2.93877551" stroke-linecap="round" stroke-linejoin="round"></path>
                    </g>
                    <g id="Group-28" transform="translate(212.849456, 258.612245)">
                        <path d="M1.7500719,0.244604082 L1.7500719,6.41603265" id="Fill-25" fill="#FFFFFF"></path>
                        <path d="M1.7500719,0.244604082 L1.7500719,6.41603265" id="Stroke-27" stroke="#E2E2E2" stroke-width="2.93877551" stroke-linecap="round" stroke-linejoin="round"></path>
                    </g>
                    <g id="Group-32" transform="translate(217.918110, 253.273469)">
                        <path d="M0.789068685,1.46938776 L4.8967196,1.46938776" id="Fill-29" fill="#FFFFFF"></path>
                        <path d="M0.789068685,1.46938776 L4.8967196,1.46938776" id="Stroke-31" stroke="#E2E2E2" stroke-width="2.93877551" stroke-linecap="round" stroke-linejoin="round"></path>
                    </g>
                    <g id="Group-36" transform="translate(206.181964, 253.273469)">
                        <path d="M0.202848219,1.46938776 L4.31049913,1.46938776" id="Fill-33" fill="#FFFFFF"></path>
                        <path d="M0.202848219,1.46938776 L4.31049913,1.46938776" id="Stroke-35" stroke="#E2E2E2" stroke-width="2.93877551" stroke-linecap="round" stroke-linejoin="round"></path>
                    </g>
                    <path d="M91.5478028,198.906122 L53.0503116,198.906122 C51.5334148,198.906122 50.2923174,197.66302 50.2923174,196.146612 L50.2923174,184.03298 C50.2923174,182.516571 51.5334148,181.273469 53.0503116,181.273469 L91.5478028,181.273469 C93.0646996,181.273469 94.3028629,182.516571 94.3028629,184.03298 L94.3028629,196.146612 C94.3028629,197.66302 93.0646996,198.906122 91.5478028,198.906122" id="Fill-37" fill="#FFFFFF"></path>
                    <path d="M91.5478028,198.906122 L53.0503116,198.906122 C51.5334148,198.906122 50.2923174,197.66302 50.2923174,196.146612 L50.2923174,184.03298 C50.2923174,182.516571 51.5334148,181.273469 53.0503116,181.273469 L91.5478028,181.273469 C93.0646996,181.273469 94.3028629,182.516571 94.3028629,184.03298 L94.3028629,196.146612 C94.3028629,197.66302 93.0646996,198.906122 91.5478028,198.906122 Z" id="Stroke-39" stroke="#E2E2E2" stroke-width="2.7595102"></path>
                    <path d="M47.3594546,266.497959 L3.34890911,266.497959 C1.73518911,266.497959 0.414872742,265.17551 0.414872742,263.559184 L0.414872742,251.804082 C0.414872742,250.187755 1.73518911,248.865306 3.34890911,248.865306 L47.3594546,248.865306 C48.9731746,248.865306 50.293491,250.187755 50.293491,251.804082 L50.293491,263.559184 C50.293491,265.17551 48.9731746,266.497959 47.3594546,266.497959" id="Fill-41" fill="#FFFFFF"></path>
                    <path d="M47.3594546,266.497959 L3.34890911,266.497959 C1.73518911,266.497959 0.414872742,265.17551 0.414872742,263.559184 L0.414872742,251.804082 C0.414872742,250.187755 1.73518911,248.865306 3.34890911,248.865306 L47.3594546,248.865306 C48.9731746,248.865306 50.293491,250.187755 50.293491,251.804082 L50.293491,263.559184 C50.293491,265.17551 48.9731746,266.497959 47.3594546,266.497959 Z" id="Stroke-43" stroke="#E2E2E2" stroke-width="2.7595102"></path>
                    <path d="M160.319855,234.171429 L192.594255,234.171429 C191.273938,226.82449 192.594255,225.502041 192.594255,223.885714 L192.594255,209.191837 C192.594255,207.57551 191.273938,206.253061 189.660218,206.253061 L157.385818,206.253061 C155.772098,206.253061 154.451782,207.57551 154.451782,209.191837 L154.451782,223.885714 C154.451782,225.502041 155.772098,226.82449 160.319855,234.171429" id="Fill-45" fill="#FFFFFF"></path>
                    <path d="M160.319855,234.171429 L192.594255,234.171429 C191.273938,226.82449 192.594255,225.502041 192.594255,223.885714 L192.594255,209.191837 C192.594255,207.57551 191.273938,206.253061 189.660218,206.253061 L157.385818,206.253061 C155.772098,206.253061 154.451782,207.57551 154.451782,209.191837 L154.451782,223.885714 C154.451782,225.502041 155.772098,226.82449 160.319855,234.171429 Z" id="Stroke-47" stroke="#E2E2E2" stroke-width="2.7595102"></path>
                    <path d="M28.2882182,121.210776 L28.2882182,128.54302 C28.2882182,130.332735 29.2564502,131.796245 30.4388669,131.796245 L44.7188219,131.796245 L52.5849734,143.701224 C53.4211738,144.964898 54.7913688,144.964898 55.6275691,143.701224 L63.4966547,131.796245 L142.316608,131.796245 C143.501958,131.796245 144.47019,130.332735 144.47019,128.54302 L144.47019,66.6964898 C144.47019,64.9038367 143.501958,63.4403265 142.316608,63.4403265 L30.4388669,63.4403265 C29.2564502,63.4403265 28.2882182,64.9038367 28.2882182,66.6964898 L28.2882182,121.210776 Z" id="Fill-49" fill="#CEEFEC"></path>
                    <path d="M211.952147,165.292408 L211.952147,172.624653 C211.952147,174.414367 210.983915,175.877878 209.801498,175.877878 L195.521543,175.877878 L187.655391,187.782857 C186.819191,189.046531 185.448996,189.046531 184.612796,187.782857 L176.74371,175.877878 L97.9237572,175.877878 C96.7384065,175.877878 95.7701745,174.414367 95.7701745,172.624653 L95.7701745,110.778122 C95.7701745,108.985469 96.7384065,107.521959 97.9237572,107.521959 L209.801498,107.521959 C210.983915,107.521959 211.952147,108.985469 211.952147,110.778122 L211.952147,165.292408 Z" id="Fill-51" fill="#E2E2E2"></path>
                    <path d="M78.9619604,281.191837 L35.2565546,281.191837 C29.0041231,281.191837 23.8871637,276.066612 23.8871637,269.804082 L23.8871637,249.920327 C23.8871637,238.027102 33.6046921,228.293878 45.4787373,228.293878 L66.8443902,228.293878 C78.7184353,228.293878 88.4359638,238.027102 88.4359638,249.920327 L88.4359638,271.702531 C88.4359638,276.921796 84.1728089,281.191837 78.9619604,281.191837 Z" id="Stroke-53" stroke="#878787" stroke-width="2.93877551" stroke-linecap="round" stroke-linejoin="round"></path>
                    <g id="Group-58" transform="translate(88.021091, 100.457143)">
                        <path d="M2.32903807,28.7332898 L2.32903807,5.93133061 C2.32903807,4.14161633 3.29727007,2.67516735 4.47968673,2.67516735 L116.357427,2.67516735 C117.542778,2.67516735 118.51101,4.14161633 118.51101,5.93133061 L118.51101,67.7778612 C118.51101,69.5675755 117.542778,71.0340245 116.357427,71.0340245 L102.080407,71.0340245 L94.211321,82.9360653 C93.3751206,84.2026776 92.0078597,84.2026776 91.1716593,82.9360653 L83.3025738,71.0340245 L4.47968673,71.0340245 C3.29727007,71.0340245 2.32903807,69.5675755 2.32903807,67.7778612 L2.32903807,45.6253714" id="Fill-55" fill="#FFFFFF"></path>
                        <path d="M2.32903807,28.7332898 L2.32903807,5.93133061 C2.32903807,4.14161633 3.29727007,2.67516735 4.47968673,2.67516735 L116.357427,2.67516735 C117.542778,2.67516735 118.51101,4.14161633 118.51101,5.93133061 L118.51101,67.7778612 C118.51101,69.5675755 117.542778,71.0340245 116.357427,71.0340245 L102.080407,71.0340245 L94.211321,82.9360653 C93.3751206,84.2026776 92.0078597,84.2026776 91.1716593,82.9360653 L83.3025738,71.0340245 L4.47968673,71.0340245 C3.29727007,71.0340245 2.32903807,69.5675755 2.32903807,67.7778612 L2.32903807,45.6253714" id="Stroke-57" stroke="#878787" stroke-width="2.93877551" stroke-linecap="round" stroke-linejoin="round"></path>
                    </g>
                    <g id="Group-62" transform="translate(88.021091, 132.783673)">
                        <polyline id="Fill-59" fill="#FFFFFF" points="2.32903807 7.11448163 2.32903807 3.53799184 2.32903807 2.59170612"></polyline>
                        <polyline id="Stroke-61" stroke="#878787" stroke-width="2.93877551" stroke-linecap="round" stroke-linejoin="round" points="2.32903807 7.11448163 2.32903807 3.53799184 2.32903807 2.59170612"></polyline>
                    </g>
                    <g id="Group-66" transform="translate(105.625309, 121.028571)">
                        <path d="M48.8264728,1.63572245 L1.93763762,1.63572245" id="Fill-63" fill="#FFFFFF"></path>
                        <path d="M48.8264728,1.63572245 L1.93763762,1.63572245" id="Stroke-65" stroke="#878787" stroke-width="2.93877551" stroke-linecap="round" stroke-linejoin="round"></path>
                    </g>
                    <g id="Group-70" transform="translate(137.899709, 144.538776)">
                        <path d="M51.9567962,4.16571429 L1.93441018,4.16571429" id="Fill-67" fill="#FFFFFF"></path>
                        <path d="M51.9567962,4.16571429 L1.93441018,4.16571429" id="Stroke-69" stroke="#878787" stroke-width="2.93877551" stroke-linecap="round" stroke-linejoin="round"></path>
                    </g>
                    <g id="Group-74" transform="translate(161.372000, 121.028571)">
                        <path d="M28.4845053,1.63572245 L0.514336575,1.63572245" id="Fill-71" fill="#FFFFFF"></path>
                        <path d="M28.4845053,1.63572245 L0.514336575,1.63572245" id="Stroke-73" stroke="#878787" stroke-width="2.93877551" stroke-linecap="round" stroke-linejoin="round"></path>
                    </g>
                    <g id="Group-78" transform="translate(105.625309, 144.538776)">
                        <path d="M24.0376798,4.16571429 L1.93558379,4.16571429" id="Fill-75" fill="#FFFFFF"></path>
                        <path d="M24.0376798,4.16571429 L1.93558379,4.16571429" id="Stroke-77" stroke="#878787" stroke-width="2.93877551" stroke-linecap="round" stroke-linejoin="round"></path>
                    </g>
                    <g id="Group-82" transform="translate(105.625309, 132.783673)">
                        <path d="M84.2311963,2.90145306 L2.47427287,2.90145306" id="Fill-79" fill="#FFFFFF"></path>
                        <path d="M84.2311963,2.90145306 L2.47427287,2.90145306" id="Stroke-81" stroke="#878787" stroke-width="2.93877551" stroke-linecap="round" stroke-linejoin="round"></path>
                    </g>
                    <path d="M64.9636728,230.497959 C64.9636728,236.584163 61.023262,241.518367 56.1615637,241.518367 C51.2998655,241.518367 47.3594546,236.584163 47.3594546,230.497959 C47.3594546,224.411755 51.2998655,219.477551 56.1615637,219.477551 C61.023262,219.477551 64.9636728,224.411755 64.9636728,230.497959" id="Fill-83" fill="#FFFFFF"></path>
                    <path d="M64.9636728,230.497959 C64.9636728,236.584163 61.023262,241.518367 56.1615637,241.518367 C51.2998655,241.518367 47.3594546,236.584163 47.3594546,230.497959 C47.3594546,224.411755 51.2998655,219.477551 56.1615637,219.477551 C61.023262,219.477551 64.9636728,224.411755 64.9636728,230.497959 Z" id="Stroke-85" stroke="#878787" stroke-width="2.40685714" stroke-linecap="round" stroke-linejoin="round"></path>
                    <path d="M56.1615637,234.171429 C44.8655237,234.171429 35.6233092,224.914286 35.6233092,213.6 L35.6233092,204.783673 C35.6233092,193.469388 44.8655237,184.212245 56.1615637,184.212245 C67.4576038,184.212245 76.6998183,193.469388 76.6998183,204.783673 L76.6998183,213.6 C76.6998183,224.914286 67.4576038,234.171429 56.1615637,234.171429" id="Fill-87" fill="#FFFFFF"></path>
                    <path d="M56.1615637,234.171429 C44.8655237,234.171429 35.6233092,224.914286 35.6233092,213.6 L35.6233092,204.783673 C35.6233092,193.469388 44.8655237,184.212245 56.1615637,184.212245 C67.4576038,184.212245 76.6998183,193.469388 76.6998183,204.783673 L76.6998183,213.6 C76.6998183,224.914286 67.4576038,234.171429 56.1615637,234.171429 Z" id="Stroke-89" stroke="#878787" stroke-width="2.93877551" stroke-linecap="round" stroke-linejoin="round"></path>
                    <path d="M53.2275274,181.273469 C41.9314874,181.273469 32.6892728,190.530612 32.6892728,201.844898 L32.6892728,210.661224 C32.6892728,211.660408 32.786096,212.636082 32.9269297,213.6 L41.4913819,213.6 C54.4011419,213.6 64.9636728,203.020408 64.9636728,190.089796 L64.9636728,185.005714 C61.6306075,182.66351 57.5845714,181.273469 53.2275274,181.273469" id="Fill-91" fill="#E2E2E2"></path>
                    <path d="M56.1615637,184.212245 C44.8655237,184.212245 35.6233092,193.469388 35.6233092,204.783673 L35.6233092,213.6 C35.6233092,214.599184 35.7201324,215.574857 35.8609661,216.538776 L44.4254183,216.538776 C57.3351783,216.538776 67.8977092,205.959184 67.8977092,193.028571 L67.8977092,187.94449 C64.5646439,185.602286 60.5186077,184.212245 56.1615637,184.212245 Z" id="Stroke-93" stroke="#878787" stroke-width="2.93877551" stroke-linecap="round" stroke-linejoin="round"></path>
                    <path d="M169.917088,281.191837 L126.211682,281.191837 C119.959251,281.191837 114.842291,276.066612 114.842291,269.804082 L114.842291,249.920327 C114.842291,238.027102 124.55982,228.293878 136.433865,228.293878 L157.799518,228.293878 C169.673563,228.293878 179.391091,238.027102 179.391091,249.920327 L179.391091,271.702531 C179.391091,276.921796 175.127936,281.191837 169.917088,281.191837 Z" id="Stroke-95" stroke="#878787" stroke-width="2.93877551" stroke-linecap="round" stroke-linejoin="round"></path>
                    <path d="M155.9188,230.497959 C155.9188,236.584163 151.978389,241.518367 147.116691,241.518367 C142.254993,241.518367 138.314582,236.584163 138.314582,230.497959 C138.314582,224.411755 142.254993,219.477551 147.116691,219.477551 C151.978389,219.477551 155.9188,224.411755 155.9188,230.497959" id="Fill-97" fill="#FFFFFF"></path>
                    <path d="M155.9188,230.497959 C155.9188,236.584163 151.978389,241.518367 147.116691,241.518367 C142.254993,241.518367 138.314582,236.584163 138.314582,230.497959 C138.314582,224.411755 142.254993,219.477551 147.116691,219.477551 C151.978389,219.477551 155.9188,224.411755 155.9188,230.497959 Z" id="Stroke-99" stroke="#878787" stroke-width="2.40685714" stroke-linecap="round" stroke-linejoin="round"></path>
                    <path d="M147.116691,234.171429 C135.820651,234.171429 126.578437,224.914286 126.578437,213.6 L126.578437,204.783673 C126.578437,193.469388 135.820651,184.212245 147.116691,184.212245 C158.412731,184.212245 167.654946,193.469388 167.654946,204.783673 L167.654946,213.6 C167.654946,224.914286 158.412731,234.171429 147.116691,234.171429" id="Fill-101" fill="#FFFFFF"></path>
                    <path d="M147.116691,234.171429 C135.820651,234.171429 126.578437,224.914286 126.578437,213.6 L126.578437,204.783673 C126.578437,193.469388 135.820651,184.212245 147.116691,184.212245 C158.412731,184.212245 167.654946,193.469388 167.654946,204.783673 L167.654946,213.6 C167.654946,224.914286 158.412731,234.171429 147.116691,234.171429 Z" id="Stroke-103" stroke="#878787" stroke-width="2.93877551" stroke-linecap="round" stroke-linejoin="round"></path>
                    <path d="M150.050728,181.273469 C161.346768,181.273469 170.588982,190.530612 170.588982,201.844898 L170.588982,210.661224 C170.588982,211.660408 170.492159,212.636082 170.351325,213.6 L161.786873,213.6 C148.877113,213.6 138.314582,203.020408 138.314582,190.089796 L138.314582,185.005714 C141.647647,182.66351 145.693684,181.273469 150.050728,181.273469" id="Fill-105" fill="#E2E2E2"></path>
                    <path d="M147.116691,184.212245 C158.412731,184.212245 167.654946,193.469388 167.654946,204.783673 L167.654946,213.6 C167.654946,214.599184 167.558123,215.574857 167.417289,216.538776 L158.852837,216.538776 C145.943077,216.538776 135.380546,205.959184 135.380546,193.028571 L135.380546,187.94449 C138.713611,185.602286 142.759647,184.212245 147.116691,184.212245 Z" id="Stroke-107" stroke="#878787" stroke-width="2.93877551" stroke-linecap="round" stroke-linejoin="round"></path>
                    <path d="M177.123374,223.885714 C173.52918,223.885714 170.589275,220.941061 170.589275,217.341061 L170.589275,214.534531 C170.589275,214.217143 170.618616,213.905633 170.662626,213.6 L173.39128,213.6 C177.495997,213.6 180.858403,216.967837 180.858403,221.079184 L180.858403,222.698449 C179.799216,223.444898 178.511174,223.885714 177.123374,223.885714" id="Fill-109" fill="#E2E2E2"></path>
                    <path d="M174.189338,226.82449 C170.595144,226.82449 167.655239,223.879837 167.655239,220.279837 L167.655239,217.473306 C167.655239,217.155918 167.684579,216.844408 167.72859,216.538776 L170.457244,216.538776 C174.561961,216.538776 177.924366,219.906612 177.924366,224.017959 L177.924366,225.637224 C176.865179,226.383673 175.577137,226.82449 174.189338,226.82449 Z" id="Stroke-111" stroke="#878787" stroke-width="2.93877551" stroke-linecap="round" stroke-linejoin="round"></path>
                    <g id="Group-116" transform="translate(23.472291, 56.375510)">
                        <path d="M1.88189093,58.9577143 L1.88189093,66.2899592 C1.88189093,68.0796735 2.85012293,69.5431837 4.03253958,69.5431837 L18.3124946,69.5431837 L26.1786461,81.4481633 C27.0148465,82.7118367 28.3850414,82.7118367 29.2212418,81.4481633 L37.0903273,69.5431837 L115.91028,69.5431837 C117.095631,69.5431837 118.063863,68.0796735 118.063863,66.2899592 L118.063863,4.44342857 C118.063863,2.65077551 117.095631,1.18726531 115.91028,1.18726531 L4.03253958,1.18726531 C2.85012293,1.18726531 1.88189093,2.65077551 1.88189093,4.44342857 L1.88189093,42.5358367 L1.88189093,46.7588571" id="Fill-113" fill="#FFFFFF"></path>
                        <path d="M1.88189093,58.9577143 L1.88189093,66.2899592 C1.88189093,68.0796735 2.85012293,69.5431837 4.03253958,69.5431837 L18.3124946,69.5431837 L26.1786461,81.4481633 C27.0148465,82.7118367 28.3850414,82.7118367 29.2212418,81.4481633 L37.0903273,69.5431837 L115.91028,69.5431837 C117.095631,69.5431837 118.063863,68.0796735 118.063863,66.2899592 L118.063863,4.44342857 C118.063863,2.65077551 117.095631,1.18726531 115.91028,1.18726531 L4.03253958,1.18726531 C2.85012293,1.18726531 1.88189093,2.65077551 1.88189093,4.44342857 L1.88189093,42.5358367 L1.88189093,46.7588571" id="Stroke-115" stroke="#00BBB3" stroke-width="2.93877551"></path>
                    </g>
                    <g id="Group-120" transform="translate(73.350909, 74.008163)">
                        <path d="M0.949454169,3.08512653 L50.9718402,3.08512653" id="Fill-117" fill="#FFFFFF"></path>
                        <path d="M0.949454169,3.08512653 L50.9718402,3.08512653" id="Stroke-119" stroke="#00BBB3" stroke-width="2.93877551"></path>
                    </g>
                    <g id="Group-124" transform="translate(41.076509, 100.457143)">
                        <path d="M0.952388205,2.67604898 L50.9747742,2.67604898" id="Fill-121" fill="#FFFFFF"></path>
                        <path d="M0.952388205,2.67604898 L50.9747742,2.67604898" id="Stroke-123" stroke="#00BBB3" stroke-width="2.93877551"></path>
                    </g>
                    <g id="Group-128" transform="translate(41.076509, 74.008163)">
                        <path d="M0.952388205,3.08512653 L28.9225569,3.08512653" id="Fill-125" fill="#FFFFFF"></path>
                        <path d="M0.952388205,3.08512653 L28.9225569,3.08512653" id="Stroke-127" stroke="#00BBB3" stroke-width="2.93877551"></path>
                    </g>
                    <g id="Group-132" transform="translate(93.889164, 100.457143)">
                        <path d="M2.46371034,2.67604898 L30.433879,2.67604898" id="Fill-129" fill="#FFFFFF"></path>
                        <path d="M2.46371034,2.67604898 L30.433879,2.67604898" id="Stroke-131" stroke="#00BBB3" stroke-width="2.93877551"></path>
                    </g>
                    <g id="Group-136" transform="translate(41.076509, 85.763265)">
                        <path d="M0.952388205,4.35085714 L82.7093116,4.35085714" id="Fill-133" fill="#FFFFFF"></path>
                        <path d="M0.952388205,4.35085714 L82.7093116,4.35085714" id="Stroke-135" stroke="#00BBB3" stroke-width="2.93877551"></path>
                    </g>
                    <g id="Group-140" transform="translate(23.472291, 106.334694)">
                        <path d="M1.88189093,4.28620408 L1.88189093,1.03004082" id="Fill-137" fill="#FFFFFF"></path>
                        <path d="M1.88189093,4.28620408 L1.88189093,1.03004082" id="Stroke-139" stroke="#00BBB3" stroke-width="2.93877551"></path>
                    </g>
                    <path d="M222.112421,63.4641306 C222.112421,98.3473959 193.878189,126.624294 159.054112,126.624294 C124.2271,126.624294 95.9958019,98.3473959 95.9958019,63.4641306 C95.9958019,28.5808653 124.2271,0.303967347 159.054112,0.303967347 C193.878189,0.303967347 222.112421,28.5808653 222.112421,63.4641306" id="Fill-141" fill="#FFFFFF"></path>
                    <path d="M222.112421,63.4641306 C222.112421,98.3473959 193.878189,126.624294 159.054112,126.624294 C124.2271,126.624294 95.9958019,98.3473959 95.9958019,63.4641306 C95.9958019,28.5808653 124.2271,0.303967347 159.054112,0.303967347 C193.878189,0.303967347 222.112421,28.5808653 222.112421,63.4641306 Z" id="Stroke-143" stroke="#878787" stroke-width="2.93877551"></path>
                    <path d="M230.324202,132.502433 L227.22586,135.608718 C226.489417,136.346351 225.283528,136.346351 224.54415,135.608718 L202.430318,113.456229 C201.690941,112.718596 201.690941,111.50782 202.430318,110.770188 L205.528661,107.666841 C206.265104,106.929208 207.470993,106.929208 208.207436,107.666841 L230.324202,129.819331 C231.060645,130.556963 231.060645,131.7648 230.324202,132.502433" id="Fill-145" fill="#FFFFFF"></path>
                    <path d="M230.324202,132.502433 L227.22586,135.608718 C226.489417,136.346351 225.283528,136.346351 224.54415,135.608718 L202.430318,113.456229 C201.690941,112.718596 201.690941,111.50782 202.430318,110.770188 L205.528661,107.666841 C206.265104,106.929208 207.470993,106.929208 208.207436,107.666841 L230.324202,129.819331 C231.060645,130.556963 231.060645,131.7648 230.324202,132.502433 Z" id="Stroke-147" stroke="#878787" stroke-width="2.93877551" stroke-linecap="round" stroke-linejoin="round"></path>
                    <path d="M270.459472,169.513959 L264.177701,175.805878 C262.725353,177.260571 260.351717,177.260571 258.902303,175.805878 L216.966121,133.804898 C215.513773,132.350204 215.513773,129.969796 216.966121,128.518041 L223.247893,122.226122 C224.697307,120.774367 227.073877,120.774367 228.523291,122.226122 L270.459472,164.230041 C271.908886,165.681796 271.908886,168.059265 270.459472,169.513959" id="Fill-149" fill="#FFFFFF"></path>
                    <path d="M270.459472,169.513959 L264.177701,175.805878 C262.725353,177.260571 260.351717,177.260571 258.902303,175.805878 L216.966121,133.804898 C215.513773,132.350204 215.513773,129.969796 216.966121,128.518041 L223.247893,122.226122 C224.697307,120.774367 227.073877,120.774367 228.523291,122.226122 L270.459472,164.230041 C271.908886,165.681796 271.908886,168.059265 270.459472,169.513959 Z" id="Stroke-151" stroke="#878787" stroke-width="2.93877551"></path>
                    <path d="M214.599528,63.4641306 C214.599528,94.1919673 189.730635,119.101029 159.052351,119.101029 C128.374067,119.101029 103.505175,94.1919673 103.505175,63.4641306 C103.505175,32.7362939 128.374067,7.82723265 159.052351,7.82723265 C189.730635,7.82723265 214.599528,32.7362939 214.599528,63.4641306" id="Fill-153" fill="#FFFFFF"></path>
                </g>
                <g id="Group-163" transform="translate(105.625309, 6.520522)">
                    <g id="Group-159">
                        <mask id="mask-2" fill="white">
                            <use xlink:href="#path-1"></use>
                        </mask>
                        <g id="Clip-157"></g>
                        <path d="M-62.6669092,99.4390531 L-62.6669092,109.821747 C-62.6669092,112.35791 -61.2967142,114.429747 -59.6184454,114.429747 L-39.4029348,114.429747 L-28.2594647,131.286563 C-27.077048,133.079216 -25.13765,133.079216 -23.9522993,131.286563 L-12.8117632,114.429747 L98.8077823,114.429747 C100.483117,114.429747 101.853312,112.35791 101.853312,109.821747 L101.853312,22.2403592 C101.853312,19.7071347 100.483117,17.6323592 98.8077823,17.6323592 L-59.6184454,17.6323592 C-61.2967142,17.6323592 -62.6669092,19.7071347 -62.6669092,22.2403592 L-62.6669092,76.1845224 L-62.6669092,82.1649306" id="Fill-156" fill="#FFFFFF" mask="url(#mask-2)"></path>
                        <path d="M-62.6669092,99.4390531 L-62.6669092,109.821747 C-62.6669092,112.35791 -61.2967142,114.429747 -59.6184454,114.429747 L-39.4029348,114.429747 L-28.2594647,131.286563 C-27.077048,133.079216 -25.13765,133.079216 -23.9522993,131.286563 L-12.8117632,114.429747 L98.8077823,114.429747 C100.483117,114.429747 101.853312,112.35791 101.853312,109.821747 L101.853312,22.2403592 C101.853312,19.7071347 100.483117,17.6323592 98.8077823,17.6323592 L-59.6184454,17.6323592 C-61.2967142,17.6323592 -62.6669092,19.7071347 -62.6669092,22.2403592 L-62.6669092,76.1845224 L-62.6669092,82.1649306" id="Stroke-158" stroke="#00BBB3" stroke-width="2.47738776" mask="url(#mask-2)"></path>
                    </g>
                    <g id="Group-162">
                        <mask id="mask-4" fill="white">
                            <use xlink:href="#path-3"></use>
                        </mask>
                        <g id="Clip-161"></g>
                        <path d="M81.1008729,58.7755102 C81.1008729,70.1368163 71.9056029,79.3469388 60.5626183,79.3469388 C49.2196337,79.3469388 40.0243637,70.1368163 40.0243637,58.7755102 C40.0243637,47.4142041 49.2196337,38.2040816 60.5626183,38.2040816 C71.9056029,38.2040816 81.1008729,47.4142041 81.1008729,58.7755102" id="Fill-160" fill="#CEEFEC" mask="url(#mask-4)"></path>
                    </g>
                </g>
                <g id="Group-234" transform="translate(0.000000, 6.520522)">
                    <path d="M217.533564,57.0478041 C217.533564,87.7756408 192.664672,112.684702 161.986387,112.684702 C131.308103,112.684702 106.439211,87.7756408 106.439211,57.0478041 C106.439211,26.3199673 131.308103,1.41090612 161.986387,1.41090612 C192.664672,1.41090612 217.533564,26.3199673 217.533564,57.0478041 Z" id="Stroke-164" stroke="#878787" stroke-width="2.93877551"></path>
                    <g id="Group-169" transform="translate(137.899709, 55.836735)">
                        <path d="M3.41052387,2.49678367 C3.3723814,2.87294694 3.34597507,3.25204898 3.32837086,3.63702857" id="Fill-166" fill="#FFFFFF"></path>
                        <path d="M3.41052387,2.49678367 C3.3723814,2.87294694 3.34597507,3.25204898 3.32837086,3.63702857" id="Stroke-168" stroke="#00BBB3" stroke-width="2.60081633" stroke-linecap="round" stroke-linejoin="round"></path>
                    </g>
                    <path d="M172.662172,76.1598367 C177.603089,72.556898 180.818793,66.7322449 180.818793,60.1405714 C180.818793,49.0731429 171.770225,40.1245714 160.679568,40.3067755 C151.789437,40.4537143 144.075856,46.8220408 141.85479,55.1857959" id="Stroke-170" stroke="#00BBB3" stroke-width="2.60081633" stroke-linecap="round" stroke-linejoin="round"></path>
                    <g id="Group-175" transform="translate(167.240073, 76.408163)">
                        <path d="M2.79026859,3.31317551 C2.93990444,2.90468571 3.11888066,2.50795102 3.33306531,2.13178776" id="Fill-172" fill="#FFFFFF"></path>
                        <path d="M2.79026859,3.31317551 C2.93990444,2.90468571 3.11888066,2.50795102 3.33306531,2.13178776" id="Stroke-174" stroke="#00BBB3" stroke-width="2.60081633" stroke-linecap="round" stroke-linejoin="round"></path>
                    </g>
                    <path d="M141.344855,62.464849 C142.005013,68.0955429 145.024136,72.9974204 149.38118,76.171298 C151.420336,77.6524408 152.526467,80.1004408 152.526467,82.6219102 L152.526467,88.1056653 C152.526467,92.219951 155.278594,96.0109714 159.304091,96.8103184 C164.71152,97.8859102 169.502802,93.7157878 169.502802,88.4788898 L169.502802,82.7453388" id="Stroke-176" stroke="#00BBB3" stroke-width="2.60081633" stroke-linecap="round" stroke-linejoin="round"></path>
                    <g id="Group-181" transform="translate(152.569891, 79.346939)">
                        <path d="M0.53810227,1.86112653 L13.2864903,1.86112653" id="Fill-178" fill="#FFFFFF"></path>
                        <path d="M0.53810227,1.86112653 L13.2864903,1.86112653" id="Stroke-180" stroke="#00BBB3" stroke-width="2.60081633" stroke-linecap="round" stroke-linejoin="round"></path>
                    </g>
                    <g id="Group-185" transform="translate(155.503928, 82.285714)">
                        <path d="M1.35347098,3.42808163 L13.3507457,3.42808163" id="Fill-182" fill="#FFFFFF"></path>
                        <path d="M1.35347098,3.42808163 L13.3507457,3.42808163" id="Stroke-184" stroke="#00BBB3" stroke-width="2.60081633" stroke-linecap="round" stroke-linejoin="round"></path>
                    </g>
                    <g id="Group-189" transform="translate(152.569891, 88.163265)">
                        <path d="M0.53810227,2.05773061 L13.2864903,2.05773061" id="Fill-186" fill="#FFFFFF"></path>
                        <path d="M0.53810227,2.05773061 L13.2864903,2.05773061" id="Stroke-188" stroke="#00BBB3" stroke-width="2.60081633" stroke-linecap="round" stroke-linejoin="round"></path>
                    </g>
                    <path d="M154.608166,58.6779429 C154.608166,58.6779429 161.35645,63.1830857 168.104734,58.6779429" id="Stroke-190" stroke="#00BBB3" stroke-width="2.60081633" stroke-linecap="round" stroke-linejoin="round"></path>
                    <g id="Group-195" transform="translate(158.437964, 61.714286)">
                        <path d="M2.91936619,3.15977143 L2.91936619,4.28532245" id="Fill-192" fill="#FFFFFF"></path>
                        <path d="M2.91936619,3.15977143 L2.91936619,4.28532245" id="Stroke-194" stroke="#00BBB3" stroke-width="2.60081633" stroke-linecap="round" stroke-linejoin="round"></path>
                    </g>
                    <g id="Group-199" transform="translate(158.437964, 67.591837)">
                        <path d="M2.91936619,2.35043265 L2.91936619,13.6147592" id="Fill-196" fill="#FFFFFF"></path>
                        <path d="M2.91936619,2.35043265 L2.91936619,13.6147592" id="Stroke-198" stroke="#00BBB3" stroke-width="2.60081633" stroke-linecap="round" stroke-linejoin="round"></path>
                    </g>
                    <g id="Group-203" transform="translate(173.108146, 26.448980)">
                        <path d="M4.90776263,1.19960816 L2.36982117,7.6032" id="Fill-200" fill="#FFFFFF"></path>
                        <path d="M4.90776263,1.19960816 L2.36982117,7.6032" id="Stroke-202" stroke="#00BBB3" stroke-width="2.10710204" stroke-linecap="round" stroke-linejoin="round"></path>
                    </g>
                    <g id="Group-207" transform="translate(178.976218, 32.326531)">
                        <path d="M7.57098744,2.32604082 L1.58848729,4.90922449" id="Fill-204" fill="#FFFFFF"></path>
                        <path d="M7.57098744,2.32604082 L1.58848729,4.90922449" id="Stroke-206" stroke="#00BBB3" stroke-width="2.10710204" stroke-linecap="round" stroke-linejoin="round"></path>
                    </g>
                    <g id="Group-211" transform="translate(164.306037, 26.448980)">
                        <path d="M2.56112035,0.634187755 L5.14013831,6.62635102" id="Fill-208" fill="#FFFFFF"></path>
                        <path d="M2.56112035,0.634187755 L5.14013831,6.62635102" id="Stroke-210" stroke="#00BBB3" stroke-width="2.10710204" stroke-linecap="round" stroke-linejoin="round"></path>
                    </g>
                    <path d="M26.0290102,179.265306 L3.51321515,179.265306 C2.38654518,179.265306 1.46525776,180.188082 1.46525776,181.316571 L1.46525776,191.56702 C1.46525776,192.692571 2.38654518,193.615347 3.51321515,193.615347 L16.7457192,193.615347 L19.3394073,196.216163 L21.9360295,193.615347 L26.0290102,193.615347 C27.1556802,193.615347 28.0769676,192.692571 28.0769676,191.56702 L28.0769676,181.316571 C28.0769676,180.188082 27.1556802,179.265306 26.0290102,179.265306 Z" id="Stroke-212" stroke="#878787" stroke-width="2.93877551" stroke-linecap="round" stroke-linejoin="round"></path>
                    <path d="M10.684,186.612245 C10.684,187.423347 10.0267759,188.081633 9.21698185,188.081633 C8.40718781,188.081633 7.74996366,187.423347 7.74996366,186.612245 C7.74996366,185.801143 8.40718781,185.142857 9.21698185,185.142857 C10.0267759,185.142857 10.684,185.801143 10.684,186.612245" id="Fill-214" fill="#878787"></path>
                    <path d="M16.5520728,186.612245 C16.5520728,187.423347 15.8948486,188.081633 15.0850546,188.081633 C14.2752605,188.081633 13.6180364,187.423347 13.6180364,186.612245 C13.6180364,185.801143 14.2752605,185.142857 15.0850546,185.142857 C15.8948486,185.142857 16.5520728,185.801143 16.5520728,186.612245" id="Fill-216" fill="#878787"></path>
                    <path d="M22.4201455,186.612245 C22.4201455,187.423347 21.7629214,188.081633 20.9531273,188.081633 C20.1433333,188.081633 19.4861091,187.423347 19.4861091,186.612245 C19.4861091,185.801143 20.1433333,185.142857 20.9531273,185.142857 C21.7629214,185.142857 22.4201455,185.801143 22.4201455,186.612245" id="Fill-218" fill="#878787"></path>
                    <path d="M197.160202,220.408163 L219.675997,220.408163 C220.802667,220.408163 221.723955,221.330939 221.723955,222.459429 L221.723955,232.709878 C221.723955,233.835429 220.802667,234.758204 219.675997,234.758204 L206.443493,234.758204 L203.849805,237.35902 L201.256117,234.758204 L197.160202,234.758204 C196.033532,234.758204 195.112245,233.835429 195.112245,232.709878 L195.112245,222.459429 C195.112245,221.330939 196.033532,220.408163 197.160202,220.408163 Z" id="Stroke-220" stroke="#878787" stroke-width="2.93877551" stroke-linecap="round" stroke-linejoin="round"></path>
                    <path d="M212.505212,227.755102 C212.505212,228.566204 213.162437,229.22449 213.972231,229.22449 C214.782025,229.22449 215.439249,228.566204 215.439249,227.755102 C215.439249,226.944 214.782025,226.285714 213.972231,226.285714 C213.162437,226.285714 212.505212,226.944 212.505212,227.755102" id="Fill-222" fill="#878787"></path>
                    <path d="M206.63714,227.755102 C206.63714,228.566204 207.294364,229.22449 208.104158,229.22449 C208.913952,229.22449 209.571176,228.566204 209.571176,227.755102 C209.571176,226.944 208.913952,226.285714 208.104158,226.285714 C207.294364,226.285714 206.63714,226.944 206.63714,227.755102" id="Fill-224" fill="#878787"></path>
                    <path d="M200.769067,227.755102 C200.769067,228.566204 201.426291,229.22449 202.236085,229.22449 C203.045879,229.22449 203.703103,228.566204 203.703103,227.755102 C203.703103,226.944 203.045879,226.285714 202.236085,226.285714 C201.426291,226.285714 200.769067,226.944 200.769067,227.755102" id="Fill-226" fill="#878787"></path>
                    <path d="M47.3594546,149.877551 C47.3594546,152.313796 45.3907162,154.285714 42.9584001,154.285714 C40.5260839,154.285714 38.5573455,152.313796 38.5573455,149.877551 C38.5573455,147.441306 40.5260839,145.469388 42.9584001,145.469388 C45.3907162,145.469388 47.3594546,147.441306 47.3594546,149.877551 Z" id="Stroke-228" stroke="#878787" stroke-width="2.93877551" stroke-linecap="round" stroke-linejoin="round"></path>
                    <path d="M220.4676,191.020408 C220.4676,193.456653 218.498862,195.428571 216.066546,195.428571 C213.63423,195.428571 211.665491,193.456653 211.665491,191.020408 C211.665491,188.584163 213.63423,186.612245 216.066546,186.612245 C218.498862,186.612245 220.4676,188.584163 220.4676,191.020408 Z" id="Stroke-230" stroke="#878787" stroke-width="2.93877551" stroke-linecap="round" stroke-linejoin="round"></path>
                    <path d="M15.0850546,233.632653 C15.0850546,235.254857 13.7706063,236.571429 12.1510182,236.571429 C10.5314301,236.571429 9.21698185,235.254857 9.21698185,233.632653 C9.21698185,232.010449 10.5314301,230.693878 12.1510182,230.693878 C13.7706063,230.693878 15.0850546,232.010449 15.0850546,233.632653 Z" id="Stroke-232" stroke="#878787" stroke-width="1.96016327" stroke-linecap="round" stroke-linejoin="round"></path>
                </g>
            </g>
        </g>
    </g>
</svg>