<?xml version="1.0" encoding="UTF-8"?>
<svg width="166px" height="111px" viewBox="0 0 166 111" version="1.1" xmlns="http://www.w3.org/2000/svg" xmlns:xlink="http://www.w3.org/1999/xlink">
    <!-- Generator: Sketch 52.6 (67491) - http://www.bohemiancoding.com/sketch -->
    <title>img_about_tools_frontend</title>
    <desc>Created with Sketch.</desc>
    <defs>
        <polygon id="path-1" points="0.582369892 0.477316129 49.3944946 0.477316129 49.3944946 49.5802839 0.582369892 49.5802839"></polygon>
    </defs>
    <g id="Website" stroke="none" stroke-width="1" fill="none" fill-rule="evenodd">
        <g id="Home-Copy-2" transform="translate(-977.000000, -1885.000000)">
            <g id="img_about_tools_frontend" transform="translate(977.000000, 1885.000000)">
                <g id="Group-3" transform="translate(115.924731, 61.338916)">
                    <mask id="mask-2" fill="white">
                        <use xlink:href="#path-1"></use>
                    </mask>
                    <g id="Clip-2"></g>
                    <path d="M39.5885419,25.888671 L33.0360366,31.7813161 C32.8654452,31.9348645 32.651757,32.0107355 32.4380688,32.0107355 C32.1902624,32.0107355 31.9442516,31.9077677 31.7682731,31.7090581 C31.4378645,31.336929 31.4701871,30.7660903 31.8401011,30.4337032 L37.6204559,25.2365419 L31.8580581,20.360929 C31.4791656,20.0411871 31.4306817,19.4703484 31.7503161,19.0873806 C32.0681548,18.7044129 32.6355957,18.6574452 33.0162839,18.9789935 L39.5687892,24.5229935 C39.7681118,24.6928 39.8848323,24.9402839 39.8884237,25.2004129 C39.8920151,25.4641548 39.7824774,25.7134452 39.5885419,25.888671 Z M29.5954774,18.6303484 L20.7390903,32.4063484 C20.5667032,32.6755097 20.2775957,32.8200258 19.9848968,32.8200258 C19.8161011,32.8200258 19.6491011,32.7748645 19.4982624,32.6755097 C19.0816602,32.4027355 18.9631441,31.8445419 19.2307032,31.4254452 L28.0870903,17.6494452 C28.3582409,17.2285419 28.9167032,17.112929 29.3279183,17.3820903 C29.7445204,17.6530581 29.8630366,18.2130581 29.5954774,18.6303484 Z M17.5427462,30.2404129 C17.9234344,30.5619613 17.9719183,31.1309935 17.6522839,31.5121548 C17.4763054,31.7253161 17.2213161,31.8355097 16.9645312,31.8355097 C16.7598215,31.8355097 16.5569075,31.7668645 16.3881118,31.6241548 L9.83560645,26.0801548 C9.63448817,25.9121548 9.51776774,25.664671 9.51417634,25.4027355 C9.51058495,25.1408 9.62012258,24.8897032 9.81405806,24.7162839 L16.3665634,18.8218323 C16.732886,18.4912516 17.3039183,18.5219613 17.6343269,18.8940903 C17.9647355,19.2662194 17.9324129,19.8352516 17.5624989,20.1694452 L11.7821441,25.3684129 L17.5427462,30.2404129 Z M24.9895097,0.477316129 C11.5091978,0.477316129 0.582369892,11.4695742 0.582369892,25.0269935 C0.582369892,38.5880258 11.5091978,49.5802839 24.9895097,49.5802839 C38.4680258,49.5802839 49.3948538,38.5880258 49.3948538,25.0269935 C49.3948538,11.4695742 38.4680258,0.477316129 24.9895097,0.477316129 Z" id="Fill-1" fill="#787878" mask="url(#mask-2)"></path>
                </g>
                <path d="M150.925801,61.0586065 L150.925801,58.6596387 L150.925801,8.25963871 C150.925801,4.2131871 147.634285,0.90196129 143.611919,0.90196129 L8.21083333,0.90196129 C4.18846774,0.90196129 0.896951613,4.2131871 0.896951613,8.25963871 L0.896951613,88.4715097 C0.896951613,92.5179613 4.18846774,95.8291871 8.21083333,95.8291871 L113.442382,95.8291871 L115.532575,95.8291871" id="Stroke-4" stroke="#787878" stroke-width="1.8"></path>
                <path d="M140.162202,18.7058065 L77.9484172,18.7058065 C77.1816538,18.7058065 76.5531591,18.0753548 76.5531591,17.304 L76.5531591,13.5772903 C76.5531591,12.804129 77.1816538,12.1754839 77.9484172,12.1754839 L140.162202,12.1754839 C140.928966,12.1754839 141.555665,12.804129 141.555665,13.5772903 L141.555665,17.304 C141.555665,18.0753548 140.928966,18.7058065 140.162202,18.7058065" id="Fill-6" fill="#787878"></path>
                <path d="M129.714108,62.7805161 L78.1506129,62.7805161 C77.2725161,62.7805161 76.5542366,63.5030968 76.5542366,64.3882581 L76.5542366,71.5110968 C76.5542366,72.3944516 77.2725161,73.1188387 78.1506129,73.1188387 L118.516129,73.1188387 C121.136054,68.6442581 125.034516,65.0349677 129.714108,62.7805161" id="Fill-8" fill="#787878"></path>
                <path d="M104.904013,44.2696258 L78.2809806,44.2696258 C77.3310559,44.2696258 76.5535183,43.4874323 76.5535183,42.5318194 L76.5535183,25.3777548 C76.5535183,24.4239484 77.3310559,23.6399484 78.2809806,23.6399484 L104.904013,23.6399484 C105.852142,23.6399484 106.631475,24.4239484 106.631475,25.3777548 L106.631475,42.5318194 C106.631475,43.4874323 105.852142,44.2696258 104.904013,44.2696258 Z" id="Stroke-10" stroke="#787878" stroke-width="0.9"></path>
                <path d="M139.8291,44.2696258 L113.206068,44.2696258 C112.256143,44.2696258 111.478605,43.4874323 111.478605,42.5318194 L111.478605,25.3777548 C111.478605,24.4239484 112.256143,23.6399484 113.206068,23.6399484 L139.8291,23.6399484 C140.777229,23.6399484 141.556562,24.4239484 141.556562,25.3777548 L141.556562,42.5318194 C141.556562,43.4874323 140.777229,44.2696258 139.8291,44.2696258 Z" id="Stroke-12" stroke="#787878" stroke-width="0.9"></path>
                <path d="M76.5533387,51.405471 L141.555844,51.405471" id="Stroke-14" stroke="#787878" stroke-width="0.9"></path>
                <path d="M76.5533387,56.4190968 L141.555844,56.4190968" id="Stroke-16" stroke="#787878" stroke-width="0.9"></path>
                <path d="M67.5714323,0.902503226 L67.5714323,95.829729" id="Stroke-18" stroke="#787878" stroke-width="1.8"></path>
                <path d="M11.8047452,15.4404645 L19.4436484,15.4404645" id="Stroke-20" stroke="#787878" stroke-width="0.9"></path>
                <path d="M11.8047452,27.7362581 L19.4436484,27.7362581" id="Stroke-22" stroke="#787878" stroke-width="0.9"></path>
                <path d="M26.7876978,23.640129 L34.4283968,23.640129" id="Stroke-24" stroke="#787878" stroke-width="0.9"></path>
                <path d="M19.6451258,40.0410839 L27.284029,40.0410839" id="Stroke-26" stroke="#787878" stroke-width="0.9"></path>
                <path d="M19.6451258,48.3659355 L27.284029,48.3659355" id="Stroke-28" stroke="#787878" stroke-width="0.9"></path>
                <path d="M31.3031624,40.0410839 L38.9438613,40.0410839" id="Stroke-30" stroke="#787878" stroke-width="0.9"></path>
                <path d="M19.6451258,31.8414194 L27.284029,31.8414194" id="Stroke-32" stroke="#787878" stroke-width="0.9"></path>
                <path d="M26.7876978,44.1408258 L34.4283968,44.1408258" id="Stroke-34" stroke="#787878" stroke-width="0.9"></path>
                <path d="M36.7622667,44.1408258 L44.4011699,44.1408258" id="Stroke-36" stroke="#787878" stroke-width="0.9"></path>
                <path d="M11.8047452,19.5402065 L30.873272,19.5402065" id="Stroke-38" stroke="#787878" stroke-width="0.9"></path>
                <path d="M30.8736312,48.2405677 L49.9439538,48.2405677" id="Stroke-40" stroke="#787878" stroke-width="0.9"></path>
                <path d="M19.5750935,35.9411613 L38.6454161,35.9411613" id="Stroke-42" stroke="#787878" stroke-width="0.9"></path>
                <path d="M30.8736312,27.7416774 L49.9439538,27.7416774" id="Stroke-44" stroke="#787878" stroke-width="0.9"></path>
                <path d="M22.5387151,15.4404645 L26.7873387,15.4404645" id="Stroke-46" stroke="#787878" stroke-width="0.9"></path>
                <path d="M11.7171151,23.640129 L15.9657387,23.640129" id="Stroke-48" stroke="#787878" stroke-width="0.9"></path>
                <path d="M19.2155946,23.640129 L23.4642183,23.640129" id="Stroke-50" stroke="#787878" stroke-width="0.9"></path>
                <path d="M19.6451258,44.1408258 L23.8937495,44.1408258" id="Stroke-52" stroke="#787878" stroke-width="0.9"></path>
                <path d="M22.5387151,27.7416774 L26.7873387,27.7416774" id="Stroke-54" stroke="#787878" stroke-width="0.9"></path>
                <path d="M30.8736312,31.8414194 L35.1240505,31.8414194" id="Stroke-56" stroke="#787878" stroke-width="0.9"></path>
                <path d="M38.2843011,31.8414194 L42.5329247,31.8414194" id="Stroke-58" stroke="#787878" stroke-width="0.9"></path>
                <path d="M42.3772376,35.9411613 L46.6258613,35.9411613" id="Stroke-60" stroke="#787878" stroke-width="0.9"></path>
                <path d="M33.9440968,19.5402065 L38.1927204,19.5402065" id="Stroke-62" stroke="#787878" stroke-width="0.9"></path>
                <path d="M29.1111527,15.4404645 L46.6264,15.4404645" id="Stroke-64" stroke="#787878" stroke-width="0.9"></path>
            </g>
        </g>
    </g>
</svg>