<?xml version="1.0" encoding="utf-8"?>
<!-- Generator: Adobe Illustrator 23.0.1, SVG Export Plug-In . SVG Version: 6.00 Build 0)  -->
<svg version="1.1" id="Layer_1" xmlns="http://www.w3.org/2000/svg" xmlns:xlink="http://www.w3.org/1999/xlink" x="0px" y="0px"
	 viewBox="0 0 900.05 185.1" enable-background="new 0 0 900.05 185.1" xml:space="preserve">
<g>
	<path fill="#323232" d="M488.822,42.584c-0.236-0.916-0.183-1.906-0.287-3.217c-0.13,0-0.739-0.036-1.342,0.006
		c-2.806,0.197-5.614,0.374-8.413,0.644c-1.54,0.148-3.264,0.09-4.554,0.78c-3.121,1.67-4.712,2.714-2.839,6.812
		c0.203,0.443,0.146,1.003,0.219,1.507c0.347,2.419-1.22,4.285-1.87,6.414c-0.425,1.392-0.684,2.948-2.485,3.407
		c-0.176,0.045-0.305,0.77-0.242,1.143c0.092,0.54,0.38,1.046,0.663,1.767c-0.533-0.09-0.861-0.202-1.183-0.189
		c-0.986,0.038-2.146-0.182-2.914,0.26c-1.238,0.714-2.314,1.788-3.284,2.867c-2.15,2.393-4.718,4.419-6.331,7.293
		c-1.051,1.873-3.192,2.874-4.083,4.908c-0.053,0.121-0.304,0.142-0.443,0.239c-1.868,1.304-3.741,2.604-5.595,3.928
		c-0.601,0.43-1.116,0.984-1.731,1.39c-2.314,1.531-4.755,2.893-6.933,4.593c-0.947,0.739-1.694,1.455-2.965,1.682
		c-2.927,0.522-5.734,0.681-8.497-0.761c-1.188-0.62-2.605-0.783-3.845-1.324c-1.445-0.63-3.032-1.202-4.158-2.234
		c-1.988-1.821-3.898-3.819-5.4-6.042c-0.873-1.292-1.305-2.86-2.724-3.793c-0.191-0.125-0.158-0.654-0.158-0.996
		c0.001-1.927-0.012-3.855,0.059-5.78c0.02-0.548,0.254-1.108,0.475-1.626c0.882-2.063,2.986-2.574,4.704-3.498
		c1.188-0.639,1.833-1.273,1.414-2.646c-0.37-1.214-0.758-2.425-1.047-3.659c-0.1-0.425,0.074-0.914,0.15-1.634
		c0.453,0.353,0.721,0.452,0.775,0.62c0.474,1.477,1.879,1.369,2.976,1.686c0.366,0.106,1.07-0.233,1.297-0.58
		c0.22-0.337,0.128-0.976-0.013-1.424c-0.138-0.436-0.512-0.797-1.024-1.545c1.707,0.114,2.973,0.199,4.377,0.293
		c-0.278-3.061,2.597-3.84,3.914-5.167c-0.304-0.984-0.844-1.822-0.618-2.19c0.5-0.815,0.302-2.477,1.93-2.205
		c1.199,0.2,1.562-0.486,2.104-1.307c0.361-0.547,1.149-0.83,1.774-1.18c0.471-0.264,1.435-0.509,1.414-0.657
		c-0.298-2.178,1.734-3.15,2.658-4.467c1.426-2.033,2.052-3.887,1.739-6.23c-0.053-0.393,0.112-0.815,0.203-1.398
		c0.73,0.456,1.227,0.766,2.21,1.38c-0.39-1.276-0.628-2.053-0.988-3.232c1.072,0.374,1.768,0.617,2.522,0.881
		c0.238-0.636,0.306-1.509,0.657-1.643c1.829-0.698,1.865-2.663,2.935-3.878c0.555-0.63,1.338-1.524,1.238-2.179
		c-0.306-1.994,1.33-2.725,2.085-4.032c0.628-1.087,1.151-2.47,1.042-3.659c-0.064-0.696-1.457-1.271-2.302-1.939
		c0.982-2.146,3.467-1.129,5.762-1.882c-1.622-1.589-2.853-3.121-4.389-4.227c-2.735-1.969-6.142-2.442-9.31-2.827
		c-3.542-0.431-7.24-0.043-10.815,0.419c-2.957,0.383-5.928,1.144-8.715,2.204c-2.31,0.879-4.345,2.465-6.529,3.689
		c-2.183,1.223-5.189,0.708-6.694,3.458c-0.975,1.78-3.841,2.209-3.678,4.926c0.013,0.215-0.323,0.448-0.491,0.678
		c-0.625,0.856-1.354,1.657-1.848,2.583c-1.236,2.315-2.449,4.65-3.507,7.049c-0.787,1.786-1.803,3.678-1.833,5.537
		c-0.035,2.142-1.328,3.354-2.404,4.64c-0.832,0.993-1.027,1.638-0.74,2.846c0.187,0.787-0.05,2.176-0.596,2.535
		c-1.317,0.864-0.858,1.715-0.656,2.814c0.144,0.787-0.015,2.284-0.376,2.398c-1.576,0.499-1.564,1.99-2.312,2.978
		c-1.453,1.917-1.18,3.983-0.688,6.098c0.114,0.489,0.439,1.206,0.233,1.445c-1.081,1.254-0.675,2.743-0.708,4.099
		c-0.05,2.089-0.016,4.231,0.395,6.266c0.475,2.348,0.579,4.483-0.879,6.525c-0.723,1.012-1.309,2.122-1.729,2.813
		c-1.831,1.801-3.414,3.358-4.91,4.829c0.407,0.575,0.604,0.853,0.589,0.833c-1.48,0.731-2.993,1.223-4.179,2.138
		c-1.15,0.887-1.961,2.213-2.927,3.341c-0.571,0.666-1.317,1.239-1.697,1.998c-0.603,1.204-0.992,2.52-1.425,3.805
		c-0.485,1.44-1.478,2.029-2.676,1.57c-0.3,0.392-0.515,0.903-0.897,1.129c-0.984,0.582-2.051,1.025-3.07,1.55
		c-0.76,0.391-1.485,0.851-2.249,1.234c-1.796,0.902-3.602,1.786-5.414,2.656c-0.351,0.169-0.747,0.343-1.123,0.343
		c-1.9,0.001-3.937,0.363-5.662-0.204c-1.874-0.616-3.48-2.083-5.157-3.245c-0.512-0.355-0.92-0.896-1.286-1.414
		c-0.269-0.382-0.616-1.211-0.549-1.255c2.176-1.408,0.893-3.081,0.1-4.347c-0.975-1.556-0.302-2.536,0.788-3.166
		c1.539-0.889,2.726-2.468,4.773-2.493c0.604-0.007,1.671-0.529,1.726-0.925c0.395-2.841,2.961-2.578,4.698-3.315
		c1.273-0.54,2.867-0.283,4.211-0.714c0.879-0.282,1.969-1.01,2.262-1.798c0.816-2.197,2.362-3.419,4.389-4.272
		c0.883-0.372,1.73-0.827,2.905-1.396c-0.874-1.05-1.612-1.936-2.564-3.081c0.812,0,1.484,0.13,2.081-0.025
		c1.574-0.41,3.377-0.595,4.609-1.513c1.76-1.313,3.116-3.178,4.599-4.848c0.839-0.945,1.592-0.703,2.349,0.032
		c0.307,0.299,0.543,0.671,1.049,1.31c0.444-1.46,0.79-2.597,1.066-3.504c-0.771-0.197-1.351-0.345-1.931-0.492
		c0.295-0.831,0.431-1.797,0.966-2.422c0.199-0.232,1.331,0.334,2.071,0.546c1.039-2.448,0.452-4.2-2.007-4.846
		c0.341-0.716,0.664-1.395,1.039-2.183c-1.534,0.131-2.068-0.284-0.916-1.664c0.18-0.216-0.013-1.126-0.268-1.257
		c-1.312-0.673-2.659-1.339-4.07-1.738c-2.341-0.662-4.717-1.274-7.119-1.631c-4.904-0.729-9.482,0.054-13.384,3.42
		c-0.496,0.428-1.171,0.65-1.761,0.969c-2.107,1.141-4.233,2.249-6.313,3.438c-0.965,0.552-1.83,1.277-2.76,1.896
		c-0.653,0.435-1.578,0.666-1.964,1.26c-1.285,1.975-3.429,2.317-5.334,3.135c-0.339,0.146-0.721,0.276-0.974,0.525
		c-1.014,1.001-2.038,2-2.956,3.086c-1.134,1.34-2.723,2.628-3.106,4.186c-0.51,2.079-0.339,4.293-1.787,6.14
		c-0.591,0.753-0.839,1.767-1.379,2.571c-0.899,1.341-1.572,1.235-2.393-0.098c-0.382-0.62-1.173-1.565-1.584-1.475
		c-1.055,0.231-2.58,0.741-2.878,1.531c-0.762,2.022-1.815,1.43-3.244,1.087c-1.33-0.32-2.815-0.379-4.16-0.145
		c-1.224,0.213-2.312,1.128-3.534,1.457c-1.499,0.403-1.858,1.012-1.495,2.578c0.236,1.021,0.521,2.455,0.018,3.144
		c-1.715,2.349-3.545,4.697-5.837,5.755c-0.273,1.147-0.214,2.489-0.739,2.781c-1.13,0.629-1.3,1.44-1.386,2.507
		c-0.128,1.591-0.97,1.916-2.542,2.121c-0.782,0.102-1.714,1.321-2.014,2.222c-0.317,0.952,0.116,2.132,0.059,3.203
		c-0.021,0.395-0.425,0.893-0.793,1.124c-1.147,0.721-2.373,1.315-3.537,2.01c-0.244,0.146-0.535,0.548-0.495,0.777
		c0.291,1.649-1.134,2.362-2.04,2.509c-1.022,0.166-2.418-0.44-3.232-1.175c-0.416-0.376,0.051-1.771,0.181-2.697
		c0.079-0.562,0.327-1.101,0.413-1.663c0.267-1.742,0.597-3.484,0.698-5.237c0.069-1.203-0.048-2.306,1.501-2.646
		c0.205-0.045,0.354-0.683,0.397-1.061c0.118-1.028,0.111-2.072,0.263-3.093c0.078-0.521,0.249-1.219,0.624-1.469
		c1.281-0.852,1.684-2.035,1.424-3.409c-0.294-1.552,0.441-2.664,1.541-3.368c1.045-0.668,1.183-1.438,1.354-2.53
		c0.312-1.991,0.665-4.079,1.565-5.838c0.55-1.077,1.108-1.973,1.15-3.232c0.073-2.169,0.131-4.396,2.174-5.884
		c0.283-0.206,0.442-0.669,0.529-1.044c0.591-2.561,1.057-5.155,1.743-7.69c0.544-2.014,0.244-3.718-1.154-5.251
		c-0.501-0.55-1.016-1.098-1.445-1.703c-2.815-3.97-6.919-5.025-11.395-4.654c-3.148,0.261-6.245,1.134-9.366,1.724
		c-0.334,0.063-0.681,0.062-1.023,0.084c-3.204,0.202-6.423,0.279-9.604,0.665c-1.293,0.157-2.788,0.273-3.591,1.92
		c-0.252,0.516-1.937,0.77-2.731,0.486c-1.217-0.435-0.517-1.635-0.154-2.385c0.614-1.266,1.537-2.383,2.157-3.647
		c0.338-0.69,0.567-1.61,0.406-2.328c-0.24-1.073-0.092-1.704,0.861-2.313c0.907-0.579,2.04-1.237,2.409-2.134
		c0.758-1.841,1.05-3.871,1.584-5.809c0.155-0.562,0.367-1.178,0.744-1.596c1.316-1.458,2.399-2.941,2.484-5.052
		c0.051-1.268,0.331-2.632,0.911-3.743c0.51-0.977,1.581-1.66,2.684-2.749c0.376,0.28,1.019,0.929,1.796,1.282
		c0.665,0.302,1.484,0.265,2.235,0.378c0.035-0.734,0.277-1.539,0.056-2.185c-0.304-0.889-1.04-1.622-1.437-2.491
		c-0.351-0.769-0.688-1.634-0.687-2.456c0.004-2.408,1.758-4.047,3.148-5.647c1.087-1.251,1.435-2.513,1.709-3.977
		c0.362-1.937-0.521-2.893-2.341-3.2c-0.052-0.009-0.097-0.061-0.143-0.094c-3.75-2.684-7.819-2.619-12.03-1.415
		c-1.421,0.406-1.849,1.528-2.198,2.784c-0.214,0.771-0.579,1.501-0.895,2.241c-0.198,0.464-0.401,0.93-0.653,1.366
		c-0.53,0.917-0.968,1.927-1.668,2.697c-1.866,2.052-3.932,3.92-4.589,6.803c-0.265,1.163-0.097,2.645-1.766,3.091
		c-0.198,0.053-0.237,0.704-0.349,1.077c-0.143,0.478-0.133,1.165-0.454,1.399c-2.128,1.55-2.259,4.304-3.89,6.203
		c-1.386,1.613-0.79,4.326-2.626,5.902c-0.164,0.14-0.057,0.563-0.141,0.835c-0.769,2.488-1.501,4.989-2.346,7.45
		c-0.765,2.229-1.662,4.412-2.494,6.618c-0.437,1.158-0.729,2.396-1.329,3.46c-0.64,1.136-1.485,2.099-0.929,3.56
		c0.102,0.269-0.383,0.772-0.619,1.154c-0.328,0.531-0.692,1.04-1.014,1.574c-0.859,1.426-1.704,2.86-2.641,4.437
		c0.356,0.33,0.958,0.887,1.293,1.198c-2.013,2.751-4.093,5.418-5.97,8.22c-1.372,2.049-2.44,4.298-3.719,6.413
		c-0.513,0.848-1.51,1.485-1.79,2.375c-0.714,2.264-2.725,3.596-3.712,5.753c-0.898,1.963-3.456,3.139-2.983,5.842
		c-1.802,0.249-3.607,1.928-3.28,3.106c0.494,1.779-0.385,1.781-1.75,2c-0.961,0.154-1.88,1.058-2.64,1.808
		c-0.53,0.523-0.844,1.322-1.095,2.052c-0.188,0.546-0.21,1.189-0.14,1.77c0.058,0.48,0.357,0.93,0.556,1.41
		c-1.732,0.601-3.344,1.161-5.093,1.769c0.869,0.41,1.407,0.664,1.945,0.917c-0.355,0.574-0.606,1.263-1.088,1.694
		c-0.778,0.696-1.867,1.086-2.532,1.858c-0.694,0.805-1.042,1.908-1.489,2.778c-0.809-0.051-1.365-0.086-1.782-0.112
		c-0.971,1.539-2.086,2.835-2.672,4.337c-1.062,2.724-2.794,4.677-5.362,6.004c-0.447,0.231-0.82,0.809-1.006,1.309
		c-0.822,2.209-1.339,2.415-3.49,1.227c-1.199-0.662-2.082-0.226-2.019,1.104c0.036,0.769,0.469,1.513,0.565,2.288
		c0.065,0.53,0.025,1.445-0.258,1.58c-1.237,0.591-2.001,1.462-2.715,2.635c-0.59,0.969-1.763,1.594-2.712,2.328
		c-0.56,0.433-1.188,0.78-1.989,1.297c0.358,0.827,0.102,1.671-1.409,1.671c0.029-0.163,0.057-0.326,0.086-0.489
		c-0.675-0.304-1.35-0.608-2.024-0.912c-0.296,0.847-0.644,1.681-0.859,2.548c-0.068,0.275,0.337,0.647,0.313,0.958
		c-0.031,0.401-0.17,0.898-0.446,1.156c-1.305,1.22-2.719,2.324-4.001,3.567c-0.947,0.918-1.765,1.791-3.238,2.009
		c-1.315,0.196-2.546,0.959-4.073,1.577c0.553,0.473,0.699,0.566,0.802,0.694c0.092,0.113,0.136,0.264,0.33,0.661
		c-3.156-0.653-5.164,0.726-6.563,3.237c1.086,1.698,1.042,1.96-0.529,3.049c-0.583-0.252-1.174-0.746-1.714-0.696
		c-1.418,0.133-2.864,0.353-4.208,0.807c-3.4,1.147-6.919,2.123-10.066,3.78c-2.42,1.275-4.665,2.498-7.441,3.002
		c-3.693,0.67-7.268,1.991-10.896,3.025c-0.16,0.046-0.343,0.005-0.515,0.015c-4.171,0.256-8.342,0.513-12.513,0.769
		c-0.686,0.042-1.378,0.151-2.058,0.098c-2.701-0.211-5.432-0.286-8.086-0.771c-2.684-0.491-5.263-1.535-7.938-2.099
		c-2.474-0.521-5.011-0.927-7.528-0.979c-1.097-0.023-1.955,0.125-2.754-0.777c-0.297-0.334-0.915-0.375-1.377-0.573
		c-2.17-0.927-4.853-0.844-6.236-3.324c-0.564-1.012-1.228-2.058-2.098-2.79c-1.577-1.327-2.116-3.142-2.75-4.929
		c-0.597-1.681-1.002-3.433-1.649-5.093c-0.577-1.481-1.417-2.858-2.029-4.327c-0.123-0.296,0.157-1.07,0.419-1.166
		c1.818-0.663,3.655-1.312,5.536-1.756c2.044-0.482,4.148-0.707,6.215-1.097c2.921-0.55,5.85-1.077,8.743-1.751
		c1.826-0.425,3.591-1.111,5.391-1.657c2.836-0.86,5.725-1.573,8.508-2.578c5.122-1.849,10.174-3.892,15.276-5.799
		c2.407-0.899,4.969-1.447,7.272-2.548c3.889-1.86,7.65-3.995,11.423-6.088c3.872-2.149,7.608-4.564,11.568-6.53
		c3.101-1.54,5.916-3.367,8.489-5.656c0.664-0.591,1.687-0.757,2.465-1.247c0.683-0.43,1.237-1.058,1.876-1.564
		c0.48-0.381,0.963-0.808,1.518-1.034c0.801-0.325,1.816-0.28,2.483-0.754c2.686-1.906,5.286-3.937,7.893-5.952
		c1.468-1.135,2.727-2.768,4.376-3.383c1.998-0.745,3.357-2.234,5.096-3.235c0.72-0.415,1.339-1.091,1.836-1.771
		c0.237-0.324,0.278-1.054,0.071-1.395c-0.809-1.327-0.586-2.077,0.93-2.738c0.42-0.184,0.977-0.423,1.132-0.782
		c0.614-1.426,2.782-2.406,4.2-1.84c-0.392,0.609-0.793,1.23-1.342,2.082c0.64,0.041,0.99,0.177,1.171,0.057
		c1.952-1.289,3.906-2.579,5.788-3.966c0.4-0.295,0.728-0.986,0.716-1.485c-0.031-1.339,0.706-1.633,1.812-1.783
		c1.282-0.174,3.594-2.323,3.626-3.506c0.042-1.536,0.583-2.265,2.181-2.114c0.213,0.02,0.489-0.359,0.696-0.589
		c1.217-1.354,2.346-2.796,3.648-4.061c2.22-2.157,4.566-4.004,5.967-7.062c0.909-1.984,2.949-3.514,3.887-5.816
		c0.684-1.679,2.36-2.934,3.46-4.473c0.461-0.644,0.577-1.533,0.851-2.311c-0.624-0.168-1.247-0.337-2.2-0.594
		c0.682-2.405-2.318-5.422,1.375-7.438c-0.164-0.681-0.356-1.271-0.444-1.876c-0.338-2.332-0.526-4.693-1.007-6.994
		c-0.249-1.19-0.849-2.376-1.545-3.389c-2.09-3.045-5.281-4.797-8.313-6.705c-0.612-0.385-1.363-0.573-2.073-0.771
		c-1.981-0.553-3.983-1.033-5.961-1.599c-1.821-0.521-3.587-1.352-5.439-1.619c-2.374-0.343-4.809-0.288-7.218-0.353
		c-4.249-0.114-8.503-0.342-12.746-0.227c-3.022,0.082-6.039,0.584-9.042,1.016c-3.289,0.472-6.557,1.089-9.838,1.622
		c-1.359,0.221-2.747,0.299-4.087,0.599c-2.001,0.448-3.983,0.991-5.95,1.572c-3.019,0.891-6.116,1.619-9.002,2.839
		c-3.201,1.353-6.225,3.137-9.28,4.819c-1.881,1.035-3.568,2.492-5.533,3.286c-2.884,1.165-5.464,2.567-7.257,5.192
		c-0.204,0.299-0.649,0.439-0.992,0.638c-1.054,0.61-2.203,1.099-3.145,1.849c-1.129,0.898-1.495,2.768-3.486,2.58
		c-0.291-0.028-0.619,0.474-0.949,0.703c-0.965,0.67-1.956,1.303-2.902,1.999c-0.443,0.326-0.814,0.753-1.2,1.152
		c-0.827,0.855-1.623,1.743-2.47,2.578c-0.636,0.626-1.807,1.119-1.91,1.798c-0.272,1.781-1.627,2.088-2.764,2.957
		c-2.12,1.621-4.878,2.862-5.223,6.089c-0.023,0.219-0.527,0.374-0.788,0.583c-0.433,0.348-0.981,0.638-1.25,1.09
		c-0.803,1.346-1.669,2.606-3.025,3.46c-0.423,0.266-0.88,0.525-1.201,0.893c-0.33,0.378-0.517,0.884-0.761,1.336
		c-0.57,1.058-0.934,2.812-1.742,3.047c-2.473,0.72-3.766,2.28-4.837,4.429c-0.372,0.747-1.696,0.967-2.251,1.686
		c-1.193,1.546-2.599,3.061-2.368,5.293c0.034,0.333-0.206,0.951-0.434,1.013c-1.219,0.331-1.479,1.122-1.644,2.276
		c-0.118,0.823-0.946,1.518-1.289,2.34c-0.671,1.607-2.208,2.621-2.461,4.648c-0.161,1.292-1.096,2.823-2.557,3.865
		c-2.334,1.664-3.85,4.042-4.248,7.036c-0.085,0.639-0.744,1.218-1.184,1.79c-0.374,0.487-0.814,0.925-1.032,1.169
		c0.815,1.025,1.391,1.751,1.968,2.476c-0.121,0.125-0.243,0.251-0.364,0.376c-0.609-0.167-1.217-0.334-1.827-0.501
		c-0.733,1.678-1.238,3.359-2.152,4.775c-0.914,1.416-1.022,2.522-0.024,3.895c0.777,1.069,0.124,1.512-0.836,2.35
		c-1.214,1.06-1.805,2.916-2.441,4.517c-0.28,0.706,0.017,1.631,0.005,2.456c-0.021,1.47-0.06,2.94-0.132,4.409
		c-0.021,0.431-0.064,0.935-0.296,1.267c-0.849,1.217-1.687,2.47-2.725,3.514c-0.461,0.463-1.392,0.647-2.105,0.637
		c-2.358-0.037-4.725-0.424-7.069-0.301c-3.954,0.208-7.887,0.868-11.841,1.018c-2.264,0.086-4.555-0.436-6.828-0.723
		c-1.991-0.252-3.968-0.668-5.965-0.8c-1.209-0.08-2.458,0.171-3.663,0.407c-1.057,0.207-2.065,0.66-3.119,0.896
		c-1.496,0.335-3.014,0.573-4.522,0.852c0.124,0.167,0.248,0.334,0.372,0.502c-0.589,0.575-1.116,1.238-1.781,1.705
		c-0.976,0.686-1.422,2.031-0.543,2.739c1.665,1.342,3.469,2.527,5.304,3.629c0.582,0.35,1.721-0.042,2.131,0.374
		c1.229,1.246,2.116,0.642,3.119-0.184c0.53-0.436,1.07-0.935,1.694-1.16c0.514-0.186,1.647-0.108,1.671,0.017
		c0.38,1.943,1.883,1.377,3.03,1.368c2.746-0.022,5.49-0.2,8.237-0.242c3.166-0.048,6.334,0.021,9.5-0.047
		c0.824-0.018,1.651-0.557,2.459-0.514c2.804,0.147,5.6,0.447,8.4,0.683c1.716,0.145,3.436,0.258,5.148,0.442
		c0.342,0.037,0.773,0.25,0.965,0.522c0.932,1.318,1.744,2.724,2.704,4.02c0.68,0.918,1.128,1.733,0.317,2.371
		c0.881,2.459,1.77,4.683,2.435,6.973c0.169,0.581-0.282,1.416-0.611,2.05c-0.667,1.287-0.664,2.518,0.459,3.426
		c0.911,0.737,2.055,1.185,3.096,1.762c0.086-0.137,0.172-0.273,0.259-0.41c0.275,0.476,0.55,0.953,0.849,1.471
		c1.233-0.517,2.056-1.228,2.464,0.987c0.3,1.631,1.009,3.757,3.189,4.611c0.862,0.337,1.671,1.284,2.097,2.153
		c0.767,1.564,1.656,2.703,3.547,2.773c0.401,0.015,0.926,0.313,1.16,0.645c1.319,1.875,2.877,3.23,5.129,2.73
		c0.252,0.669,0.297,1.334,0.6,1.487c0.927,0.468,1.93,0.912,2.946,1.049c1.996,0.269,4.02,0.325,6.087,0.472
		c-0.052-0.304-0.15-0.879-0.248-1.454c0.136-0.144,0.272-0.288,0.409-0.432c1.06,0.826,2.054,1.764,3.201,2.443
		c0.873,0.516,2.502,1.264,2.825,0.94c1.432-1.434,2.91-0.3,4.31-0.41c1.675-0.133,3.38,0.108,5.071,0.188
		c0.607-0.315,1.273-0.527,1.953-0.593c2.953-0.285,5.939-0.348,8.855-0.839c2.573-0.433,5.081-1.282,7.592-2.036
		c1.146-0.344,2.234-0.887,3.336-1.368c0.709-0.31,1.414-0.639,2.087-1.019c0.857-0.485,1.68-1.03,2.577-1.586
		c1.052-0.254,2.333-0.388,3.462-0.877c1.697-0.735,3.288-1.717,4.922-2.596c3.343-1.801,6.686-3.602,10.025-5.41
		c0.147-0.08,0.253-0.234,0.38-0.351c1.161-1.071,2.372-1.986,4.1-1.894c0.48,0.026,1.021-0.208,1.459-0.455
		c1.076-0.605,2.108-1.288,3.253-1.998c-0.752-1.311,0.141-1.902,1.198-2.188c0.655-0.177,1.452-0.105,2.115,0.091
		c1.055,0.311,1.778-0.072,2.086-0.961c0.176-0.511-0.139-1.191-0.274-2.058c0.178-0.116,0.697-0.452,1.204-0.781
		c2.125,1.319,2.206,1.361,3.702-0.556c0.817-1.046,1.574-1.419,2.723-0.586c0.197,0.143,0.525,0.107,1.076,0.203
		c-0.103-0.649-0.222-1.112-0.238-1.578c-0.02-0.577-0.132-1.271,0.139-1.694c0.167-0.26,1.02-0.249,1.491-0.109
		c1.295,0.385,1.499-0.229,1.495-1.312c-0.002-0.645,0.008-1.5,0.39-1.894c0.936-0.964,2.092-1.714,3.172-2.561
		c0.502,0.299,0.966,0.685,1.498,0.849c0.296,0.091,0.761-0.12,1.037-0.338c0.104-0.082-0.085-0.579-0.19-0.869
		c-0.211-0.583-0.455-1.153-0.686-1.728c0.617-0.068,1.235-0.135,1.928-0.211c0.125-0.423,0.214-0.945,0.433-1.404
		c0.242-0.507,0.663-0.928,0.904-1.435c0.563-1.184,1.184-0.949,1.996-0.237c1.26,1.105,1.969,0.85,2.318-0.795
		c0.106-0.5,0.086-1.029,0.103-1.546c0.086-2.562,1.51-3.345,3.817-1.913c0.636-0.668,1.305-1.355,1.956-2.06
		c0.737-0.799,1.683-1.544,0.714-2.817c-0.054-0.071,0.465-0.579,0.732-0.896c0.28,0.628,0.558,1.249,0.736,1.647
		c0.793-0.731,1.554-1.408,2.285-2.115c0.407-0.394,0.841-0.792,1.131-1.269c0.785-1.294,1.877-1.369,3.325-0.964
		c2.62,0.733,5.337,1.12,8.024,1.598c0.263,0.047,0.579-0.316,0.893-0.425c2.473-0.857,3.11-3.132,4.055-5.183
		c0.617-1.339,1.859-2.662,1.828-3.969c-0.061-2.53,1.555-4.09,3.021-5.229c1.605-1.248,1.925-2.401,1.572-4.061
		c-0.205-0.964,0.081-1.371,1.026-1.556c0.717-0.14,1.758-0.281,2.024-0.767c0.997-1.821,1.886-3.737,2.504-5.715
		c0.302-0.966,0.039-1.9,1.583-1.776c0.693,0.055,1.483-0.457,2.135-0.863c0.225-0.14,0.362-0.893,0.199-1.104
		c-0.91-1.182-1.047-1.976,0.76-2.182c0.19-0.021,0.41-0.218,0.525-0.394c0.935-1.435,2.292-2.777,2.675-4.353
		c0.747-3.074,3.739-4.131,5.187-6.556c1.018-1.705,2.76-2.972,4.152-4.46c0.848-0.907,1.609-1.899,2.475-2.787
		c0.888-0.91,1.858-1.741,2.873-2.682c-1.382-1.167-2.781-2.158-0.275-3.167c0.263-0.106,0.312-0.703,0.495-1.054
		c0.317-0.607,0.539-1.332,1.015-1.777c2.315-2.166,4.84-4.126,7.011-6.423c1.282-1.355,3.033-1.359,4.428-2.261
		c0.275-0.178,0.941-0.01,1.281,0.217c1.129,0.754,1.467-0.028,2.061-0.973c-0.866,0-1.51,0-2.28,0
		c0.543-1.38,1.261-1.991,2.673-1.623c0.486,0.126,1.162-0.013,1.607-0.275c1.767-1.042,3.475-1.905,5.624-2.28
		c3.119-0.544,6.134-1.058,9.326-0.704c1.67,0.186,1.878,1.353,2.308,2.379c0.452,1.079-0.578,1.125-1.264,1.368
		c-0.178,0.063-0.415,0.331-0.407,0.493c0.068,1.351,0.173,2.701,0.299,4.049c0.035,0.368,0.38,0.856,0.243,1.067
		c-0.93,1.43-1.951,2.801-2.943,4.191c-0.264,0.397-0.316,1.015-0.411,1.627c-0.316,2.033-0.555,4.085-1.005,6.089
		c-0.335,1.491-0.604,3.198-1.508,4.321c-2.567,3.188-3.601,6.853-4.126,10.76c-0.052,0.385,0.007,0.807,0.109,1.187
		c0.301,1.117,0.068,1.93-0.907,2.701c-1.767,1.397-2.712,5.49-1.652,7.393c0.667,1.198,0.54,2.089-0.111,3.187
		c-0.573,0.967-1.226,2.098,0.412,2.87c0.215,0.102,0.299,0.682,0.286,1.036c-0.116,3.163,1.748,5.21,4.037,6.908
		c1.091,0.809,2.397,1.475,3.707,1.812c3.517,0.906,6.938,0.089,10.268-1.069c0.477-0.166,0.891-0.781,1.131-1.285
		c0.228-0.478,0.189-1.083,0.265-1.62c3.283,0.234,3.363,0.186,3.736-2.067c0.814-0.227,1.74-0.262,2.383-0.707
		c2.031-1.401,3.872-3.088,5.955-4.398c1.14-0.717,1.605-1.567,1.311-2.672c-0.268-1.008-0.059-2.603-1.972-2.496
		c-0.206,0.011-0.709-1.02-0.632-1.496c0.069-0.43,0.745-0.763,1.152-1.138c1.056,1.729,2.31,0.405,3.422,0.149
		c2.542-0.585,2.934-1.866,0.981-4.055c1.189-0.271,2.201-0.457,3.184-0.744c0.443-0.13,0.828-0.46,1.24-0.7
		c-0.241-0.336-0.576-0.64-0.704-1.015c-0.261-0.764-0.411-1.566-0.607-2.353c0.621-0.098,1.292-0.08,1.853-0.32
		c1.02-0.436,2.148-0.846,2.914-1.593c1.15-1.121,2.027-2.523,2.874-3.616c2.246,0.763,4.399,0.613,5.768,2.579
		c0.485,0.696,0.873,1.076,0.773,1.985c-0.089,0.813,0.095,1.73,0.412,2.496c0.499,1.205,1.565,2.265,1.759,3.487
		c0.425,2.676,1.259,5.098,2.789,7.334c0.768,1.122,1.355,2.272,3.042,1.889c0.219-0.05,0.672,0.389,0.829,0.697
		c1.501,2.961,4.806,2.501,7.172,3.81c0.115,0.063,0.356-0.01,0.495-0.093c2.093-1.239,4.041-0.636,6.074,0.272
		c0.657,0.293,1.953,0.25,2.362-0.191c1.552-1.676,3.266-1.526,5.176-1.024c0.586,0.154,1.314,0.199,1.859-0.012
		c1.089-0.421,2.096-1.053,2.872-1.46c0.342-0.76,0.486-1.507,0.937-1.91c0.246-0.22,1.446,0.067,1.478,0.251
		c0.332,1.953,1.579,1.11,2.593,1.058c0.31-2.33,0.396-2.364,2.626-1.666c0.329,0.103,1.068-0.047,1.082-0.15
		c0.225-1.725,1.503-1.291,2.578-1.377c0.35-0.028,0.672-0.394,1.01-0.599c0.709-0.431,1.416-0.864,2.131-1.283
		c0.339-0.198,0.914-0.29,1.008-0.561c0.707-2.034,2.785-2.842,3.934-4.475c0.177-0.252,0.841-0.379,1.178-0.264
		c1.814,0.615,2.1,0.36,2.037-1.557c-0.036-1.099,0.248-2.209,0.413-3.514c0.996,0.623,1.542,0.965,1.86,1.164
		c1.171-1.205,2.115-2.244,3.133-3.205c1.016-0.958,3.398-2.956,3.398-2.956s1.133,3.792,3.109,4.924
		c1.966,1.125,3.661,2.85,6.003,3.102c1.959,0.211,3.197,2.786,5.534,1.573c0.125-0.065,0.488,0.5,0.789,0.572
		c1.459,0.349,3.034,1.102,4.378,0.816c1.734-0.369,3.157-0.982,4.21,0.988c0.066,0.123,0.275,0.24,0.419,0.241
		c2.768,0.014,5.536,0.01,8.4,0.01c0.451,0.965,1.603,1.249,2.052,0.231c0.773-1.75,1.736-0.821,2.793-0.503
		c0.876,0.263,1.888,0.554,2.729,0.359c1.974-0.458,3.893-1.168,5.808-1.849c0.501-0.178,0.912-0.616,1.355-0.946
		c0.405-0.302,0.782-0.86,1.198-0.885c1.297-0.08,1.508-0.766,1.397-1.855c-0.04-0.396,0.153-0.816,0.239-1.225
		c0.441,0.174,0.883,0.347,1.324,0.521c0.663,0.262,1.64,0.939,1.934,0.716c1.271-0.966,3.295-1.359,3.319-3.463
		c0.014-1.162,0.641-1.586,1.604-1.552c1.699,0.061,2.74-1.008,3.833-2.023c0.375-0.348,0.654-0.876,1.089-1.073
		c2.525-1.14,4.93-2.405,6.463-4.862c0.138-0.221,0.424-0.429,0.677-0.485c2.928-0.651,4.047-3.443,6.091-5.135
		c0.13-0.108,0.07-0.435,0.114-0.656c0.338-1.694,0.672-3.389,1.029-5.079c0.045-0.215,0.219-0.404,0.527-0.943
		c1.599,1.664,2.986,3.035,4.268,4.498c0.276,0.315,0.313,0.994,0.215,1.453c-0.283,1.334-0.797,2.624-1.013,3.964
		c-0.144,0.892-0.09,1.886,0.161,2.752c0.323,1.116,0.584,2.044-0.435,2.318c-0.251,1.303-0.349,2.345-0.671,3.313
		c-0.282,0.849-0.849,1.598-1.225,2.421c-0.228,0.499-0.164,1.273-0.52,1.547c-2.38,1.829-2.454,4.49-2.689,7.086
		c-0.177,1.95-0.177,3.888-2.49,4.772c-1.31,0.501-2.609,1.192-2.582,2.966c0.002,0.16-0.28,0.34-0.452,0.486
		c-2.57,2.172-5.146,4.338-7.711,6.516c-0.105,0.089-0.114,0.293-0.099,0.252c0.376,0.529,0.96,1.22,0.898,1.284
		c-0.519,0.535-1.097,1.181-1.772,1.358c-1.216,0.32-2.219,0.524-3.188,1.656c-1.025,1.197-1.615,2.412-2.049,3.827
		c-0.09,0.294-0.312,0.656-0.569,0.771c-1.316,0.587-2.667,1.096-3.997,1.653c-0.192,0.081-0.353,0.263-0.497,0.426
		c-2.211,2.497-4.392,5.02-6.631,7.492c-2.313,2.554-5.682,4.021-7.426,7.183c-0.157,0.284-0.638,0.474-1.001,0.547
		c-2.123,0.429-2.902,1.387-2.913,3.608c-0.003,0.552,0.079,1.273-0.22,1.626c-1.172,1.381-2.289,2.961-3.789,3.87
		c-1.74,1.054-1.514,2.148-0.96,3.664c0.563-0.078,1.09-0.152,1.623-0.226c0.549,1.365,1.361,2.248,2.889,2.009
		c2.002-0.313,3.999-0.655,6.084-0.999c-0.042-0.295-0.096-0.663-0.163-1.127c1.535-0.306,3.027-0.562,4.497-0.911
		c0.876-0.208,1.514-0.62,1.448-1.773c-0.031-0.545,0.425-1.186,0.806-1.667c0.472-0.596,1.096-1.07,1.817-1.751
		c1.019,0.638,2.199,0.473,2.504-0.947c0.41-1.91,1.38-2.812,3.387-2.551c-1.156-2.472-1.122-2.948,0.329-4.742
		c0.416,0.637,0.805,1.231,1.506,2.303c1.024-1.194,2.413-2.168,2.805-3.448c0.408-1.332,0.684-1.917,2.057-2.719
		c2.684-1.569,4.542-4.241,5.386-7.446c3.586-1.015,3.637-1.058,5.397-4.216c0.166-0.297,0.334-0.696,0.604-0.816
		c1.5-0.669,2.079-1.826,1.892-3c0.846-0.198,1.742-0.136,2.15-0.552c1.606-1.636,4.152-2.733,3.659-5.731
		c-0.033-0.203,0.058-0.498,0.2-0.645c0.387-0.4,0.833-0.743,1.255-1.109c0.268,0.417,0.536,0.833,0.922,1.431
		c0.576-0.841,1.035-1.683,1.655-2.383c1.839-2.075,3.461-4.53,5.719-5.976c1.437-0.92,1.492-1.86,1.869-3.045
		c0.196-0.617,0.724-1.129,1.289-1.965c-0.616-0.923-0.451-2.203,0.688-3.396c0.223-0.233,0.316-0.599,0.441-0.916
		c0.985-2.499,1.974-4.997,2.931-7.506c0.108-0.284,0.043-0.638,0.036-0.96c-0.016-0.758-0.062-1.516-0.067-2.274
		c-0.012-1.773,0.637-3.964-0.174-5.213c-0.975-1.502-0.604-2.674-0.508-4.015c0.099-1.379,0.385-2.766-0.936-3.289
		c0.547-0.908,1.442-1.74,1.408-2.531c-0.03-0.714-1.076-1.385-1.706-2.113c-0.32-1.334-0.672-2.8-1.047-4.364
		c1.447-0.311,2.076-0.907,1.006-2.238c-0.218-0.271-0.143-0.843-0.081-1.258c0.149-1.001,0.318-2.006,0.577-2.983
		c0.276-1.039,0.666-2.047,1.006-3.068c0.07-0.211,0.247-0.455,0.194-0.628c-0.389-1.263,0.354-1.951,1.097-2.83
		c0.558-0.66,0.894-1.814,0.773-2.67C489.912,45.134,489.161,43.9,488.822,42.584z M344.231,75.008
		c0.123-0.259,0.409-0.517,0.388-0.755c-0.162-1.864,1.405-2.724,2.17-4.056c1.396-2.431,3.971-3.202,5.907-4.833
		c2.399-2.021,5.127-3.653,7.723-5.438c1.029-0.708,2.019-1.543,3.157-1.993c0.614-0.243,1.501,0.205,1.785,0.255
		c-0.989,1.672-1.904,3.451-3.048,5.069c-0.695,0.982-1.777,1.681-2.625,2.565c-1.648,1.72-3.328,3.42-4.826,5.266
		c-0.37,0.456-0.119,1.44-0.098,2.179c0.013,0.454,0.131,0.905,0.201,1.357c-0.145,0.046-0.291,0.092-0.436,0.137
		c-0.355-0.4-0.711-0.8-1.541-1.734c-1.23,1.455-2.459,2.84-3.605,4.292c-0.589,0.746-1.118,1.076-2.171,0.896
		c-1.32-0.225-2.708-0.054-4.468-0.054C343.262,77.062,343.742,76.034,344.231,75.008z M64.076,130.743
		c-0.327-0.372-0.507-1.436-0.27-1.653c2.205-2.02,1.593-4.667,1.544-7.076c-0.077-3.808,1.336-6.982,3.401-10.009
		c0.412-0.604,0.693-1.325,0.911-2.031c1.39-4.514,4.683-8.08,6.349-12.362c1.239-3.185,3.121-5.765,4.999-8.447
		c1.409-2.012,2.927-3.947,4.363-5.94c1.566-2.175,2.909-4.541,4.676-6.533c3.431-3.867,7.058-7.564,10.668-11.269
		c2.634-2.703,5.282-5.404,8.089-7.922c2.173-1.95,4.611-3.604,6.913-5.412c0.796-0.625,1.497-1.375,2.313-1.97
		c2.844-2.075,5.662-4.194,8.597-6.135c3.576-2.364,7.194-4.68,10.914-6.806c4.697-2.684,9.446-5.3,14.306-7.672
		c3.529-1.722,7.285-2.975,10.919-4.488c1.713-0.713,3.361-1.582,5.071-2.302c0.614-0.259,1.324-0.407,1.989-0.403
		c2.66,0.016,5.168-1.301,7.979-0.545c1.191,0.32,2.716-0.918,4.106-0.965c4.526-0.155,9.15-0.535,13.408,1.445
		c3.189,1.483,6.267,3.228,9.28,5.047c0.84,0.507,1.508,1.61,1.832,2.582c0.435,1.307,0.931,1.956,2.52,1.107
		c0,0.932,0,1.557,0,2.326c-0.531-0.205-1.012-0.391-1.685-0.651c-0.039,0.502-0.103,0.863-0.087,1.22
		c0.032,0.747,0.279,1.53,0.126,2.23c-0.325,1.477-1.37,2.989-1.165,4.342c0.265,1.748-0.174,2.988-1.038,4.316
		c-0.304,0.468-0.378,1.081-0.639,1.585c-0.457,0.881-0.93,1.762-1.485,2.584c-0.721,1.067-1.504,2.096-2.307,3.104
		c-0.535,0.672-1.15,1.279-1.844,2.042c1.005,0.966,0.874,1.833-0.707,2.467c-0.484,0.194-0.949,0.714-1.181,1.2
		c-0.573,1.199-1.287,1.514-2.175,0.744c-0.966,1.532-1.845,3.035-2.853,4.446c-0.25,0.35-0.902,0.502-1.394,0.575
		c-3.124,0.461-4.473,2.255-4.048,4.884c-1.762-0.044-2.886,0.886-3.909,2.268c-0.554,0.748-1.651,1.257-2.601,1.514
		c-1.996,0.54-3.001,1.818-4.189,3.478c-1.183,1.653-2.695,3.688-5.338,3.813c-1.716,0.081-2.982,1.017-3.582,2.732
		c-0.111,0.316-0.43,0.591-0.711,0.811c-1.704,1.338-3.376,2.725-5.152,3.962c-2.589,1.803-5.239,3.52-7.896,5.223
		c-2.575,1.651-5.202,3.221-7.784,4.86c-3.977,2.524-7.895,5.143-11.916,7.593c-2.854,1.739-5.858,3.231-8.751,4.908
		c-0.928,0.538-1.66,1.41-2.581,1.965c-2.03,1.224-4.084,2.421-6.2,3.487c-2.979,1.502-5.998,2.933-9.049,4.282
		c-1.936,0.856-3.995,1.432-5.935,2.279c-1.764,0.77-3.401,1.831-5.17,2.586c-1.66,0.709-3.432,1.152-5.133,1.771
		c-2.879,1.047-5.732,2.167-8.618,3.194c-0.741,0.264-1.565,0.291-2.349,0.437c-1.205,0.225-2.458,0.32-3.601,0.724
		c-1.394,0.493-2.649,1.254-4.266,0.925c-0.654-0.133-1.465,0.25-2.143,0.542C67.873,132.493,65.295,132.131,64.076,130.743z
		 M405.23,45.415c0.133-0.587,0.622-1.295,0.433-1.717c-0.623-1.393,0.145-2.346,0.768-3.37c0.901-1.482,1.99-2.872,2.71-4.434
		c0.615-1.332,0.926-2.834,1.182-4.294c0.265-1.511,1.123-2.483,2.111-3.595c1.013-1.141,1.405-2.832,2.068-4.283
		c-0.217-0.06-0.433-0.119-0.65-0.179c-0.402-0.531-0.804-1.062-1.206-1.593c0.578-0.266,1.162-0.521,1.733-0.802
		c0.609-0.3,1.417-0.475,1.765-0.968c0.743-1.052,1.432-1.96,2.862-2.079c0.254-0.021,0.503-0.795,0.648-1.254
		c0.192-0.611,0.278-1.255,0.461-2.131c1.427,1.227,2.092,0.72,3.008-0.331c0.832-0.954,2.182-1.481,3.349-2.112
		c1.449-0.782,2.877-1.753,4.439-2.142c2.046-0.51,4.214-0.532,6.458-0.778c-0.363,1.321-0.609,2.219-0.911,3.316
		c-0.268-0.043-0.86-0.137-1.268-0.201c-0.769,1.199-1.559,2.264-2.145,3.432c-0.209,0.417-0.007,1.108,0.155,1.628
		c0.418,1.339,0.324,2.329-1,3.257c-1.392,0.976-2.522,2.329-3.755,3.528c-0.16,0.156-0.355,0.375-0.363,0.573
		c-0.14,3.376-3.495,4.269-5.026,6.551c-1.881,2.803-4.478,4.896-6.762,7.302c-1.702,1.794-2.695,4.243-4.152,6.294
		c-0.928,1.306-1.547,2.729-2.256,4.087c-0.835,1.6-3.221,2.405-4.987,3.468c-0.099,0.06-1.02-0.727-0.971-1.022
		C404.274,49.503,404.767,47.461,405.23,45.415z M422.665,93.508c-1.888,0.281-3.694,0.736-5.695-0.083
		c-2.533-1.037-5.346-1.378-7.92-2.335c-1.534-0.571-3.128-1.501-4.176-2.717c-1.149-1.333-2.415-2.836-2.158-4.981
		c0.078-0.657-0.742-1.385-1.001-2.132c-0.191-0.55-0.394-1.503-0.138-1.709c0.449-0.36,1.364-0.55,1.874-0.329
		c0.855,0.371,1.741,0.987,2.26,1.743c0.821,1.198,1.554,2.11,3.179,1.473c0.266-0.104,0.686,0.184,1.378,0.396
		c-0.83,0.762-1.357,1.247-2.011,1.847c1.578,0.921,3.065,1.711,4.461,2.635c0.799,0.529,1.355,1.496,2.197,1.871
		c1.105,0.492,2.373,0.734,3.59,0.823c1.131,0.083,2.308-0.333,2.758,1.276c0.077,0.277,0.92,0.293,1.351,0.533
		c0.35,0.195,0.612,0.546,0.914,0.828C423.241,92.944,422.988,93.46,422.665,93.508z"/>
	<path fill="#323232" d="M899.803,5.09c-1.794-2.44-5.37-3.315-8.29-2.069c-0.464,0.198-1.001,0.254-1.512,0.311
		c-2.226,0.246-4.535,0.182-6.662,0.775c-2.292,0.639-4.487,1.751-6.591,2.901c-2.167,1.185-4.015,3.253-6.29,3.862
		c-2.659,0.711-4.055,3.62-7.003,3.462c-0.167-0.009-0.342,0.287-0.525,0.426c-1.059,0.808-2.124,1.608-3.181,2.417
		c-0.496,0.38-0.98,0.775-1.469,1.164c-0.81,0.646-1.526,1.576-2.448,1.879c-1.927,0.635-3.774,1.251-5.163,2.85
		c-0.515,0.593-1.197,1.379-1.863,1.441c-2.712,0.255-4.282,2.556-6.677,3.49c-2.684,1.048-4.837,3.412-7.301,5.086
		c-1.219,0.829-2.8,1.182-3.896,2.123c-2.51,2.154-5.03,4.039-8.383,4.845c-2.869,0.69-5.639,1.891-8.355,3.088
		c-3.38,1.489-6.615,3.309-9.996,4.793c-2.771,1.216-5.688,2.094-8.5,3.222c-4.195,1.683-8.348,3.47-12.532,5.182
		c-3.983,1.629-7.967,2.261-12.367,1.414c-3.328-0.641-6.712-1.748-10.31-0.86c-1.781,0.44-3.824,0.158-5.69-0.151
		c-5.359-0.888-10.706-1.871-16.022-2.987c-3.303-0.693-6.532-1.735-9.815-2.534c-0.904-0.22-1.9-0.036-2.823-0.205
		c-1.564-0.285-3.087-0.826-4.656-1.039c-2.671-0.363-5.387-0.47-7.604-2.313c-0.249-0.207-0.61-0.287-0.927-0.404
		c-2.804-1.034-6.02-0.733-8.566-2.662c-0.259-0.196-0.867,0.054-1.309,0.12c-0.423,0.063-0.904,0.332-1.25,0.207
		c-1.373-0.497-2.726-1.065-4.045-1.695c-2.099-1.003-3.949-2.221-6.453-2.674c-3.417-0.618-6.68-2.389-9.852-3.98
		c-4.05-2.032-7.949-4.46-12.44-5.327c-2.775-0.536-5.587-0.739-8.535-0.114c-2.288,0.485-3.945,1.887-5.98,2.668
		c-2.107,0.808-3.989,2.049-3.861,4.84c0.015,0.322-0.86,0.994-1.297,0.973c-1.56-0.075-2.438,0.818-3.278,1.883
		c-0.271,0.344-0.529,0.716-0.863,0.989c-1.139,0.928-2.302,1.827-3.47,2.718c-0.388,0.296-0.802,0.716-1.238,0.763
		c-1.336,0.144-2.11,0.693-1.877,2.138c-0.734,0.158-1.338,0.288-2.062,0.443c0.134,0.795,0.255,1.51,0.456,2.693
		c-1.415-1.731-2.492-1.552-3.565-0.32c-0.253,0.291-0.663,0.442-0.994,0.667c-1.339,0.912-3.153,1.545-3.901,2.808
		c-1.183,1.998-3.092,1.481-4.543,2.429c-0.188-1.208-0.334-2.149-0.433-2.785c0.206-1.343,0.374-2.44,0.556-3.629
		c0.699,0.157,1.811-0.715,1.852,0.902c0.015,0.602,0.039,1.204,0.059,1.807c0.524-0.435,1.127-0.805,1.545-1.325
		c0.304-0.377,0.345-0.958,0.537-1.435c0.14-0.349,0.3-0.947,0.508-0.973c1.756-0.217,1.869-1.528,2.181-2.863
		c1.014-4.344,1.449-4.74,4.299-4.923c1.166-1.74,1.863-3.646,3.226-4.58c1.457-0.999,1.319-1.899,1.059-3.165
		c-0.401-1.951-1.467-3.407-3.112-4.523c-1.866-1.266-3.622-2.697-5.521-3.908c-0.615-0.392-1.635-0.125-2.29-0.485
		c-3.699-2.034-7.682-0.902-11.524-1.038c-1.765-0.062-3.667,0.5-5.321,1.211c-3.026,1.299-5.55,3.252-7.67,5.929
		c-2.96,3.737-5.314,7.563-5.8,12.447c-0.11,1.102-0.81,2.16-0.482,3.406c0.058,0.22-0.533,0.557-0.701,0.9
		c-0.864,1.762-2.468,3.61-2.323,5.3c0.173,2.023-0.743,4.781,1.864,6.227c0.17,0.094,0.105,0.549,0.234,0.791
		c0.404,0.757,0.712,1.634,1.306,2.203c1.017,0.973,1.052,2.296-0.094,3.186c-1.325,1.03-2.573,2.165-3.941,3.132
		c-2.942,2.082-5.108,5.192-8.637,6.499c-0.35,0.13-0.621,0.477-0.925,0.729c-1.902,1.58-3.861,3.097-5.684,4.763
		c-1.256,1.148-3.081,1.353-4.027,3.197c-0.663,1.292-2.481,2.063-3.893,2.875c-1.115,0.64-2.385,1.023-3.611,1.454
		c-1.614,0.567-3.239,1.111-4.887,1.562c-0.337,0.092-0.797-0.266-1.2-0.416c0.269-0.379,0.459-0.891,0.824-1.106
		c0.643-0.38,1.393-0.58,2.098-0.855c0.125-0.243,0.25-0.486,0.376-0.729c-0.916-0.475-1.831-0.95-2.747-1.425
		c0.139-0.19,0.278-0.379,0.417-0.569c0.55-0.127,1.126-0.411,1.643-0.33c0.392,0.062,0.794,0.539,1.037,0.927
		c0.278,0.444,0.384,0.996,0.565,1.5c0.675-0.507,1.817-0.928,1.928-1.538c0.234-1.287,0.93-1.64,1.927-2.271
		c1.424-0.901,3.679-1.188,3.755-3.647c0.009-0.28,0.948-0.639,1.501-0.763c0.496-0.111,1.053,0.05,1.698,0.099
		c-0.295-1.166-0.869-2.263,0.762-2.616c0.167-0.036,0.209-0.491,0.382-0.688c0.353-0.402,0.692-0.963,1.147-1.103
		c1.858-0.573,3.56-1.341,4.204-3.332c0.716-2.215,1.124-4.538,1.946-6.707c0.717-1.89,0.783-3.819,0.998-5.758
		c0.035-0.317,0.185-0.859,0.352-0.888c1.931-0.33,1.043-1.535,0.994-2.523c-0.702-0.035-1.243-0.062-1.808-0.091
		c0.729-3.715,0.048-5.346-1.611-5.513c-0.557-0.983-0.842-1.695-1.308-2.257c-0.628-0.757-1.322-1.5-2.118-2.067
		c-2.181-1.554-4.296-3.287-6.681-4.448c-3.853-1.875-8.033-2.763-12.352-2.382c-2.264,0.2-4.604,0.425-6.725,1.167
		c-3.89,1.362-7.596,3.243-11.467,4.667c-3.301,1.214-5.579,3.212-6.505,6.655c-0.081,0.302-0.318,0.701-0.577,0.795
		c-2.14,0.773-2.631,2.86-3.576,4.529c-1.02,1.799-1.235,4.093-2.861,4.852c-0.306,1.711-0.326,3.069-0.806,4.238
		c-0.841,2.047-1.209,4.05-0.571,6.197c0.18,0.603,0.484,1.231,0.442,1.828c-0.243,3.458,0.889,6.515,2.425,9.528
		c0.403,0.791,0.197,1.892,0.292,3.123c-4.146-1.394-8.162-0.425-11.811-2.311c-1.804-0.933-4.135-0.848-6.227-1.225
		c-3.147-0.567-6.442-0.737-9.395-1.829c-2.437-0.901-4.612-0.49-6.893-0.173c-0.448,0.062-1.115,1.004-1.094,1.517
		c0.054,1.316,0.66,2.357,1.787,3.312c1.317,1.116,2.426,2.232,4.32,2.094c0.433-0.031,0.896,0.46,1.357,0.689
		c0.266,0.132,0.621,0.381,0.823,0.3c1.448-0.583,2.626,0.003,3.895,0.629c1.058,0.522,2.252,0.799,3.411,1.079
		c1.495,0.361,3.007,0.682,4.529,0.9c1.25,0.179,2.528,0.149,3.787,0.276c0.856,0.087,1.758,0.149,2.535,0.472
		c0.839,0.349,1.557,0.99,2.328,1.504c0.181-0.157,0.362-0.314,0.542-0.471c-0.503-0.829-1.006-1.659-1.509-2.488
		c0.081-0.115,0.162-0.229,0.242-0.344c1.443,0.977,2.885,1.954,4.37,2.959c1.099-0.993,2.437-0.961,3.919-0.609
		c0.892,0.212,1.877-0.007,2.812,0.074c1.157,0.101,2.456,0.031,3.413,0.552c1.003,0.545,1.656,0.774,2.613,0.057
		c0.334-0.25,1.142-0.307,1.453-0.075c1.272,0.947,2.38,2.118,3.664,3.045c0.633,0.458,1.518,0.565,2.289,0.832
		c0.684,0.237,1.458,0.344,2.032,0.74c1.826,1.261,3.05,0.886,3.581-1.62c1.366,0.638,2.641,1.233,4.063,1.897
		c0.637-1.03,1.787-1.421,3.415-0.836c0.66,0.237,1.557-0.279,2.348-0.289c0.833-0.01,1.675,0.134,2.499,0.29
		c0.425,0.081,0.803,0.392,1.228,0.497c2.233,0.548,4.21,0.092,5.921-1.503c0.238-0.222,0.885-0.379,1.064-0.23
		c1.192,0.99,2.226,0.358,3.366-0.098c0.727-0.291,1.62-0.157,2.362-0.425c1.395-0.502,2.73-1.166,4.098-1.745
		c0.531-0.225,1.149-0.664,1.615-0.549c1.463,0.361,2.439-0.556,2.984-1.438c0.602-0.974,1.364-0.902,2.144-1.266
		c0.965-0.449,2.786,0.05,2.806-1.716c0.013-1.191,0.586-1.398,1.483-1.322c0.788,0.067,1.565,0.264,2.381,0.41
		c0.215-0.422,0.437-0.857,0.649-1.273c2.941,0.706,2.985,0.638,3.281-2.261c0.051-0.498,0.576-1.019,1.002-1.392
		c0.72-0.629,1.533-1.154,2.314-1.712c1.117-0.798,2.241-1.587,3.362-2.38c0.107,0.134,0.213,0.268,0.32,0.402
		c0.071-0.882,0.142-1.765,0.246-3.056c1.549,1.618,2.208,0.385,2.67-0.509c0.451-0.873,0.455-1.966,0.746-2.935
		c0.231-0.769,0.447-1.628,0.948-2.205c0.466-0.536,1.3-0.752,2.239-1.251c1.047,0.198,0.535,0.91-0.165,1.806
		c2.229,0.073,4.248-0.123,6.26-0.073c1.258,0.031,1.983-0.197,2.119-1.583c0.04-0.411,0.473-0.823,0.805-1.157
		c0.558-0.56,1.117-1.16,1.785-1.561c1.713-1.03,2.977-3.054,5.312-2.749c2.359,0.308,3.854-0.909,5.211-2.541
		c0.433-0.521,0.818-1.282,1.374-1.455c1.088-0.338,1.433-0.973,1.798-1.978c0.283-0.779,1.245-1.312,2.272-2.31
		c0,1.296,0,1.98,0,3.299c1.184-0.865,2.771-1.717,2.675-2.003c-0.659-1.961,0.003-3.344,1.359-4.624
		c0.113-0.107,0.079-0.37,0.127-0.635c1.81,1.444,2.842,1.53,4.549,0.324c-0.555-0.418-1.056-0.796-2.013-1.517
		c1.069-0.095,1.683-0.224,2.287-0.19c1.555,0.086,3.465-1.255,3.974-2.695c0.147-0.414,0.807-1,1.127-0.94
		c1.605,0.298,2.32-0.547,2.646-1.777c0.929,0.059,1.806,0.362,2.472,0.11c2.134-0.81,3.875-0.679,5.135,1.438
		c0.02,0.034,0.21-0.034,0.375-0.064c0.049-0.413,0.1-0.839,0.169-1.417c1.809,0.977,3.94,1.113,4.665,3.315
		c0.059,0.181,0.485,0.254,0.75,0.351c0.804,0.294,1.593,0.714,2.423,0.831c1.511,0.214,3.053,0.196,4.571,0.371
		c0.884,0.102,1.817,0.247,2.605,0.627c1.503,0.726,2.71,2.162,4.72,1.166c1.256-0.623,2.718,0.188,3.11,1.613
		c0.284,1.03,0.283,2.063,1.814,1.93c0.893-0.078,1.808,0.106,2.907,0.186c1.279,0.42,2.796,0.971,4.344,1.413
		c1.765,0.504,3.631,0.735,5.308,1.435c0.837,0.35,1.312,0.638,2.1,0.016c0.825-0.651,1.661-0.219,1.484,0.711
		c-0.376,1.983,0.958,2.1,2.109,1.98c1.964-0.204,3.544,0.549,4.915,1.681c0.823,0.679,1.257,0.632,2.045,0.082
		c1.361-0.948,3.861-0.608,4.26,0.714c0.695,2.305,1.667,1.688,2.912,0.787c1.342,0.314,2.709,0.282,4.071,0.35
		c0.709,0.035,1.489,0.093,2.096,0.41c1.228,0.641,2.359,1.466,3.563,2.237c0.195-1.069,0.238-1.721,0.475-2.293
		c0.053-0.127,0.887-0.127,1.185,0.075c1.463,0.991,2.671,2.265,4.623,2.567c1.136,0.176,2.012,0.506,3.007-0.341
		c0.347-0.296,1.467-0.357,1.557-0.181c1.078,2.115,2.961,1.548,4.686,1.546c0.682-0.001,1.382-0.049,2.044,0.079
		c1.04,0.201,2.113,0.871,3.064,0.709c0.881-0.149,1.62-1.13,2.467-1.778c1.234,1.102,3.21,1.102,4.737-0.168
		c1.103-0.917,3.534-1.151,4.231-0.147c0.879,1.267,1.689,1.97,3.206,1.149c0.129-0.069,0.347,0.051,0.511,0.019
		c2.872-0.551,5.979,1.149,8.72-0.91c0.187-0.141,0.79,0.407,1.188,0.388c0.996-0.048,2.72-0.009,2.846-0.412
		c0.472-1.512,1.048-1.044,2.016-0.646c0.457,0.188,1.524-0.062,1.702-0.419c0.844-1.691,2.356-1.637,3.817-1.676
		c1.735-0.046,3.475,0.097,5.209,0.043c0.858-0.026,2.004,0.616,2.429-0.877c0.246-0.865,0.72-1.665,0.965-2.212
		c1.145-0.2,2.326-0.368,3.488-0.622c0.788-0.172,1.55-0.466,2.324-0.702c0.774-0.237,1.581-0.401,2.314-0.728
		c0.511-0.228,0.882-0.88,1.39-0.986c1.314-0.275,2.676-0.308,4.005-0.525c0.833-0.136,1.641-0.431,2.719-0.725
		c0.049-1.306,1.309-1.363,2.647-1.413c0.661-0.025,1.48-0.074,1.936-0.459c0.885-0.745,1.48-1.832,2.355-2.593
		c0.737-0.641,1.667-1.364,2.569-1.449c2.203-0.208,4.438-0.068,6.709-0.068c0.83-1.968,2.312-2.865,4.528-2.716
		c0.67,0.045,1.375-0.394,2.06-0.62c0.811-0.267,1.614-0.751,2.428-0.769c1.421-0.031,2.191-0.553,2.265-1.987
		c0.025-0.481,0.004-0.965,0.004-1.448c0.06,0.171,0.121,0.342,0.182,0.513c0.796-0.06,1.614-0.025,2.382-0.205
		c0.761-0.178,1.479-0.553,2.199-0.88c0.285-0.129,0.743-0.355,0.748-0.548c0.044-1.629,0.843-2.374,2.454-2.443
		c0.302-0.013,0.568-0.528,0.876-0.781c1.405-1.158,2.799-2.332,4.239-3.444c0.664-0.513,1.544-0.781,2.122-1.362
		c1.725-1.733,3.424-3.306,6.021-1.568c0.86-2.094,2.276-3.83,4.238-4.114c1.576-0.229,2.284-0.892,2.984-1.997
		c0.215-0.339,0.348-0.769,0.639-1.013c1.151-0.968,2.314-1.931,3.547-2.791c0.661-0.461,1.475-0.701,2.214-1.052
		c0.795-0.378,1.583-0.771,2.717-1.324c-0.326-0.958,0.013-1.6,1.603-1.146c0.321,0.091,0.831-0.444,1.241-0.71
		c0.66-0.429,1.272-0.95,1.971-1.297c1.075-0.533,2.565-0.35,3.028-1.919c0.054-0.183,0.719-0.316,1.067-0.261
		c3.582,0.571,6.11-1.407,8.566-3.527c0.195-0.168,0.255-0.883,0.109-0.995c-1.637-1.266-0.664-1.601,0.606-2.031
		C899.615,8.005,900.513,6.056,899.803,5.09z M554.797,78.8c-0.446,0.42-1.003,0.72-1.484,1.106
		c-1.315,1.054-2.54,2.242-3.945,3.155c-1.286,0.835-3.288,0.006-3.676-1.392c-0.75-2.708-1.55-5.412-2.085-8.164
		c-0.194-0.997,0.323-2.128,0.491-3.201c0.306-1.965,0.567-3.937,0.903-5.897c0.108-0.628,0.206-1.504,0.631-1.792
		c2.507-1.705,1.211-4.485,2.005-6.653c0.043-0.118-0.332-0.346-0.348-0.537c-0.053-0.631-0.219-1.362,0.031-1.871
		c0.157-0.319,1.191-0.6,1.477-0.398c1.938,1.375,3.153-0.371,4.599-0.973c0.892-0.371,1.685-0.976,2.528-1.466
		c0.196-0.114,0.591-0.174,0.6-0.281c0.161-2.083,1.887-1.706,3.155-2.036c1.4-0.365,1.869-1.364,1.767-2.667
		c2.354-0.643,4.715,1.079,5.007,3.4c0.169,1.341,0.594,2.654,0.97,3.96c0.081,0.282,0.446,0.481,0.678,0.72
		c0.715,0.734,1.575,1.378,2.105,2.228c0.617,0.989,0.193,1.869-1.011,1.984c-1.848,0.177-1.748,0.936-0.99,2.277
		c0.521,0.923,0.978,1.977-0.706,2.595c-0.594,0.218-1.265,1.448-1.163,2.1c0.277,1.765-0.881,2.678-1.921,3.378
		c-1.688,1.137-2.556,2.553-3.541,4.34C559.542,75.128,556.899,76.821,554.797,78.8z M598.005,72.915
		c-0.818,0.483-1.572,1.147-2.198,1.866c-0.861,0.989-1.109,2.402-2.649,2.956c-0.658,0.237-1.027,1.466-0.228,2.415
		c0.229,0.273,0.135,0.818,0.189,1.239c-0.411,0.014-0.822,0.036-1.233,0.04c-2.071,0.019-4.192-0.502-5.968,1.28
		c-0.931,0.934-2.211,1.533-3.377,2.208c-0.282,0.163-0.737,0.024-1.336,0.024c0.396-1.49,0.661-2.608,2.362-2.481
		c0.332,0.025,0.932-0.778,1.055-1.285c0.308-1.263,0.714-2.165,2.202-2.486c0.804-0.173,1.405-1.141,2.187-1.599
		c0.947-0.556,2.037-0.871,2.968-1.448c0.565-0.35,0.946-0.998,1.468-1.577c0.062,0.1,0.266,0.431,0.423,0.686
		c0.817-0.679,1.709-1.231,2.345-1.997c0.866-1.042,2.53-1.618,2.013-3.593c-0.151-0.577,0.655-1.405,1.12-2.306
		C600.624,69.311,599.912,71.789,598.005,72.915z M623.159,36.232c-0.863,1.08-1.688,2.191-2.496,3.314
		c-0.667,0.927-1.255,1.912-1.938,2.827c-1.499,2.008-3.082,3.955-4.524,6.002c-0.365,0.517-0.331,1.315-0.559,2.337
		c-1.505,1.199-2.114-1.304-3.734-0.984c0.413-0.637,0.585-1.084,0.904-1.359c0.812-0.701,1.137-1.481,0.93-2.574
		c-0.212-1.121,0.13-1.937,1.522-1.88c0.29,0.012,0.744-0.166,0.865-0.393c1.55-2.895,3.374-5.679,3.81-9.046
		c0.027-0.206,0.166-0.398,0.423-0.981c0.295,0.794,0.466,1.252,0.709,1.907c1.57-1.313,3.053-2.636,4.638-3.822
		c0.431-0.322,1.208-0.385,1.759-0.264c0.305,0.067,0.622,0.744,0.673,1.176c0.178,1.492-0.028,2.782-1.958,2.971
		C623.817,35.501,623.422,35.903,623.159,36.232z"/>
	<path fill="#323232" d="M281.099,33.58c0-0.934,0.233-1.788-0.043-2.421c-0.9-2.064-1.985-4.047-3.13-6.322
		C276.791,26.885,278.715,32.166,281.099,33.58z"/>
</g>
</svg>
